<svg version="1.1" xmlns="http://www.w3.org/2000/svg" viewBox="0 0 370 390.5156216498464" width="370" height="390.5156216498464" class="excalidraw-svg">
  <!-- svg-source:excalidraw -->
  
  <defs>
    <style class="style-fonts">
      
    </style>
    
  </defs>
  <g stroke-linecap="round" transform="translate(10 10) rotate(0 175 175)"><path d="M128.55 7.39 C142.83 0.53, 161.59 0.94, 177.8 0.95 C194.02 0.96, 210.09 2.66, 225.85 7.46 C241.62 12.26, 258.6 20.62, 272.39 29.75 C286.19 38.89, 298.32 49.97, 308.64 62.27 C318.95 74.57, 327.64 88.47, 334.27 103.56 C340.9 118.65, 346.05 136.34, 348.42 152.81 C350.78 169.28, 351.05 186.11, 348.46 202.4 C345.86 218.69, 339.96 235.63, 332.84 250.57 C325.72 265.5, 316.61 280.02, 305.76 292.03 C294.9 304.03, 281.66 313.97, 267.71 322.6 C253.77 331.23, 237.78 339.34, 222.07 343.8 C206.36 348.26, 189.76 349.71, 173.44 349.35 C157.11 348.99, 139.95 346.52, 124.11 341.65 C108.27 336.77, 92.25 329.14, 78.4 320.09 C64.55 311.04, 51.5 299.77, 41.01 287.35 C30.51 274.92, 21.86 260.38, 15.41 245.55 C8.96 230.72, 4.52 214.78, 2.31 198.36 C0.11 181.94, -0.4 163.36, 2.17 147.03 C4.75 130.7, 10.64 115.09, 17.77 100.38 C24.89 85.67, 34.01 71.15, 44.92 58.78 C55.84 46.42, 67.12 35.53, 83.27 26.19 C99.41 16.84, 129.52 6.38, 141.8 2.72 C154.09 -0.94, 156.44 1.17, 156.98 4.21 M133.81 5.15 C148.11 -1.22, 166.04 0.65, 182.49 1.46 C198.93 2.28, 216.7 4.64, 232.5 10.03 C248.3 15.42, 264.04 24.1, 277.27 33.8 C290.5 43.51, 301.96 55.8, 311.89 68.26 C321.82 80.71, 330.54 93.29, 336.86 108.54 C343.19 123.79, 348.29 143.14, 349.86 159.76 C351.43 176.38, 349.29 192.22, 346.3 208.26 C343.32 224.31, 339.28 241.57, 331.94 256.02 C324.6 270.47, 313.61 283.25, 302.28 294.97 C290.95 306.69, 278.17 318.18, 263.97 326.35 C249.76 334.53, 233.18 339.96, 217.06 344.01 C200.94 348.05, 183.92 351.15, 167.24 350.62 C150.55 350.1, 132.39 346.39, 116.96 340.86 C101.52 335.33, 88 327.07, 74.62 317.45 C61.25 307.83, 47.15 296.29, 36.71 283.15 C26.26 270, 17.96 253.75, 11.93 238.59 C5.9 223.42, 1.93 208.13, 0.53 192.13 C-0.88 176.14, 0.25 158.8, 3.5 142.61 C6.76 126.42, 12.63 109.57, 20.06 94.99 C27.48 80.41, 36.8 66.89, 48.06 55.15 C59.32 43.4, 73.51 33.06, 87.63 24.53 C101.74 16.01, 124.81 6.63, 132.77 3.98 C140.74 1.33, 134.62 5.54, 135.39 8.63" stroke="#f08c00" stroke-width="2" fill="none"/></g><g stroke-linecap="round"><g transform="translate(28 257) rotate(0 158 -7.5)"><path d="M-0.65 0.55 C52.19 -1.99, 263.96 -11.85, 316.93 -14.36 M1.21 -0.2 C53.98 -3.18, 263.84 -13.41, 316.47 -16.15" stroke="#f08c00" stroke-width="2" fill="none"/></g></g><mask/><g stroke-linecap="round"><g transform="translate(198 14) rotate(0 -85.5 123)"><path d="M0.93 0.64 C-27.26 41.62, -141.37 205.73, -169.84 246.47 M-0.04 -0.07 C-28.23 40.5, -141.84 203.59, -170.17 244.59" stroke="#f08c00" stroke-width="2" fill="none"/></g></g><mask/><g stroke-linecap="round"><g transform="translate(348 242) rotate(0 -72.5 -115.5)"><path d="M1.16 0.47 C-22.97 -38.29, -119.46 -193.49, -143.88 -231.92 M0.32 -0.34 C-23.96 -39.03, -119.8 -192.26, -144.24 -230.86" stroke="#f08c00" stroke-width="2" fill="none"/></g></g><mask/><g stroke-linecap="round"><g transform="translate(59 62) rotate(0 34 143.5)"><path d="M1.12 -0.92 C12.19 46.99, 56.34 239.96, 67.61 287.91 M0.25 1.21 C11.03 48.75, 55.1 238.47, 66.46 286.26" stroke="#2f9e44" stroke-width="2" fill="none"/></g></g><mask/><g transform="translate(44.5 47.18228831651311) rotate(0 10.333333333333371 -3.3333333333333144)" stroke="none"><path fill="#2f9e44" d="M -0.54,-0.36 Q -0.54,-0.36 -0.44,-1.12 -0.34,-1.88 0.04,-2.37 0.43,-2.86 0.93,-3.59 1.43,-4.31 1.88,-5.34 2.34,-6.36 2.71,-6.90 3.08,-7.44 3.34,-8.09 3.59,-8.73 3.93,-9.46 4.27,-10.19 4.61,-10.88 4.94,-11.58 5.28,-12.25 5.61,-12.93 5.90,-14.05 6.18,-15.18 6.55,-15.96 6.91,-16.74 6.57,-17.54 6.23,-18.33 6.24,-18.50 6.25,-18.67 6.30,-18.83 6.35,-18.99 6.44,-19.14 6.53,-19.28 6.65,-19.40 6.77,-19.52 6.92,-19.60 7.06,-19.69 7.22,-19.74 7.38,-19.79 7.55,-19.80 7.72,-19.81 7.89,-19.77 8.05,-19.74 8.21,-19.67 8.36,-19.60 8.49,-19.50 8.62,-19.39 8.73,-19.26 8.83,-19.12 8.90,-18.97 8.97,-18.81 8.99,-18.65 9.02,-18.48 8.70,-17.85 8.38,-17.21 7.92,-16.74 7.46,-16.26 7.46,-15.69 7.45,-15.12 7.44,-12.90 7.43,-10.69 7.42,-9.53 7.41,-8.37 7.59,-7.43 7.77,-6.48 7.86,-5.19 7.95,-3.89 8.16,-2.89 8.37,-1.89 8.48,-0.58 8.59,0.73 8.80,1.52 9.01,2.31 9.13,4.37 9.25,6.42 9.29,7.43 9.34,8.45 9.35,9.08 9.37,9.71 9.01,10.97 8.64,12.24 7.89,12.66 7.15,13.08 6.39,13.10 5.63,13.12 5.15,12.87 4.67,12.62 3.71,12.68 2.75,12.75 1.97,12.74 1.20,12.74 0.51,12.74 -0.16,12.74 -0.33,12.72 -0.50,12.70 -0.66,12.64 -0.82,12.58 -0.96,12.48 -1.10,12.38 -1.21,12.26 -1.32,12.13 -1.40,11.98 -1.48,11.83 -1.52,11.66 -1.56,11.50 -1.56,11.33 -1.56,11.16 -1.52,10.99 -1.48,10.83 -1.40,10.68 -1.32,10.53 -1.21,10.40 -1.09,10.27 -0.95,10.18 -0.81,10.08 -0.65,10.02 -0.50,9.96 -0.33,9.94 -0.16,9.92 0.93,9.74 2.04,9.56 2.76,9.47 3.48,9.38 4.40,9.35 5.32,9.31 6.09,9.29 6.86,9.28 7.76,9.27 8.66,9.26 9.43,9.26 10.19,9.26 12.05,9.26 13.91,9.25 14.90,9.25 15.88,9.25 16.68,9.25 17.48,9.25 18.01,9.25 18.54,9.25 19.33,9.25 20.12,9.25 20.61,9.04 21.11,8.84 21.28,8.86 21.45,8.88 21.62,8.94 21.78,9.01 21.92,9.10 22.06,9.20 22.18,9.33 22.29,9.46 22.37,9.61 22.45,9.77 22.50,9.94 22.54,10.11 22.54,10.28 22.54,10.45 22.50,10.62 22.45,10.79 22.37,10.94 22.29,11.10 22.18,11.22 22.06,11.35 21.92,11.45 21.78,11.55 21.62,11.61 21.45,11.67 21.28,11.70 21.11,11.72 20.59,11.52 20.08,11.33 19.19,10.76 18.30,10.18 17.21,9.17 16.11,8.16 16.03,8.09 15.94,8.02 15.89,7.93 15.83,7.84 15.81,7.74 15.79,7.63 15.80,7.53 15.81,7.42 15.85,7.33 15.90,7.23 15.97,7.15 16.04,7.07 16.14,7.02 16.23,6.97 16.34,6.96 16.44,6.94 16.55,6.96 16.65,6.97 16.74,7.02 16.84,7.07 16.91,7.15 16.99,7.22 17.03,7.32 17.08,7.42 17.09,7.52 17.10,7.63 17.08,7.73 17.05,7.84 17.00,7.93 16.95,8.02 16.87,8.09 16.78,8.16 16.69,8.20 16.59,8.24 16.48,8.24 16.38,8.25 16.27,8.22 16.17,8.19 16.08,8.13 15.99,8.07 15.93,7.99 15.86,7.91 15.83,7.80 15.80,7.70 15.80,7.60 15.80,7.49 15.83,7.39 15.86,7.29 15.93,7.21 15.99,7.12 16.08,7.06 16.17,7.00 16.27,6.97 16.37,6.94 16.48,6.95 16.58,6.95 16.68,6.99 16.78,7.03 16.78,7.03 16.78,7.03 18.51,7.57 20.23,8.10 20.67,8.47 21.11,8.84 21.28,8.86 21.45,8.88 21.62,8.94 21.78,9.01 21.92,9.10 22.06,9.20 22.18,9.33 22.29,9.46 22.37,9.61 22.45,9.77 22.50,9.94 22.54,10.10 22.54,10.28 22.54,10.45 22.50,10.62 22.45,10.79 22.37,10.94 22.29,11.10 22.18,11.22 22.06,11.35 21.92,11.45 21.78,11.55 21.62,11.61 21.45,11.67 21.28,11.70 21.11,11.72 21.18,11.79 21.25,11.86 20.68,11.97 20.12,12.07 19.33,12.07 18.54,12.07 18.01,12.07 17.48,12.07 16.68,12.07 15.88,12.07 14.90,12.07 13.92,12.07 12.06,12.07 10.20,12.07 9.44,12.08 8.68,12.08 7.80,12.08 6.91,12.09 6.17,12.10 5.43,12.12 4.62,12.15 3.81,12.18 3.15,12.26 2.49,12.33 1.16,12.54 -0.16,12.74 -0.33,12.72 -0.50,12.70 -0.66,12.64 -0.82,12.58 -0.96,12.48 -1.10,12.38 -1.21,12.26 -1.32,12.13 -1.40,11.98 -1.48,11.83 -1.52,11.66 -1.56,11.50 -1.56,11.33 -1.56,11.16 -1.52,10.99 -1.48,10.83 -1.40,10.68 -1.32,10.53 -1.21,10.40 -1.09,10.27 -0.95,10.18 -0.81,10.08 -0.65,10.02 -0.50,9.96 -0.33,9.94 -0.16,9.92 0.52,9.92 1.21,9.92 1.99,9.92 2.78,9.93 3.32,9.93 3.86,9.94 4.63,10.00 5.40,10.07 5.99,9.93 6.57,9.79 6.55,9.18 6.53,8.56 6.49,7.56 6.45,6.56 6.37,4.78 6.29,3.00 6.04,1.98 5.79,0.95 5.70,-0.18 5.62,-1.33 5.38,-2.52 5.14,-3.71 5.07,-4.85 5.00,-6.00 4.80,-7.19 4.60,-8.38 4.61,-9.55 4.62,-10.71 4.69,-13.53 4.76,-16.34 4.99,-17.12 5.22,-17.90 5.72,-18.12 6.23,-18.33 6.24,-18.50 6.25,-18.67 6.30,-18.83 6.35,-18.99 6.44,-19.14 6.53,-19.28 6.65,-19.40 6.77,-19.52 6.91,-19.60 7.06,-19.69 7.22,-19.74 7.38,-19.79 7.55,-19.80 7.72,-19.81 7.89,-19.77 8.05,-19.74 8.21,-19.67 8.36,-19.60 8.49,-19.50 8.62,-19.39 8.73,-19.26 8.83,-19.12 8.90,-18.97 8.97,-18.81 8.99,-18.65 9.02,-18.48 9.23,-17.94 9.43,-17.40 9.43,-16.59 9.43,-15.79 9.13,-15.13 8.82,-14.46 8.44,-13.10 8.06,-11.73 7.73,-11.06 7.40,-10.39 7.07,-9.71 6.74,-9.04 6.42,-8.35 6.10,-7.66 5.45,-6.42 4.80,-5.18 4.52,-4.60 4.24,-4.02 3.94,-3.39 3.65,-2.76 2.76,-1.58 1.87,-0.41 1.21,-0.02 0.54,0.36 0.49,0.42 0.44,0.48 0.37,0.53 0.31,0.57 0.24,0.60 0.16,0.63 0.08,0.64 0.01,0.65 -0.06,0.64 -0.14,0.64 -0.22,0.61 -0.29,0.58 -0.36,0.54 -0.42,0.49 -0.48,0.44 -0.53,0.38 -0.57,0.31 -0.61,0.24 -0.63,0.16 -0.65,0.08 -0.65,0.01 -0.65,-0.06 -0.63,-0.14 -0.61,-0.22 -0.58,-0.29 -0.54,-0.36 -0.54,-0.36 L -0.54,-0.36 Z"/></g><g transform="translate(127.16666666666663 357.18228831651305) rotate(0 10.333333333333314 10.333333333333371)" stroke="none"><path fill="#2f9e44" d="M 0.54,0.36 Q 0.54,0.36 0.35,1.06 0.17,1.76 -0.33,2.53 -0.84,3.30 -0.95,3.66 -1.06,4.01 -1.20,4.09 -1.34,4.17 -1.50,4.21 -1.65,4.25 -1.81,4.25 -1.97,4.25 -2.13,4.22 -2.29,4.18 -2.43,4.11 -2.57,4.03 -2.69,3.93 -2.82,3.83 -2.91,3.69 -3.00,3.56 -3.06,3.41 -3.12,3.26 -3.14,3.11 -3.16,2.95 -3.15,2.79 -3.13,2.63 -3.07,2.48 -3.02,2.33 -2.93,2.19 -2.84,2.06 -2.72,1.95 -2.60,1.84 -2.88,2.41 -3.16,2.99 -3.07,2.17 -2.97,1.36 -2.64,0.85 -2.30,0.34 -1.95,-0.35 -1.60,-1.04 -1.24,-1.45 -0.88,-1.87 0.42,-2.56 1.73,-3.26 2.47,-3.52 3.20,-3.78 3.77,-3.90 4.33,-4.02 5.57,-4.03 6.80,-4.04 8.38,-2.75 9.96,-1.46 10.73,-0.50 11.50,0.44 11.91,1.38 12.31,2.32 12.64,3.24 12.97,4.16 13.13,4.81 13.29,5.46 13.50,5.99 13.72,6.51 13.87,7.34 14.02,8.17 13.67,9.87 13.32,11.57 13.19,12.50 13.06,13.42 12.76,14.37 12.46,15.32 11.83,16.11 11.19,16.90 10.53,17.86 9.86,18.82 8.44,20.10 7.01,21.37 6.50,22.01 5.98,22.64 5.11,23.12 4.25,23.61 3.33,24.09 2.40,24.58 1.23,24.58 0.05,24.58 0.18,24.52 0.32,24.46 0.13,24.45 -0.04,24.44 -0.22,24.39 -0.39,24.34 -0.55,24.24 -0.71,24.15 -0.85,24.02 -0.98,23.89 -1.08,23.73 -1.17,23.57 -1.23,23.40 -1.29,23.22 -1.30,23.04 -1.31,22.85 -1.28,22.67 -1.25,22.49 -1.18,22.32 -1.10,22.15 -0.99,22.00 -0.88,21.86 -0.73,21.74 -0.59,21.62 -0.42,21.55 -0.25,21.47 -0.07,21.43 0.10,21.40 -0.38,21.66 -0.88,21.92 -0.54,21.37 -0.20,20.82 0.61,20.17 1.42,19.52 2.04,19.22 2.66,18.92 3.76,18.47 4.86,18.01 5.79,17.92 6.73,17.84 8.12,18.25 9.50,18.66 10.27,19.05 11.04,19.45 12.19,19.86 13.34,20.27 14.00,20.33 14.65,20.40 15.45,20.65 16.24,20.90 17.08,20.99 17.91,21.08 18.69,21.10 19.47,21.12 20.15,21.13 20.83,21.13 21.58,20.94 22.33,20.75 22.51,20.77 22.70,20.79 22.87,20.86 23.04,20.92 23.19,21.03 23.35,21.13 23.47,21.27 23.59,21.41 23.68,21.57 23.76,21.74 23.81,21.92 23.85,22.09 23.85,22.28 23.85,22.46 23.81,22.64 23.76,22.82 23.68,22.99 23.59,23.15 23.47,23.29 23.34,23.43 23.19,23.53 23.04,23.64 22.87,23.70 22.69,23.77 22.51,23.79 22.33,23.81 21.81,23.55 21.29,23.30 19.70,22.98 18.11,22.66 18.00,22.64 17.90,22.62 17.80,22.57 17.71,22.52 17.64,22.44 17.57,22.37 17.52,22.27 17.48,22.17 17.47,22.07 17.46,21.96 17.48,21.86 17.51,21.75 17.56,21.66 17.62,21.57 17.70,21.51 17.78,21.44 17.88,21.40 17.98,21.36 18.09,21.36 18.19,21.35 18.29,21.38 18.40,21.41 18.48,21.47 18.57,21.53 18.63,21.62 18.70,21.70 18.73,21.80 18.76,21.91 18.76,22.01 18.76,22.12 18.72,22.22 18.69,22.32 18.62,22.40 18.56,22.49 18.47,22.54 18.38,22.60 18.28,22.63 18.18,22.66 18.07,22.65 17.96,22.64 17.87,22.60 17.77,22.56 17.69,22.49 17.61,22.42 17.55,22.33 17.50,22.24 17.48,22.14 17.46,22.03 17.47,21.93 17.48,21.82 17.53,21.73 17.57,21.63 17.65,21.55 17.72,21.48 17.82,21.43 17.91,21.38 18.02,21.36 18.12,21.35 18.12,21.35 18.12,21.35 20.23,21.05 22.33,20.75 22.51,20.77 22.70,20.79 22.87,20.86 23.04,20.92 23.19,21.03 23.35,21.13 23.47,21.27 23.59,21.41 23.68,21.57 23.76,21.74 23.81,21.92 23.85,22.09 23.85,22.28 23.85,22.46 23.81,22.64 23.76,22.82 23.68,22.99 23.59,23.15 23.47,23.29 23.34,23.43 23.19,23.53 23.04,23.64 22.87,23.70 22.69,23.77 22.51,23.79 22.33,23.81 22.22,23.96 22.12,24.11 21.47,24.15 20.82,24.19 20.11,24.19 19.41,24.18 18.56,24.16 17.71,24.13 17.04,24.08 16.36,24.03 15.37,23.74 14.38,23.45 13.69,23.38 13.01,23.31 12.17,22.95 11.33,22.60 10.49,22.38 9.64,22.17 9.08,21.86 8.52,21.56 7.37,21.24 6.21,20.92 5.57,20.97 4.93,21.01 4.09,21.49 3.26,21.97 2.66,22.35 2.05,22.74 1.76,23.27 1.47,23.81 0.89,24.14 0.32,24.46 0.13,24.45 -0.04,24.44 -0.22,24.39 -0.39,24.34 -0.55,24.24 -0.71,24.15 -0.85,24.02 -0.98,23.89 -1.08,23.73 -1.17,23.57 -1.23,23.40 -1.29,23.22 -1.30,23.04 -1.31,22.85 -1.28,22.67 -1.25,22.49 -1.18,22.32 -1.10,22.15 -0.99,22.00 -0.88,21.86 -0.73,21.74 -0.59,21.62 -0.42,21.55 -0.25,21.47 -0.07,21.43 0.10,21.40 0.96,21.49 1.81,21.59 2.76,21.10 3.71,20.61 4.34,19.85 4.97,19.08 6.25,17.96 7.52,16.84 7.90,16.43 8.27,16.02 8.94,15.16 9.61,14.29 9.82,13.63 10.03,12.98 10.18,11.92 10.34,10.87 10.60,9.25 10.87,7.63 10.47,6.41 10.08,5.18 9.77,4.31 9.46,3.44 9.28,2.88 9.09,2.32 8.47,1.53 7.84,0.74 6.71,-0.16 5.57,-1.08 4.88,-0.99 4.19,-0.89 3.63,-0.70 3.06,-0.51 2.20,-0.15 1.34,0.19 0.97,0.60 0.61,1.00 -0.03,1.78 -0.69,2.56 -0.87,3.29 -1.06,4.01 -1.20,4.09 -1.34,4.17 -1.50,4.21 -1.65,4.25 -1.81,4.25 -1.97,4.25 -2.13,4.22 -2.29,4.18 -2.43,4.11 -2.57,4.03 -2.69,3.93 -2.82,3.83 -2.91,3.69 -3.00,3.56 -3.06,3.41 -3.12,3.26 -3.14,3.11 -3.16,2.95 -3.15,2.79 -3.13,2.63 -3.07,2.48 -3.02,2.33 -2.93,2.19 -2.84,2.06 -2.72,1.95 -2.60,1.84 -2.35,1.68 -2.10,1.52 -1.90,1.03 -1.70,0.53 -1.12,0.08 -0.54,-0.36 -0.49,-0.42 -0.44,-0.48 -0.37,-0.53 -0.31,-0.57 -0.24,-0.60 -0.16,-0.63 -0.08,-0.64 -0.01,-0.65 0.06,-0.64 0.14,-0.64 0.22,-0.61 0.29,-0.58 0.36,-0.54 0.42,-0.49 0.48,-0.44 0.53,-0.38 0.57,-0.31 0.61,-0.24 0.63,-0.16 0.65,-0.08 0.65,-0.01 0.65,0.06 0.63,0.14 0.61,0.22 0.58,0.29 0.54,0.36 0.54,0.36 L 0.54,0.36 Z"/></g></svg>