<svg version="1.1" xmlns="http://www.w3.org/2000/svg" viewBox="0 0 558.3716292909241 362.0656202588699" width="558.3716292909241" height="362.0656202588699" class="excalidraw-svg">
  <!-- svg-source:excalidraw -->
  
  <defs>
    <style class="style-fonts">
      
    </style>
    
  </defs>
  <g stroke-linecap="round" transform="translate(34.98784929259489 101.97493206067202) rotate(0 89 47)"><path d="M0 0 C0 0, 0 0, 0 0 M0 0 C0 0, 0 0, 0 0 M-0.26 6.4 C2.28 3.92, 3.33 1.98, 4.99 0.36 M-0.26 6.4 C1.35 4.39, 2.69 2.65, 4.99 0.36 M0.13 12.04 C4.83 8.52, 5.57 2.97, 10.63 -0.03 M0.13 12.04 C3.21 7.16, 7.88 2.44, 10.63 -0.03 M-0.13 18.44 C4.09 10.95, 12.07 4.47, 15.62 0.33 M-0.13 18.44 C4.87 12.89, 9.97 6.6, 15.62 0.33 M0.27 24.08 C3.92 18.48, 9.18 11.19, 21.26 -0.07 M0.27 24.08 C7.06 17.37, 12.99 10.48, 21.26 -0.07 M0 30.48 C9.6 18.49, 19.37 7.2, 26.25 0.29 M0 30.48 C9.51 19.12, 17.91 9.35, 26.25 0.29 M-0.26 36.88 C12.92 21.36, 26.12 7.86, 31.89 -0.1 M-0.26 36.88 C9.71 25.12, 19.08 14.76, 31.89 -0.1 M0.14 42.52 C11.5 29.03, 21.08 19.32, 36.88 0.26 M0.14 42.52 C12.1 28.38, 24.63 14.27, 36.88 0.26 M-0.12 48.92 C13.62 32.03, 28.65 15.73, 42.52 -0.14 M-0.12 48.92 C14.18 31.02, 29.9 14.22, 42.52 -0.14 M0.27 54.56 C13.59 37.41, 29.2 19.69, 47.51 0.22 M0.27 54.56 C17.92 33.95, 37.13 11.37, 47.51 0.22 M0.01 60.96 C19.43 40.07, 40.27 14.79, 53.15 -0.17 M0.01 60.96 C21.24 36.44, 43.12 12.79, 53.15 -0.17 M-0.25 67.36 C18.32 48.4, 36.38 25.64, 58.14 0.19 M-0.25 67.36 C12.72 52.48, 26.34 39.37, 58.14 0.19 M0.14 73 C24.58 46.81, 46.85 21.17, 63.78 -0.21 M0.14 73 C21.07 48.59, 41.42 25.11, 63.78 -0.21 M-0.12 79.4 C16.32 61.07, 28.03 47.99, 68.77 0.15 M-0.12 79.4 C28.46 47.32, 54.35 15.85, 68.77 0.15 M0.28 85.04 C22.97 57.87, 44.39 32.37, 74.41 -0.24 M0.28 85.04 C16.58 66.1, 32.12 48.58, 74.41 -0.24 M0.01 91.44 C14.98 72.28, 32.76 50, 79.4 0.12 M0.01 91.44 C22.8 67.05, 44.09 41.44, 79.4 0.12 M1.72 95.57 C19.32 74.11, 39.18 53.57, 85.04 -0.28 M1.72 95.57 C26.59 66.57, 52.36 38.61, 85.04 -0.28 M7.36 95.18 C34.58 63.25, 60.04 33.56, 90.03 0.08 M7.36 95.18 C27.2 73.6, 46.65 49.89, 90.03 0.08 M12.35 95.54 C30.41 73.48, 49.86 53.33, 95.67 -0.31 M12.35 95.54 C41.71 60.47, 71.51 26.87, 95.67 -0.31 M17.34 95.9 C46.71 60.47, 77.81 28.48, 100.66 0.05 M17.34 95.9 C38.94 73.21, 58.95 48.92, 100.66 0.05 M22.98 95.5 C43.05 70.65, 64.66 47.13, 106.3 -0.34 M22.98 95.5 C53.63 60.06, 83.79 26.11, 106.3 -0.34 M27.97 95.86 C57.18 63.74, 83.84 32.31, 111.29 0.02 M27.97 95.86 C57.31 63.94, 85.38 30.17, 111.29 0.02 M33.61 95.47 C61.17 62.49, 90.13 30.49, 116.27 0.38 M33.61 95.47 C52.2 74.01, 70.76 53.72, 116.27 0.38 M38.6 95.83 C62.39 67.79, 86.59 40.76, 121.92 -0.02 M38.6 95.83 C65.49 66.18, 90.59 36.26, 121.92 -0.02 M44.24 95.43 C68.27 64.92, 96.28 36.38, 126.91 0.34 M44.24 95.43 C62.97 72.27, 83.11 49.69, 126.91 0.34 M49.23 95.79 C70.89 73.4, 90.18 48.51, 132.55 -0.05 M49.23 95.79 C65.48 74.62, 84.41 56.49, 132.55 -0.05 M54.87 95.4 C86.4 62.14, 115.89 26.01, 137.54 0.31 M54.87 95.4 C74.67 71.08, 96.31 48.85, 137.54 0.31 M59.86 95.76 C84.68 69.78, 104.26 41.89, 143.18 -0.09 M59.86 95.76 C81.48 70.91, 103.01 46.87, 143.18 -0.09 M65.5 95.37 C88.64 70.5, 107.75 46.6, 148.17 0.27 M65.5 95.37 C88.97 69.48, 111.21 41.69, 148.17 0.27 M70.49 95.73 C90.74 70.87, 110.56 47.83, 153.81 -0.12 M70.49 95.73 C98.41 63.1, 125.84 31.54, 153.81 -0.12 M76.13 95.33 C101.57 69.64, 125.4 41.04, 158.8 0.24 M76.13 95.33 C100.59 66.67, 125.1 38.53, 158.8 0.24 M81.12 95.69 C100.21 72.22, 119.68 50.88, 164.44 -0.16 M81.12 95.69 C106.34 66.04, 130.95 36.35, 164.44 -0.16 M86.76 95.3 C114.63 64.92, 140.1 35.96, 169.43 0.2 M86.76 95.3 C108.01 71.24, 130.71 45.23, 169.43 0.2 M91.75 95.66 C119.81 61.91, 145.57 32.87, 175.07 -0.19 M91.75 95.66 C114.13 68.79, 135.72 43.57, 175.07 -0.19 M97.39 95.26 C127.57 59.31, 161.29 22.33, 179.4 0.92 M97.39 95.26 C119.42 71.41, 142.21 46.18, 179.4 0.92 M102.38 95.62 C118.84 72.95, 137.95 55.8, 179.14 7.32 M102.38 95.62 C125.88 69.18, 150.27 41.48, 179.14 7.32 M108.02 95.23 C128.81 68.58, 152.14 45.58, 179.53 12.96 M108.02 95.23 C135.22 61.85, 164 30.52, 179.53 12.96 M113.01 95.59 C128.27 79.69, 144.1 59.85, 179.27 19.36 M113.01 95.59 C135.44 68.05, 159.66 41.58, 179.27 19.36 M118.65 95.19 C141.85 67.51, 163.52 42.71, 179.01 25.76 M118.65 95.19 C132.77 77.54, 148.45 59.2, 179.01 25.76 M123.64 95.55 C140.91 75.44, 154.95 58.67, 179.4 31.4 M123.64 95.55 C142.39 75.89, 159.42 56.22, 179.4 31.4 M129.28 95.16 C146.04 73.29, 167.14 50.99, 179.14 37.8 M129.28 95.16 C142.62 79.49, 156.95 62.98, 179.14 37.8 M134.27 95.52 C148.38 79.7, 158.43 66.03, 179.54 43.44 M134.27 95.52 C151.19 76.78, 167.41 57.7, 179.54 43.44 M139.26 95.88 C150.85 81.77, 162.78 64.99, 179.28 49.84 M139.26 95.88 C148.55 86.95, 157.15 76.72, 179.28 49.84 M144.9 95.48 C153.03 86.95, 158.16 80.89, 179.01 56.24 M144.9 95.48 C152.69 87.18, 161.94 77.92, 179.01 56.24 M149.89 95.84 C157.91 84.17, 167.14 74.24, 179.41 61.88 M149.89 95.84 C160.28 82.83, 173.78 69.46, 179.41 61.88 M155.53 95.45 C162.97 87.31, 172.89 74.85, 179.15 68.28 M155.53 95.45 C163.45 86.42, 171.29 79.31, 179.15 68.28 M160.52 95.81 C166.01 89.39, 169.58 82.94, 179.54 73.92 M160.52 95.81 C165.98 88.93, 171.45 82.39, 179.54 73.92 M166.16 95.41 C172.77 91.32, 174.8 84.6, 179.28 80.32 M166.16 95.41 C170.26 88.63, 176.71 84.19, 179.28 80.32 M171.15 95.77 C173.8 93.43, 176.82 89.1, 179.02 86.72 M171.15 95.77 C173.91 92.36, 177.59 88.47, 179.02 86.72 M176.79 95.38 C177.35 93.99, 178.3 93.23, 179.41 92.36 M176.79 95.38 C177.63 94.84, 178.24 93.93, 179.41 92.36" stroke="#ffec9933" stroke-width="0.5" fill="none"/><path d="M0 0 C61.72 0.65, 121.99 -0.38, 178 0 M0 0 C44.89 -1.21, 88.91 -1.75, 178 0 M178 0 C176.49 37.05, 175.92 75.55, 178 94 M178 0 C178.48 23, 178.1 44.29, 178 94 M178 94 C110.02 93.39, 42.91 94.28, 0 94 M178 94 C110.85 93.9, 42.66 93.52, 0 94 M0 94 C-1.54 61.75, -1.6 25.9, 0 0 M0 94 C0.61 69.75, -0.24 44.89, 0 0" stroke="#f08c00" stroke-width="1" fill="none"/></g><g stroke-linecap="round" transform="translate(118 196.31636586560876) rotate(0 49 41.5)"><path d="M0 0 C0 0, 0 0, 0 0 M0 0 C0 0, 0 0, 0 0 M-0.26 6.4 C1.63 4.2, 3.98 1.1, 4.99 0.36 M-0.26 6.4 C1.55 3.99, 3.96 1.68, 4.99 0.36 M0.13 12.04 C3.06 9, 6.94 6.26, 10.63 -0.03 M0.13 12.04 C4.12 7.88, 7.96 2.17, 10.63 -0.03 M-0.13 18.44 C5.52 13.25, 8.45 8.52, 15.62 0.33 M-0.13 18.44 C6.28 11.95, 11.57 4.53, 15.62 0.33 M0.27 24.08 C5.67 15.86, 13.91 8.86, 21.26 -0.07 M0.27 24.08 C3.96 19.56, 8.29 14.67, 21.26 -0.07 M0 30.48 C10.86 20.99, 18.8 6.27, 26.25 0.29 M0 30.48 C8.63 19.78, 18.35 7.73, 26.25 0.29 M-0.26 36.88 C8.53 27.27, 15.09 18.4, 31.89 -0.1 M-0.26 36.88 C7.44 27.46, 15.46 19.24, 31.89 -0.1 M0.14 42.52 C12.3 29.14, 22.06 17.81, 36.88 0.26 M0.14 42.52 C12.81 28.66, 25.12 13.74, 36.88 0.26 M-0.12 48.92 C11.2 35.86, 21.05 22.53, 42.52 -0.14 M-0.12 48.92 C16.68 28.88, 33.43 9.75, 42.52 -0.14 M0.27 54.56 C13.15 41.96, 23.76 26.16, 47.51 0.22 M0.27 54.56 C17.25 34.25, 34.91 14.27, 47.51 0.22 M0.01 60.96 C20.64 40, 38.91 16.13, 53.15 -0.17 M0.01 60.96 C18.28 39.47, 37.29 16.49, 53.15 -0.17 M-0.25 67.36 C15.82 50.76, 29.48 32.83, 58.14 0.19 M-0.25 67.36 C20.37 41.52, 42.13 17.99, 58.14 0.19 M0.14 73 C21.62 47.48, 41.67 26.89, 63.78 -0.21 M0.14 73 C16.6 55.19, 32.18 35.32, 63.78 -0.21 M-0.12 79.4 C18.46 56.87, 37.63 33.12, 68.77 0.15 M-0.12 79.4 C22.92 53.85, 44.73 26.38, 68.77 0.15 M1.59 83.53 C20.62 61.3, 35.65 42.99, 74.41 -0.24 M1.59 83.53 C15.4 65.38, 30.12 49.63, 74.41 -0.24 M7.23 83.14 C25.15 64.65, 40.23 46.21, 79.4 0.12 M7.23 83.14 C27.38 60.25, 47.23 37.69, 79.4 0.12 M12.22 83.5 C27.8 64.83, 47.16 44.45, 85.04 -0.28 M12.22 83.5 C38.51 53.16, 64.32 22.43, 85.04 -0.28 M17.86 83.1 C41.29 53.73, 67.04 22.23, 90.03 0.08 M17.86 83.1 C41.91 54.45, 67 25.76, 90.03 0.08 M22.85 83.46 C41.25 61.9, 59.92 39.15, 95.67 -0.31 M22.85 83.46 C42.55 61.94, 61.38 39.05, 95.67 -0.31 M28.49 83.07 C49.75 56.26, 72.98 30.73, 98.03 3.07 M28.49 83.07 C49 58.38, 70.8 34.05, 98.03 3.07 M33.48 83.43 C49 61.78, 66.45 42.74, 97.77 9.47 M33.48 83.43 C54.64 58.56, 74.72 35.19, 97.77 9.47 M39.12 83.03 C58.18 61.45, 76.12 42.63, 98.17 15.11 M39.12 83.03 C52.21 68.39, 64.97 54.55, 98.17 15.11 M44.11 83.39 C54.3 69.16, 66.72 56.67, 97.91 21.51 M44.11 83.39 C58.82 66.55, 74.55 49.53, 97.91 21.51 M49.75 83 C62.09 67.05, 75.95 53.21, 98.3 27.15 M49.75 83 C66.4 64.47, 83.28 44.79, 98.3 27.15 M54.74 83.36 C65.78 68.45, 79.67 51.56, 98.04 33.55 M54.74 83.36 C71.33 66.64, 85.52 47.53, 98.04 33.55 M59.73 83.72 C73.64 70.35, 85.8 51.77, 97.78 39.95 M59.73 83.72 C71.77 70.25, 82.7 56.16, 97.78 39.95 M65.37 83.32 C74.61 72.51, 83.81 60.1, 98.17 45.59 M65.37 83.32 C78.03 68.46, 90.1 54.98, 98.17 45.59 M70.36 83.68 C77.29 78.38, 83.67 71.19, 97.91 51.99 M70.36 83.68 C79 73.78, 87.12 64.9, 97.91 51.99 M76 83.29 C82.86 73.13, 91.52 64.57, 98.3 57.63 M76 83.29 C83.28 74.86, 90.52 65.43, 98.3 57.63 M80.99 83.65 C87.04 77.83, 92.65 72.81, 98.04 64.03 M80.99 83.65 C84.61 78.54, 89.12 73.91, 98.04 64.03 M86.63 83.26 C92.07 76.71, 94.52 72.02, 97.78 70.43 M86.63 83.26 C89.81 79.02, 93.04 75.47, 97.78 70.43 M91.62 83.62 C93.49 81.49, 97.06 78.06, 98.18 76.07 M91.62 83.62 C93.58 81.24, 95.14 79.31, 98.18 76.07 M97.26 83.22 C97.53 83.02, 97.65 82.78, 97.91 82.47 M97.26 83.22 C97.48 83, 97.69 82.72, 97.91 82.47" stroke="#ffec9933" stroke-width="0.5" fill="none"/><path d="M0 0 C29.45 2.35, 56.75 1.07, 98 0 M0 0 C33.07 1.42, 65.56 0.98, 98 0 M98 0 C100.38 20.1, 97.31 39.65, 98 83 M98 0 C99.27 19.31, 98.86 37.64, 98 83 M98 83 C69.87 81.84, 37.93 82.07, 0 83 M98 83 C68.22 81.41, 38.58 82.85, 0 83 M0 83 C1.61 65.86, -1.83 45.52, 0 0 M0 83 C1.02 55.14, -0.35 27.7, 0 0" stroke="#f08c00" stroke-width="1" fill="none"/></g><g stroke-linecap="round" transform="translate(33 99.31636586560876) rotate(0 90.5 90.5)"><path d="M0 0 C41.25 1.68, 85.45 0.57, 181 0 M0 0 C59.34 1.54, 119.67 1.91, 181 0 M181 0 C181.3 66.78, 181.19 131.37, 181 181 M181 0 C179.21 46.7, 180.21 92.46, 181 181 M181 181 C139.22 181.15, 94.42 183.64, 0 181 M181 181 C141.12 181.31, 102.58 181.87, 0 181 M0 181 C1.1 124.84, 1.69 72.49, 0 0 M0 181 C2.01 129.22, 0.51 76.52, 0 0" stroke="#1971c2" stroke-width="2" fill="none"/></g><g stroke-linecap="round" transform="translate(34 199.31636586560876) rotate(0 42 39.5)"><path d="M0 0 C24.15 1.27, 45.41 0.44, 84 0 M0 0 C27.83 0.45, 54.81 0.89, 84 0 M84 0 C83.05 15.58, 85.91 34.24, 84 79 M84 0 C82.91 18.08, 83.67 35.39, 84 79 M84 79 C62.15 79.53, 37.83 76.41, 0 79 M84 79 C65.15 78.67, 46.41 78.61, 0 79 M0 79 C-0.65 62.45, -0.09 41.05, 0 0 M0 79 C-0.22 60, -0.39 41.82, 0 0" stroke="#1971c2" stroke-width="2" fill="none"/></g><g transform="translate(18 57.31636586560876) rotate(0 12 3)" stroke="none"><path fill="#1971c2" d="M -0.58,0.29 Q -0.58,0.29 -1.26,-0.80 -1.94,-1.89 -2.46,-2.62 -2.97,-3.34 -3.26,-4.05 -3.55,-4.76 -3.68,-5.38 -3.81,-6.01 -4.13,-6.72 -4.45,-7.42 -4.63,-8.13 -4.81,-8.84 -4.89,-9.45 -4.96,-10.06 -5.00,-10.61 -5.04,-11.17 -5.09,-12.17 -5.14,-13.16 -5.46,-13.70 -5.78,-14.24 -5.76,-14.39 -5.74,-14.53 -5.69,-14.67 -5.64,-14.81 -5.56,-14.93 -5.48,-15.05 -5.37,-15.14 -5.26,-15.24 -5.13,-15.31 -5.01,-15.38 -4.86,-15.42 -4.72,-15.45 -4.58,-15.45 -4.43,-15.45 -4.29,-15.42 -4.15,-15.39 -4.02,-15.32 -3.89,-15.25 -3.78,-15.16 -3.67,-15.06 -3.59,-14.94 -3.50,-14.82 -3.45,-14.69 -3.40,-14.55 -3.38,-14.41 -3.36,-14.26 -2.80,-13.19 -2.25,-12.12 -2.07,-10.64 -1.89,-9.17 -1.28,-7.27 -0.66,-5.38 0.19,-1.90 1.05,1.58 1.99,6.24 2.93,10.89 3.33,13.16 3.73,15.43 4.19,18.42 4.65,21.40 5.12,23.78 5.60,26.16 6.07,27.41 6.53,28.66 6.45,29.18 6.37,29.70 6.41,29.86 6.45,30.01 6.44,30.18 6.44,30.34 6.40,30.49 6.37,30.65 6.29,30.79 6.21,30.94 6.11,31.06 6.00,31.18 5.86,31.27 5.73,31.36 5.58,31.42 5.43,31.48 5.27,31.49 5.11,31.51 4.94,31.49 4.78,31.47 4.63,31.42 4.48,31.36 4.35,31.26 4.22,31.17 4.11,31.05 4.00,30.93 3.93,30.79 3.85,30.64 3.39,29.84 2.92,29.04 2.32,27.79 1.72,26.54 0.86,24.51 0.01,22.48 -0.36,21.28 -0.75,20.08 -1.47,17.88 -2.20,15.68 -3.08,12.71 -3.97,9.74 -4.93,6.47 -5.88,3.20 -6.58,-0.54 -7.29,-4.30 -7.59,-6.17 -7.89,-8.04 -8.30,-10.55 -8.71,-13.06 -8.89,-15.63 -9.07,-18.20 -9.14,-19.91 -9.20,-21.61 -8.45,-23.00 -7.70,-24.39 -6.87,-24.75 -6.04,-25.10 -4.41,-24.88 -2.78,-24.66 -0.59,-23.64 1.59,-22.62 4.02,-20.70 6.44,-18.77 8.64,-16.48 10.84,-14.20 12.43,-11.07 14.02,-7.95 14.42,-5.32 14.83,-2.70 14.10,0.28 13.36,3.27 12.76,5.33 12.16,7.38 11.55,8.41 10.94,9.43 10.71,10.09 10.48,10.74 10.38,10.87 10.27,11.00 10.14,11.09 10.01,11.19 9.87,11.26 9.72,11.32 9.56,11.35 9.40,11.38 9.23,11.36 9.07,11.35 8.92,11.30 8.76,11.25 8.62,11.16 8.49,11.08 8.37,10.96 8.26,10.84 8.18,10.70 8.10,10.56 8.05,10.41 8.00,10.25 8.00,10.09 7.99,9.93 8.02,9.77 8.05,9.61 8.12,9.46 8.19,9.31 9.19,8.17 10.19,7.03 12.21,6.57 14.23,6.11 15.28,5.98 16.34,5.85 18.10,6.09 19.86,6.32 22.41,7.33 24.96,8.33 26.96,9.67 28.97,11.00 30.05,11.58 31.14,12.16 31.85,13.54 32.56,14.92 32.47,16.64 32.37,18.36 31.03,19.83 29.69,21.30 27.35,22.75 25.01,24.19 23.71,24.80 22.40,25.41 20.65,25.98 18.90,26.55 17.43,27.31 15.97,28.08 13.64,28.89 11.31,29.70 11.23,29.73 11.16,29.75 11.08,29.76 11.00,29.77 10.92,29.76 10.85,29.75 10.77,29.72 10.70,29.69 10.63,29.64 10.57,29.60 10.52,29.54 10.47,29.48 10.43,29.41 10.39,29.34 10.38,29.26 10.36,29.18 10.36,29.10 10.36,29.03 10.38,28.95 10.40,28.87 10.44,28.80 10.48,28.73 10.53,28.67 10.58,28.62 10.65,28.57 10.71,28.53 10.54,28.76 10.37,28.99 10.40,28.89 10.44,28.79 10.51,28.71 10.57,28.62 10.66,28.57 10.75,28.51 10.86,28.48 10.96,28.46 11.06,28.47 11.17,28.48 11.27,28.52 11.37,28.56 11.44,28.63 11.52,28.70 11.58,28.79 11.63,28.89 11.65,28.99 11.67,29.10 11.65,29.20 11.64,29.31 11.59,29.40 11.54,29.50 11.47,29.57 11.39,29.65 11.30,29.69 11.20,29.74 11.10,29.75 10.99,29.77 10.89,29.75 10.78,29.73 10.69,29.68 10.60,29.62 10.53,29.54 10.46,29.47 10.42,29.37 10.37,29.27 10.36,29.16 10.36,29.06 10.38,28.96 10.41,28.85 10.47,28.76 10.52,28.67 10.61,28.61 10.69,28.54 10.79,28.50 10.89,28.47 10.99,28.46 11.10,28.46 11.20,28.49 11.30,28.52 11.39,28.59 11.48,28.65 11.54,28.74 11.60,28.82 11.63,28.92 11.66,29.03 11.49,29.36 11.31,29.70 11.23,29.73 11.16,29.75 11.08,29.76 11.00,29.77 10.92,29.76 10.85,29.75 10.77,29.72 10.70,29.69 10.63,29.64 10.57,29.60 10.52,29.54 10.47,29.48 10.43,29.41 10.39,29.34 10.38,29.26 10.36,29.18 10.36,29.10 10.36,29.03 10.38,28.95 10.40,28.87 10.44,28.80 10.48,28.73 10.53,28.67 10.58,28.62 10.65,28.57 10.71,28.53 12.70,27.04 14.68,25.55 16.36,24.71 18.04,23.87 19.64,23.38 21.24,22.89 22.41,22.35 23.58,21.82 25.70,20.57 27.82,19.32 28.85,18.52 29.89,17.71 29.98,16.78 30.06,15.84 29.85,15.04 29.64,14.24 28.55,13.73 27.46,13.23 25.70,12.02 23.95,10.82 21.70,9.90 19.45,8.98 18.05,8.75 16.64,8.52 15.67,8.64 14.69,8.76 13.27,8.90 11.86,9.03 11.17,9.89 10.48,10.74 10.38,10.87 10.27,11.00 10.14,11.09 10.01,11.19 9.87,11.26 9.72,11.32 9.56,11.35 9.40,11.38 9.23,11.36 9.07,11.35 8.92,11.30 8.76,11.25 8.62,11.16 8.49,11.08 8.37,10.96 8.26,10.84 8.18,10.70 8.10,10.56 8.05,10.41 8.00,10.25 8.00,10.09 7.99,9.93 8.02,9.77 8.05,9.61 8.12,9.46 8.19,9.31 8.42,8.66 8.64,8.01 9.11,7.31 9.58,6.60 10.16,4.60 10.75,2.59 11.45,0.09 12.16,-2.40 11.88,-4.59 11.60,-6.78 10.23,-9.57 8.87,-12.36 6.81,-14.52 4.76,-16.68 2.59,-18.44 0.42,-20.21 -1.41,-21.11 -3.26,-22.02 -4.58,-22.35 -5.89,-22.68 -6.23,-22.11 -6.57,-21.53 -6.48,-19.96 -6.40,-18.38 -6.23,-15.94 -6.06,-13.50 -5.65,-10.98 -5.24,-8.46 -4.95,-6.63 -4.65,-4.79 -3.98,-1.16 -3.30,2.45 -2.35,5.71 -1.40,8.97 -0.52,11.91 0.35,14.84 1.08,17.06 1.81,19.28 2.14,20.36 2.48,21.44 3.31,23.41 4.14,25.39 4.81,27.01 5.47,28.62 5.92,29.16 6.37,29.70 6.41,29.86 6.45,30.01 6.44,30.18 6.44,30.34 6.40,30.49 6.37,30.65 6.29,30.79 6.21,30.94 6.11,31.06 6.00,31.18 5.86,31.27 5.73,31.36 5.58,31.42 5.43,31.48 5.27,31.49 5.11,31.51 4.95,31.49 4.78,31.47 4.63,31.42 4.48,31.36 4.35,31.27 4.22,31.17 4.11,31.05 4.00,30.93 3.93,30.79 3.85,30.64 3.93,30.04 4.00,29.45 3.48,28.07 2.97,26.69 2.48,24.25 1.99,21.81 1.54,18.85 1.08,15.90 0.69,13.66 0.30,11.42 -0.62,6.82 -1.55,2.22 -2.39,-1.17 -3.22,-4.57 -3.88,-6.72 -4.55,-8.86 -4.67,-10.11 -4.80,-11.36 -4.91,-12.28 -5.01,-13.20 -5.39,-13.72 -5.78,-14.24 -5.76,-14.39 -5.74,-14.53 -5.69,-14.67 -5.64,-14.81 -5.56,-14.93 -5.48,-15.05 -5.37,-15.14 -5.26,-15.24 -5.13,-15.31 -5.01,-15.38 -4.86,-15.42 -4.72,-15.45 -4.58,-15.45 -4.43,-15.45 -4.29,-15.42 -4.15,-15.39 -4.02,-15.32 -3.89,-15.25 -3.78,-15.16 -3.67,-15.06 -3.59,-14.94 -3.50,-14.82 -3.45,-14.69 -3.40,-14.55 -3.38,-14.41 -3.36,-14.26 -3.10,-13.80 -2.84,-13.33 -2.86,-12.30 -2.87,-11.27 -2.82,-10.28 -2.77,-9.29 -2.67,-8.73 -2.57,-8.18 -2.17,-6.79 -1.77,-5.41 -1.61,-4.88 -1.45,-4.36 -0.90,-3.53 -0.35,-2.70 0.11,-1.49 0.58,-0.29 0.61,-0.21 0.64,-0.14 0.64,-0.06 0.65,0.01 0.64,0.09 0.63,0.16 0.60,0.24 0.57,0.31 0.52,0.38 0.48,0.44 0.42,0.49 0.36,0.54 0.29,0.58 0.22,0.61 0.14,0.63 0.06,0.65 -0.01,0.65 -0.09,0.65 -0.16,0.62 -0.24,0.60 -0.31,0.57 -0.38,0.53 -0.44,0.47 -0.50,0.42 -0.54,0.35 -0.58,0.29 -0.58,0.29 L -0.58,0.29 Z"/></g><g transform="translate(46 246.31636586560876) rotate(0 12.5 -8.5)" stroke="none"><path fill="#1971c2" d="M 0.62,0.20 Q 0.62,0.20 0.50,1.12 0.37,2.04 -0.31,3.08 -1.01,4.12 -0.36,3.68 0.28,3.23 0.24,3.38 0.19,3.52 0.11,3.64 0.04,3.77 -0.06,3.88 -0.16,3.98 -0.29,4.06 -0.42,4.13 -0.56,4.18 -0.70,4.22 -0.85,4.23 -1.00,4.24 -1.14,4.21 -1.29,4.18 -1.42,4.12 -1.56,4.06 -1.67,3.97 -1.79,3.88 -1.88,3.76 -1.97,3.64 -2.03,3.51 -2.09,3.37 -2.12,3.22 -2.15,3.08 -2.14,2.93 -2.13,2.78 -1.73,2.22 -1.33,1.65 -0.92,0.81 -0.51,-0.02 -0.08,-1.19 0.34,-2.35 0.76,-3.50 1.18,-4.66 1.64,-6.27 2.09,-7.89 2.58,-10.00 3.06,-12.10 3.25,-14.37 3.45,-16.63 3.53,-18.75 3.62,-20.87 3.66,-22.92 3.69,-24.97 3.72,-26.17 3.75,-27.37 4.03,-27.83 4.31,-28.28 4.33,-28.43 4.35,-28.58 4.41,-28.72 4.46,-28.86 4.55,-28.98 4.64,-29.10 4.75,-29.20 4.87,-29.30 5.00,-29.37 5.13,-29.44 5.28,-29.47 5.43,-29.50 5.58,-29.50 5.73,-29.50 5.87,-29.46 6.02,-29.42 6.15,-29.35 6.28,-29.28 6.39,-29.18 6.50,-29.08 6.59,-28.95 6.67,-28.83 6.72,-28.69 6.77,-28.55 6.79,-28.40 6.81,-28.25 7.19,-27.87 7.58,-27.50 8.31,-26.07 9.04,-24.64 10.49,-22.05 11.93,-19.46 13.44,-16.00 14.95,-12.53 16.44,-9.38 17.92,-6.22 19.42,-2.85 20.92,0.52 22.39,3.04 23.86,5.55 24.80,7.25 25.73,8.95 25.83,9.64 25.93,10.34 25.99,10.48 26.04,10.62 26.06,10.77 26.08,10.92 26.07,11.07 26.05,11.22 26.00,11.36 25.95,11.50 25.87,11.62 25.79,11.75 25.68,11.85 25.57,11.95 25.44,12.03 25.31,12.10 25.16,12.14 25.02,12.18 24.87,12.18 24.72,12.18 24.57,12.15 24.42,12.12 24.29,12.05 24.15,11.99 24.04,11.89 23.93,11.79 23.84,11.67 23.75,11.55 23.34,10.65 22.93,9.74 22.28,9.19 21.63,8.64 20.38,7.32 19.14,6.00 19.07,5.92 19.00,5.84 18.97,5.74 18.93,5.64 18.93,5.53 18.92,5.42 18.95,5.32 18.98,5.22 19.05,5.13 19.11,5.05 19.19,4.99 19.28,4.92 19.38,4.89 19.48,4.86 19.59,4.86 19.70,4.87 19.80,4.90 19.90,4.94 19.98,5.01 20.06,5.07 20.12,5.16 20.18,5.25 20.20,5.35 20.23,5.46 20.22,5.56 20.21,5.67 20.17,5.77 20.13,5.86 20.06,5.94 19.99,6.02 19.89,6.07 19.80,6.13 19.70,6.15 19.59,6.17 19.49,6.15 19.38,6.14 19.29,6.09 19.19,6.05 19.12,5.97 19.04,5.90 18.99,5.80 18.95,5.71 18.93,5.60 18.92,5.49 18.94,5.39 18.96,5.29 19.01,5.19 19.06,5.10 19.14,5.03 19.22,4.96 19.32,4.92 19.41,4.87 19.52,4.87 19.63,4.86 19.73,4.88 19.83,4.91 19.92,4.96 20.01,5.02 20.01,5.02 20.01,5.02 21.38,6.05 22.76,7.07 23.73,7.68 24.70,8.29 25.32,9.32 25.93,10.34 25.98,10.48 26.04,10.62 26.06,10.77 26.08,10.92 26.07,11.07 26.05,11.22 26.00,11.36 25.95,11.50 25.87,11.62 25.79,11.75 25.68,11.85 25.57,11.95 25.44,12.03 25.31,12.10 25.16,12.14 25.02,12.18 24.87,12.18 24.72,12.18 24.57,12.15 24.42,12.12 24.29,12.05 24.15,11.99 24.04,11.89 23.93,11.79 23.84,11.67 23.75,11.55 23.64,10.83 23.53,10.10 22.61,8.46 21.70,6.81 20.17,4.17 18.64,1.53 17.15,-1.81 15.66,-5.16 14.16,-8.35 12.66,-11.54 11.20,-14.89 9.75,-18.25 8.29,-20.88 6.82,-23.51 5.96,-25.31 5.10,-27.11 4.71,-27.69 4.31,-28.28 4.33,-28.43 4.35,-28.58 4.41,-28.72 4.46,-28.86 4.55,-28.98 4.64,-29.10 4.75,-29.20 4.87,-29.30 5.00,-29.37 5.13,-29.44 5.28,-29.47 5.43,-29.50 5.58,-29.50 5.73,-29.50 5.87,-29.46 6.02,-29.42 6.15,-29.35 6.28,-29.28 6.39,-29.18 6.50,-29.08 6.59,-28.95 6.67,-28.83 6.72,-28.69 6.77,-28.55 6.79,-28.40 6.81,-28.25 6.50,-27.71 6.20,-27.17 6.19,-26.05 6.19,-24.92 6.15,-22.85 6.11,-20.77 6.02,-18.59 5.93,-16.41 5.71,-13.98 5.49,-11.55 4.99,-9.38 4.50,-7.20 4.01,-5.50 3.53,-3.80 3.07,-2.57 2.62,-1.33 2.30,-0.63 1.98,0.06 1.50,1.01 1.01,1.96 0.65,2.60 0.28,3.23 0.24,3.38 0.19,3.52 0.11,3.64 0.04,3.77 -0.06,3.87 -0.16,3.98 -0.29,4.06 -0.42,4.13 -0.56,4.18 -0.70,4.22 -0.85,4.23 -1.00,4.24 -1.14,4.21 -1.29,4.18 -1.42,4.12 -1.56,4.06 -1.67,3.97 -1.79,3.88 -1.88,3.76 -1.97,3.64 -2.03,3.51 -2.09,3.37 -2.12,3.22 -2.15,3.08 -2.14,2.93 -2.13,2.78 -1.82,2.09 -1.52,1.40 -1.07,0.60 -0.62,-0.20 -0.58,-0.27 -0.55,-0.35 -0.50,-0.41 -0.45,-0.47 -0.39,-0.52 -0.32,-0.56 -0.25,-0.59 -0.18,-0.63 -0.10,-0.64 -0.02,-0.65 0.05,-0.64 0.13,-0.64 0.20,-0.61 0.28,-0.59 0.34,-0.55 0.41,-0.50 0.46,-0.45 0.52,-0.39 0.56,-0.32 0.60,-0.25 0.62,-0.18 0.64,-0.10 0.65,-0.02 0.65,0.05 0.63,0.13 0.62,0.20 0.62,0.20 L 0.62,0.20 Z"/></g><g transform="translate(44 236.31636586560876) rotate(0 9 3)" stroke="none"><path fill="#1971c2" d="M 0.54,-0.36 Q 0.54,-0.36 1.25,0.40 1.96,1.18 2.47,1.77 2.99,2.36 4.15,2.90 5.30,3.45 5.83,3.58 6.36,3.71 7.32,3.79 8.29,3.87 9.06,3.88 9.84,3.90 11.16,4.21 12.47,4.52 14.93,4.91 17.38,5.31 17.48,5.33 17.59,5.35 17.68,5.41 17.77,5.46 17.84,5.54 17.91,5.62 17.95,5.72 17.98,5.82 17.99,5.92 18.00,6.03 17.97,6.13 17.94,6.24 17.88,6.32 17.82,6.41 17.74,6.48 17.65,6.54 17.55,6.58 17.45,6.61 17.35,6.61 17.24,6.61 17.14,6.58 17.04,6.54 16.95,6.48 16.87,6.41 16.81,6.33 16.75,6.24 16.72,6.14 16.69,6.03 16.70,5.93 16.70,5.82 16.74,5.72 16.78,5.62 16.85,5.54 16.92,5.46 17.01,5.41 17.10,5.35 17.20,5.33 17.31,5.31 17.41,5.32 17.52,5.33 17.61,5.37 17.71,5.42 17.79,5.49 17.87,5.56 17.92,5.66 17.97,5.75 17.98,5.86 18.00,5.96 17.98,6.06 17.97,6.17 17.92,6.26 17.87,6.36 17.79,6.43 17.71,6.50 17.62,6.55 17.52,6.59 17.42,6.61 17.31,6.62 17.31,6.62 17.31,6.62 14.64,6.61 11.97,6.61 10.88,6.33 9.79,6.05 8.98,6.04 8.16,6.03 7.60,5.99 7.04,5.95 6.41,5.86 5.79,5.77 5.06,5.56 4.34,5.34 3.54,4.92 2.74,4.50 2.09,4.10 1.43,3.70 0.88,2.98 0.33,2.26 -0.10,1.31 -0.54,0.36 -0.58,0.29 -0.61,0.22 -0.63,0.14 -0.65,0.06 -0.65,-0.01 -0.65,-0.08 -0.63,-0.16 -0.61,-0.24 -0.57,-0.31 -0.53,-0.38 -0.48,-0.44 -0.42,-0.49 -0.36,-0.54 -0.29,-0.58 -0.22,-0.61 -0.14,-0.64 -0.06,-0.64 0.01,-0.65 0.08,-0.64 0.16,-0.63 0.24,-0.60 0.31,-0.57 0.37,-0.53 0.44,-0.48 0.49,-0.42 0.54,-0.36 0.54,-0.36 L 0.54,-0.36 Z"/></g><g transform="translate(147 239.31636586560876) rotate(0 13.5 -3)" stroke="none"><path fill="#f08c00" d="M -1.24,-0.41 Q -1.24,-0.41 -1.35,-1.41 -1.46,-2.42 -0.41,-3.95 0.62,-5.49 1.66,-6.71 2.70,-7.94 3.76,-8.95 4.82,-9.97 6.25,-11.07 7.68,-12.18 8.68,-13.34 9.67,-14.50 10.37,-15.53 11.06,-16.56 12.05,-17.71 13.03,-18.86 14.20,-19.97 15.38,-21.08 15.61,-21.20 15.84,-21.32 16.09,-21.37 16.35,-21.43 16.61,-21.43 16.87,-21.42 17.12,-21.36 17.37,-21.29 17.60,-21.17 17.83,-21.04 18.02,-20.87 18.21,-20.69 18.35,-20.48 18.50,-20.26 18.59,-20.02 18.67,-19.77 18.70,-19.51 18.73,-19.25 18.69,-19.00 18.66,-18.74 18.56,-18.50 18.46,-18.26 18.31,-18.05 18.16,-17.83 17.97,-17.66 17.77,-17.50 16.69,-19.20 15.62,-20.91 15.85,-21.03 16.08,-21.15 16.34,-21.20 16.59,-21.26 16.85,-21.26 17.11,-21.25 17.36,-21.19 17.61,-21.12 17.84,-21.00 18.07,-20.87 18.26,-20.70 18.45,-20.52 18.60,-20.31 18.74,-20.09 18.83,-19.85 18.92,-19.60 18.94,-19.34 18.97,-19.09 18.93,-18.83 18.90,-18.57 18.80,-18.33 18.71,-18.09 18.56,-17.88 18.41,-17.66 18.21,-17.50 18.01,-17.33 17.70,-15.64 17.38,-13.95 17.05,-11.96 16.72,-9.96 16.55,-8.75 16.38,-7.55 16.01,-5.53 15.64,-3.52 15.20,-0.97 14.76,1.57 14.28,3.85 13.81,6.13 13.31,8.00 12.81,9.88 12.47,11.67 12.13,13.46 10.59,14.66 9.05,15.86 7.76,15.63 6.48,15.40 5.09,15.29 3.69,15.18 2.21,15.17 0.72,15.16 0.46,15.13 0.21,15.10 -0.03,15.00 -0.27,14.91 -0.49,14.76 -0.70,14.61 -0.87,14.41 -1.04,14.22 -1.16,13.98 -1.28,13.75 -1.34,13.50 -1.40,13.24 -1.40,12.98 -1.40,12.72 -1.34,12.47 -1.27,12.22 -1.15,11.99 -1.03,11.76 -0.85,11.56 -0.68,11.37 -0.46,11.22 -0.25,11.07 -0.00,10.98 0.23,10.89 0.49,10.86 0.75,10.83 2.31,10.83 3.88,10.83 4.97,10.85 6.06,10.87 7.92,10.45 9.78,10.02 11.40,9.69 13.02,9.37 14.54,8.95 16.07,8.54 17.11,8.34 18.16,8.13 19.28,8.04 20.40,7.95 21.73,8.24 23.06,8.52 24.85,9.09 26.63,9.66 26.84,9.70 27.05,9.75 27.23,9.86 27.41,9.97 27.54,10.14 27.68,10.30 27.76,10.50 27.83,10.70 27.84,10.91 27.85,11.12 27.79,11.33 27.73,11.53 27.61,11.70 27.49,11.88 27.32,12.01 27.15,12.13 26.95,12.20 26.75,12.26 26.53,12.26 26.32,12.26 26.12,12.19 25.92,12.12 25.75,11.99 25.59,11.86 25.47,11.68 25.35,11.51 25.30,11.30 25.24,11.09 25.25,10.88 25.27,10.67 25.35,10.47 25.43,10.28 25.57,10.12 25.71,9.96 25.89,9.85 26.07,9.74 26.28,9.70 26.49,9.65 26.70,9.68 26.91,9.70 27.10,9.80 27.30,9.89 27.45,10.03 27.60,10.18 27.70,10.37 27.80,10.56 27.83,10.77 27.86,10.98 27.82,11.19 27.79,11.40 27.69,11.59 27.59,11.77 27.43,11.92 27.27,12.06 27.08,12.15 26.89,12.24 26.67,12.26 26.46,12.28 26.46,12.28 26.46,12.28 23.57,12.27 20.67,12.27 18.93,12.50 17.20,12.73 15.52,13.18 13.85,13.63 12.01,13.98 10.16,14.33 8.24,14.73 6.32,15.12 5.10,15.14 3.88,15.16 2.30,15.16 0.72,15.16 0.46,15.13 0.21,15.10 -0.03,15.00 -0.27,14.91 -0.49,14.76 -0.70,14.61 -0.87,14.41 -1.04,14.22 -1.16,13.98 -1.28,13.75 -1.34,13.50 -1.40,13.24 -1.40,12.98 -1.40,12.72 -1.34,12.47 -1.27,12.22 -1.15,11.99 -1.03,11.76 -0.85,11.56 -0.68,11.37 -0.46,11.22 -0.25,11.07 -0.00,10.98 0.23,10.89 0.49,10.86 0.75,10.83 1.76,10.84 2.78,10.85 3.87,10.88 4.97,10.90 6.57,10.96 8.18,11.01 8.40,9.88 8.63,8.75 9.11,6.99 9.59,5.24 10.06,3.04 10.53,0.84 10.98,-1.72 11.42,-4.30 11.78,-6.22 12.13,-8.15 12.32,-9.44 12.50,-10.74 13.01,-13.29 13.51,-15.84 13.78,-16.98 14.04,-18.11 14.83,-19.51 15.62,-20.91 15.85,-21.03 16.08,-21.15 16.34,-21.20 16.59,-21.26 16.85,-21.26 17.11,-21.25 17.36,-21.19 17.61,-21.12 17.84,-21.00 18.07,-20.87 18.26,-20.70 18.45,-20.52 18.60,-20.31 18.74,-20.09 18.83,-19.85 18.92,-19.60 18.94,-19.34 18.97,-19.09 18.94,-18.83 18.90,-18.57 18.80,-18.33 18.71,-18.09 18.56,-17.88 18.41,-17.67 18.21,-17.50 18.01,-17.33 16.69,-19.20 15.38,-21.08 15.61,-21.20 15.84,-21.32 16.09,-21.37 16.35,-21.43 16.61,-21.43 16.87,-21.42 17.12,-21.36 17.37,-21.29 17.60,-21.17 17.83,-21.04 18.02,-20.87 18.21,-20.69 18.35,-20.48 18.50,-20.26 18.58,-20.02 18.67,-19.77 18.70,-19.51 18.73,-19.25 18.69,-19.00 18.66,-18.74 18.56,-18.50 18.46,-18.26 18.31,-18.05 18.16,-17.83 17.97,-17.66 17.77,-17.50 17.03,-16.75 16.29,-16.01 15.46,-15.05 14.64,-14.10 13.78,-12.87 12.92,-11.64 11.62,-10.20 10.32,-8.76 9.06,-7.79 7.79,-6.83 6.57,-5.68 5.35,-4.54 4.67,-3.68 4.00,-2.83 3.31,-1.93 2.61,-1.02 1.93,-0.30 1.24,0.41 1.17,0.55 1.11,0.70 1.01,0.82 0.91,0.94 0.78,1.04 0.65,1.13 0.51,1.19 0.36,1.26 0.20,1.28 0.05,1.31 -0.10,1.29 -0.26,1.28 -0.41,1.23 -0.56,1.18 -0.69,1.10 -0.83,1.01 -0.93,0.90 -1.04,0.78 -1.12,0.65 -1.20,0.51 -1.25,0.36 -1.29,0.21 -1.30,0.05 -1.30,-0.10 -1.27,-0.26 -1.24,-0.41 -1.24,-0.41 L -1.24,-0.41 Z"/></g><g transform="translate(107 138.31636586560876) rotate(0 20.5 12.5)" stroke="none"><path fill="#f08c00" d="M -0.31,-1.27 Q -0.31,-1.27 0.77,-1.77 1.87,-2.28 3.05,-2.69 4.23,-3.10 5.33,-3.36 6.43,-3.62 7.73,-4.21 9.03,-4.81 10.57,-5.39 12.11,-5.98 13.47,-6.26 14.83,-6.55 16.32,-6.67 17.82,-6.79 19.05,-6.83 20.28,-6.88 22.03,-6.25 23.78,-5.63 24.96,-4.61 26.14,-3.59 26.74,-2.22 27.35,-0.85 26.96,1.20 26.58,3.26 25.76,4.96 24.95,6.67 23.71,8.57 22.46,10.48 20.78,12.73 19.09,14.98 17.52,17.07 15.96,19.15 14.38,20.96 12.80,22.77 11.47,23.91 10.14,25.05 9.35,25.77 8.56,26.48 6.93,27.16 5.29,27.84 4.13,27.93 2.97,28.03 2.72,28.03 2.47,28.02 2.22,27.96 1.98,27.90 1.76,27.78 1.54,27.66 1.35,27.49 1.17,27.32 1.03,27.11 0.89,26.90 0.80,26.66 0.72,26.43 0.69,26.18 0.67,25.93 0.70,25.68 0.73,25.43 0.83,25.20 0.92,24.96 1.07,24.76 1.21,24.56 1.40,24.39 1.59,24.23 1.82,24.12 2.04,24.00 2.28,23.95 2.53,23.89 3.56,23.03 4.59,22.17 6.73,21.17 8.86,20.17 10.07,19.58 11.29,18.99 12.60,18.66 13.91,18.33 15.12,18.21 16.32,18.08 17.45,18.37 18.58,18.65 19.56,19.08 20.54,19.51 22.50,20.82 24.47,22.13 25.63,23.10 26.80,24.08 27.42,24.94 28.04,25.81 29.05,26.63 30.05,27.46 31.76,26.87 33.46,26.27 34.95,25.18 36.43,24.09 38.15,23.16 39.87,22.22 40.05,22.11 40.24,22.01 40.44,21.97 40.65,21.92 40.86,21.95 41.07,21.98 41.26,22.07 41.46,22.16 41.61,22.31 41.76,22.46 41.86,22.65 41.95,22.84 41.98,23.05 42.01,23.26 41.98,23.47 41.94,23.68 41.83,23.86 41.73,24.05 41.57,24.19 41.42,24.34 41.22,24.42 41.03,24.51 40.82,24.53 40.61,24.55 40.40,24.50 40.19,24.45 40.01,24.34 39.83,24.22 39.70,24.06 39.56,23.89 39.49,23.70 39.41,23.50 39.41,23.28 39.40,23.07 39.46,22.87 39.52,22.66 39.64,22.49 39.76,22.32 39.93,22.19 40.11,22.07 40.31,22.00 40.51,21.94 40.72,21.94 40.94,21.94 41.14,22.02 41.34,22.09 41.50,22.22 41.67,22.35 41.79,22.53 41.90,22.71 41.95,22.91 42.01,23.12 41.99,23.33 41.98,23.54 41.90,23.74 41.81,23.93 41.67,24.09 41.53,24.25 41.53,24.25 41.53,24.25 40.40,25.94 39.27,27.64 38.39,28.31 37.50,28.98 36.03,29.81 34.56,30.65 33.01,30.96 31.46,31.28 29.03,30.55 26.60,29.83 25.33,28.54 24.06,27.24 23.10,26.42 22.14,25.59 20.49,24.46 18.84,23.33 17.72,22.78 16.60,22.23 14.85,22.49 13.10,22.76 11.89,23.35 10.67,23.95 9.11,24.70 7.55,25.45 6.32,25.63 5.10,25.82 4.03,26.93 2.97,28.03 2.72,28.03 2.47,28.02 2.22,27.96 1.98,27.90 1.76,27.78 1.54,27.66 1.36,27.49 1.17,27.32 1.03,27.11 0.89,26.90 0.81,26.66 0.72,26.43 0.69,26.18 0.67,25.93 0.70,25.68 0.73,25.43 0.83,25.20 0.92,24.96 1.06,24.76 1.21,24.56 1.40,24.39 1.59,24.23 1.82,24.12 2.04,24.00 2.28,23.95 2.53,23.89 3.04,23.86 3.55,23.84 4.68,23.60 5.82,23.36 6.65,22.63 7.47,21.89 8.59,20.97 9.70,20.05 11.18,18.36 12.66,16.67 14.22,14.59 15.79,12.50 17.41,10.36 19.02,8.21 20.15,6.52 21.27,4.84 21.96,3.51 22.65,2.17 23.10,1.15 23.56,0.13 22.88,-0.94 22.20,-2.01 21.24,-2.50 20.28,-2.99 19.19,-2.95 18.10,-2.90 16.84,-2.82 15.57,-2.74 14.51,-2.55 13.44,-2.36 11.98,-1.83 10.51,-1.30 8.22,-0.59 5.93,0.11 4.33,0.62 2.72,1.13 1.52,1.20 0.31,1.27 0.16,1.29 0.00,1.31 -0.15,1.29 -0.31,1.27 -0.45,1.22 -0.60,1.16 -0.73,1.07 -0.86,0.98 -0.97,0.86 -1.07,0.74 -1.15,0.60 -1.22,0.46 -1.26,0.31 -1.30,0.16 -1.30,0.00 -1.30,-0.15 -1.26,-0.30 -1.22,-0.46 -1.15,-0.60 -1.08,-0.74 -0.97,-0.86 -0.87,-0.98 -0.74,-1.07 -0.61,-1.16 -0.46,-1.21 -0.31,-1.27 -0.31,-1.27 L -0.31,-1.27 Z"/></g><g stroke-linecap="round" transform="translate(306.3912506321507 151.63471225332864) rotate(0 89 85)"><path d="M0 0 C50.02 1.43, 103.97 2.99, 178 0 M0 0 C62.18 -0.48, 127.21 -1.7, 178 0 M178 0 C178.56 56.93, 175.65 116.95, 178 170 M178 0 C179.72 37.97, 178.16 74.92, 178 170 M178 170 C138.56 170.47, 95.53 172.2, 0 170 M178 170 C109.41 168.4, 39.55 168.34, 0 170 M0 170 C-2.42 119.49, 0.2 67.82, 0 0 M0 170 C-2.25 133.39, -2.23 94.02, 0 0" stroke="#1971c2" stroke-width="1" fill="none"/></g><g stroke-linecap="round" transform="translate(369.3912506321507 68.96399535086027) rotate(0 89 85)"><path d="M0 0 C58.61 -0.49, 117.81 0.12, 178 0 M0 0 C40.25 -0.63, 80.7 -0.88, 178 0 M178 0 C177.6 48.84, 177.56 94.82, 178 170 M178 0 C178.58 46.38, 178.54 92.88, 178 170 M178 170 C138.45 169.53, 96.56 171.44, 0 170 M178 170 C142.56 170.66, 105.8 171.91, 0 170 M0 170 C-1.2 127.88, -0.94 87.89, 0 0 M0 170 C0.15 125.17, 0.61 82.52, 0 0" stroke="#1971c2" stroke-width="1" fill="none"/></g><g stroke-linecap="round"><g transform="translate(481.3912506321507 152.63471225332864) rotate(0 31.5 -41)"><path d="M0 0 C14.89 -22.91, 33.47 -42.85, 63 -82 M0 0 C15.64 -22.08, 31.68 -42.6, 63 -82" stroke="#1971c2" stroke-width="1" fill="none"/></g></g><mask/><g stroke-linecap="round"><g transform="translate(486.3912506321507 316.63471225332864) rotate(0 30 -39.5)"><path d="M0 0 C17.47 -20.49, 30.65 -42.17, 60 -79 M0 0 C19.01 -25.33, 36.36 -51, 60 -79" stroke="#1971c2" stroke-width="1" fill="none"/></g></g><mask/><g stroke-linecap="round"><g transform="translate(305.3912506321507 321.63471225332864) rotate(0 31 -40.5)"><path d="M0 0 C13.15 -18.95, 24.21 -34.1, 62 -81 M0 0 C23.47 -30.55, 46.89 -61.32, 62 -81" stroke="#1971c2" stroke-width="1" fill="none"/></g></g><mask/><g stroke-linecap="round"><g transform="translate(308.3912506321507 153.63471225332864) rotate(0 31 -41)"><path d="M0 0 C16.92 -21.89, 32.04 -42.45, 62 -82 M0 0 C18.87 -23.75, 34.45 -45.16, 62 -82" stroke="#1971c2" stroke-width="1" fill="none"/></g></g><mask/><g stroke-linecap="round" transform="translate(306.0800537979043 265.69814308600985) rotate(0 28.65559841712318 27.468284583659397)"><path d="M0 0 C17.21 -0.82, 33.53 -1.93, 57.31 0 M0 0 C17.06 0.58, 34.04 0.64, 57.31 0 M57.31 0 C59.51 18.42, 57.06 32.76, 57.31 54.94 M57.31 0 C57.23 22.51, 58.21 44.66, 57.31 54.94 M57.31 54.94 C43.58 55.13, 25.06 56.8, 0 54.94 M57.31 54.94 C39.99 54.49, 21.67 54.83, 0 54.94 M0 54.94 C-1.3 36.87, -0.39 19.02, 0 0 M0 54.94 C0.37 32.81, 0.62 12.49, 0 0" stroke="#1971c2" stroke-width="1" fill="none"/></g><g stroke-linecap="round" transform="translate(331.3912506321507 231.63471225332864) rotate(0 28 27)"><path d="M0 0 C21.22 1.51, 46.22 -1.51, 56 0 M0 0 C15.62 0.73, 31.52 0.26, 56 0 M56 0 C56.85 11.7, 54.58 22.67, 56 54 M56 0 C55.68 18.88, 56.03 38.28, 56 54 M56 54 C33.36 53.72, 12.45 54.2, 0 54 M56 54 C36.18 52.65, 17.81 53.91, 0 54 M0 54 C0.46 39.93, 0.32 27.37, 0 0 M0 54 C0.29 35.95, -0.21 18.67, 0 0" stroke="#1971c2" stroke-width="1" fill="none"/></g><g stroke-linecap="round"><g transform="translate(305.88976129986077 265.75859525411124) rotate(0 12.561941500391306 -16.873138334637645)"><path d="M0 0 C7.85 -9.41, 16.3 -21.21, 25.12 -33.75 M0 0 C7.16 -9.66, 14.37 -19.88, 25.12 -33.75" stroke="#1971c2" stroke-width="1" fill="none"/></g></g><mask/><g stroke-linecap="round"><g transform="translate(363.32484113488977 265.94888775215475) rotate(0 12.03320474863046 -18.155598417123173)"><path d="M0 0 C0.06 0.01, 0.12 0, 0.25 0 M0 0 C0.06 0.01, 0.12 0.01, 0.25 0 M0.25 0 C5.87 -7.74, 9.62 -14.62, 24.07 -36.31 M0.25 0 C9.01 -13.34, 17.54 -26.42, 24.07 -36.31" stroke="#1971c2" stroke-width="1" fill="none"/></g></g><mask/><g stroke-linecap="round"><g transform="translate(364.07707513332457 320.32053675450254) rotate(0 11 -17)"><path d="M0 0 C5.13 -7.41, 8.23 -15.05, 22 -34 M0 0 C6.64 -9.83, 13.31 -20.04, 22 -34" stroke="#1971c2" stroke-width="1" fill="none"/></g></g><mask/><g transform="translate(283.4384528159172 348.0413188440597) rotate(0 6.036452122215337 -17.773997915411883)" stroke="none"><path fill="#1971c2" d="M 0.29,0.58 Q 0.29,0.58 -0.40,1.21 -1.10,1.84 -1.87,1.80 -2.64,1.76 -3.12,1.41 -3.60,1.07 -4.05,0.31 -4.50,-0.44 -4.58,-1.11 -4.66,-1.79 -4.68,-2.83 -4.71,-3.87 -4.71,-5.65 -4.72,-7.43 -4.53,-10.73 -4.34,-14.04 -4.07,-17.37 -3.80,-20.70 -3.68,-24.00 -3.57,-27.31 -3.52,-29.68 -3.47,-32.05 -3.45,-33.83 -3.43,-35.61 -3.42,-36.55 -3.41,-37.50 -3.40,-38.10 -3.40,-38.70 -3.38,-38.86 -3.35,-39.03 -3.29,-39.18 -3.23,-39.34 -3.14,-39.48 -3.04,-39.61 -2.92,-39.72 -2.79,-39.83 -2.64,-39.91 -2.49,-39.98 -2.33,-40.02 -2.17,-40.06 -2.00,-40.06 -1.83,-40.06 -1.67,-40.02 -1.51,-39.98 -1.36,-39.90 -1.21,-39.82 -1.09,-39.71 -0.97,-39.59 -0.87,-39.46 -0.78,-39.32 -0.72,-39.16 -0.66,-39.00 -0.65,-38.84 -0.63,-38.67 0.14,-37.67 0.91,-36.66 2.17,-34.20 3.42,-31.74 3.99,-30.24 4.55,-28.75 5.71,-26.27 6.88,-23.79 8.54,-20.41 10.20,-17.03 11.51,-13.60 12.82,-10.17 13.75,-7.57 14.69,-4.97 15.10,-3.64 15.50,-2.31 15.70,-1.09 15.89,0.12 16.12,0.70 16.35,1.28 16.30,2.08 16.25,2.87 16.00,3.53 15.74,4.18 15.07,4.63 14.39,5.08 13.47,4.97 12.55,4.87 11.72,4.30 10.89,3.73 9.98,3.09 9.06,2.45 7.69,1.36 6.33,0.28 6.25,0.21 6.17,0.14 6.11,0.05 6.06,-0.03 6.04,-0.14 6.02,-0.24 6.03,-0.35 6.04,-0.45 6.09,-0.55 6.13,-0.65 6.21,-0.72 6.28,-0.80 6.37,-0.85 6.47,-0.90 6.57,-0.91 6.68,-0.93 6.78,-0.91 6.89,-0.89 6.98,-0.84 7.07,-0.79 7.15,-0.71 7.22,-0.63 7.26,-0.54 7.31,-0.44 7.32,-0.33 7.33,-0.23 7.30,-0.12 7.28,-0.02 7.22,0.06 7.17,0.15 7.09,0.22 7.00,0.29 6.90,0.32 6.81,0.36 6.70,0.37 6.59,0.37 6.49,0.34 6.39,0.31 6.30,0.25 6.21,0.19 6.15,0.11 6.09,0.02 6.06,-0.07 6.02,-0.17 6.02,-0.28 6.02,-0.38 6.06,-0.48 6.09,-0.59 6.16,-0.67 6.23,-0.75 6.31,-0.81 6.40,-0.87 6.51,-0.90 6.61,-0.92 6.71,-0.92 6.82,-0.91 6.92,-0.87 7.02,-0.83 7.02,-0.83 7.02,-0.83 8.55,-0.12 10.09,0.58 11.24,1.08 12.40,1.58 13.06,1.84 13.71,2.09 13.41,1.32 13.12,0.55 12.97,-0.47 12.83,-1.50 12.44,-2.76 12.06,-4.02 11.13,-6.60 10.20,-9.17 8.94,-12.48 7.68,-15.79 6.02,-19.20 4.35,-22.60 3.14,-25.18 1.93,-27.77 1.43,-29.12 0.93,-30.47 -0.29,-32.90 -1.53,-35.33 -1.99,-36.33 -2.45,-37.33 -2.93,-38.01 -3.40,-38.70 -3.38,-38.86 -3.35,-39.03 -3.29,-39.18 -3.23,-39.34 -3.14,-39.48 -3.04,-39.61 -2.92,-39.72 -2.79,-39.83 -2.64,-39.91 -2.49,-39.98 -2.33,-40.02 -2.17,-40.06 -2.00,-40.06 -1.83,-40.06 -1.67,-40.02 -1.51,-39.98 -1.36,-39.90 -1.21,-39.82 -1.09,-39.71 -0.97,-39.59 -0.87,-39.46 -0.78,-39.32 -0.72,-39.16 -0.66,-39.00 -0.65,-38.84 -0.63,-38.67 -0.63,-38.07 -0.63,-37.48 -0.64,-36.53 -0.65,-35.57 -0.67,-33.78 -0.69,-31.99 -0.74,-29.60 -0.79,-27.21 -0.91,-23.84 -1.02,-20.47 -1.30,-17.17 -1.57,-13.88 -1.76,-10.66 -1.95,-7.44 -1.94,-5.68 -1.93,-3.92 -1.92,-2.98 -1.90,-2.03 -1.94,-1.16 -1.97,-0.30 -1.13,-0.44 -0.29,-0.58 -0.21,-0.61 -0.14,-0.64 -0.06,-0.64 0.01,-0.65 0.09,-0.64 0.16,-0.63 0.24,-0.60 0.31,-0.57 0.38,-0.52 0.44,-0.48 0.49,-0.42 0.54,-0.36 0.58,-0.29 0.61,-0.22 0.63,-0.14 0.65,-0.06 0.65,0.01 0.65,0.09 0.62,0.16 0.60,0.24 0.57,0.31 0.53,0.38 0.47,0.44 0.42,0.50 0.35,0.54 0.29,0.58 0.29,0.58 L 0.29,0.58 Z"/></g><g transform="translate(276.7312837912334 335.968414599629) rotate(0 8.048602829620478 0.6707169024683708)" stroke="none"><path fill="#1971c2" d="M 0,-0.65 Q 0,-0.65 0.96,-0.81 1.92,-0.97 2.72,-0.98 3.51,-1.00 4.24,-1.01 4.96,-1.02 6.24,-1.04 7.53,-1.05 8.23,-0.83 8.94,-0.61 10.07,-0.52 11.19,-0.43 11.83,-0.18 12.47,0.06 13.92,-0.13 15.37,-0.33 15.47,-0.37 15.56,-0.40 15.67,-0.41 15.78,-0.42 15.88,-0.39 15.98,-0.36 16.07,-0.30 16.16,-0.24 16.22,-0.15 16.28,-0.07 16.32,0.02 16.35,0.12 16.35,0.23 16.35,0.34 16.32,0.44 16.28,0.54 16.22,0.62 16.15,0.71 16.06,0.77 15.98,0.82 15.87,0.85 15.77,0.88 15.66,0.87 15.56,0.87 15.46,0.83 15.36,0.79 15.28,0.72 15.20,0.65 15.15,0.56 15.09,0.47 15.07,0.36 15.05,0.26 15.06,0.15 15.07,0.05 15.12,-0.04 15.16,-0.13 15.23,-0.21 15.31,-0.29 15.40,-0.34 15.50,-0.39 15.60,-0.40 15.71,-0.42 15.81,-0.40 15.91,-0.38 16.01,-0.33 16.10,-0.28 16.17,-0.21 16.25,-0.13 16.29,-0.03 16.34,0.05 16.35,0.16 16.36,0.27 16.33,0.37 16.31,0.47 16.26,0.56 16.20,0.65 16.12,0.72 16.04,0.79 16.04,0.79 16.04,0.79 14.32,1.52 12.60,2.24 11.81,1.96 11.03,1.67 10.35,1.63 9.68,1.60 8.58,1.32 7.48,1.05 6.22,1.04 4.96,1.02 4.24,1.01 3.51,1.00 2.72,0.98 1.92,0.97 0.96,0.81 0,0.65 -0.07,0.64 -0.15,0.63 -0.23,0.60 -0.30,0.58 -0.37,0.53 -0.43,0.49 -0.48,0.43 -0.54,0.37 -0.57,0.30 -0.61,0.23 -0.63,0.15 -0.65,0.07 -0.65,-0.00 -0.65,-0.07 -0.63,-0.15 -0.61,-0.23 -0.57,-0.30 -0.54,-0.37 -0.48,-0.43 -0.43,-0.49 -0.37,-0.53 -0.30,-0.58 -0.23,-0.60 -0.15,-0.63 -0.07,-0.64 0.00,-0.65 0.00,-0.65 L 0,-0.65 Z"/></g><g transform="translate(318.3157317442725 34.81652539132983) rotate(0 16.767922561709327 9.725395085791376)" stroke="none"><path fill="#1971c2" d="M -0.46,0.46 Q -0.46,0.46 -1.18,0.03 -1.90,-0.39 -1.66,0.11 -1.41,0.62 -1.42,1.59 -1.42,2.57 -1.23,3.86 -1.05,5.16 -0.77,7.29 -0.50,9.43 -0.38,10.94 -0.26,12.46 0.17,15.76 0.61,19.05 0.80,20.87 0.99,22.69 1.46,25.74 1.93,28.78 2.71,31.97 3.48,35.15 4.01,37.50 4.53,39.85 4.76,41.05 4.99,42.26 5.08,42.58 5.17,42.89 5.18,43.05 5.19,43.21 5.17,43.36 5.14,43.52 5.07,43.66 5.01,43.81 4.91,43.93 4.81,44.06 4.69,44.16 4.57,44.26 4.42,44.32 4.28,44.39 4.12,44.42 3.96,44.44 3.81,44.44 3.65,44.43 3.50,44.38 3.34,44.33 3.21,44.25 3.07,44.17 2.96,44.06 2.85,43.95 2.76,43.81 2.68,43.68 2.63,43.52 2.59,43.37 2.44,42.76 2.30,42.16 1.86,40.56 1.42,38.96 0.48,36.39 -0.45,33.82 -0.88,32.27 -1.30,30.72 -2.25,27.59 -3.19,24.46 -4.00,20.37 -4.82,16.27 -5.17,12.37 -5.52,8.46 -5.28,4.42 -5.03,0.37 -3.94,-3.92 -2.86,-8.23 -1.21,-12.03 0.42,-15.84 2.34,-18.70 4.27,-21.56 6.62,-22.70 8.97,-23.84 10.64,-22.86 12.30,-21.88 13.44,-19.71 14.59,-17.55 15.42,-14.68 16.25,-11.81 16.41,-8.95 16.57,-6.09 16.24,-3.27 15.91,-0.46 15.38,1.90 14.84,4.27 14.43,6.38 14.02,8.50 14.04,10.00 14.06,11.51 14.54,12.30 15.02,13.08 16.21,13.71 17.40,14.34 19.46,15.24 21.52,16.14 24.13,17.10 26.74,18.06 29.45,19.27 32.16,20.47 34.18,21.82 36.20,23.17 37.23,24.83 38.25,26.49 37.87,28.63 37.49,30.77 35.62,32.76 33.74,34.76 31.15,36.36 28.56,37.97 25.48,39.25 22.41,40.53 19.71,41.27 17.00,42.01 14.84,42.34 12.67,42.66 11.89,41.84 11.12,41.02 11.04,41.03 10.96,41.03 10.88,41.01 10.80,40.99 10.73,40.96 10.66,40.92 10.60,40.87 10.54,40.82 10.49,40.76 10.45,40.69 10.42,40.62 10.39,40.55 10.38,40.47 10.37,40.39 10.37,40.31 10.38,40.23 10.41,40.16 10.43,40.08 10.48,40.02 10.52,39.95 10.58,39.90 10.64,39.84 10.71,39.80 10.77,39.77 10.85,39.75 10.93,39.72 10.97,39.72 11.01,39.72 11.11,39.73 11.22,39.75 11.31,39.80 11.41,39.84 11.48,39.92 11.56,39.99 11.60,40.09 11.65,40.18 11.66,40.29 11.68,40.39 11.66,40.50 11.64,40.60 11.58,40.70 11.53,40.79 11.45,40.86 11.37,40.93 11.28,40.97 11.18,41.01 11.07,41.02 10.97,41.03 10.86,41.00 10.76,40.98 10.67,40.92 10.58,40.86 10.52,40.78 10.45,40.70 10.41,40.60 10.38,40.50 10.37,40.39 10.37,40.28 10.40,40.18 10.43,40.08 10.50,40.00 10.56,39.91 10.64,39.85 10.73,39.79 10.83,39.75 10.93,39.72 11.04,39.73 11.15,39.73 11.25,39.77 11.35,39.80 11.43,39.87 11.51,39.94 11.57,40.03 11.63,40.12 11.65,40.22 11.68,40.32 11.67,40.43 11.66,40.54 11.62,40.63 11.57,40.73 11.50,40.81 11.43,40.89 11.34,40.94 11.25,40.99 11.18,41.01 11.12,41.02 11.04,41.03 10.96,41.03 10.88,41.01 10.80,40.99 10.73,40.96 10.66,40.92 10.60,40.87 10.54,40.82 10.49,40.76 10.45,40.69 10.42,40.62 10.39,40.55 10.38,40.47 10.37,40.39 10.37,40.31 10.38,40.23 10.41,40.16 10.43,40.08 10.48,40.02 10.52,39.95 10.58,39.90 10.64,39.84 10.71,39.80 10.77,39.77 10.85,39.75 10.93,39.73 11.58,39.67 12.23,39.61 14.22,39.33 16.20,39.05 18.73,38.38 21.26,37.71 24.14,36.56 27.02,35.41 29.37,34.04 31.71,32.67 33.28,31.27 34.86,29.88 35.33,28.59 35.80,27.30 35.21,26.33 34.62,25.36 32.83,24.16 31.04,22.96 28.42,21.79 25.79,20.62 23.11,19.62 20.43,18.63 18.21,17.65 15.99,16.67 14.37,15.59 12.75,14.51 12.06,13.10 11.37,11.68 11.36,9.83 11.34,7.99 11.76,5.83 12.18,3.67 12.70,1.43 13.21,-0.79 13.53,-3.37 13.85,-5.95 13.73,-8.51 13.61,-11.07 12.86,-13.71 12.11,-16.35 11.37,-18.07 10.62,-19.79 9.64,-20.68 8.66,-21.58 7.52,-20.78 6.38,-19.98 4.62,-17.38 2.86,-14.78 1.28,-11.17 -0.29,-7.57 -1.34,-3.50 -2.39,0.55 -2.63,4.39 -2.87,8.24 -2.55,12.00 -2.24,15.77 -1.48,19.75 -0.71,23.72 0.22,26.88 1.17,30.04 1.56,31.49 1.96,32.93 2.94,35.60 3.92,38.26 4.38,39.91 4.85,41.55 5.01,42.22 5.17,42.89 5.18,43.05 5.19,43.21 5.17,43.36 5.14,43.52 5.07,43.66 5.01,43.81 4.91,43.93 4.81,44.06 4.69,44.16 4.57,44.26 4.42,44.32 4.28,44.39 4.12,44.42 3.96,44.44 3.81,44.44 3.65,44.43 3.50,44.38 3.34,44.33 3.21,44.25 3.07,44.17 2.96,44.06 2.85,43.95 2.76,43.81 2.68,43.68 2.63,43.52 2.59,43.37 2.49,43.06 2.39,42.75 2.18,41.59 1.96,40.42 1.44,38.09 0.92,35.76 0.14,32.47 -0.62,29.17 -1.08,26.06 -1.54,22.95 -1.72,21.17 -1.90,19.38 -2.33,16.02 -2.76,12.66 -2.87,11.20 -2.99,9.75 -3.26,7.62 -3.53,5.50 -3.72,4.03 -3.92,2.55 -3.91,1.55 -3.90,0.55 -3.81,-0.42 -3.72,-1.40 -3.41,-1.87 -3.10,-2.34 -2.51,-2.49 -1.91,-2.64 -1.16,-2.27 -0.41,-1.91 0.02,-1.19 0.46,-0.46 0.51,-0.40 0.56,-0.33 0.59,-0.26 0.62,-0.19 0.64,-0.11 0.65,-0.03 0.65,0.03 0.64,0.11 0.62,0.19 0.59,0.26 0.55,0.33 0.51,0.40 0.46,0.46 0.40,0.51 0.33,0.55 0.26,0.59 0.19,0.62 0.11,0.64 0.03,0.65 -0.03,0.65 -0.11,0.64 -0.19,0.62 -0.26,0.59 -0.33,0.56 -0.40,0.51 -0.46,0.46 -0.46,0.46 L -0.46,0.46 Z"/></g><g stroke-linecap="round" transform="translate(363.92448111212184 265.5431398404499) rotate(0 60.02916277091933 27.499393001203288)"><path d="M0 0 C40.15 -0.94, 81.14 -0.79, 120.06 0 M0 0 C45.18 0.36, 90.1 -1.09, 120.06 0 M120.06 0 C119 11.37, 117.98 23.55, 120.06 55 M120.06 0 C119.69 19.82, 120.25 40.42, 120.06 55 M120.06 55 C78.02 54.17, 39.4 56.25, 0 55 M120.06 55 C74.55 55.39, 30.1 56.77, 0 55 M0 55 C0.42 40.38, -0.71 30.98, 0 0 M0 55 C0.86 42.73, 1 29.93, 0 0" stroke="#f08c00" stroke-width="0.5" fill="none"/></g><g stroke-linecap="round" transform="translate(389.0763649546858 231.33657781456293) rotate(0 60.02916277091933 27.499393001203288)"><path d="M0 0 C30.97 1.33, 62 0.98, 120.06 0 M0 0 C44.29 -0.25, 87.13 0.33, 120.06 0 M120.06 0 C118.75 15.31, 121.58 29.84, 120.06 55 M120.06 0 C120.74 19.95, 120.31 42.69, 120.06 55 M120.06 55 C85.41 53.89, 46.99 55.35, 0 55 M120.06 55 C76.82 55.65, 34.82 55.44, 0 55 M0 55 C-1.5 36.49, 0.47 14.98, 0 0 M0 55 C-0.23 35.16, -0.76 15.63, 0 0" stroke="#f08c00" stroke-width="0.5" fill="none"/></g><g stroke-linecap="round"><g transform="translate(504.1043137280116 232.0072947170313) rotate(0 -10.731470439493933 16.432564110475113)"><path d="M0 0 C-6.17 9.22, -12.62 19.43, -21.46 32.87 M0 0 C-8.65 12.91, -16.65 25.66, -21.46 32.87" stroke="#f08c00" stroke-width="0.5" fill="none"/></g></g><mask/><g stroke-linecap="round"><g transform="translate(391.4238741133251 230.66586091209456) rotate(0 -14.085054951835815 17.43863946417767)"><path d="M0 0 C-5.75 7.01, -13.17 15.2, -28.17 34.88 M0 0 C-10.25 12.56, -20.46 24.96, -28.17 34.88" stroke="#f08c00" stroke-width="0.5" fill="none"/></g></g><mask/><g stroke-linecap="round"><g transform="translate(389.41172340592 282.9817793046276) rotate(0 -12.408262695664888 17.103281012943512)"><path d="M0 0 C-6.09 10.5, -14.95 19.85, -24.82 34.21 M0 0 C-8.33 12.36, -17.35 24.52, -24.82 34.21" stroke="#f08c00" stroke-width="0.5" fill="none"/></g></g><mask/><g stroke-linecap="round"><g transform="translate(509.4700489477586 288.34751452437456) rotate(0 -12.072904244430674 15.76184720800677)"><path d="M0 0 C-6.87 7.26, -12.56 15.72, -24.15 31.52 M0 0 C-8.81 10.92, -16.77 22.19, -24.15 31.52" stroke="#f08c00" stroke-width="0.5" fill="none"/></g></g><mask/><g stroke-linecap="round" transform="translate(330.38863598870324 233.34872852196804) rotate(0 90.2114233819961 26.82867609873489)"><path d="M0 0 C55.45 -0.64, 111.31 -1.93, 180.42 0 M0 0 C48.66 0.74, 99.24 -0.21, 180.42 0 M180.42 0 C179.51 17.05, 181.05 30.66, 180.42 53.66 M180.42 0 C181.03 16.13, 180.82 34.6, 180.42 53.66 M180.42 53.66 C115.4 51.78, 54.36 53.46, 0 53.66 M180.42 53.66 C135.99 52.06, 90.3 52.38, 0 53.66 M0 53.66 C-1.75 41.53, 0.42 30.25, 0 0 M0 53.66 C-0.82 35.37, 0.02 16.65, 0 0" stroke="#f08c00" stroke-width="0.5" fill="none"/></g><g stroke-linecap="round" transform="translate(366.9427071732295 183.04496083684018) rotate(0 90.2114233819961 26.82867609873489)"><path d="M0 0 C50.04 -0.39, 97.68 -0.28, 180.42 0 M0 0 C64.85 1.29, 130.53 0.07, 180.42 0 M180.42 0 C180.99 12.35, 180.97 22.11, 180.42 53.66 M180.42 0 C179.76 18.04, 181.01 35.07, 180.42 53.66 M180.42 53.66 C138.99 52.39, 93.51 52.93, 0 53.66 M180.42 53.66 C143.09 51.94, 105.24 52.59, 0 53.66 M0 53.66 C1.56 38.69, 1.39 18.35, 0 0 M0 53.66 C-1.16 41.75, 0.12 27.95, 0 0" stroke="#f08c00" stroke-width="0.5" fill="none"/></g><g stroke-linecap="round"><g transform="translate(365.2659149170586 183.7156777393085) rotate(0 -17.103281012943484 23.81045003762722)"><path d="M0 0 C-10.96 13.62, -21.08 28.54, -34.21 47.62 M0 0 C-7.22 10.24, -15.12 21.16, -34.21 47.62" stroke="#f08c00" stroke-width="0.5" fill="none"/></g></g><mask/><g stroke-linecap="round"><g transform="translate(544.3473278761139 183.7156777393085) rotate(0 -19.45079017158281 24.48116694009559)"><path d="M0 0 C-13.74 16.79, -27.69 33.48, -38.9 48.96 M0 0 C-8.98 11.36, -18.41 23.55, -38.9 48.96" stroke="#f08c00" stroke-width="0.5" fill="none"/></g></g><mask/><g stroke-linecap="round"><g transform="translate(548.3716292909241 236.03159613184152) rotate(0 -17.773997915411826 23.475091586393035)"><path d="M0 0 C-13.11 18.9, -26.43 36.12, -35.55 46.95 M0 0 C-13.59 17.3, -25.94 34.6, -35.55 46.95" stroke="#f08c00" stroke-width="0.5" fill="none"/></g></g><mask/><g transform="translate(421.60613472440184 282.3110624021592) rotate(0 8.383961280854663 1.6767922561708986)" stroke="none"><path fill="#f08c00" d="M -1.17,-0.58 Q -1.17,-0.58 -1.18,-1.55 -1.19,-2.52 0.01,-3.84 1.21,-5.16 2.27,-5.88 3.34,-6.60 4.44,-7.23 5.54,-7.85 6.64,-8.60 7.73,-9.35 8.90,-10.39 10.06,-11.42 10.89,-12.37 11.71,-13.33 12.28,-13.98 12.86,-14.63 13.06,-14.81 13.27,-14.99 13.51,-15.12 13.75,-15.25 14.01,-15.31 14.28,-15.38 14.55,-15.38 14.82,-15.38 15.09,-15.31 15.35,-15.25 15.59,-15.12 15.83,-15.00 16.04,-14.82 16.24,-14.64 16.40,-14.41 16.55,-14.19 16.65,-13.94 16.75,-13.68 16.78,-13.41 16.81,-13.14 16.78,-12.87 16.75,-12.60 16.65,-12.34 16.56,-12.09 16.40,-11.86 16.25,-11.64 16.08,-10.59 15.92,-9.54 15.68,-8.42 15.45,-7.29 14.95,-5.21 14.45,-3.14 13.85,-0.88 13.25,1.36 12.81,3.23 12.38,5.10 11.97,6.39 11.56,7.68 11.21,8.77 10.85,9.86 9.90,11.52 8.95,13.17 8.02,14.68 7.09,16.20 5.59,17.27 4.08,18.33 2.87,18.62 1.67,18.91 -0.25,19.30 -2.19,19.68 -3.51,19.53 -4.84,19.38 -6.42,19.03 -7.99,18.68 -8.73,16.44 -9.46,14.20 -8.46,13.59 -7.45,12.98 -5.06,12.94 -2.66,12.90 -0.66,12.71 1.33,12.51 3.65,12.43 5.97,12.34 7.12,12.30 8.28,12.27 10.15,12.25 12.01,12.23 13.96,12.23 15.90,12.22 17.50,12.22 19.10,12.21 20.16,12.21 21.22,12.20 22.51,12.03 23.80,11.86 24.09,11.76 24.39,11.65 24.70,11.62 25.02,11.59 25.33,11.64 25.64,11.69 25.93,11.80 26.22,11.92 26.48,12.11 26.73,12.29 26.93,12.53 27.13,12.77 27.27,13.06 27.41,13.34 27.48,13.65 27.55,13.95 27.54,14.27 27.53,14.58 27.45,14.88 27.37,15.19 27.21,15.46 27.06,15.74 26.85,15.97 26.63,16.20 26.37,16.37 26.10,16.54 24.78,16.39 23.46,16.23 21.96,15.14 20.46,14.05 20.29,13.92 20.12,13.80 20.00,13.62 19.88,13.45 19.82,13.24 19.76,13.04 19.77,12.83 19.78,12.61 19.86,12.42 19.93,12.22 20.07,12.05 20.20,11.89 20.39,11.78 20.57,11.67 20.77,11.62 20.98,11.57 21.19,11.59 21.40,11.61 21.60,11.70 21.79,11.79 21.95,11.93 22.10,12.08 22.20,12.26 22.31,12.45 22.34,12.66 22.38,12.87 22.35,13.08 22.31,13.29 22.22,13.48 22.12,13.67 21.97,13.81 21.81,13.96 21.62,14.05 21.43,14.14 21.22,14.17 21.01,14.19 20.80,14.15 20.59,14.11 20.41,14.00 20.23,13.89 20.09,13.73 19.95,13.57 19.87,13.37 19.79,13.18 19.77,12.97 19.76,12.75 19.81,12.55 19.87,12.34 19.99,12.17 20.10,11.99 20.27,11.86 20.44,11.73 20.64,11.66 20.84,11.59 21.05,11.59 21.26,11.58 21.47,11.65 21.67,11.72 21.67,11.72 21.67,11.72 23.97,11.87 26.28,12.03 25.04,11.95 23.80,11.86 24.09,11.76 24.39,11.65 24.70,11.62 25.02,11.59 25.33,11.64 25.64,11.69 25.93,11.80 26.22,11.92 26.48,12.11 26.73,12.29 26.93,12.53 27.13,12.77 27.27,13.06 27.41,13.34 27.48,13.65 27.55,13.95 27.54,14.27 27.53,14.58 27.45,14.88 27.37,15.19 27.21,15.46 27.06,15.74 26.85,15.97 26.63,16.20 26.37,16.37 26.10,16.54 24.84,16.92 23.57,17.30 22.40,17.30 21.23,17.30 20.17,17.30 19.10,17.30 17.51,17.30 15.92,17.30 13.99,17.31 12.05,17.31 10.25,17.33 8.44,17.34 7.30,17.38 6.16,17.41 3.98,17.49 1.80,17.57 -0.41,17.77 -2.63,17.96 -4.55,17.62 -6.48,17.27 -5.96,15.71 -5.44,14.14 -4.04,14.50 -2.64,14.87 -0.91,14.51 0.80,14.16 2.04,13.73 3.28,13.30 3.89,12.32 4.50,11.34 5.39,9.86 6.29,8.37 6.64,7.29 7.00,6.22 7.35,5.11 7.71,4.01 8.17,2.06 8.63,0.12 9.22,-2.07 9.81,-4.26 10.30,-6.28 10.80,-8.30 11.28,-10.26 11.77,-12.22 12.32,-13.42 12.86,-14.63 13.06,-14.81 13.27,-14.99 13.51,-15.12 13.75,-15.25 14.01,-15.31 14.28,-15.38 14.55,-15.38 14.82,-15.38 15.09,-15.31 15.35,-15.25 15.59,-15.12 15.83,-15.00 16.04,-14.82 16.24,-14.64 16.40,-14.41 16.55,-14.19 16.65,-13.94 16.75,-13.68 16.78,-13.41 16.81,-13.14 16.78,-12.87 16.75,-12.60 16.65,-12.34 16.56,-12.09 16.40,-11.86 16.25,-11.64 15.65,-11.01 15.05,-10.38 14.02,-9.23 12.99,-8.08 11.61,-6.89 10.23,-5.69 8.96,-4.83 7.69,-3.97 6.31,-3.11 4.93,-2.25 3.83,-1.40 2.73,-0.55 1.95,0.01 1.17,0.58 1.08,0.71 0.99,0.85 0.88,0.95 0.76,1.06 0.62,1.14 0.48,1.21 0.33,1.25 0.18,1.30 0.02,1.30 -0.13,1.30 -0.28,1.27 -0.44,1.23 -0.58,1.16 -0.72,1.09 -0.84,0.99 -0.96,0.89 -1.05,0.76 -1.15,0.63 -1.20,0.48 -1.26,0.33 -1.29,0.18 -1.31,0.02 -1.29,-0.13 -1.28,-0.28 -1.22,-0.43 -1.17,-0.58 -1.17,-0.58 L -1.17,-0.58 Z"/></g><g transform="translate(422.94756852933864 198.47144959361265) rotate(0 10.06075353702559 6.707169024683708)" stroke="none"><path fill="#f08c00" d="M -0.48,-1.21 Q -0.48,-1.21 0.38,-1.82 1.26,-2.42 2.62,-3.03 3.98,-3.64 5.95,-4.11 7.93,-4.59 9.86,-4.64 11.80,-4.70 12.93,-4.05 14.06,-3.41 14.62,-2.14 15.18,-0.87 14.90,0.73 14.62,2.33 13.82,3.82 13.02,5.31 12.09,6.69 11.16,8.06 9.81,9.23 8.46,10.39 7.44,11.33 6.42,12.27 5.21,13.02 3.99,13.76 2.15,14.53 0.30,15.29 -0.96,15.70 -2.24,16.10 -2.59,16.14 -2.93,16.18 -3.20,16.22 -3.47,16.26 -3.74,16.23 -4.00,16.20 -4.26,16.11 -4.51,16.02 -4.73,15.87 -4.96,15.72 -5.14,15.52 -5.32,15.32 -5.45,15.08 -5.58,14.85 -5.65,14.59 -5.72,14.33 -5.72,14.06 -5.73,13.79 -5.67,13.52 -5.61,13.26 -5.49,13.02 -5.37,12.78 -5.19,12.57 -5.01,12.37 -4.80,12.21 -4.58,12.06 -4.33,11.96 -4.07,11.86 -3.01,11.29 -1.95,10.71 -0.92,10.35 0.10,9.99 1.43,9.53 2.77,9.06 4.53,9.18 6.28,9.30 7.16,10.72 8.04,12.14 9.21,12.82 10.38,13.50 11.79,13.58 13.19,13.65 14.96,13.32 16.73,12.98 18.10,12.65 19.47,12.32 21.32,12.23 23.18,12.15 23.34,12.13 23.50,12.11 23.65,12.13 23.81,12.15 23.96,12.21 24.10,12.27 24.23,12.36 24.36,12.45 24.47,12.57 24.57,12.69 24.64,12.83 24.71,12.98 24.75,13.13 24.78,13.28 24.78,13.44 24.78,13.60 24.74,13.75 24.70,13.91 24.63,14.05 24.55,14.19 24.44,14.30 24.34,14.42 24.21,14.51 24.07,14.60 23.93,14.65 23.78,14.70 22.98,14.18 22.19,13.66 22.18,13.45 22.18,13.23 22.24,13.03 22.31,12.83 22.44,12.66 22.56,12.49 22.74,12.36 22.91,12.24 23.11,12.18 23.32,12.12 23.53,12.13 23.74,12.14 23.94,12.21 24.14,12.29 24.30,12.42 24.47,12.56 24.58,12.74 24.69,12.92 24.74,13.13 24.79,13.33 24.77,13.55 24.75,13.76 24.66,13.95 24.58,14.15 24.43,14.30 24.29,14.46 24.10,14.56 23.92,14.66 23.71,14.70 23.50,14.74 23.29,14.71 23.08,14.68 22.89,14.58 22.70,14.48 22.55,14.33 22.40,14.18 22.31,13.99 22.22,13.80 22.19,13.59 22.17,13.37 22.21,13.17 22.25,12.96 22.36,12.77 22.47,12.59 22.62,12.45 22.78,12.31 22.98,12.23 23.18,12.15 23.39,12.13 23.60,12.12 23.81,12.17 24.01,12.23 24.19,12.34 24.37,12.46 24.50,12.63 24.63,12.79 23.91,12.47 23.18,12.15 23.34,12.13 23.50,12.11 23.65,12.13 23.81,12.15 23.96,12.21 24.10,12.27 24.23,12.36 24.36,12.45 24.47,12.57 24.57,12.69 24.64,12.83 24.71,12.98 24.75,13.13 24.78,13.28 24.78,13.44 24.78,13.60 24.74,13.75 24.70,13.91 24.63,14.05 24.55,14.19 24.44,14.30 24.34,14.42 24.21,14.51 24.07,14.60 23.93,14.65 23.78,14.70 22.15,15.77 20.53,16.83 19.01,17.17 17.49,17.52 15.19,17.85 12.90,18.19 11.09,18.04 9.27,17.88 7.78,17.37 6.28,16.86 4.53,15.39 2.77,13.92 0.88,14.39 -1.01,14.85 -1.97,15.52 -2.93,16.18 -3.20,16.22 -3.47,16.26 -3.74,16.23 -4.00,16.20 -4.26,16.11 -4.51,16.02 -4.73,15.87 -4.96,15.72 -5.14,15.52 -5.32,15.32 -5.45,15.08 -5.58,14.85 -5.65,14.59 -5.72,14.33 -5.72,14.06 -5.73,13.79 -5.67,13.52 -5.61,13.26 -5.49,13.02 -5.37,12.78 -5.19,12.57 -5.01,12.37 -4.80,12.21 -4.58,12.06 -4.33,11.96 -4.08,11.86 -3.61,11.82 -3.15,11.78 -1.49,11.28 0.16,10.78 1.79,9.88 3.43,8.98 4.54,7.97 5.65,6.95 6.58,6.25 7.52,5.54 8.34,4.32 9.17,3.11 9.64,1.29 10.11,-0.52 8.66,-0.50 7.20,-0.48 6.03,-0.20 4.85,0.06 3.72,0.47 2.59,0.87 1.54,1.04 0.48,1.21 0.33,1.26 0.18,1.30 0.02,1.30 -0.13,1.30 -0.28,1.27 -0.44,1.23 -0.58,1.16 -0.72,1.09 -0.84,0.99 -0.96,0.88 -1.05,0.75 -1.15,0.63 -1.21,0.48 -1.26,0.33 -1.29,0.18 -1.31,0.02 -1.29,-0.13 -1.28,-0.29 -1.22,-0.44 -1.17,-0.58 -1.08,-0.72 -0.99,-0.85 -0.88,-0.96 -0.76,-1.06 -0.62,-1.14 -0.48,-1.21 -0.48,-1.21 L -0.48,-1.21 Z"/></g><g stroke-linecap="round" transform="translate(303.55995988996835 150.8505495183582) rotate(0 91.888215638167 56.675578258577474)"><path d="M0 0 C49.61 1.54, 101.18 0.32, 183.78 0 M0 0 C57 0.91, 112.68 1.63, 183.78 0 M183.78 0 C182.38 46.61, 183.82 88.94, 183.78 113.35 M183.78 0 C183.31 34.34, 184.09 69.54, 183.78 113.35 M183.78 113.35 C119.12 115.31, 58.49 114.81, 0 113.35 M183.78 113.35 C124.01 112.86, 63.78 111.43, 0 113.35 M0 113.35 C-2.16 80.46, 0.11 52.76, 0 0 M0 113.35 C0.31 71.27, 1.12 30.89, 0 0" stroke="#fab005" stroke-width="1" fill="none"/></g><g stroke-linecap="round" transform="translate(368.61949942940055 70.69987967338773) rotate(0 88.19927267459096 55.66950290487492)"><path d="M0 0 C62.29 -0.41, 124.81 -1.14, 176.4 0 M0 0 C65.01 -1.69, 128.28 -0.93, 176.4 0 M176.4 0 C177.95 40.3, 176.37 82.22, 176.4 111.34 M176.4 0 C175.92 36.89, 176.67 73.49, 176.4 111.34 M176.4 111.34 C140.37 114.63, 107.22 113.55, 0 111.34 M176.4 111.34 C126.9 112.4, 78.83 111.48, 0 111.34 M0 111.34 C0.42 73.15, 0.38 30.99, 0 0 M0 111.34 C-0.48 76.92, 0.12 41.75, 0 0" stroke="#fab005" stroke-width="1" fill="none"/></g><g stroke-linecap="round"><g transform="translate(544.3473278761139 69.69380431968511) rotate(0 -29.846902159842557 39.57229724563396)"><path d="M0 0 C-22.27 29.11, -43.9 58.52, -59.69 79.14 M0 0 C-13 17.46, -27.04 34.74, -59.69 79.14" stroke="#fab005" stroke-width="1" fill="none"/></g></g><mask/><g stroke-linecap="round"><g transform="translate(364.5951980145902 73.71810573449534) rotate(0 -28.84082680614 37.56014653822885)"><path d="M0 0 C-13.38 16.22, -25.8 34.25, -57.68 75.12 M0 0 C-14.61 18, -29.21 36, -57.68 75.12" stroke="#fab005" stroke-width="1" fill="none"/></g></g><mask/><g transform="translate(406.1796459676293 107.92466776038236) rotate(0 2.3475091586392693 2.6828676098735116)" stroke="none"><path fill="#fab005" d="M -0.78,1.05 Q -0.78,1.05 -1.82,0.80 -2.85,0.55 -3.73,-0.84 -4.61,-2.23 -4.51,-3.36 -4.41,-4.48 -3.80,-5.47 -3.19,-6.46 -1.55,-7.79 0.07,-9.12 1.83,-10.35 3.59,-11.59 5.35,-12.51 7.11,-13.44 8.63,-14.22 10.15,-15.00 11.60,-15.42 13.06,-15.84 14.81,-15.49 16.57,-15.14 17.44,-14.01 18.31,-12.88 18.58,-11.20 18.86,-9.52 18.51,-7.95 18.16,-6.38 17.35,-4.86 16.53,-3.35 15.55,-2.08 14.56,-0.80 13.21,0.26 11.85,1.32 10.76,2.10 9.67,2.87 8.76,3.43 7.85,3.99 7.31,4.20 6.76,4.42 6.50,4.54 6.23,4.66 5.94,4.72 5.66,4.77 5.37,4.76 5.08,4.74 4.80,4.65 4.52,4.57 4.27,4.42 4.02,4.27 3.81,4.06 3.60,3.86 3.45,3.61 3.30,3.36 3.21,3.08 3.12,2.80 3.10,2.51 3.08,2.22 3.14,1.93 3.19,1.65 3.31,1.38 3.43,1.11 3.60,0.88 3.78,0.65 4.01,0.47 4.24,0.29 5.58,-0.04 6.91,-0.37 8.83,-0.48 10.75,-0.58 12.15,-0.30 13.54,-0.02 15.13,1.08 16.72,2.20 17.66,3.68 18.60,5.16 19.02,6.80 19.43,8.44 19.16,10.06 18.90,11.67 17.86,13.58 16.81,15.48 15.55,16.35 14.29,17.21 13.01,17.93 11.72,18.65 9.68,19.41 7.63,20.16 5.55,20.68 3.48,21.20 1.32,21.44 -0.82,21.69 -2.32,21.80 -3.82,21.91 -5.43,21.53 -7.04,21.15 -8.77,20.39 -10.51,19.63 -11.81,18.51 -13.12,17.38 -13.76,15.31 -14.41,13.24 -14.44,14.44 -14.48,15.64 -14.61,15.35 -14.75,15.06 -14.81,14.75 -14.87,14.44 -14.85,14.12 -14.84,13.81 -14.75,13.50 -14.66,13.20 -14.49,12.93 -14.33,12.65 -14.11,12.43 -13.89,12.20 -13.62,12.03 -13.35,11.87 -13.05,11.77 -12.75,11.67 -12.43,11.65 -12.12,11.63 -11.81,11.68 -11.49,11.73 -11.20,11.86 -10.91,11.99 -10.66,12.18 -10.41,12.37 -10.21,12.62 -10.01,12.87 -8.81,13.49 -7.61,14.10 -7.40,14.14 -7.19,14.18 -7.01,14.28 -6.82,14.38 -6.68,14.54 -6.53,14.70 -6.45,14.89 -6.36,15.09 -6.34,15.30 -6.32,15.51 -6.37,15.72 -6.42,15.92 -6.53,16.10 -6.64,16.28 -6.81,16.42 -6.97,16.55 -7.17,16.63 -7.37,16.70 -7.58,16.71 -7.79,16.72 -8.00,16.66 -8.20,16.60 -8.38,16.48 -8.55,16.36 -8.68,16.18 -8.80,16.01 -8.87,15.81 -8.93,15.61 -8.93,15.40 -8.92,15.18 -8.85,14.98 -8.78,14.78 -8.65,14.62 -8.52,14.45 -8.34,14.33 -8.16,14.22 -7.96,14.16 -7.75,14.11 -7.54,14.12 -7.33,14.14 -7.13,14.22 -6.94,14.30 -6.78,14.44 -6.62,14.58 -6.51,14.77 -6.40,14.95 -6.36,15.16 -6.32,15.37 -6.34,15.58 -6.37,15.79 -6.46,15.98 -6.56,16.17 -6.70,16.32 -6.85,16.48 -7.04,16.57 -7.23,16.67 -7.44,16.70 -7.65,16.73 -7.65,16.73 -7.65,16.73 -10.03,16.94 -12.42,17.16 -13.45,16.40 -14.48,15.64 -14.61,15.35 -14.75,15.06 -14.81,14.75 -14.87,14.44 -14.85,14.12 -14.84,13.81 -14.75,13.50 -14.66,13.20 -14.49,12.93 -14.33,12.65 -14.11,12.43 -13.89,12.20 -13.62,12.03 -13.35,11.87 -13.05,11.77 -12.75,11.67 -12.43,11.65 -12.12,11.63 -11.81,11.68 -11.49,11.73 -11.20,11.86 -10.91,11.99 -10.66,12.18 -10.41,12.37 -10.21,12.62 -10.01,12.87 -10.29,14.29 -10.57,15.72 -10.71,14.25 -10.84,12.79 -9.76,13.52 -8.68,14.26 -7.88,15.01 -7.07,15.77 -5.55,16.25 -4.03,16.73 -2.69,16.67 -1.34,16.60 0.46,16.44 2.28,16.28 4.10,15.84 5.92,15.41 7.61,14.82 9.29,14.23 10.43,13.61 11.57,12.99 12.82,11.75 14.07,10.52 14.20,9.03 14.32,7.55 13.34,6.12 12.36,4.69 10.72,4.34 9.08,4.00 7.92,4.21 6.76,4.42 6.50,4.54 6.23,4.66 5.95,4.72 5.66,4.77 5.37,4.76 5.08,4.74 4.80,4.65 4.52,4.57 4.27,4.42 4.02,4.27 3.81,4.06 3.60,3.86 3.45,3.61 3.30,3.36 3.21,3.08 3.12,2.80 3.10,2.51 3.08,2.22 3.14,1.93 3.19,1.65 3.31,1.38 3.42,1.11 3.60,0.88 3.78,0.65 4.01,0.47 4.24,0.29 5.57,-0.38 6.89,-1.06 7.93,-1.79 8.97,-2.52 9.90,-3.16 10.84,-3.81 11.62,-4.76 12.40,-5.71 13.29,-7.39 14.19,-9.08 14.24,-10.46 14.29,-11.84 13.26,-11.36 12.23,-10.88 10.74,-10.12 9.25,-9.36 7.57,-8.48 5.89,-7.61 4.83,-7.06 3.77,-6.51 2.47,-5.52 1.17,-4.53 0.47,-3.70 -0.23,-2.86 0.27,-1.95 0.78,-1.05 0.90,-0.94 1.01,-0.83 1.10,-0.69 1.18,-0.56 1.23,-0.41 1.28,-0.26 1.29,-0.10 1.31,0.05 1.28,0.20 1.26,0.36 1.19,0.50 1.13,0.65 1.04,0.78 0.94,0.90 0.82,1.00 0.70,1.10 0.55,1.17 0.41,1.24 0.26,1.27 0.10,1.30 -0.05,1.30 -0.20,1.29 -0.36,1.25 -0.51,1.20 -0.65,1.12 -0.78,1.05 -0.78,1.05 L -0.78,1.05 Z"/></g></svg>