<svg version="1.1" xmlns="http://www.w3.org/2000/svg" viewBox="0 0 451 421" width="451" height="421" class="excalidraw-svg">
  <!-- svg-source:excalidraw -->
  
  <defs>
    <style class="style-fonts">
      
    </style>
    
  </defs>
  <g stroke-linecap="round" transform="translate(10 10) rotate(0 215.5 200.5)"><path d="M245.25 1.03 C262.99 0.32, 282.06 9.49, 299.15 16.49 C316.24 23.48, 333.01 32.3, 347.78 43.01 C362.55 53.73, 376.38 66.95, 387.77 80.78 C399.16 94.61, 409.11 110.02, 416.13 125.99 C423.16 141.96, 427.65 159.58, 429.9 176.61 C432.16 193.64, 432.47 211.01, 429.67 228.15 C426.87 245.3, 420.65 263.4, 413.1 279.47 C405.55 295.54, 395.64 311.08, 384.38 324.56 C373.13 338.04, 360.31 350.03, 345.56 360.36 C330.81 370.69, 313.3 380.06, 295.87 386.52 C278.44 392.98, 259.59 397.15, 240.98 399.13 C222.36 401.11, 202.41 400.88, 184.19 398.42 C165.96 395.96, 148.42 391.07, 131.63 384.37 C114.83 377.68, 98.22 368.96, 83.43 358.26 C68.64 347.57, 54.18 334.15, 42.91 320.19 C31.64 306.23, 22.7 290.33, 15.79 274.49 C8.88 258.65, 3.71 242.04, 1.45 225.14 C-0.82 208.24, -0.34 190.35, 2.21 173.1 C4.76 155.85, 9.54 137.55, 16.76 121.64 C23.98 105.74, 33.95 91.11, 45.53 77.67 C57.12 64.24, 71.27 51.68, 86.28 41.06 C101.28 30.45, 118.21 20.44, 135.58 13.98 C152.95 7.53, 170 4.14, 190.5 2.33 C211 0.51, 245.47 1.74, 258.57 3.1 C271.67 4.46, 269.95 6.99, 269.11 10.47 M277.46 8.31 C295.64 9.72, 314.37 20.04, 329.98 29.12 C345.6 38.19, 358.82 50.08, 371.16 62.76 C383.49 75.45, 395.19 90.01, 404 105.22 C412.82 120.43, 419.58 136.95, 424.05 154.01 C428.51 171.06, 431.27 190.12, 430.8 207.53 C430.33 224.95, 426.68 242.21, 421.22 258.5 C415.76 274.79, 407.73 290.8, 398.05 305.27 C388.38 319.74, 376.71 333.27, 363.16 345.3 C349.6 357.34, 333 369.12, 316.72 377.5 C300.44 385.87, 283.3 391.42, 265.47 395.55 C247.65 399.68, 228.23 402.56, 209.77 402.26 C191.32 401.97, 172.48 399.03, 154.74 393.77 C136.99 388.51, 119.38 380.12, 103.32 370.73 C87.26 361.33, 71.47 350.07, 58.39 337.42 C45.31 324.77, 33.62 310.13, 24.85 294.84 C16.08 279.55, 9.64 262.6, 5.76 245.67 C1.87 228.74, 0.96 210.27, 1.54 193.24 C2.12 176.21, 4.36 159.89, 9.23 143.48 C14.11 127.07, 21.25 109.54, 30.79 94.8 C40.33 80.06, 52.55 66.61, 66.48 55.05 C80.4 43.48, 97.64 33.68, 114.33 25.39 C131.03 17.11, 148.79 9.45, 166.66 5.34 C184.54 1.23, 203.26 0.32, 221.59 0.73 C239.93 1.14, 267.62 5.8, 276.68 7.79 C285.73 9.77, 276.86 9.23, 275.93 12.66" stroke="#1971c2" stroke-width="2" fill="none"/></g><g transform="translate(197 151) rotate(0 35 66.5)" stroke="none"><path fill="#1971c2" d="M -0.92,0.92 Q -0.92,0.92 -1.66,1.20 -2.40,1.47 -3.36,2.51 -4.33,3.54 -5.51,4.12 -6.68,4.70 -8.75,6.27 -10.81,7.84 -13.47,9.97 -16.13,12.09 -18.80,15.39 -21.46,18.68 -23.83,21.60 -26.20,24.52 -27.96,27.34 -29.73,30.16 -30.68,32.87 -31.63,35.58 -32.65,38.80 -33.67,42.03 -34.37,45.04 -35.08,48.05 -35.68,51.04 -36.27,54.04 -36.51,57.18 -36.75,60.32 -36.86,63.11 -36.97,65.90 -37.02,68.51 -37.06,71.13 -36.80,73.52 -36.54,75.91 -36.17,77.38 -35.80,78.86 -35.12,80.51 -34.44,82.17 -33.68,83.29 -32.91,84.41 -31.96,85.84 -31.02,87.28 -30.13,88.34 -29.24,89.41 -28.14,90.31 -27.04,91.21 -25.87,92.29 -24.70,93.37 -23.53,94.80 -22.35,96.24 -21.37,96.79 -20.38,97.34 -18.95,98.28 -17.52,99.22 -16.23,99.80 -14.95,100.39 -13.35,101.32 -11.75,102.24 -10.58,102.88 -9.41,103.51 -8.34,104.06 -7.28,104.62 -6.35,105.26 -5.42,105.90 -4.51,106.99 -3.61,108.08 -2.85,108.90 -2.10,109.71 -1.08,111.07 -0.07,112.44 0.92,113.87 1.91,115.30 2.66,116.55 3.42,117.80 4.03,118.92 4.64,120.03 5.34,120.88 6.04,121.73 6.61,123.14 7.17,124.55 8.10,125.69 9.02,126.83 10.42,128.28 11.82,129.73 13.08,130.73 14.34,131.74 15.33,132.15 16.31,132.56 18.95,132.77 21.58,132.97 23.42,133.02 25.26,133.07 26.99,132.83 28.72,132.58 30.93,132.20 33.15,131.81 35.53,131.35 37.92,130.90 40.37,130.42 42.82,129.94 45.15,129.20 47.48,128.46 49.73,127.84 51.97,127.21 53.92,126.42 55.86,125.63 58.00,124.95 60.14,124.27 62.38,123.44 64.62,122.61 66.31,121.74 68.00,120.87 69.80,119.69 71.60,118.50 73.53,117.13 75.45,115.77 77.05,114.39 78.65,113.01 80.30,111.77 81.95,110.52 83.01,109.32 84.07,108.12 85.20,106.94 86.32,105.76 88.06,104.30 89.79,102.84 91.41,101.63 93.02,100.43 94.45,99.16 95.87,97.89 96.96,96.59 98.04,95.29 99.47,93.78 100.89,92.26 101.58,91.01 102.27,89.77 102.91,88.60 103.54,87.43 104.10,86.36 104.65,85.30 105.12,84.11 105.58,82.93 105.73,81.54 105.87,80.16 106.27,78.19 106.67,76.21 106.80,73.60 106.94,70.99 107.00,69.26 107.07,67.52 106.55,65.40 106.03,63.27 105.51,60.76 104.99,58.26 104.48,56.08 103.98,53.90 103.22,51.65 102.47,49.40 101.56,46.67 100.65,43.94 99.44,41.17 98.23,38.40 96.91,36.17 95.60,33.95 94.19,31.87 92.78,29.78 91.59,28.00 90.39,26.21 89.32,24.60 88.24,22.98 87.11,21.95 85.98,20.92 84.73,19.39 83.47,17.86 82.36,16.34 81.26,14.82 80.30,13.72 79.35,12.62 77.92,11.40 76.48,10.18 74.82,9.14 73.17,8.11 71.31,7.08 69.46,6.06 67.73,5.00 66.00,3.94 64.57,3.29 63.14,2.65 61.69,2.09 60.25,1.53 58.75,1.36 57.26,1.20 55.25,0.80 53.25,0.40 51.18,0.27 49.11,0.15 46.78,0.08 44.45,0.02 42.50,0.27 40.54,0.52 37.79,0.63 35.03,0.75 32.91,1.07 30.78,1.39 28.74,1.80 26.70,2.21 24.04,2.68 21.39,3.15 18.68,3.90 15.96,4.65 13.53,5.77 11.10,6.89 8.37,7.74 5.64,8.59 3.17,8.96 0.71,9.33 -1.25,9.11 -3.21,8.90 -5.00,7.64 -6.78,6.38 -7.58,4.61 -8.38,2.85 -8.71,0.96 -9.03,-0.91 -9.06,-1.12 -9.09,-1.33 -9.05,-1.54 -9.01,-1.75 -8.91,-1.93 -8.80,-2.12 -8.65,-2.26 -8.49,-2.40 -8.29,-2.49 -8.10,-2.57 -7.89,-2.59 -7.68,-2.61 -7.47,-2.56 -7.26,-2.51 -7.08,-2.39 -6.90,-2.28 -6.77,-2.11 -6.64,-1.95 -6.56,-1.75 -6.49,-1.55 -6.48,-1.34 -6.48,-1.12 -6.54,-0.92 -6.60,-0.72 -6.73,-0.54 -6.85,-0.37 -7.02,-0.25 -7.19,-0.12 -7.40,-0.06 -7.60,-0.00 -7.81,-0.00 -8.02,-0.01 -8.22,-0.08 -8.42,-0.15 -8.59,-0.29 -8.76,-0.42 -8.87,-0.60 -8.98,-0.78 -9.04,-0.98 -9.09,-1.19 -9.07,-1.40 -9.05,-1.61 -8.97,-1.81 -8.89,-2.00 -8.75,-2.16 -8.60,-2.32 -8.42,-2.43 -8.23,-2.53 -8.03,-2.57 -7.82,-2.61 -7.61,-2.58 -7.40,-2.55 -7.21,-2.46 -7.02,-2.37 -6.86,-2.22 -6.71,-2.07 -6.62,-1.88 -6.52,-1.69 -6.52,-1.69 -6.52,-1.69 -5.87,-0.41 -5.22,0.85 -3.74,2.19 -2.27,3.52 -1.18,3.59 -0.09,3.67 1.91,3.36 3.93,3.05 6.32,2.31 8.71,1.58 11.57,0.31 14.42,-0.94 17.39,-1.74 20.36,-2.54 22.96,-3.01 25.55,-3.48 27.74,-3.93 29.93,-4.38 32.36,-4.73 34.78,-5.07 37.32,-5.18 39.86,-5.28 42.24,-5.54 44.62,-5.81 47.08,-5.73 49.54,-5.65 51.97,-5.44 54.40,-5.23 56.23,-4.84 58.06,-4.45 60.16,-4.11 62.27,-3.77 63.89,-3.14 65.51,-2.51 67.24,-1.70 68.96,-0.90 70.59,0.09 72.22,1.08 74.22,2.19 76.22,3.30 78.21,4.58 80.20,5.86 81.93,7.38 83.67,8.90 84.77,10.19 85.86,11.47 86.87,12.87 87.88,14.27 88.90,15.54 89.92,16.81 91.43,18.30 92.95,19.80 94.04,21.42 95.13,23.04 96.32,24.82 97.51,26.60 99.01,28.83 100.52,31.07 101.98,33.60 103.45,36.13 104.74,39.13 106.04,42.14 106.95,44.87 107.86,47.61 108.69,50.12 109.51,52.62 110.03,54.86 110.54,57.10 111.05,59.57 111.57,62.05 112.14,64.87 112.72,67.70 112.64,69.51 112.57,71.31 112.38,74.32 112.19,77.33 111.82,79.11 111.46,80.89 111.15,82.94 110.84,84.98 110.25,86.44 109.66,87.91 109.08,89.02 108.50,90.13 107.82,91.38 107.13,92.62 106.07,94.36 105.02,96.09 103.68,97.52 102.33,98.94 100.98,100.52 99.62,102.10 98.00,103.53 96.38,104.96 94.89,106.06 93.41,107.16 91.90,108.41 90.40,109.65 89.31,110.78 88.23,111.92 86.79,113.46 85.35,115.00 83.83,116.14 82.31,117.28 80.51,118.82 78.71,120.36 76.69,121.79 74.67,123.21 72.61,124.55 70.55,125.88 68.56,126.89 66.56,127.89 64.20,128.76 61.83,129.63 59.89,130.23 57.96,130.84 55.73,131.73 53.50,132.61 51.33,133.22 49.17,133.83 46.54,134.65 43.91,135.47 41.44,135.96 38.98,136.45 36.56,136.91 34.14,137.37 31.82,137.79 29.50,138.21 27.32,138.50 25.15,138.80 23.21,138.77 21.27,138.73 19.38,138.62 17.49,138.51 15.78,138.19 14.07,137.87 12.60,137.22 11.14,136.58 9.42,135.16 7.71,133.73 6.21,132.14 4.72,130.55 3.82,129.49 2.92,128.42 2.22,126.81 1.52,125.21 0.57,124.00 -0.37,122.79 -0.93,121.76 -1.48,120.74 -2.13,119.65 -2.78,118.57 -3.73,117.21 -4.67,115.85 -5.51,114.71 -6.35,113.57 -7.26,112.56 -8.18,111.55 -9.05,110.62 -9.93,109.70 -11.04,109.12 -12.14,108.54 -13.39,107.86 -14.63,107.19 -16.00,106.38 -17.37,105.58 -19.02,104.80 -20.66,104.02 -22.07,103.09 -23.48,102.17 -25.11,101.03 -26.75,99.90 -27.67,98.73 -28.60,97.57 -29.66,96.58 -30.73,95.59 -32.19,94.33 -33.65,93.07 -34.72,91.76 -35.79,90.44 -36.75,89.00 -37.71,87.55 -38.74,85.94 -39.76,84.33 -40.57,82.27 -41.38,80.21 -41.81,78.36 -42.24,76.51 -42.52,73.77 -42.79,71.04 -42.75,68.36 -42.70,65.68 -42.59,62.78 -42.49,59.88 -42.22,56.41 -41.95,52.93 -41.36,49.83 -40.76,46.72 -40.01,43.49 -39.26,40.26 -38.21,36.92 -37.16,33.58 -35.94,30.31 -34.73,27.05 -32.75,23.93 -30.78,20.81 -28.40,17.88 -26.02,14.94 -22.93,11.22 -19.83,7.50 -17.07,5.29 -14.31,3.09 -11.72,1.24 -9.14,-0.60 -7.49,-1.32 -5.84,-2.03 -4.72,-2.45 -3.60,-2.86 -2.38,-3.16 -1.16,-3.45 0.04,-3.04 1.25,-2.62 1.08,-1.77 0.92,-0.92 1.02,-0.80 1.12,-0.67 1.18,-0.53 1.25,-0.39 1.28,-0.23 1.31,-0.07 1.30,0.07 1.29,0.23 1.24,0.38 1.19,0.53 1.11,0.67 1.03,0.80 0.92,0.92 0.80,1.03 0.67,1.11 0.53,1.19 0.38,1.24 0.23,1.29 0.07,1.30 -0.07,1.31 -0.23,1.28 -0.39,1.25 -0.53,1.18 -0.67,1.12 -0.80,1.02 -0.92,0.92 -0.92,0.92 L -0.92,0.92 Z"/></g><g transform="translate(203 263) rotate(0 12.5 -18.5)" stroke="none"><path fill="#1971c2" d="M -1.31,0 Q -1.31,0 -1.77,-0.91 -2.22,-1.83 -1.52,-3.82 -0.82,-5.81 -0.41,-7.66 -0.01,-9.52 0.38,-11.53 0.78,-13.53 1.25,-15.83 1.71,-18.12 2.21,-20.28 2.70,-22.44 3.20,-24.51 3.70,-26.57 4.22,-28.36 4.73,-30.15 4.91,-31.56 5.09,-32.98 5.51,-34.44 5.93,-35.89 6.12,-37.23 6.31,-38.56 6.41,-38.86 6.51,-39.16 6.68,-39.43 6.84,-39.70 7.07,-39.92 7.30,-40.14 7.57,-40.30 7.84,-40.46 8.15,-40.56 8.45,-40.65 8.77,-40.66 9.08,-40.68 9.39,-40.62 9.71,-40.56 9.99,-40.42 10.28,-40.29 10.53,-40.09 10.78,-39.89 10.97,-39.64 11.16,-39.39 11.29,-39.10 11.41,-38.81 11.47,-38.49 11.52,-38.18 11.50,-37.87 11.47,-37.55 8.64,-38.04 5.80,-38.52 5.90,-38.82 6.00,-39.12 6.16,-39.39 6.33,-39.66 6.56,-39.88 6.78,-40.10 7.06,-40.26 7.33,-40.42 7.63,-40.52 7.93,-40.61 8.25,-40.62 8.57,-40.64 8.88,-40.58 9.19,-40.52 9.47,-40.38 9.76,-40.25 10.01,-40.05 10.25,-39.85 10.45,-39.60 10.64,-39.35 10.76,-39.06 10.89,-38.77 10.94,-38.46 11.00,-38.15 10.97,-37.83 10.95,-37.52 11.68,-36.45 12.40,-35.38 13.06,-34.00 13.71,-32.62 14.97,-30.61 16.23,-28.60 17.71,-25.88 19.18,-23.16 20.64,-20.28 22.10,-17.39 23.57,-14.43 25.04,-11.47 26.01,-8.95 26.97,-6.43 27.41,-4.36 27.84,-2.28 26.68,-0.74 25.52,0.79 25.53,0.94 25.55,1.10 25.52,1.26 25.50,1.41 25.43,1.56 25.37,1.70 25.28,1.83 25.18,1.96 25.06,2.06 24.94,2.16 24.80,2.23 24.65,2.30 24.50,2.33 24.34,2.36 24.19,2.36 24.03,2.35 23.88,2.31 23.72,2.26 23.59,2.18 23.45,2.10 23.33,2.00 23.22,1.89 23.13,1.75 23.05,1.62 23.00,1.47 22.95,1.32 23.24,1.74 23.54,2.16 23.38,2.02 23.22,1.88 23.11,1.70 23.00,1.52 22.96,1.31 22.92,1.10 22.95,0.89 22.97,0.68 23.07,0.49 23.16,0.29 23.31,0.14 23.46,-0.00 23.65,-0.09 23.84,-0.19 24.05,-0.22 24.26,-0.25 24.47,-0.21 24.68,-0.17 24.86,-0.07 25.05,0.02 25.19,0.18 25.33,0.34 25.42,0.53 25.51,0.73 25.52,0.94 25.54,1.15 25.49,1.35 25.44,1.56 25.33,1.74 25.22,1.92 25.05,2.06 24.89,2.19 24.69,2.27 24.49,2.34 24.28,2.35 24.07,2.35 23.86,2.29 23.66,2.23 23.49,2.11 23.31,1.99 23.19,1.82 23.06,1.65 23.00,1.44 22.93,1.24 22.94,1.03 22.94,0.82 23.01,0.62 23.09,0.41 23.22,0.25 23.35,0.08 23.53,-0.02 23.71,-0.14 23.91,-0.19 24.12,-0.25 24.33,-0.23 24.54,-0.21 25.03,0.28 25.52,0.78 25.53,0.94 25.55,1.10 25.52,1.26 25.50,1.41 25.43,1.56 25.37,1.70 25.28,1.83 25.18,1.96 25.06,2.06 24.94,2.16 24.80,2.23 24.65,2.30 24.50,2.33 24.34,2.36 24.19,2.36 24.03,2.35 23.88,2.31 23.72,2.26 23.59,2.18 23.45,2.10 23.33,2.00 23.22,1.89 23.13,1.75 23.05,1.62 23.00,1.47 22.95,1.32 22.97,0.02 22.99,-1.27 22.64,-2.96 22.30,-4.65 21.42,-6.92 20.55,-9.20 19.04,-12.12 17.53,-15.03 16.05,-17.85 14.57,-20.67 13.17,-23.25 11.77,-25.84 10.34,-28.19 8.91,-30.54 8.12,-31.93 7.33,-33.33 6.90,-34.73 6.47,-36.14 6.14,-37.33 5.80,-38.52 5.90,-38.82 6.00,-39.12 6.16,-39.39 6.33,-39.66 6.56,-39.88 6.78,-40.10 7.06,-40.26 7.33,-40.42 7.63,-40.51 7.93,-40.61 8.25,-40.62 8.57,-40.64 8.88,-40.58 9.19,-40.52 9.47,-40.38 9.76,-40.25 10.01,-40.05 10.25,-39.85 10.45,-39.60 10.64,-39.35 10.76,-39.06 10.89,-38.77 10.94,-38.46 11.00,-38.15 10.97,-37.83 10.95,-37.52 8.63,-38.04 6.31,-38.56 6.41,-38.86 6.51,-39.16 6.68,-39.43 6.84,-39.70 7.07,-39.92 7.30,-40.14 7.57,-40.30 7.84,-40.46 8.15,-40.56 8.45,-40.65 8.77,-40.66 9.08,-40.68 9.39,-40.62 9.71,-40.56 9.99,-40.42 10.28,-40.29 10.53,-40.09 10.78,-39.89 10.97,-39.64 11.16,-39.39 11.29,-39.10 11.41,-38.81 11.47,-38.49 11.52,-38.18 11.50,-37.87 11.47,-37.55 11.21,-35.97 10.95,-34.39 10.61,-33.33 10.28,-32.28 10.03,-30.49 9.78,-28.71 9.30,-27.02 8.82,-25.34 8.33,-23.30 7.85,-21.26 7.36,-19.16 6.88,-17.06 6.40,-14.75 5.92,-12.44 5.46,-10.37 5.00,-8.30 4.65,-6.92 4.30,-5.55 3.87,-4.28 3.44,-3.01 2.83,-1.74 2.22,-0.46 1.77,-0.23 1.31,0 1.29,0.15 1.27,0.31 1.21,0.46 1.16,0.61 1.07,0.74 0.98,0.87 0.86,0.97 0.74,1.08 0.60,1.15 0.46,1.22 0.31,1.26 0.15,1.30 -0.00,1.30 -0.15,1.30 -0.31,1.26 -0.46,1.22 -0.60,1.15 -0.74,1.08 -0.86,0.97 -0.98,0.87 -1.07,0.74 -1.16,0.61 -1.21,0.46 -1.27,0.31 -1.29,0.15 -1.31,-0.00 -1.31,-0.00 L -1.31,0 Z"/></g><g transform="translate(205 243) rotate(0 10 1)" stroke="none"><path fill="#1971c2" d="M 0,-1.31 Q 0,-1.31 1.17,-1.67 2.34,-2.03 3.46,-1.71 4.57,-1.39 5.94,-1.27 7.31,-1.16 9.15,-1.01 10.98,-0.86 12.45,-0.57 13.93,-0.28 15.35,-0.27 16.77,-0.26 17.97,-0.24 19.17,-0.23 19.44,-0.19 19.71,-0.16 19.96,-0.07 20.21,0.02 20.43,0.17 20.65,0.33 20.83,0.53 21.01,0.73 21.13,0.97 21.26,1.21 21.32,1.47 21.38,1.73 21.38,2.00 21.38,2.27 21.32,2.53 21.25,2.79 21.13,3.03 21.00,3.27 20.82,3.47 20.64,3.67 20.42,3.82 20.20,3.97 19.95,4.07 19.69,4.16 19.43,4.19 19.16,4.23 17.39,3.77 15.63,3.31 15.42,3.27 15.21,3.24 15.02,3.14 14.83,3.04 14.69,2.89 14.54,2.73 14.45,2.54 14.36,2.35 14.34,2.14 14.32,1.92 14.36,1.72 14.41,1.51 14.52,1.33 14.63,1.14 14.79,1.01 14.95,0.87 15.15,0.79 15.34,0.71 15.56,0.70 15.77,0.69 15.97,0.75 16.18,0.80 16.35,0.92 16.53,1.04 16.66,1.21 16.79,1.38 16.85,1.58 16.92,1.78 16.92,1.99 16.92,2.21 16.85,2.41 16.79,2.61 16.66,2.78 16.53,2.95 16.35,3.07 16.18,3.19 15.97,3.24 15.77,3.30 15.56,3.29 15.34,3.28 15.15,3.20 14.95,3.12 14.79,2.98 14.63,2.85 14.52,2.66 14.41,2.48 14.36,2.27 14.32,2.07 14.34,1.85 14.36,1.64 14.45,1.45 14.54,1.26 14.69,1.10 14.83,0.95 15.02,0.85 15.21,0.75 15.42,0.72 15.63,0.68 15.63,0.68 15.63,0.68 17.40,0.22 19.17,-0.23 19.44,-0.19 19.71,-0.16 19.96,-0.07 20.21,0.02 20.43,0.17 20.65,0.33 20.83,0.53 21.01,0.73 21.13,0.97 21.26,1.21 21.32,1.47 21.38,1.73 21.38,2.00 21.38,2.27 21.32,2.53 21.25,2.79 21.13,3.03 21.00,3.27 20.82,3.47 20.64,3.67 20.42,3.82 20.20,3.97 19.95,4.07 19.69,4.16 19.43,4.19 19.16,4.23 18.60,4.24 18.04,4.25 16.55,4.24 15.05,4.23 13.56,4.19 12.07,4.15 10.80,3.50 9.53,2.85 8.33,2.97 7.13,3.09 5.90,2.99 4.67,2.89 3.46,2.46 2.25,2.03 1.12,1.67 0,1.31 -0.15,1.29 -0.31,1.27 -0.46,1.21 -0.61,1.16 -0.74,1.07 -0.87,0.98 -0.97,0.86 -1.08,0.74 -1.15,0.60 -1.22,0.46 -1.26,0.31 -1.30,0.15 -1.30,-0.00 -1.30,-0.15 -1.26,-0.31 -1.22,-0.46 -1.15,-0.60 -1.08,-0.74 -0.97,-0.86 -0.87,-0.98 -0.74,-1.07 -0.61,-1.16 -0.46,-1.21 -0.31,-1.27 -0.15,-1.29 0.00,-1.31 0.00,-1.31 L 0,-1.31 Z"/></g><g transform="translate(195 18) rotate(0 35.5 191.5)" stroke="none"><path fill="#1971c2" d="M -0.65,0 Q -0.65,0 -0.70,-0.86 -0.74,-1.72 -0.75,-2.28 -0.76,-2.84 -1.30,-2.95 -1.83,-3.06 -1.93,-3.28 -2.02,-3.50 -2.14,-3.55 -2.25,-3.60 -2.35,-3.68 -2.45,-3.75 -2.53,-3.85 -2.61,-3.94 -2.66,-4.06 -2.72,-4.17 -2.74,-4.29 -2.77,-4.41 -2.76,-4.54 -2.76,-4.66 -2.72,-4.78 -2.69,-4.90 -2.63,-5.01 -2.56,-5.12 -2.48,-5.21 -2.39,-5.30 -2.29,-5.36 -2.18,-5.43 -2.06,-5.47 -1.95,-5.51 -1.82,-5.52 -1.70,-5.53 -1.57,-5.51 -1.45,-5.49 -1.18,-4.92 -0.90,-4.35 -0.04,-3.69 0.82,-3.04 1.52,-2.27 2.22,-1.51 2.68,-1.03 3.15,-0.55 3.98,0.58 4.81,1.71 6.00,3.31 7.19,4.91 8.56,6.74 9.92,8.57 11.37,10.50 12.82,12.43 14.33,15.03 15.85,17.63 17.06,19.88 18.27,22.13 19.34,23.92 20.41,25.70 21.46,27.65 22.51,29.59 23.54,31.57 24.56,33.54 25.31,35.60 26.06,37.65 26.93,39.92 27.81,42.19 28.49,44.65 29.18,47.12 29.47,48.46 29.76,49.81 30.16,51.50 30.57,53.19 30.75,54.24 30.93,55.29 31.28,56.53 31.62,57.76 32.07,59.47 32.51,61.18 32.99,63.36 33.47,65.54 33.69,67.38 33.90,69.23 33.99,71.17 34.08,73.12 34.40,75.31 34.72,77.50 34.87,79.65 35.01,81.80 35.35,84.09 35.69,86.37 35.84,88.56 36.00,90.75 36.06,92.83 36.12,94.91 36.15,97.24 36.17,99.56 36.19,101.41 36.20,103.26 36.49,105.11 36.77,106.95 36.90,108.68 37.03,110.41 37.09,112.02 37.14,113.62 37.17,114.88 37.19,116.13 37.20,116.95 37.21,117.77 37.21,118.41 37.21,119.05 37.22,119.90 37.22,120.74 37.22,121.38 37.22,122.02 37.48,122.69 37.74,123.36 37.89,125.89 38.05,128.42 38.11,131.18 38.16,133.93 38.18,136.54 38.21,139.14 38.22,141.40 38.23,143.66 38.23,145.77 38.23,147.88 38.24,149.64 38.24,151.39 38.24,153.29 38.24,155.19 38.52,156.75 38.80,158.32 38.93,160.53 39.06,162.75 39.39,164.75 39.72,166.74 40.15,168.74 40.58,170.74 40.77,172.82 40.96,174.91 41.32,176.55 41.67,178.20 42.11,179.75 42.54,181.31 43.01,182.83 43.48,184.35 43.98,186.18 44.48,188.00 44.97,189.93 45.47,191.85 45.70,194.20 45.92,196.55 46.30,199.20 46.67,201.86 47.11,203.81 47.55,205.76 47.75,208.14 47.95,210.51 48.32,212.88 48.68,215.24 49.12,217.69 49.56,220.13 50.04,222.61 50.51,225.09 50.73,227.35 50.94,229.62 51.58,231.88 52.21,234.15 53.07,237.17 53.92,240.19 55.12,242.82 56.31,245.46 57.43,248.38 58.54,251.29 59.87,255.12 61.21,258.95 62.07,261.74 62.93,264.53 63.85,267.12 64.78,269.71 65.47,271.69 66.16,273.67 66.74,275.69 67.33,277.71 67.87,279.72 68.41,281.72 69.20,283.96 69.98,286.20 70.90,288.60 71.81,291.00 72.23,293.28 72.65,295.56 73.09,297.31 73.54,299.05 73.74,301.05 73.95,303.05 74.03,305.05 74.12,307.04 74.15,309.04 74.19,311.04 74.20,312.17 74.22,313.31 74.23,314.37 74.23,315.43 74.24,316.45 74.24,317.48 74.24,318.78 74.24,320.08 74.24,321.21 74.24,322.34 73.93,323.55 73.62,324.76 73.52,326.24 73.42,327.73 73.37,329.53 73.32,331.33 72.99,332.80 72.67,334.27 72.25,336.01 71.83,337.74 71.36,339.63 70.89,341.51 70.39,342.94 69.89,344.37 69.71,345.70 69.53,347.03 69.14,348.57 68.75,350.12 68.29,351.38 67.82,352.64 67.66,353.89 67.50,355.14 67.11,356.40 66.72,357.66 66.28,359.02 65.83,360.38 65.66,361.43 65.49,362.49 65.11,363.91 64.73,365.32 64.28,366.78 63.83,368.23 63.66,369.33 63.49,370.44 63.11,371.86 62.72,373.29 62.58,374.64 62.44,375.99 62.38,377.15 62.31,378.31 61.98,379.53 61.64,380.74 61.50,381.42 61.37,382.10 61.30,382.66 61.23,383.21 61.17,383.75 61.12,384.29 60.42,385.95 59.72,387.60 59.69,387.70 59.66,387.80 59.59,387.88 59.53,387.97 59.44,388.03 59.35,388.09 59.25,388.12 59.15,388.15 59.04,388.14 58.94,388.14 58.84,388.10 58.74,388.06 58.66,387.99 58.58,387.92 58.52,387.83 58.47,387.74 58.44,387.64 58.42,387.53 58.43,387.43 58.44,387.32 58.49,387.23 58.53,387.13 58.60,387.05 58.67,386.97 58.77,386.92 58.86,386.87 58.97,386.86 59.07,386.84 59.18,386.86 59.28,386.87 59.38,386.92 59.47,386.97 59.54,387.05 59.62,387.12 59.66,387.22 59.71,387.32 59.72,387.42 59.73,387.53 59.71,387.63 59.69,387.74 59.63,387.83 59.58,387.92 59.50,387.99 59.42,388.06 59.32,388.10 59.22,388.14 59.11,388.14 59.01,388.15 58.90,388.12 58.80,388.09 58.71,388.03 58.63,387.97 58.56,387.89 58.50,387.81 58.46,387.70 58.43,387.60 58.43,387.50 58.43,387.39 58.43,387.39 58.43,387.39 58.69,385.74 58.95,384.09 58.94,383.54 58.92,382.99 58.97,382.34 59.02,381.68 59.15,380.87 59.29,380.06 59.58,379.11 59.87,378.16 59.94,376.95 60.01,375.73 60.18,374.19 60.35,372.66 60.71,371.35 61.06,370.05 61.27,368.78 61.47,367.51 61.91,366.09 62.35,364.67 62.70,363.38 63.05,362.09 63.26,360.85 63.47,359.61 63.92,358.26 64.36,356.91 64.70,355.85 65.05,354.79 65.27,353.29 65.49,351.79 65.92,350.65 66.35,349.50 66.71,348.09 67.07,346.68 67.30,345.12 67.54,343.55 68.01,342.23 68.47,340.91 68.94,339.03 69.40,337.15 69.82,335.43 70.24,333.72 70.53,332.48 70.83,331.25 70.88,329.39 70.93,327.54 71.07,325.83 71.22,324.11 71.48,323.22 71.75,322.32 71.75,321.20 71.74,320.08 71.74,318.78 71.74,317.49 71.74,316.46 71.74,315.44 71.73,314.39 71.73,313.34 71.71,312.21 71.70,311.08 71.66,309.12 71.63,307.15 71.55,305.22 71.47,303.30 71.29,301.48 71.12,299.66 70.65,297.83 70.19,296.00 69.83,293.94 69.48,291.87 68.56,289.45 67.64,287.03 66.82,284.70 66.01,282.37 65.48,280.38 64.95,278.40 64.38,276.44 63.81,274.49 63.12,272.52 62.44,270.55 61.49,267.91 60.54,265.27 59.70,262.52 58.86,259.77 57.53,255.97 56.21,252.18 55.13,249.33 54.05,246.48 52.79,243.67 51.54,240.87 50.68,237.84 49.82,234.82 49.14,232.33 48.46,229.85 48.26,227.70 48.07,225.56 47.59,223.07 47.11,220.58 46.67,218.10 46.22,215.62 45.85,213.17 45.47,210.72 45.30,208.51 45.12,206.30 44.66,204.25 44.20,202.20 43.82,199.49 43.44,196.78 43.25,194.63 43.05,192.47 42.56,190.56 42.07,188.65 41.58,186.87 41.10,185.09 40.62,183.53 40.14,181.98 39.69,180.35 39.24,178.72 38.86,176.93 38.48,175.14 38.31,173.20 38.14,171.26 37.70,169.20 37.26,167.15 36.91,165.02 36.57,162.89 36.45,160.82 36.34,158.74 36.04,156.97 35.75,155.19 35.75,153.30 35.75,151.40 35.74,149.64 35.74,147.88 35.74,145.77 35.73,143.67 35.73,141.42 35.72,139.16 35.70,136.57 35.68,133.98 35.63,131.26 35.58,128.55 35.49,126.34 35.40,124.12 35.09,123.09 34.77,122.06 34.77,121.40 34.77,120.75 34.77,119.91 34.76,119.06 34.76,118.43 34.75,117.80 34.75,116.99 34.74,116.18 34.71,114.94 34.69,113.70 34.64,112.15 34.59,110.59 34.47,108.96 34.35,107.32 34.06,105.30 33.76,103.28 33.75,101.43 33.74,99.59 33.71,97.29 33.68,94.99 33.62,92.95 33.56,90.91 33.42,88.82 33.28,86.73 32.93,84.34 32.57,81.96 32.44,79.90 32.31,77.85 31.98,75.54 31.65,73.23 31.57,71.37 31.49,69.50 31.30,67.78 31.11,66.06 30.64,63.92 30.17,61.79 29.74,60.10 29.30,58.41 28.93,57.05 28.55,55.70 28.39,54.73 28.22,53.75 27.81,52.03 27.40,50.31 27.13,49.03 26.86,47.76 26.22,45.40 25.57,43.05 24.69,40.76 23.81,38.47 23.12,36.55 22.43,34.64 21.42,32.68 20.41,30.73 19.39,28.83 18.36,26.93 17.26,25.10 16.16,23.26 14.97,21.05 13.78,18.83 12.34,16.35 10.90,13.86 9.46,11.93 8.02,10.00 6.65,8.17 5.28,6.33 4.08,4.72 2.88,3.11 2.16,2.11 1.44,1.10 0.95,0.61 0.47,0.11 0.01,-0.38 -0.45,-0.88 -0.81,-1.57 -1.18,-2.26 -1.60,-2.88 -2.02,-3.50 -2.14,-3.55 -2.25,-3.60 -2.35,-3.68 -2.45,-3.75 -2.53,-3.85 -2.61,-3.94 -2.66,-4.05 -2.72,-4.17 -2.74,-4.29 -2.77,-4.41 -2.76,-4.54 -2.76,-4.66 -2.72,-4.78 -2.69,-4.90 -2.63,-5.01 -2.56,-5.12 -2.48,-5.21 -2.39,-5.30 -2.29,-5.36 -2.18,-5.43 -2.06,-5.47 -1.95,-5.51 -1.82,-5.52 -1.70,-5.53 -1.57,-5.51 -1.45,-5.49 -0.72,-4.88 0.01,-4.26 0.38,-3.74 0.76,-3.21 0.75,-2.47 0.74,-1.72 0.70,-0.86 0.65,0 0.64,0.07 0.63,0.15 0.60,0.23 0.58,0.30 0.53,0.37 0.49,0.43 0.43,0.48 0.37,0.54 0.30,0.57 0.23,0.61 0.15,0.63 0.07,0.65 -0.00,0.65 -0.07,0.65 -0.15,0.63 -0.23,0.61 -0.30,0.57 -0.37,0.54 -0.43,0.48 -0.49,0.43 -0.53,0.37 -0.58,0.30 -0.60,0.23 -0.63,0.15 -0.64,0.07 -0.65,-0.00 -0.65,-0.00 L -0.65,0 Z"/></g><g transform="translate(158 315) rotate(0 5 32)" stroke="none"><path fill="#1971c2" d="M 0.62,-0.20 Q 0.62,-0.20 1.21,0.55 1.79,1.31 2.18,2.20 2.57,3.09 3.05,4.39 3.53,5.69 3.76,7.22 4.00,8.75 4.36,10.45 4.72,12.14 5.17,14.63 5.62,17.12 6.39,22.21 7.16,27.30 7.77,33.22 8.39,39.15 8.93,43.95 9.47,48.75 9.70,51.96 9.92,55.18 10.28,57.04 10.64,58.90 10.76,60.45 10.88,62.01 10.04,62.67 9.21,63.33 8.48,61.99 7.75,60.65 7.70,60.71 7.65,60.77 7.58,60.81 7.52,60.86 7.44,60.88 7.37,60.91 7.29,60.92 7.21,60.93 7.13,60.92 7.05,60.91 6.98,60.88 6.91,60.85 6.84,60.80 6.78,60.76 6.72,60.70 6.67,60.64 6.64,60.56 6.60,60.49 6.58,60.42 6.57,60.34 6.57,60.26 6.57,60.18 6.59,60.11 6.61,60.03 6.65,59.96 6.68,59.89 6.64,60.19 6.60,60.50 6.58,60.40 6.56,60.29 6.58,60.19 6.59,60.08 6.64,59.99 6.68,59.89 6.76,59.81 6.83,59.74 6.93,59.69 7.02,59.64 7.13,59.63 7.23,59.61 7.34,59.63 7.44,59.65 7.53,59.70 7.63,59.76 7.70,59.83 7.77,59.91 7.81,60.01 7.86,60.11 7.86,60.21 7.87,60.32 7.85,60.42 7.82,60.53 7.77,60.62 7.71,60.71 7.63,60.77 7.54,60.84 7.45,60.88 7.35,60.91 7.24,60.92 7.13,60.92 7.03,60.89 6.93,60.86 6.84,60.80 6.76,60.74 6.69,60.65 6.63,60.57 6.60,60.46 6.57,60.36 6.57,60.26 6.57,60.15 6.61,60.05 6.65,59.95 6.71,59.87 6.78,59.78 6.87,59.73 6.96,59.67 7.06,59.64 7.16,59.62 7.27,59.62 7.37,59.63 7.47,59.67 7.57,59.72 7.65,59.79 7.73,59.86 7.74,60.25 7.75,60.65 7.70,60.71 7.65,60.77 7.58,60.81 7.52,60.86 7.44,60.88 7.37,60.91 7.29,60.92 7.21,60.93 7.13,60.92 7.05,60.91 6.98,60.88 6.91,60.85 6.84,60.80 6.78,60.76 6.72,60.70 6.67,60.64 6.64,60.56 6.60,60.49 6.58,60.42 6.57,60.34 6.57,60.26 6.57,60.18 6.59,60.11 6.61,60.03 6.65,59.96 6.68,59.89 7.65,60.87 8.63,61.86 8.42,60.62 8.21,59.38 7.80,57.38 7.38,55.37 7.14,52.20 6.90,49.04 6.34,44.23 5.79,39.42 5.18,33.55 4.57,27.69 3.81,22.64 3.05,17.58 2.61,15.13 2.17,12.69 1.79,10.90 1.41,9.11 1.25,7.84 1.09,6.57 0.65,5.34 0.20,4.12 -0.21,3.12 -0.64,2.13 -0.63,1.17 -0.62,0.20 -0.63,0.13 -0.65,0.05 -0.65,-0.02 -0.64,-0.10 -0.62,-0.18 -0.60,-0.25 -0.56,-0.32 -0.52,-0.39 -0.46,-0.45 -0.41,-0.50 -0.34,-0.55 -0.28,-0.59 -0.20,-0.61 -0.13,-0.64 -0.05,-0.64 0.02,-0.65 0.10,-0.64 0.18,-0.63 0.25,-0.59 0.32,-0.56 0.39,-0.52 0.45,-0.47 0.50,-0.41 0.55,-0.35 0.58,-0.27 0.62,-0.20 0.62,-0.20 L 0.62,-0.20 Z"/></g><g transform="translate(165 349) rotate(0 7 -6)" stroke="none"><path fill="#1971c2" d="M -0.46,-0.46 Q -0.46,-0.46 0.59,-1.70 1.64,-2.95 2.41,-3.72 3.18,-4.50 3.45,-5.04 3.72,-5.57 4.30,-6.00 4.88,-6.42 5.47,-6.58 6.06,-6.74 6.96,-7.16 7.86,-7.58 8.47,-8.12 9.09,-8.66 9.80,-8.99 10.50,-9.32 11.39,-10.52 12.29,-11.72 12.32,-11.82 12.35,-11.92 12.42,-12.01 12.48,-12.09 12.57,-12.15 12.66,-12.21 12.76,-12.24 12.86,-12.27 12.97,-12.27 13.07,-12.26 13.17,-12.23 13.27,-12.19 13.35,-12.12 13.43,-12.05 13.49,-11.96 13.55,-11.87 13.57,-11.77 13.59,-11.67 13.58,-11.56 13.57,-11.45 13.53,-11.36 13.49,-11.26 13.41,-11.18 13.34,-11.10 13.25,-11.05 13.16,-11.00 13.05,-10.98 12.95,-10.96 12.84,-10.98 12.74,-11.00 12.64,-11.04 12.55,-11.09 12.47,-11.17 12.40,-11.25 12.35,-11.34 12.31,-11.44 12.30,-11.54 12.28,-11.65 12.30,-11.75 12.33,-11.86 12.38,-11.95 12.43,-12.04 12.51,-12.11 12.59,-12.18 12.69,-12.22 12.79,-12.26 12.90,-12.27 13.00,-12.27 13.10,-12.25 13.21,-12.22 13.30,-12.16 13.38,-12.10 13.45,-12.02 13.51,-11.94 13.55,-11.84 13.59,-11.74 13.59,-11.63 13.59,-11.52 13.59,-11.52 13.59,-11.52 12.45,-9.58 11.32,-7.63 10.36,-7.27 9.40,-6.91 8.60,-6.31 7.80,-5.71 7.17,-5.32 6.54,-4.92 5.92,-4.75 5.29,-4.59 4.90,-3.89 4.52,-3.20 3.73,-2.42 2.95,-1.64 1.70,-0.59 0.46,0.46 0.40,0.51 0.33,0.56 0.26,0.59 0.19,0.62 0.11,0.64 0.03,0.65 -0.03,0.65 -0.11,0.64 -0.19,0.62 -0.26,0.59 -0.33,0.55 -0.40,0.51 -0.46,0.46 -0.51,0.40 -0.55,0.33 -0.59,0.26 -0.62,0.19 -0.64,0.11 -0.65,0.03 -0.65,-0.03 -0.64,-0.11 -0.62,-0.19 -0.59,-0.26 -0.56,-0.33 -0.51,-0.40 -0.46,-0.46 -0.46,-0.46 L -0.46,-0.46 Z"/></g><g transform="translate(175 321) rotate(0 6 21)" stroke="none"><path fill="#1971c2" d="M -0.65,0 Q -0.65,0 -0.83,-0.79 -1.00,-1.58 -1.33,-2.02 -1.65,-2.45 -1.64,-2.58 -1.62,-2.71 -1.57,-2.83 -1.53,-2.96 -1.45,-3.06 -1.38,-3.17 -1.28,-3.26 -1.18,-3.34 -1.07,-3.40 -0.95,-3.46 -0.83,-3.50 -0.70,-3.53 -0.57,-3.53 -0.44,-3.53 -0.31,-3.50 -0.19,-3.46 -0.07,-3.40 0.03,-3.34 0.13,-3.26 0.23,-3.17 0.30,-3.06 0.38,-2.96 0.42,-2.83 0.47,-2.71 0.49,-2.58 0.50,-2.45 0.40,-1.89 0.30,-1.32 0.90,-0.02 1.51,1.27 2.00,2.52 2.49,3.78 2.98,5.16 3.48,6.55 4.56,10.33 5.64,14.11 6.95,18.57 8.26,23.03 9.40,27.25 10.53,31.46 11.56,34.66 12.60,37.85 13.04,39.87 13.48,41.88 12.58,43.55 11.68,45.22 11.60,45.29 11.51,45.35 11.41,45.39 11.31,45.42 11.21,45.42 11.10,45.42 11.00,45.39 10.90,45.36 10.81,45.29 10.73,45.23 10.67,45.14 10.61,45.05 10.58,44.95 10.55,44.85 10.55,44.74 10.56,44.64 10.60,44.54 10.64,44.44 10.70,44.36 10.77,44.28 10.86,44.22 10.95,44.17 11.06,44.14 11.16,44.12 11.27,44.13 11.37,44.14 11.47,44.18 11.57,44.23 11.64,44.30 11.72,44.37 11.77,44.47 11.82,44.56 11.84,44.67 11.86,44.77 11.84,44.88 11.82,44.98 11.78,45.07 11.73,45.17 11.65,45.24 11.57,45.32 11.48,45.36 11.38,45.41 11.28,45.42 11.17,45.43 11.07,45.41 10.96,45.39 10.87,45.33 10.78,45.28 10.71,45.20 10.64,45.12 10.60,45.02 10.56,44.92 10.55,44.81 10.55,44.71 10.58,44.60 10.60,44.50 10.66,44.41 10.72,44.33 10.72,44.33 10.72,44.33 10.95,43.34 11.19,42.36 10.73,40.49 10.27,38.61 9.19,35.37 8.10,32.12 6.97,27.93 5.83,23.75 4.52,19.28 3.20,14.81 2.14,11.10 1.09,7.39 0.61,6.04 0.14,4.69 -0.28,3.56 -0.71,2.43 -1.10,1.68 -1.49,0.93 -1.83,0.17 -2.18,-0.58 -1.92,-1.52 -1.65,-2.45 -1.64,-2.58 -1.62,-2.71 -1.57,-2.83 -1.53,-2.96 -1.45,-3.06 -1.38,-3.17 -1.28,-3.26 -1.18,-3.34 -1.07,-3.40 -0.95,-3.46 -0.83,-3.50 -0.70,-3.53 -0.57,-3.53 -0.44,-3.53 -0.31,-3.50 -0.19,-3.46 -0.07,-3.40 0.03,-3.34 0.13,-3.26 0.23,-3.17 0.30,-3.06 0.38,-2.96 0.42,-2.83 0.47,-2.71 0.49,-2.58 0.50,-2.45 0.75,-2.16 1.00,-1.86 0.83,-0.93 0.65,0 0.64,0.07 0.63,0.15 0.60,0.23 0.58,0.30 0.53,0.37 0.49,0.43 0.43,0.48 0.37,0.54 0.30,0.57 0.23,0.61 0.15,0.63 0.07,0.65 -0.00,0.65 -0.07,0.65 -0.15,0.63 -0.23,0.61 -0.30,0.57 -0.37,0.54 -0.43,0.48 -0.49,0.43 -0.53,0.37 -0.58,0.30 -0.60,0.23 -0.63,0.15 -0.64,0.07 -0.65,-0.00 -0.65,-0.00 L -0.65,0 Z"/></g><g transform="translate(204 369) rotate(0 10.5 -6)" stroke="none"><path fill="#1971c2" d="M -0.58,-0.29 Q -0.58,-0.29 -0.51,-0.97 -0.44,-1.65 -0.04,-2.47 0.36,-3.30 0.49,-3.83 0.62,-4.36 1.00,-6.03 1.39,-7.70 1.80,-9.30 2.21,-10.91 2.68,-12.74 3.14,-14.57 3.64,-15.96 4.14,-17.35 4.02,-18.27 3.90,-19.19 3.69,-19.69 3.47,-20.19 2.92,-20.12 2.37,-20.05 2.42,-19.49 2.47,-18.93 2.98,-17.44 3.49,-15.96 4.56,-13.26 5.63,-10.56 6.93,-8.01 8.23,-5.46 9.35,-3.52 10.47,-1.58 11.27,0.17 12.07,1.93 12.42,3.06 12.78,4.18 12.60,5.27 12.43,6.36 11.91,6.95 11.39,7.55 10.93,7.97 10.48,8.39 9.51,8.68 8.55,8.96 7.45,9.52 6.35,10.07 5.63,10.36 4.90,10.65 4.98,10.50 5.06,10.36 4.91,10.43 4.76,10.49 4.60,10.52 4.44,10.55 4.28,10.54 4.12,10.53 3.96,10.48 3.80,10.43 3.66,10.35 3.53,10.26 3.41,10.14 3.30,10.03 3.21,9.89 3.13,9.75 3.08,9.59 3.03,9.44 3.02,9.27 3.01,9.11 3.04,8.95 3.07,8.79 3.14,8.64 3.21,8.49 3.31,8.36 3.41,8.24 3.54,8.14 3.67,8.04 4.56,7.64 5.45,7.24 6.98,6.78 8.51,6.32 10.39,6.12 12.26,5.92 14.10,5.56 15.94,5.21 17.37,5.04 18.80,4.88 18.92,5.65 19.05,6.41 17.66,6.03 16.28,5.66 16.18,5.64 16.07,5.62 15.98,5.57 15.89,5.52 15.82,5.44 15.74,5.36 15.70,5.26 15.66,5.16 15.65,5.06 15.64,4.95 15.67,4.85 15.69,4.75 15.75,4.66 15.81,4.57 15.89,4.50 15.97,4.43 16.07,4.39 16.17,4.36 16.28,4.35 16.38,4.35 16.48,4.38 16.58,4.41 16.67,4.47 16.76,4.53 16.82,4.62 16.88,4.71 16.91,4.81 16.95,4.91 16.94,5.02 16.94,5.12 16.91,5.22 16.87,5.32 16.80,5.40 16.74,5.49 16.65,5.55 16.56,5.60 16.46,5.63 16.35,5.66 16.25,5.65 16.14,5.64 16.04,5.60 15.95,5.56 15.87,5.49 15.79,5.42 15.73,5.32 15.68,5.23 15.66,5.13 15.64,5.02 15.65,4.92 15.67,4.81 15.71,4.72 15.76,4.62 15.84,4.55 15.91,4.47 16.01,4.42 16.10,4.37 16.21,4.36 16.31,4.34 16.31,4.34 16.31,4.34 18.44,4.43 20.57,4.51 20.42,5.79 20.27,7.07 19.69,7.32 19.10,7.56 17.77,7.71 16.45,7.86 14.49,8.23 12.54,8.60 10.90,8.76 9.26,8.91 7.94,9.29 6.61,9.67 5.84,10.02 5.06,10.36 4.91,10.43 4.76,10.49 4.60,10.52 4.44,10.55 4.28,10.54 4.12,10.53 3.96,10.48 3.80,10.43 3.66,10.35 3.53,10.26 3.41,10.14 3.30,10.03 3.21,9.89 3.13,9.75 3.08,9.59 3.03,9.44 3.02,9.27 3.01,9.11 3.04,8.95 3.07,8.79 3.14,8.64 3.21,8.49 3.31,8.36 3.41,8.24 3.54,8.14 3.67,8.04 4.25,8.17 4.84,8.30 5.72,7.89 6.61,7.49 7.15,6.99 7.69,6.50 8.25,6.44 8.80,6.37 9.52,5.60 10.24,4.82 9.94,3.93 9.64,3.03 8.90,1.39 8.16,-0.24 7.00,-2.24 5.85,-4.25 4.49,-6.91 3.14,-9.58 2.04,-12.38 0.93,-15.19 0.38,-17.20 -0.16,-19.20 0.04,-20.22 0.25,-21.23 0.81,-21.80 1.37,-22.38 2.38,-22.54 3.40,-22.70 4.44,-22.11 5.47,-21.51 5.90,-20.45 6.33,-19.40 6.37,-18.01 6.41,-16.63 5.94,-15.31 5.46,-13.98 4.99,-12.14 4.52,-10.30 4.09,-8.67 3.66,-7.04 3.35,-6.03 3.04,-5.02 2.95,-4.38 2.86,-3.75 2.64,-3.01 2.42,-2.27 2.00,-1.45 1.59,-0.64 1.08,-0.17 0.58,0.29 0.54,0.35 0.49,0.42 0.44,0.47 0.38,0.53 0.31,0.57 0.24,0.60 0.16,0.62 0.09,0.65 0.01,0.65 -0.06,0.65 -0.14,0.63 -0.22,0.61 -0.29,0.58 -0.36,0.54 -0.42,0.49 -0.48,0.44 -0.52,0.38 -0.57,0.31 -0.60,0.24 -0.63,0.16 -0.64,0.09 -0.65,0.01 -0.64,-0.06 -0.64,-0.14 -0.61,-0.21 -0.58,-0.29 -0.58,-0.29 L -0.58,-0.29 Z"/></g><g transform="translate(291 316) rotate(0 11 28.5)" stroke="none"><path fill="#1971c2" d="M 0.54,-0.36 Q 0.54,-0.36 1.80,1.28 3.06,2.93 3.88,4.58 4.70,6.22 5.94,9.22 7.17,12.22 7.96,14.04 8.75,15.87 9.38,17.22 10.00,18.56 10.59,20.34 11.17,22.12 12.55,25.10 13.92,28.07 14.53,29.99 15.15,31.92 15.96,33.81 16.77,35.70 17.72,38.88 18.68,42.06 19.65,45.71 20.62,49.35 20.15,52.36 19.68,55.36 19.58,55.40 19.48,55.44 19.37,55.44 19.27,55.44 19.16,55.41 19.06,55.38 18.98,55.32 18.89,55.26 18.83,55.17 18.76,55.09 18.73,54.99 18.70,54.88 18.70,54.78 18.70,54.67 18.74,54.57 18.78,54.47 18.84,54.39 18.91,54.31 19.00,54.25 19.09,54.19 19.19,54.16 19.29,54.14 19.40,54.14 19.50,54.15 19.60,54.19 19.70,54.24 19.78,54.31 19.86,54.38 19.91,54.47 19.97,54.56 19.99,54.66 20.01,54.77 19.99,54.87 19.98,54.98 19.93,55.08 19.89,55.17 19.81,55.25 19.74,55.32 19.64,55.37 19.55,55.42 19.44,55.43 19.34,55.45 19.23,55.43 19.13,55.41 19.03,55.36 18.94,55.31 18.87,55.23 18.80,55.15 18.76,55.05 18.71,54.95 18.70,54.85 18.70,54.74 18.72,54.64 18.75,54.54 18.80,54.45 18.86,54.36 18.94,54.29 19.02,54.22 19.02,54.22 19.02,54.22 18.77,52.07 18.51,49.91 17.54,46.30 16.58,42.69 15.68,39.62 14.78,36.55 13.94,34.55 13.10,32.56 12.54,30.76 11.98,28.95 10.58,25.86 9.18,22.76 8.66,21.09 8.14,19.42 7.51,18.05 6.89,16.68 6.09,14.82 5.30,12.97 4.14,10.01 2.99,7.05 2.26,5.50 1.53,3.96 0.49,2.16 -0.54,0.36 -0.58,0.29 -0.61,0.22 -0.63,0.14 -0.65,0.06 -0.65,-0.01 -0.65,-0.08 -0.63,-0.16 -0.61,-0.24 -0.57,-0.31 -0.53,-0.38 -0.48,-0.44 -0.42,-0.49 -0.36,-0.54 -0.29,-0.58 -0.22,-0.61 -0.14,-0.64 -0.06,-0.64 0.01,-0.65 0.08,-0.64 0.16,-0.63 0.24,-0.60 0.31,-0.57 0.37,-0.53 0.44,-0.48 0.49,-0.42 0.54,-0.36 0.54,-0.36 L 0.54,-0.36 Z"/></g><g transform="translate(301 345) rotate(0 16 -12)" stroke="none"><path fill="#1971c2" d="M 0,-0.65 Q 0,-0.65 0.85,-0.79 1.71,-0.92 2.51,-1.21 3.31,-1.49 3.89,-1.87 4.47,-2.24 5.69,-2.75 6.90,-3.25 8.40,-4.54 9.90,-5.82 11.75,-7.27 13.60,-8.72 14.31,-9.55 15.03,-10.37 16.17,-12.14 17.32,-13.90 18.68,-16.10 20.03,-18.29 20.55,-20.22 21.06,-22.15 20.71,-23.67 20.36,-25.18 19.70,-26.34 19.03,-27.49 18.19,-28.54 17.36,-29.59 16.20,-30.54 15.04,-31.49 14.10,-31.83 13.16,-32.18 12.30,-32.34 11.45,-32.50 11.83,-31.73 12.21,-30.95 12.76,-29.76 13.31,-28.56 13.80,-27.77 14.30,-26.97 15.70,-24.58 17.09,-22.18 18.86,-18.54 20.62,-14.89 22.22,-11.64 23.81,-8.39 25.34,-5.59 26.87,-2.80 28.07,-1.09 29.26,0.62 30.10,1.99 30.93,3.35 31.34,4.64 31.74,5.93 31.12,7.71 30.49,9.50 30.39,9.52 30.29,9.55 30.18,9.54 30.07,9.53 29.98,9.49 29.88,9.44 29.80,9.37 29.72,9.30 29.67,9.21 29.62,9.11 29.60,9.01 29.58,8.90 29.60,8.80 29.61,8.69 29.66,8.60 29.71,8.50 29.79,8.43 29.86,8.36 29.96,8.31 30.05,8.26 30.16,8.25 30.27,8.24 30.37,8.26 30.47,8.28 30.57,8.33 30.66,8.39 30.73,8.47 30.80,8.55 30.84,8.64 30.88,8.74 30.89,8.85 30.89,8.95 30.87,9.06 30.84,9.16 30.78,9.25 30.72,9.34 30.64,9.40 30.56,9.47 30.46,9.50 30.36,9.54 30.25,9.54 30.14,9.54 30.04,9.51 29.94,9.48 29.86,9.41 29.77,9.35 29.71,9.26 29.65,9.18 29.62,9.08 29.59,8.97 29.59,8.87 29.60,8.76 29.63,8.66 29.67,8.56 29.74,8.48 29.81,8.40 29.90,8.34 29.99,8.29 29.99,8.29 29.99,8.29 29.61,7.49 29.23,6.69 28.95,5.70 28.66,4.71 27.88,3.42 27.09,2.13 25.82,0.29 24.56,-1.53 23.00,-4.38 21.44,-7.23 19.84,-10.49 18.24,-13.75 16.53,-17.31 14.82,-20.87 13.46,-23.24 12.09,-25.62 11.51,-26.58 10.93,-27.54 10.29,-29.13 9.66,-30.72 9.62,-31.25 9.58,-31.79 9.59,-32.64 9.60,-33.49 10.61,-34.21 11.62,-34.93 12.86,-34.71 14.09,-34.49 15.34,-33.93 16.60,-33.37 17.91,-32.21 19.23,-31.05 20.15,-29.82 21.07,-28.60 21.83,-27.12 22.59,-25.63 22.90,-23.65 23.20,-21.66 22.55,-19.41 21.90,-17.16 20.52,-14.94 19.13,-12.71 17.89,-10.84 16.64,-8.96 15.78,-8.00 14.92,-7.03 13.08,-5.61 11.24,-4.19 9.46,-2.78 7.68,-1.37 6.58,-0.96 5.48,-0.54 4.69,-0.09 3.89,0.34 2.81,0.63 1.73,0.92 0.86,0.79 0,0.65 -0.07,0.64 -0.15,0.63 -0.23,0.60 -0.30,0.58 -0.37,0.53 -0.43,0.49 -0.48,0.43 -0.54,0.37 -0.57,0.30 -0.61,0.23 -0.63,0.15 -0.65,0.07 -0.65,-0.00 -0.65,-0.07 -0.63,-0.15 -0.61,-0.23 -0.57,-0.30 -0.54,-0.37 -0.48,-0.43 -0.43,-0.49 -0.37,-0.53 -0.30,-0.58 -0.23,-0.60 -0.15,-0.63 -0.07,-0.64 0.00,-0.65 0.00,-0.65 L 0,-0.65 Z"/></g><g transform="translate(338 339) rotate(0 15 7)" stroke="none"><path fill="#1971c2" d="M -0.62,-0.20 Q -0.62,-0.20 -0.53,-1.13 -0.43,-2.07 0.01,-2.84 0.47,-3.61 0.95,-4.23 1.44,-4.85 2.17,-5.75 2.89,-6.65 3.83,-6.84 4.76,-7.03 5.40,-7.08 6.05,-7.13 7.38,-6.84 8.71,-6.55 10.30,-5.17 11.89,-3.78 13.10,-2.32 14.32,-0.85 14.92,0.80 15.52,2.46 15.49,4.18 15.45,5.89 14.81,7.85 14.17,9.80 13.32,11.76 12.46,13.72 11.83,15.36 11.20,17.00 10.94,17.96 10.67,18.92 10.57,19.04 10.47,19.15 10.40,19.30 10.34,19.45 10.25,19.58 10.15,19.71 10.03,19.82 9.90,19.92 9.76,19.99 9.61,20.06 9.45,20.10 9.30,20.13 9.13,20.13 8.97,20.13 8.81,20.08 8.66,20.04 8.52,19.96 8.37,19.88 8.25,19.77 8.14,19.66 8.05,19.52 7.96,19.39 7.90,19.24 7.85,19.08 7.84,18.92 7.82,18.76 7.84,18.60 7.87,18.44 8.87,18.02 9.88,17.60 10.55,17.34 11.21,17.08 13.00,16.41 14.79,15.74 16.61,14.63 18.44,13.53 19.62,13.01 20.80,12.48 22.33,11.46 23.85,10.44 25.40,9.42 26.95,8.40 26.97,7.88 26.99,7.35 27.07,7.31 27.14,7.28 27.21,7.26 27.29,7.24 27.37,7.24 27.45,7.25 27.53,7.27 27.60,7.29 27.67,7.33 27.74,7.36 27.80,7.42 27.86,7.47 27.90,7.54 27.95,7.60 27.97,7.68 28.00,7.75 28.01,7.83 28.01,7.91 28.00,7.99 27.99,8.07 27.96,8.14 27.93,8.21 27.89,8.28 27.84,8.34 27.78,8.39 27.72,8.44 27.52,8.50 27.32,8.55 27.21,8.53 27.11,8.51 27.02,8.45 26.93,8.39 26.86,8.31 26.79,8.23 26.75,8.13 26.72,8.03 26.71,7.93 26.71,7.82 26.73,7.72 26.76,7.62 26.82,7.53 26.88,7.44 26.97,7.38 27.05,7.31 27.16,7.28 27.26,7.25 27.36,7.25 27.47,7.25 27.57,7.28 27.67,7.32 27.75,7.38 27.84,7.45 27.90,7.54 27.96,7.62 27.98,7.73 28.01,7.83 28.00,7.94 28.00,8.04 27.96,8.14 27.92,8.24 27.85,8.32 27.78,8.40 27.69,8.45 27.60,8.51 27.49,8.53 27.39,8.55 27.28,8.54 27.18,8.53 27.08,8.48 26.99,8.44 26.91,8.36 26.83,8.29 26.78,8.20 26.73,8.10 26.72,8.00 26.70,7.89 26.72,7.79 26.74,7.68 26.79,7.59 26.84,7.50 26.92,7.42 26.99,7.35 27.09,7.31 27.19,7.26 27.09,7.31 26.99,7.35 27.07,7.31 27.14,7.28 27.21,7.26 27.29,7.24 27.37,7.24 27.45,7.25 27.53,7.27 27.60,7.29 27.67,7.33 27.74,7.36 27.80,7.42 27.86,7.47 27.90,7.54 27.95,7.60 27.97,7.68 28.00,7.75 28.01,7.83 28.01,7.91 28.00,7.99 27.99,8.07 27.96,8.14 27.93,8.21 27.89,8.28 27.84,8.34 27.78,8.39 27.72,8.44 28.09,9.54 28.45,10.63 26.90,11.67 25.35,12.71 23.63,13.84 21.91,14.96 20.87,15.42 19.83,15.87 17.79,17.08 15.74,18.28 13.83,18.99 11.93,19.69 10.67,19.95 9.41,20.22 9.94,19.68 10.47,19.15 10.40,19.30 10.34,19.45 10.25,19.58 10.15,19.71 10.03,19.82 9.90,19.92 9.76,19.99 9.61,20.06 9.45,20.10 9.30,20.13 9.13,20.13 8.97,20.13 8.81,20.08 8.66,20.04 8.52,19.96 8.37,19.88 8.25,19.77 8.14,19.66 8.05,19.52 7.96,19.39 7.90,19.24 7.85,19.08 7.84,18.92 7.82,18.76 7.84,18.60 7.87,18.44 8.00,18.28 8.12,18.12 8.40,17.08 8.69,16.04 9.34,14.34 9.99,12.64 10.81,10.78 11.62,8.93 12.20,7.32 12.78,5.72 12.91,4.47 13.03,3.22 12.66,1.97 12.29,0.71 11.22,-0.61 10.15,-1.95 9.06,-3.09 7.98,-4.23 7.08,-4.49 6.17,-4.74 5.62,-4.71 5.06,-4.68 4.36,-4.69 3.66,-4.70 3.42,-4.08 3.19,-3.47 2.75,-2.96 2.31,-2.45 1.95,-1.91 1.58,-1.37 1.10,-0.58 0.62,0.20 0.58,0.27 0.55,0.35 0.50,0.41 0.45,0.47 0.39,0.52 0.32,0.56 0.25,0.59 0.18,0.63 0.10,0.64 0.02,0.65 -0.05,0.64 -0.13,0.64 -0.20,0.61 -0.28,0.59 -0.34,0.55 -0.41,0.50 -0.46,0.45 -0.52,0.39 -0.56,0.32 -0.60,0.25 -0.62,0.18 -0.64,0.10 -0.65,0.02 -0.65,-0.05 -0.63,-0.13 -0.62,-0.20 -0.62,-0.20 L -0.62,-0.20 Z"/></g></svg>