<svg version="1.1" xmlns="http://www.w3.org/2000/svg" viewBox="0 0 697 458" width="697" height="458" class="excalidraw-svg">
  <!-- svg-source:excalidraw -->
  
  <defs>
    <style class="style-fonts">
      
    </style>
    
  </defs>
  <g stroke-linecap="round"><g transform="translate(150 346) rotate(0 224 0)"><path d="M-0.91 -0.37 C73.95 -0.35, 374.1 0.31, 449 0.49 M0.81 -1.61 C75.62 -1.99, 374.05 -1.43, 448.58 -1.38" stroke="#1971c2" stroke-width="4" fill="none"/></g></g><mask/><g stroke-linecap="round"><g transform="translate(151 343) rotate(0 223.5 -108.5)"><path d="M-0.03 0.36 C1.28 -6.63, 1.96 -25.17, 6.88 -41.99 C11.8 -58.8, 18.46 -81.16, 29.47 -100.53 C40.48 -119.91, 56.37 -142.63, 72.94 -158.23 C89.51 -173.83, 112.69 -185.44, 128.9 -194.12 C145.11 -202.79, 157.87 -206.29, 170.2 -210.29 C182.54 -214.28, 192.06 -217.11, 202.89 -218.08 C213.72 -219.05, 218.49 -218.62, 235.2 -216.09 C251.91 -213.57, 284.43 -209.24, 303.16 -202.92 C321.89 -196.61, 331.57 -189.2, 347.57 -178.2 C363.57 -167.21, 386.08 -151.26, 399.16 -136.95 C412.24 -122.65, 418.73 -108.66, 426.04 -92.38 C433.36 -76.1, 439.5 -54.54, 443.04 -39.27 C446.58 -24, 446.55 -7.52, 447.29 -0.78 M-1.51 -0.49 C-0.19 -7.8, 1.31 -27.08, 6.39 -43.58 C11.47 -60.08, 17.74 -80.55, 28.95 -99.49 C40.17 -118.44, 57.19 -141.62, 73.68 -157.25 C90.17 -172.88, 111.65 -184.31, 127.91 -193.26 C144.16 -202.21, 158.6 -207.1, 171.2 -210.95 C183.79 -214.8, 192.44 -215.5, 203.47 -216.34 C214.51 -217.17, 221.06 -218.49, 237.41 -215.96 C253.76 -213.42, 283.13 -207.42, 301.57 -201.13 C320.02 -194.85, 331.77 -189.1, 348.11 -178.24 C364.44 -167.37, 386.81 -150.23, 399.57 -135.94 C412.33 -121.65, 417.37 -108.43, 424.66 -92.48 C431.94 -76.52, 439.61 -55.42, 443.29 -40.24 C446.97 -25.05, 445.95 -8.3, 446.73 -1.38" stroke="#1971c2" stroke-width="4" fill="none"/></g></g><mask/><g transform="translate(376 342) rotate(0 1.5 9.5)" stroke="none"><path fill="#1971c2" d="M -4.98,1.66 Q -4.98,1.66 -6.92,2.04 -8.87,2.43 -9.48,1.82 -10.10,1.21 -10.33,0.05 -10.57,-1.10 -10.52,-2.27 -10.47,-3.45 -10.15,-4.59 -9.82,-5.72 -9.23,-6.74 -8.64,-7.76 -7.82,-8.61 -7.00,-9.46 -6.00,-10.09 -5.01,-10.72 -3.89,-11.10 -2.77,-11.47 -1.59,-11.56 -0.42,-11.66 0.74,-11.47 1.90,-11.28 2.99,-10.81 4.07,-10.35 5.02,-9.64 5.96,-8.93 6.70,-8.02 7.45,-7.10 7.96,-6.04 8.46,-4.97 9.45,0.22 10.44,5.42 11.73,10.96 13.01,16.50 10.48,18.09 7.95,19.69 8.15,20.29 8.35,20.89 8.41,21.52 8.46,22.15 8.37,22.78 8.27,23.40 8.02,23.98 7.78,24.57 7.40,25.08 7.02,25.59 6.53,25.99 6.05,26.39 5.48,26.67 4.91,26.94 4.29,27.07 3.67,27.20 3.03,27.18 2.40,27.16 1.79,26.99 1.18,26.81 0.63,26.50 0.08,26.19 -0.37,25.75 -0.83,25.31 -1.17,24.78 -1.51,24.25 0.32,25.68 2.15,27.11 1.36,26.81 0.57,26.51 -0.08,25.96 -0.73,25.42 -1.18,24.70 -1.63,23.98 -1.82,23.15 -2.02,22.32 -1.94,21.48 -1.86,20.63 -1.51,19.85 -1.16,19.08 -0.59,18.45 -0.01,17.83 0.72,17.42 1.47,17.01 2.31,16.86 3.14,16.72 3.98,16.84 4.82,16.97 5.58,17.36 6.34,17.74 6.93,18.35 7.52,18.96 7.89,19.73 8.26,20.50 8.36,21.34 8.46,22.18 8.29,23.02 8.12,23.85 7.69,24.58 7.26,25.32 6.62,25.87 5.98,26.43 5.20,26.76 4.41,27.08 3.56,27.14 2.71,27.20 1.89,26.98 1.07,26.76 0.36,26.30 -0.34,25.83 -0.86,25.16 -1.38,24.49 -1.67,23.69 -1.95,22.89 -1.96,22.04 -1.97,21.19 -1.71,20.38 -1.45,19.57 -0.94,18.89 -0.44,18.20 0.25,17.72 0.95,17.23 1.76,16.99 2.58,16.75 5.26,18.22 7.95,19.69 8.15,20.29 8.35,20.89 8.41,21.52 8.46,22.15 8.37,22.77 8.27,23.40 8.02,23.98 7.78,24.57 7.40,25.08 7.02,25.59 6.54,25.99 6.05,26.39 5.48,26.67 4.91,26.94 4.29,27.07 3.67,27.20 3.03,27.18 2.40,27.16 1.79,26.99 1.18,26.81 0.63,26.50 0.08,26.19 -0.37,25.75 -0.83,25.31 -1.17,24.78 -1.51,24.25 -3.56,24.33 -5.61,24.42 -6.60,18.91 -7.59,13.39 -8.84,7.30 -10.10,1.21 -10.33,0.05 -10.57,-1.09 -10.52,-2.27 -10.47,-3.45 -10.15,-4.58 -9.82,-5.72 -9.23,-6.74 -8.64,-7.76 -7.82,-8.61 -7.00,-9.46 -6.00,-10.09 -5.01,-10.72 -3.89,-11.10 -2.77,-11.47 -1.59,-11.56 -0.42,-11.66 0.74,-11.47 1.90,-11.28 2.99,-10.81 4.07,-10.35 5.02,-9.64 5.96,-8.93 6.70,-8.02 7.45,-7.11 7.96,-6.04 8.46,-4.97 8.09,-5.43 7.72,-5.88 6.35,-3.77 4.98,-1.66 5.11,-1.04 5.23,-0.42 5.21,0.21 5.18,0.84 5.00,1.45 4.83,2.06 4.51,2.60 4.19,3.15 3.75,3.61 3.32,4.07 2.78,4.40 2.24,4.74 1.64,4.94 1.04,5.14 0.41,5.19 -0.21,5.24 -0.83,5.14 -1.46,5.04 -2.04,4.79 -2.62,4.54 -3.13,4.16 -3.64,3.78 -4.04,3.29 -4.44,2.80 -4.71,2.23 -4.98,1.66 -4.98,1.66 L -4.98,1.66 Z"/></g><g stroke-linecap="round"><g transform="translate(368 127) rotate(0 4.5 113)"><path d="M-0.05 -0.02 C1.37 37.55, 6.72 187.46, 8.09 225.28" stroke="#1971c2" stroke-width="4.5" fill="none" stroke-dasharray="8 12"/></g></g><mask/><g transform="translate(619 374) rotate(0 33.5 6)" stroke="none"><path fill="#1971c2" d="M -3.88,-3.53 Q -3.88,-3.53 -3.71,-9.14 -3.53,-14.76 -0.11,-20.01 3.30,-25.26 4.97,-29.58 6.64,-33.90 7.16,-38.37 7.67,-42.83 7.75,-43.50 7.83,-44.17 8.62,-45.65 9.42,-47.12 10.55,-48.37 11.68,-49.61 13.08,-50.55 14.47,-51.49 16.05,-52.06 17.63,-52.64 19.30,-52.82 20.97,-53.00 22.63,-52.78 24.30,-52.56 25.86,-51.94 27.43,-51.33 28.80,-50.36 30.17,-49.38 31.27,-48.11 32.36,-46.84 33.13,-45.34 33.89,-43.85 34.27,-42.21 34.65,-40.57 34.63,-38.89 34.61,-37.21 34.19,-35.59 33.77,-33.96 32.41,-39.54 31.05,-45.11 33.02,-40.65 34.98,-36.19 36.09,-29.41 37.19,-22.64 37.90,-17.89 38.61,-13.14 39.04,-7.55 39.47,-1.97 40.52,3.97 41.58,9.91 42.59,16.30 43.59,22.69 44.60,27.33 45.61,31.97 45.84,36.80 46.07,41.63 42.08,48.09 38.09,54.56 32.88,57.27 27.66,59.99 22.88,61.57 18.10,63.15 15.03,63.88 11.95,64.61 10.26,65.03 8.57,65.44 6.83,65.44 5.09,65.43 3.40,65.01 1.71,64.59 0.17,63.78 -1.36,62.96 -2.66,61.81 -3.97,60.65 -4.95,59.21 -5.94,57.78 -6.55,56.15 -7.16,54.52 -7.37,52.79 -7.58,51.06 -7.36,49.33 -7.15,47.60 -6.53,45.98 -5.91,44.35 -4.91,42.92 -3.92,41.49 -2.61,40.34 -1.31,39.18 0.23,38.38 1.77,37.57 7.08,36.39 12.39,35.20 19.76,34.06 27.14,32.91 31.46,32.27 35.79,31.62 40.28,31.05 44.77,30.47 51.11,29.04 57.46,27.60 59.22,26.85 60.98,26.10 62.65,25.59 64.31,25.07 66.05,24.97 67.79,24.88 69.51,25.20 71.22,25.52 72.81,26.24 74.39,26.96 75.76,28.04 77.13,29.12 78.20,30.50 79.27,31.88 79.98,33.47 80.69,35.06 81.00,36.78 81.30,38.49 81.19,40.23 81.08,41.97 80.55,43.64 80.03,45.30 79.12,46.79 78.21,48.27 76.98,49.50 75.74,50.73 74.24,51.63 72.75,52.52 65.37,51.25 58.00,49.98 55.25,44.73 52.50,39.48 51.78,39.03 51.06,38.58 50.52,37.92 49.98,37.27 49.67,36.47 49.37,35.68 49.34,34.83 49.31,33.98 49.55,33.16 49.79,32.35 50.28,31.65 50.77,30.96 51.45,30.45 52.14,29.95 52.95,29.69 53.76,29.43 54.61,29.45 55.46,29.46 56.26,29.75 57.06,30.03 57.73,30.56 58.39,31.08 58.86,31.79 59.32,32.50 59.54,33.33 59.75,34.15 59.69,35.00 59.63,35.84 59.31,36.63 58.98,37.41 58.42,38.05 57.86,38.69 57.12,39.12 56.39,39.54 55.55,39.71 54.72,39.88 53.88,39.78 53.03,39.67 52.27,39.30 51.50,38.93 50.89,38.34 50.29,37.74 49.90,36.98 49.52,36.23 49.39,35.39 49.27,34.55 49.42,33.71 49.57,32.87 49.98,32.13 50.39,31.38 51.02,30.81 51.64,30.24 52.42,29.89 53.20,29.55 54.05,29.47 54.89,29.39 55.72,29.59 56.55,29.78 56.55,29.78 56.54,29.78 60.14,28.39 63.74,27.00 68.66,27.07 73.58,27.13 67.28,26.61 60.98,26.10 62.64,25.59 64.31,25.07 66.05,24.97 67.79,24.88 69.51,25.20 71.22,25.52 72.81,26.24 74.39,26.96 75.76,28.04 77.13,29.12 78.20,30.50 79.27,31.87 79.98,33.47 80.69,35.06 81.00,36.78 81.30,38.49 81.19,40.23 81.08,41.97 80.56,43.63 80.03,45.30 79.12,46.79 78.21,48.27 76.98,49.50 75.74,50.73 74.24,51.63 72.75,52.52 70.53,53.37 68.32,54.22 63.69,55.52 59.06,56.82 53.72,57.98 48.39,59.13 40.28,60.23 32.16,61.32 27.54,62.13 22.92,62.94 17.44,63.78 11.96,64.61 10.26,65.03 8.57,65.44 6.83,65.44 5.09,65.43 3.40,65.01 1.71,64.59 0.17,63.78 -1.36,62.97 -2.66,61.81 -3.96,60.65 -4.95,59.21 -5.94,57.78 -6.55,56.15 -7.16,54.52 -7.37,52.79 -7.58,51.06 -7.36,49.33 -7.15,47.60 -6.53,45.98 -5.91,44.35 -4.91,42.92 -3.92,41.49 -2.61,40.34 -1.31,39.18 0.23,38.38 1.77,37.57 4.27,36.93 6.78,36.28 12.01,35.41 17.24,34.53 21.06,31.72 24.89,28.90 21.31,31.99 17.74,35.08 16.69,30.25 15.64,25.42 14.90,20.70 14.17,15.98 12.87,8.49 11.56,1.01 10.99,-5.63 10.42,-12.28 9.48,-18.40 8.55,-24.52 9.66,-28.73 10.77,-32.94 9.30,-38.55 7.82,-44.17 8.62,-45.64 9.42,-47.12 10.55,-48.37 11.68,-49.61 13.08,-50.55 14.47,-51.49 16.05,-52.06 17.63,-52.64 19.30,-52.82 20.97,-53.00 22.63,-52.78 24.30,-52.56 25.86,-51.94 27.42,-51.33 28.80,-50.36 30.17,-49.39 31.26,-48.11 32.36,-46.84 33.13,-45.35 33.89,-43.85 34.27,-42.21 34.65,-40.58 34.63,-38.90 34.61,-37.22 34.19,-35.59 33.77,-33.96 33.01,-30.80 32.25,-27.64 30.24,-22.36 28.23,-17.08 24.40,-10.88 20.57,-4.68 17.80,-1.28 15.03,2.11 9.46,2.82 3.88,3.53 3.40,3.94 2.92,4.36 2.36,4.64 1.79,4.93 1.18,5.07 0.56,5.22 -0.06,5.21 -0.70,5.20 -1.31,5.04 -1.92,4.88 -2.48,4.58 -3.03,4.28 -3.50,3.85 -3.97,3.43 -4.32,2.90 -4.68,2.38 -4.89,1.78 -5.11,1.19 -5.18,0.56 -5.25,-0.06 -5.16,-0.69 -5.08,-1.32 -4.85,-1.91 -4.61,-2.50 -4.25,-3.01 -3.88,-3.53 -3.88,-3.53 L -3.88,-3.53 Z"/></g><g transform="translate(10 406) rotate(0 25 -4)" stroke="none"><path fill="#1971c2" d="M -1.79,-4.93 Q -1.79,-4.93 0.34,-8.89 2.49,-12.84 8.65,-14.33 14.81,-15.82 19.06,-16.48 23.31,-17.14 31.43,-17.99 39.56,-18.84 41.70,-15.55 43.84,-12.26 44.47,-12.16 45.09,-12.06 45.68,-11.81 46.26,-11.56 46.77,-11.18 47.27,-10.81 47.68,-10.32 48.08,-9.83 48.35,-9.26 48.62,-8.68 48.75,-8.06 48.88,-7.44 48.86,-6.81 48.83,-6.18 48.66,-5.57 48.48,-4.96 48.17,-4.41 47.85,-3.86 47.42,-3.40 46.98,-2.95 46.45,-2.61 45.91,-2.27 45.31,-2.06 44.71,-1.86 44.08,-1.81 43.45,-1.76 42.75,-1.88 42.06,-2.00 41.30,-2.38 40.54,-2.77 39.94,-3.38 39.35,-3.98 38.98,-4.75 38.61,-5.51 38.50,-6.36 38.40,-7.20 38.56,-8.03 38.73,-8.87 39.16,-9.60 39.58,-10.34 40.22,-10.90 40.86,-11.46 41.64,-11.79 42.43,-12.12 43.28,-12.18 44.12,-12.24 44.95,-12.02 45.77,-11.81 46.48,-11.35 47.19,-10.88 47.72,-10.21 48.24,-9.55 48.53,-8.75 48.81,-7.95 48.83,-7.10 48.84,-6.25 48.59,-5.44 48.33,-4.63 47.83,-3.94 47.32,-3.25 46.63,-2.77 45.93,-2.28 45.12,-2.04 44.30,-1.79 43.45,-1.83 42.60,-1.86 41.81,-2.16 41.02,-2.46 40.36,-3.00 39.70,-3.54 39.25,-4.26 38.80,-4.98 38.60,-5.81 38.41,-6.63 38.48,-7.48 38.56,-8.33 38.90,-9.10 39.25,-9.88 39.82,-10.51 40.40,-11.13 41.14,-11.54 41.88,-11.96 42.72,-12.11 43.56,-12.26 43.70,-12.26 43.84,-12.26 44.47,-12.16 45.09,-12.06 45.68,-11.81 46.26,-11.56 46.77,-11.18 47.27,-10.81 47.68,-10.32 48.08,-9.83 48.35,-9.26 48.62,-8.68 48.75,-8.06 48.88,-7.44 48.86,-6.81 48.83,-6.18 48.66,-5.57 48.48,-4.96 48.17,-4.41 47.85,-3.86 47.42,-3.40 46.98,-2.95 46.45,-2.61 45.91,-2.27 45.31,-2.06 44.71,-1.86 44.08,-1.81 43.45,-1.76 42.69,1.19 41.93,4.15 37.66,4.59 33.38,5.02 28.31,5.48 23.23,5.93 16.69,7.09 10.15,8.24 5.97,6.59 1.79,4.93 1.17,5.08 0.56,5.22 -0.07,5.21 -0.70,5.20 -1.31,5.04 -1.93,4.88 -2.48,4.58 -3.04,4.28 -3.51,3.85 -3.97,3.42 -4.33,2.90 -4.68,2.37 -4.90,1.78 -5.11,1.18 -5.18,0.55 -5.25,-0.07 -5.16,-0.69 -5.08,-1.32 -4.85,-1.91 -4.61,-2.50 -4.25,-3.02 -3.88,-3.53 -3.40,-3.95 -2.92,-4.36 -2.35,-4.65 -1.79,-4.93 -1.79,-4.93 L -1.79,-4.93 Z"/></g><g transform="translate(104 378) rotate(0 26 7)" stroke="none"><path fill="#1971c2" d="M -4.98,1.66 Q -4.98,1.66 -8.63,-0.07 -12.29,-1.80 -12.74,-6.45 -13.19,-11.11 -12.92,-16.74 -12.65,-22.38 -12.55,-27.97 -12.46,-33.57 -12.53,-37.87 -12.59,-42.16 -12.99,-43.05 -13.39,-43.93 -13.21,-45.34 -13.04,-46.76 -12.53,-48.09 -12.02,-49.42 -11.21,-50.59 -10.40,-51.76 -9.33,-52.70 -8.26,-53.64 -7.00,-54.30 -5.74,-54.96 -4.35,-55.30 -2.97,-55.63 -1.55,-55.63 -0.12,-55.63 1.25,-55.28 2.63,-54.94 3.89,-54.27 5.15,-53.61 6.21,-52.66 7.28,-51.72 8.08,-50.54 8.89,-49.37 9.39,-48.04 9.89,-46.70 10.06,-45.29 10.23,-43.88 11.65,-35.77 13.07,-27.67 14.80,-22.84 16.54,-18.01 18.31,-11.94 20.09,-5.87 21.62,-0.95 23.15,3.96 24.66,8.63 26.17,13.30 27.46,17.82 28.76,22.33 29.90,26.56 31.03,30.80 32.25,37.31 33.46,43.82 32.81,49.37 32.16,54.93 29.05,59.48 25.94,64.03 18.95,64.74 11.96,65.45 11.12,60.85 10.28,56.26 8.27,51.55 6.27,46.84 12.70,46.08 19.13,45.32 25.13,44.60 31.13,43.88 38.44,42.49 45.75,41.11 47.71,40.28 49.66,39.45 51.25,39.22 52.84,38.99 54.45,39.14 56.05,39.30 57.57,39.83 59.08,40.37 60.43,41.25 61.78,42.13 62.87,43.31 63.97,44.49 64.75,45.89 65.53,47.30 65.96,48.85 66.38,50.41 66.42,52.02 66.46,53.62 66.11,55.20 65.76,56.77 65.05,58.21 64.34,59.65 63.30,60.88 62.26,62.11 60.96,63.06 59.66,64.01 58.17,64.61 56.68,65.22 51.64,63.40 46.61,61.58 48.60,58.13 50.59,54.68 49.97,54.56 49.35,54.44 48.77,54.17 48.20,53.91 47.70,53.51 47.21,53.12 46.82,52.61 46.44,52.11 46.18,51.53 45.93,50.95 45.82,50.33 45.71,49.71 45.76,49.07 45.80,48.44 45.99,47.84 46.19,47.24 46.52,46.70 46.85,46.16 47.31,45.72 47.76,45.27 48.30,44.95 48.85,44.63 49.45,44.44 50.06,44.26 50.69,44.23 51.33,44.20 48.73,45.78 46.13,47.36 46.59,46.64 47.05,45.93 47.71,45.40 48.38,44.86 49.17,44.57 49.97,44.28 50.82,44.26 51.67,44.23 52.48,44.48 53.29,44.73 53.99,45.23 54.68,45.72 55.17,46.42 55.67,47.11 55.92,47.92 56.16,48.73 56.14,49.58 56.12,50.43 55.82,51.23 55.53,52.03 55.00,52.69 54.46,53.35 53.75,53.81 53.03,54.26 52.21,54.47 51.38,54.67 50.54,54.60 49.69,54.54 48.91,54.20 48.13,53.86 47.49,53.29 46.86,52.73 46.44,51.99 46.03,51.25 45.87,50.41 45.71,49.58 45.82,48.73 45.94,47.89 46.32,47.13 46.69,46.37 47.30,45.77 47.90,45.17 48.66,44.79 49.42,44.41 50.26,44.30 51.10,44.19 51.94,44.35 52.77,44.51 53.51,44.93 54.25,45.35 54.82,45.98 55.39,46.61 55.72,47.39 56.06,48.17 56.13,49.02 56.19,49.87 53.39,52.27 50.59,54.68 49.97,54.56 49.35,54.44 48.77,54.17 48.20,53.91 47.70,53.51 47.21,53.12 46.82,52.62 46.44,52.11 46.18,51.53 45.93,50.95 45.82,50.33 45.71,49.71 45.76,49.07 45.80,48.44 45.99,47.84 46.19,47.24 46.52,46.70 46.85,46.16 47.31,45.72 47.76,45.27 48.30,44.95 48.85,44.63 49.45,44.44 50.06,44.26 50.69,44.23 51.33,44.20 55.42,43.45 59.52,42.70 54.59,41.08 49.66,39.45 51.25,39.22 52.84,38.99 54.44,39.14 56.05,39.30 57.56,39.83 59.08,40.37 60.43,41.25 61.78,42.13 62.87,43.31 63.97,44.49 64.75,45.89 65.53,47.30 65.96,48.85 66.38,50.40 66.42,52.01 66.46,53.62 66.11,55.19 65.76,56.77 65.05,58.21 64.34,59.65 63.30,60.88 62.26,62.11 60.96,63.06 59.66,64.01 58.17,64.61 56.68,65.22 56.09,65.33 55.51,65.45 49.50,66.64 43.48,67.82 38.61,68.53 33.74,69.25 28.04,69.77 22.34,70.28 17.17,70.86 12.00,71.43 4.47,70.70 -3.05,69.98 -7.29,63.97 -11.54,57.95 -6.08,50.17 -0.62,42.39 4.83,41.65 10.28,40.92 15.89,42.05 21.50,43.19 15.33,43.11 9.16,43.03 7.38,35.98 5.60,28.92 4.45,24.81 3.30,20.71 1.74,15.93 0.19,11.14 -1.42,5.99 -3.03,0.84 -4.60,-4.59 -6.18,-10.04 -8.25,-16.08 -10.33,-22.12 -11.47,-27.01 -12.61,-31.89 -13.00,-37.91 -13.39,-43.93 -13.21,-45.34 -13.04,-46.76 -12.53,-48.09 -12.02,-49.42 -11.21,-50.59 -10.40,-51.76 -9.33,-52.70 -8.26,-53.64 -7.00,-54.30 -5.74,-54.96 -4.35,-55.30 -2.97,-55.63 -1.55,-55.63 -0.12,-55.63 1.25,-55.28 2.63,-54.94 3.89,-54.28 5.15,-53.61 6.21,-52.66 7.28,-51.72 8.08,-50.54 8.89,-49.37 9.39,-48.04 9.89,-46.71 10.06,-45.29 10.23,-43.88 10.35,-41.40 10.48,-38.92 10.40,-33.03 10.33,-27.15 9.85,-22.19 9.37,-17.23 9.10,-12.89 8.84,-8.54 6.91,-5.10 4.98,-1.66 5.11,-1.04 5.23,-0.42 5.21,0.21 5.18,0.84 5.00,1.45 4.83,2.06 4.51,2.60 4.19,3.15 3.75,3.61 3.32,4.07 2.78,4.40 2.24,4.74 1.64,4.94 1.04,5.14 0.41,5.19 -0.21,5.24 -0.83,5.14 -1.46,5.04 -2.04,4.79 -2.62,4.54 -3.13,4.16 -3.64,3.78 -4.04,3.29 -4.44,2.80 -4.71,2.23 -4.98,1.66 -4.98,1.66 L -4.98,1.66 Z"/></g><g transform="translate(389 397) rotate(0 22 19.5)" stroke="none"><path fill="#1971c2" d="M 0,5.25 Q 0,5.25 -2.23,8.30 -4.46,11.35 -3.03,16.07 -1.60,20.79 -0.28,25.41 1.03,30.02 6.56,32.95 12.09,35.88 17.88,36.60 23.66,37.31 28.50,36.25 33.33,35.19 36.78,31.64 40.23,28.09 42.01,23.69 43.78,19.29 41.44,14.15 39.09,9.00 35.17,6.09 31.24,3.18 25.99,5.16 20.73,7.15 15.09,10.85 9.45,14.56 3.07,14.58 -3.29,14.60 -3.95,15.14 -4.60,15.68 -5.40,15.97 -6.19,16.27 -7.04,16.30 -7.89,16.33 -8.71,16.09 -9.52,15.85 -10.22,15.36 -10.91,14.87 -11.41,14.18 -11.91,13.49 -12.17,12.68 -12.42,11.87 -12.41,11.02 -12.39,10.17 -12.10,9.37 -11.82,8.57 -11.29,7.91 -10.76,7.24 -10.05,6.78 -9.34,6.31 -8.51,6.10 -7.69,5.89 -6.84,5.95 -5.99,6.02 -5.21,6.35 -4.43,6.68 -3.79,7.24 -3.15,7.80 -2.73,8.54 -2.31,9.27 -2.14,10.11 -1.97,10.94 -2.08,11.78 -2.19,12.63 -2.56,13.39 -2.93,14.16 -3.53,14.76 -4.13,15.37 -4.89,15.75 -5.64,16.13 -6.49,16.25 -7.33,16.37 -8.16,16.22 -9.00,16.07 -9.74,15.65 -10.49,15.24 -11.06,14.61 -11.63,13.98 -11.97,13.21 -12.31,12.43 -12.39,11.58 -12.46,10.73 -12.26,9.91 -12.07,9.08 -11.61,8.36 -11.16,7.64 -11.16,7.64 -11.16,7.64 -9.61,-0.11 -8.07,-7.88 -4.28,-11.01 -0.49,-14.14 4.57,-17.15 9.64,-20.15 15.40,-22.30 21.17,-24.44 27.30,-25.03 33.44,-25.61 39.11,-24.23 44.77,-22.85 48.95,-20.35 53.14,-17.85 56.48,-14.57 59.83,-11.30 62.62,-7.11 65.42,-2.91 67.31,1.58 69.20,6.09 70.30,11.09 71.41,16.10 71.03,22.25 70.66,28.40 68.86,32.97 67.07,37.55 63.93,42.45 60.80,47.35 56.14,51.76 51.47,56.17 46.04,58.83 40.61,61.50 35.63,62.51 30.65,63.53 25.80,63.50 20.95,63.48 16.16,62.79 11.37,62.09 6.96,60.79 2.54,59.50 -2.73,57.03 -8.01,54.56 -11.99,51.21 -15.97,47.86 -19.13,43.41 -22.30,38.95 -23.74,34.63 -25.18,30.31 -25.78,25.57 -26.39,20.82 -26.14,15.92 -25.89,11.02 -23.28,4.29 -20.66,-2.43 -17.19,-5.55 -13.73,-8.66 -9.23,-10.00 -4.73,-11.35 -2.36,-8.30 0,-5.25 0.62,-5.17 1.25,-5.10 1.84,-4.87 2.44,-4.65 2.96,-4.29 3.48,-3.93 3.90,-3.45 4.32,-2.98 4.61,-2.42 4.91,-1.86 5.06,-1.24 5.21,-0.63 5.21,0.00 5.21,0.63 5.06,1.24 4.91,1.86 4.61,2.42 4.32,2.98 3.90,3.45 3.48,3.93 2.96,4.29 2.44,4.65 1.84,4.87 1.25,5.10 0.62,5.17 -0.00,5.25 -0.00,5.25 L 0,5.25 Z"/></g><g transform="translate(349 44) rotate(0 27.5 6.5)" stroke="none"><path fill="#1971c2" d="M -5.12,-1.13 Q -5.12,-1.13 -7.53,-4.38 -9.94,-7.63 -8.59,-13.82 -7.25,-20.00 -6.47,-24.79 -5.70,-29.58 5.24,-30.74 16.20,-31.91 17.51,-24.83 18.83,-17.75 21.00,-9.42 23.18,-1.10 24.15,3.59 25.13,8.29 26.56,14.68 27.98,21.08 28.81,26.39 29.64,31.69 29.34,36.17 29.04,40.65 24.53,45.31 20.03,49.98 15.36,50.52 10.69,51.07 5.45,53.52 0.21,55.97 -1.46,56.79 -3.15,57.60 -4.49,57.90 -5.83,58.19 -7.21,58.16 -8.59,58.13 -9.91,57.76 -11.24,57.40 -12.45,56.73 -13.65,56.06 -14.66,55.13 -15.67,54.19 -16.42,53.04 -17.17,51.89 -17.63,50.59 -18.09,49.29 -18.22,47.92 -18.35,46.55 -18.15,45.19 -17.96,43.82 -17.44,42.55 -16.92,41.27 -16.11,40.16 -15.30,39.05 -14.25,38.16 -13.19,37.27 -11.96,36.66 -10.73,36.05 -5.28,35.59 0.15,35.12 7.79,33.10 15.43,31.07 22.18,29.48 28.94,27.89 33.11,26.94 37.29,25.99 45.17,24.91 53.05,23.82 56.54,23.18 60.02,22.55 61.43,22.53 62.84,22.50 64.21,22.82 65.58,23.13 66.83,23.76 68.09,24.39 69.16,25.31 70.23,26.22 71.05,27.36 71.86,28.51 72.39,29.81 72.91,31.12 73.10,32.51 73.29,33.90 73.15,35.30 73.00,36.70 72.53,38.02 72.05,39.35 71.27,40.52 70.49,41.69 69.46,42.64 68.42,43.59 67.19,44.26 65.95,44.94 64.59,45.30 63.24,45.66 57.88,43.38 52.52,41.10 51.67,41.07 50.82,41.03 50.03,40.73 49.23,40.42 48.58,39.88 47.92,39.34 47.48,38.61 47.03,37.89 46.84,37.06 46.65,36.23 46.73,35.39 46.81,34.54 47.16,33.77 47.51,32.99 48.08,32.37 48.66,31.74 49.41,31.34 50.15,30.93 50.99,30.78 51.83,30.63 52.67,30.76 53.51,30.89 54.26,31.28 55.02,31.67 55.61,32.28 56.20,32.89 56.57,33.66 56.93,34.42 57.03,35.27 57.14,36.11 56.96,36.94 56.79,37.77 56.36,38.51 55.93,39.24 55.29,39.80 54.65,40.36 53.86,40.68 53.08,41.00 52.23,41.06 51.38,41.12 50.56,40.90 49.74,40.68 49.03,40.21 48.32,39.74 47.80,39.07 47.28,38.40 46.99,37.60 46.71,36.80 46.70,35.95 46.69,35.10 46.96,34.29 47.22,33.48 47.72,32.80 48.23,32.12 48.93,31.63 49.63,31.15 50.44,30.91 51.26,30.67 51.26,30.67 51.26,30.67 55.64,26.61 60.02,22.55 61.43,22.53 62.84,22.50 64.21,22.82 65.58,23.13 66.83,23.76 68.09,24.39 69.16,25.31 70.23,26.22 71.04,27.36 71.86,28.51 72.38,29.81 72.91,31.12 73.10,32.51 73.29,33.90 73.15,35.30 73.00,36.70 72.53,38.02 72.05,39.35 71.27,40.52 70.49,41.69 69.46,42.64 68.42,43.59 67.19,44.26 65.95,44.94 64.60,45.30 63.24,45.66 59.16,46.34 55.08,47.03 48.72,47.89 42.36,48.75 38.19,49.66 34.02,50.57 27.94,51.88 21.86,53.19 16.37,54.71 10.88,56.22 3.86,56.91 -3.14,57.60 -4.49,57.89 -5.83,58.19 -7.21,58.16 -8.59,58.13 -9.91,57.76 -11.24,57.40 -12.45,56.73 -13.65,56.06 -14.66,55.13 -15.66,54.19 -16.42,53.04 -17.17,51.89 -17.63,50.59 -18.09,49.29 -18.22,47.92 -18.35,46.55 -18.15,45.19 -17.96,43.82 -17.44,42.55 -16.92,41.27 -16.11,40.16 -15.30,39.05 -14.25,38.16 -13.20,37.27 -11.96,36.66 -10.73,36.05 -10.79,36.09 -10.85,36.13 -6.35,34.07 -1.84,32.00 2.73,31.46 7.30,30.91 6.21,25.12 5.12,19.33 3.79,13.78 2.45,8.22 0.94,2.20 -0.57,-3.81 -2.77,-11.85 -4.96,-19.90 -5.43,-26.98 -5.90,-34.07 1.94,-37.76 9.79,-41.45 13.35,-34.29 16.92,-27.13 15.90,-20.81 14.88,-14.49 13.56,-8.60 12.24,-2.71 8.68,-0.78 5.12,1.13 4.91,1.73 4.70,2.33 4.35,2.86 4.01,3.39 3.54,3.82 3.08,4.25 2.52,4.56 1.97,4.86 1.36,5.03 0.75,5.19 0.11,5.21 -0.51,5.22 -1.13,5.09 -1.74,4.95 -2.31,4.67 -2.88,4.39 -3.36,3.98 -3.85,3.57 -4.22,3.06 -4.59,2.54 -4.83,1.96 -5.07,1.37 -5.16,0.74 -5.25,0.12 -5.18,-0.50 -5.12,-1.14 -5.12,-1.13 L -5.12,-1.13 Z"/></g></svg>