<svg version="1.1" xmlns="http://www.w3.org/2000/svg" viewBox="0 0 978.5314140600199 721.0232705784681" width="978.5314140600199" height="721.0232705784681" class="excalidraw-svg">
  <!-- svg-source:excalidraw -->
  
  <defs>
    <style class="style-fonts">
      
    </style>
    
  </defs>
  <g stroke-linecap="round" transform="translate(101.25153224427999 100.04654115693597) rotate(0 97 92)"><path d="M128.23 4.65 C139.88 6.89, 152.28 15.31, 161.53 23.28 C170.78 31.25, 178.38 41.77, 183.75 52.46 C189.11 63.14, 192.76 75.85, 193.71 87.38 C194.65 98.91, 193.56 110.8, 189.44 121.64 C185.31 132.48, 177.41 143.39, 168.94 152.42 C160.48 161.44, 149.89 170.55, 138.65 175.8 C127.4 181.04, 113.8 183.56, 101.49 183.9 C89.19 184.23, 76.4 181.74, 64.83 177.79 C53.27 173.84, 41.49 167.87, 32.11 160.19 C22.73 152.52, 13.74 142.26, 8.57 131.73 C3.4 121.19, 1.48 108.56, 1.08 96.98 C0.67 85.4, 2.27 73.22, 6.12 62.26 C9.97 51.3, 16.14 40.19, 24.19 31.23 C32.25 22.27, 43.19 13.81, 54.45 8.5 C65.71 3.2, 78.69 -0.33, 91.74 -0.6 C104.79 -0.87, 125.81 5.42, 132.75 6.89 C139.69 8.36, 134 6.93, 133.37 8.23 M141.88 9.88 C152.86 13.83, 162.85 23.35, 170.89 32.54 C178.94 41.72, 186.13 53.6, 190.13 65 C194.13 76.4, 196.13 89.29, 194.89 100.92 C193.66 112.55, 189.01 124.34, 182.7 134.8 C176.4 145.26, 166.7 156.18, 157.06 163.68 C147.41 171.17, 136.44 176.38, 124.81 179.75 C113.18 183.12, 99.39 185.2, 87.29 183.88 C75.18 182.56, 63.18 177.44, 52.17 171.81 C41.17 166.19, 29.07 158.96, 21.26 150.11 C13.46 141.27, 8.86 129.86, 5.32 118.75 C1.78 107.64, -0.79 94.95, 0.03 83.44 C0.84 71.94, 4.31 60.3, 10.23 49.73 C16.15 39.16, 25.88 27.87, 35.54 20.02 C45.2 12.17, 56.4 5.97, 68.19 2.63 C79.99 -0.72, 93.79 -1.61, 106.32 -0.05 C118.84 1.51, 137.32 9.83, 143.32 11.98 C149.32 14.12, 142.92 11.42, 142.31 12.81" stroke="#1971c2" stroke-width="2" fill="none"/></g><g stroke-linecap="round" transform="translate(611.2282616658119 65.04654115693597) rotate(0 119.5 102.5)"><path d="M168.03 8.32 C181.23 11.37, 194.57 20.61, 204.78 29.47 C214.98 38.33, 223.59 50.01, 229.28 61.45 C234.96 72.9, 238.38 85.82, 238.89 98.12 C239.39 110.42, 236.75 123.64, 232.31 135.24 C227.87 146.84, 221.35 158.11, 212.24 167.72 C203.13 177.33, 190.39 186.91, 177.66 192.88 C164.94 198.86, 150.11 202.2, 135.91 203.59 C121.72 204.99, 106.35 204.09, 92.49 201.27 C78.63 198.44, 64.58 193.47, 52.76 186.66 C40.93 179.85, 29.85 170.63, 21.54 160.39 C13.22 150.15, 6.15 137.27, 2.86 125.23 C-0.43 113.19, -0.16 100.31, 1.8 88.16 C3.76 76.01, 7.73 63.21, 14.62 52.34 C21.51 41.47, 32.01 30.81, 43.16 22.94 C54.31 15.06, 67.88 8.93, 81.53 5.09 C95.18 1.25, 109.46 -1.24, 125.06 -0.11 C140.66 1.02, 165.7 9.07, 175.12 11.87 C184.54 14.66, 182.46 15.1, 181.57 16.66 M164.46 6.32 C177.61 8.82, 189.67 17.94, 199.92 26.56 C210.16 35.18, 219.36 46.93, 225.92 58.05 C232.48 69.17, 238.02 81.05, 239.29 93.27 C240.56 105.49, 237.6 119.51, 233.53 131.37 C229.46 143.23, 223.46 154.52, 214.88 164.46 C206.3 174.39, 194.25 184.72, 182.08 190.95 C169.9 197.19, 156 199.88, 141.85 201.87 C127.7 203.87, 111.43 205.17, 97.18 202.93 C82.93 200.68, 68.54 195.09, 56.35 188.42 C44.16 181.75, 32.7 172.7, 24.04 162.9 C15.38 153.1, 8.18 141.16, 4.39 129.61 C0.6 118.06, -0.11 105.9, 1.29 93.6 C2.7 81.31, 6.69 67.25, 12.82 55.83 C18.95 44.42, 27.18 33.41, 38.07 25.12 C48.96 16.84, 64.57 10.41, 78.17 6.14 C91.77 1.87, 105.53 -0.82, 119.67 -0.48 C133.81 -0.14, 155.93 6.81, 163 8.17 C170.07 9.53, 162.99 6.06, 162.07 7.7" stroke="#1971c2" stroke-width="2" fill="none"/></g><g stroke-linecap="round" transform="translate(69.36788513661992 455.93018826459604) rotate(0 124 122.5)"><path d="M32 0 C102.62 -2.64, 169.26 -2.31, 216 0 M32 0 C76.9 -1.41, 122.41 -0.66, 216 0 M216 0 C237.02 0.26, 249.37 12, 248 32 M216 0 C235.07 0.37, 247.65 11.09, 248 32 M248 32 C248.32 74.22, 249.29 119.05, 248 213 M248 32 C246.54 87.37, 246.99 140.75, 248 213 M248 213 C247.36 234.01, 238.74 244.6, 216 245 M248 213 C245.97 232.16, 239.42 246.25, 216 245 M216 245 C161.45 248.47, 103.56 247.43, 32 245 M216 245 C174.4 243.96, 134.54 244.31, 32 245 M32 245 C8.89 243.95, 1.84 235.93, 0 213 M32 245 C9.34 242.97, 1.23 236.22, 0 213 M0 213 C-1.72 139.82, 0.78 70.59, 0 32 M0 213 C-0.04 140.94, 0.73 69.88, 0 32 M0 32 C1.78 11.02, 8.92 -1.33, 32 0 M0 32 C-2.07 8.98, 9.65 -0.37, 32 0" stroke="#1971c2" stroke-width="2" fill="none"/></g><g stroke-linecap="round" transform="translate(558.298073401216 401.0232705784681) rotate(0 165.5 155)"><path d="M207.5 39 C236.86 65.81, 262.63 95.17, 289.5 117 M207.5 39 C232.56 62.83, 258.47 86.4, 289.5 117 M289.5 117 C332.18 156.74, 332.09 156.39, 289.5 195 M289.5 117 C329.52 157.44, 329.08 154.07, 289.5 195 M289.5 195 C263.43 220.53, 236.6 244.24, 207.5 271 M289.5 195 C271.25 212.89, 250.1 231.99, 207.5 271 M207.5 271 C167.3 309.37, 167.47 310.11, 124.5 271 M207.5 271 C165.69 311.56, 166.68 310.23, 124.5 271 M124.5 271 C97.22 243.35, 65.59 217.18, 41.5 195 M124.5 271 C99.92 250.47, 75.94 228.29, 41.5 195 M41.5 195 C0 154.1, -0.46 154.46, 41.5 117 M41.5 195 C0.91 154.65, 0.73 156.26, 41.5 117 M41.5 117 C70.44 91.08, 97.86 63.26, 124.5 39 M41.5 117 C69.11 92.54, 94.11 68.5, 124.5 39 M124.5 39 C164.65 0.69, 165.25 0.45, 207.5 39 M124.5 39 C168.09 0.58, 165.64 -0.31, 207.5 39" stroke="#1971c2" stroke-width="2" fill="none"/></g><g stroke-linecap="round"><g transform="translate(270.68214927845554 129.40090771593958) rotate(0 171.099613144067 -11.946436210398986)"><path d="M-0.71 0.64 C26.72 -3.87, 106.42 -26.69, 163.6 -26.19 C220.77 -25.69, 312.59 -1.26, 342.36 3.63 M1.13 -0.07 C28.56 -5.04, 106.42 -28.53, 163.17 -28.21 C219.93 -27.88, 311.8 -2.98, 341.68 1.88" stroke="#f08c00" stroke-width="2" fill="none"/></g><g transform="translate(270.68214927845554 129.40090771593958) rotate(0 171.099613144067 -11.946436210398986)"><path d="M316.93 5.44 C323.48 6.46, 328.27 4.26, 341.68 1.88 M316.93 5.44 C326.35 3.45, 336.08 2.34, 341.68 1.88" stroke="#f08c00" stroke-width="2" fill="none"/></g><g transform="translate(270.68214927845554 129.40090771593958) rotate(0 171.099613144067 -11.946436210398986)"><path d="M320.43 -11.3 C326.33 -6.57, 330.33 -5.04, 341.68 1.88 M320.43 -11.3 C328.47 -6.68, 336.82 -1.2, 341.68 1.88" stroke="#f08c00" stroke-width="2" fill="none"/></g></g><mask/><g transform="translate(403.274802822748 43) rotate(0 17.5 11)" stroke="none"><path fill="#f08c00" d="M 0,1.31 Q 0,1.31 -1.48,1.76 -2.96,2.22 -4.55,0.84 -6.15,-0.52 -5.64,-1.85 -5.12,-3.18 -3.63,-3.94 -2.13,-4.70 -0.12,-5.83 1.88,-6.96 5.61,-9.04 9.35,-11.11 14.04,-13.97 18.72,-16.83 23.53,-20.30 28.34,-23.77 31.23,-26.09 34.11,-28.42 35.14,-29.31 36.17,-30.21 34.94,-29.91 33.71,-29.62 31.53,-28.05 29.35,-26.48 26.27,-24.09 23.19,-21.69 19.95,-18.45 16.70,-15.21 14.57,-11.97 12.44,-8.74 11.61,-5.86 10.79,-2.98 10.38,-1.50 9.98,-0.02 11.09,1.14 12.19,2.31 14.12,2.00 16.06,1.69 19.66,0.28 23.26,-1.12 25.15,-2.00 27.04,-2.88 30.33,-4.92 33.63,-6.97 36.53,-8.73 39.43,-10.50 40.73,-11.24 42.03,-11.99 42.26,-12.69 42.49,-13.39 42.76,-13.53 43.03,-13.66 43.32,-13.73 43.61,-13.80 43.90,-13.80 44.20,-13.80 44.49,-13.73 44.78,-13.66 45.05,-13.52 45.31,-13.38 45.53,-13.18 45.75,-12.98 45.92,-12.73 46.09,-12.48 46.20,-12.20 46.30,-11.92 46.33,-11.63 46.37,-11.33 46.33,-11.04 46.29,-10.74 46.19,-10.46 46.08,-10.18 45.91,-9.94 45.74,-9.69 45.51,-9.50 45.29,-9.30 43.37,-8.50 41.45,-7.71 39.04,-5.61 36.63,-3.50 33.26,-0.02 29.89,3.44 27.10,7.40 24.31,11.35 22.60,14.90 20.89,18.44 20.72,20.56 20.54,22.68 21.68,23.81 22.82,24.94 24.57,26.00 26.31,27.07 28.16,27.84 30.02,28.61 31.65,30.56 33.28,32.51 33.04,34.84 32.79,37.17 30.96,39.48 29.13,41.80 25.38,44.51 21.62,47.22 16.78,49.56 11.94,51.90 7.54,53.48 3.14,55.05 -0.61,55.73 -4.37,56.40 -6.14,56.09 -7.92,55.77 -8.20,55.79 -8.49,55.80 -8.77,55.75 -9.05,55.70 -9.31,55.58 -9.57,55.47 -9.79,55.29 -10.02,55.11 -10.20,54.89 -10.37,54.66 -10.49,54.40 -10.60,54.14 -10.66,53.86 -10.71,53.58 -10.69,53.29 -10.67,53.01 -10.59,52.74 -10.50,52.46 -10.35,52.22 -10.20,51.98 -10.00,51.77 -9.80,51.57 -9.56,51.43 -9.31,51.28 -9.04,51.19 -8.77,51.11 -5.94,47.29 -3.11,43.47 1.41,39.89 5.94,36.32 12.53,32.15 19.12,27.99 24.87,24.90 30.62,21.82 35.10,20.23 39.59,18.65 39.79,18.59 40.00,18.54 40.21,18.55 40.42,18.56 40.62,18.64 40.81,18.72 40.98,18.86 41.14,19.00 41.24,19.18 41.35,19.36 41.40,19.57 41.44,19.78 41.42,19.99 41.39,20.20 41.30,20.39 41.21,20.59 41.06,20.74 40.92,20.89 40.73,20.99 40.54,21.09 40.33,21.12 40.12,21.15 39.91,21.12 39.70,21.08 39.51,20.98 39.33,20.88 39.18,20.73 39.04,20.57 38.95,20.38 38.86,20.18 38.84,19.97 38.82,19.76 38.87,19.55 38.91,19.35 39.02,19.17 39.13,18.98 39.30,18.85 39.46,18.71 39.66,18.63 39.86,18.56 40.07,18.55 40.28,18.54 40.49,18.60 40.69,18.65 40.86,18.77 41.04,18.90 41.17,19.07 41.29,19.24 41.36,19.44 41.43,19.64 41.43,19.85 41.42,20.06 41.35,20.26 41.28,20.47 41.16,20.63 41.03,20.80 40.85,20.92 40.67,21.04 40.67,21.04 40.67,21.04 36.69,23.29 32.71,25.55 27.19,28.80 21.67,32.06 15.28,36.05 8.88,40.05 4.50,43.49 0.12,46.93 -2.63,49.32 -5.39,51.71 -6.65,53.74 -7.92,55.77 -8.20,55.79 -8.49,55.80 -8.77,55.75 -9.05,55.70 -9.31,55.58 -9.57,55.47 -9.79,55.29 -10.02,55.11 -10.19,54.89 -10.37,54.66 -10.49,54.40 -10.60,54.14 -10.66,53.86 -10.71,53.58 -10.69,53.29 -10.67,53.01 -10.59,52.74 -10.50,52.46 -10.35,52.22 -10.20,51.98 -10.00,51.77 -9.80,51.57 -9.56,51.43 -9.31,51.28 -9.04,51.19 -8.77,51.11 -6.95,51.39 -5.13,51.68 -1.80,51.06 1.52,50.45 5.69,48.99 9.87,47.53 14.37,45.43 18.88,43.34 22.23,41.02 25.58,38.70 26.95,37.29 28.32,35.89 28.18,34.38 28.04,32.87 25.89,31.95 23.73,31.03 21.45,29.47 19.16,27.90 17.59,25.54 16.02,23.19 16.24,19.81 16.45,16.44 18.37,12.48 20.28,8.51 23.31,4.26 26.34,0.01 29.89,-3.64 33.44,-7.29 36.49,-9.78 39.55,-12.28 41.02,-12.83 42.49,-13.39 42.76,-13.53 43.02,-13.66 43.32,-13.73 43.61,-13.80 43.90,-13.80 44.20,-13.80 44.49,-13.73 44.78,-13.66 45.05,-13.52 45.31,-13.38 45.53,-13.18 45.75,-12.98 45.92,-12.73 46.09,-12.48 46.20,-12.20 46.30,-11.92 46.33,-11.63 46.37,-11.33 46.33,-11.04 46.29,-10.74 46.19,-10.46 46.08,-10.18 45.91,-9.94 45.74,-9.69 45.51,-9.50 45.29,-9.30 45.38,-9.12 45.48,-8.94 43.74,-7.61 42.00,-6.28 39.11,-4.53 36.23,-2.77 32.67,-0.59 29.12,1.59 27.05,2.54 24.99,3.50 20.66,5.05 16.33,6.60 13.11,6.49 9.89,6.38 8.03,4.71 6.17,3.03 5.70,1.10 5.23,-0.82 5.66,-2.62 6.08,-4.42 7.21,-7.91 8.33,-11.41 10.78,-15.04 13.22,-18.67 16.70,-22.12 20.18,-25.57 23.45,-28.10 26.72,-30.63 30.00,-32.52 33.28,-34.41 35.68,-34.19 38.08,-33.97 39.22,-32.61 40.37,-31.24 40.25,-29.60 40.13,-27.97 38.66,-26.28 37.19,-24.59 34.20,-22.20 31.21,-19.80 26.24,-16.22 21.28,-12.64 16.50,-9.73 11.73,-6.82 8.08,-4.80 4.44,-2.78 3.09,-1.97 1.75,-1.15 -0.00,-0.65 -1.75,-0.15 -2.26,-1.18 -2.78,-2.22 -1.39,-1.76 0,-1.31 0.15,-1.29 0.31,-1.27 0.46,-1.21 0.61,-1.16 0.74,-1.07 0.87,-0.98 0.97,-0.86 1.08,-0.74 1.15,-0.60 1.22,-0.46 1.26,-0.31 1.30,-0.15 1.30,0.00 1.30,0.15 1.26,0.31 1.22,0.46 1.15,0.60 1.08,0.74 0.97,0.86 0.87,0.98 0.74,1.07 0.61,1.16 0.46,1.21 0.31,1.27 0.15,1.29 -0.00,1.31 -0.00,1.31 L 0,1.31 Z"/></g><g transform="translate(91.69303836104802 142.55785900910797) rotate(0 18 -19.5)" stroke="none"><path fill="#f08c00" d="M 1.31,0 Q 1.31,0 1.78,1.06 2.25,2.13 2.67,3.31 3.09,4.48 3.18,5.79 3.26,7.09 3.27,8.23 3.29,9.38 2.96,10.72 2.64,12.06 4.86,12.34 7.07,12.62 8.77,12.62 10.47,12.62 11.85,12.35 13.23,12.08 13.23,10.60 13.23,9.12 12.47,7.44 11.70,5.76 10.58,4.01 9.46,2.27 8.12,0.37 6.78,-1.52 4.86,-3.67 2.93,-5.81 0.38,-8.46 -2.16,-11.11 -4.63,-13.34 -7.09,-15.56 -9.87,-17.95 -12.65,-20.34 -15.03,-22.55 -17.41,-24.76 -18.70,-25.98 -19.99,-27.20 -21.42,-28.60 -22.84,-29.99 -24.04,-31.18 -25.23,-32.37 -26.01,-34.04 -26.79,-35.71 -26.47,-37.78 -26.15,-39.85 -24.62,-42.00 -23.09,-44.16 -20.25,-46.30 -17.41,-48.44 -13.56,-50.50 -9.71,-52.55 -5.57,-53.77 -1.43,-54.99 2.92,-54.93 7.28,-54.88 11.10,-53.60 14.92,-52.32 18.47,-49.59 22.02,-46.86 24.97,-43.62 27.92,-40.38 29.85,-37.11 31.78,-33.83 32.67,-30.46 33.56,-27.10 33.63,-24.06 33.69,-21.03 33.11,-17.88 32.52,-14.73 31.69,-11.42 30.86,-8.11 30.24,-5.08 29.62,-2.04 29.66,0.11 29.70,2.28 30.15,3.40 30.61,4.53 32.47,4.80 34.33,5.08 36.51,4.58 38.69,4.09 41.07,3.33 43.45,2.57 45.90,1.68 48.34,0.79 49.99,-0.32 51.65,-1.43 52.82,-2.65 54.00,-3.87 55.06,-5.21 56.12,-6.54 56.72,-8.01 57.32,-9.48 57.57,-10.80 57.81,-12.12 57.35,-13.82 56.89,-15.53 55.64,-15.59 54.38,-15.64 54.23,-15.50 54.07,-15.35 53.88,-15.26 53.68,-15.18 53.47,-15.15 53.26,-15.13 53.05,-15.18 52.85,-15.23 52.67,-15.34 52.48,-15.45 52.35,-15.61 52.21,-15.77 52.13,-15.97 52.06,-16.17 52.05,-16.38 52.04,-16.59 52.09,-16.80 52.15,-17.00 52.27,-17.18 52.39,-17.35 52.56,-17.48 52.73,-17.61 52.93,-17.67 53.14,-17.74 53.35,-17.74 53.56,-17.74 53.76,-17.67 53.96,-17.60 54.13,-17.47 54.30,-17.34 54.42,-17.17 54.54,-16.99 54.59,-16.78 54.65,-16.58 54.63,-16.37 54.62,-16.15 54.54,-15.96 54.46,-15.76 54.32,-15.60 54.18,-15.44 54.00,-15.33 53.82,-15.22 53.61,-15.18 53.40,-15.13 53.19,-15.16 52.98,-15.18 52.79,-15.27 52.60,-15.36 52.44,-15.51 52.29,-15.66 52.19,-15.84 52.09,-16.03 52.06,-16.24 52.03,-16.45 52.06,-16.66 52.10,-16.87 52.20,-17.06 52.30,-17.25 52.30,-17.24 52.30,-17.24 54.04,-19.42 55.77,-21.59 57.26,-21.57 58.75,-21.56 59.93,-20.57 61.12,-19.58 61.62,-18.38 62.13,-17.18 62.53,-15.82 62.93,-14.46 63.06,-12.78 63.19,-11.10 62.77,-9.19 62.35,-7.28 61.39,-5.21 60.42,-3.15 59.15,-1.57 57.87,-0.00 56.26,1.56 54.64,3.13 52.44,4.51 50.24,5.90 47.67,6.84 45.10,7.77 42.45,8.61 39.80,9.44 36.91,9.99 34.02,10.53 31.45,10.14 28.88,9.74 27.27,8.20 25.65,6.66 24.95,4.54 24.24,2.42 24.24,-0.34 24.25,-3.11 24.89,-6.28 25.54,-9.45 26.34,-12.61 27.13,-15.78 27.67,-18.39 28.21,-21.00 28.21,-23.40 28.22,-25.81 27.61,-28.47 27.01,-31.13 25.42,-33.93 23.84,-36.73 21.22,-39.65 18.60,-42.58 15.81,-44.89 13.02,-47.20 10.04,-48.31 7.06,-49.41 3.53,-49.56 0.01,-49.70 -3.57,-48.69 -7.16,-47.68 -10.66,-45.84 -14.17,-44.00 -16.47,-42.39 -18.76,-40.78 -20.03,-38.48 -21.29,-36.19 -20.14,-35.06 -18.99,-33.93 -17.60,-32.57 -16.21,-31.20 -14.93,-30.00 -13.66,-28.80 -11.36,-26.66 -9.06,-24.52 -6.23,-22.08 -3.40,-19.65 -0.80,-17.28 1.80,-14.92 4.41,-12.19 7.03,-9.45 9.15,-7.05 11.26,-4.65 12.67,-2.62 14.07,-0.59 15.34,1.51 16.62,3.62 17.43,5.57 18.24,7.53 18.76,9.66 19.27,11.79 18.73,13.42 18.19,15.06 16.13,15.91 14.07,16.76 12.27,17.06 10.47,17.36 8.76,17.35 7.04,17.34 5.72,17.33 4.39,17.31 3.24,17.28 2.09,17.25 0.60,16.81 -0.87,16.37 -1.49,14.45 -2.10,12.54 -1.71,10.95 -1.31,9.37 -1.38,7.28 -1.45,5.19 -1.85,3.82 -2.25,2.46 -1.78,1.23 -1.31,0 -1.29,-0.15 -1.27,-0.31 -1.21,-0.46 -1.16,-0.61 -1.07,-0.74 -0.98,-0.87 -0.86,-0.97 -0.74,-1.08 -0.60,-1.15 -0.46,-1.22 -0.31,-1.26 -0.15,-1.30 0.00,-1.30 0.15,-1.30 0.31,-1.26 0.46,-1.22 0.60,-1.15 0.74,-1.08 0.86,-0.97 0.98,-0.87 1.07,-0.74 1.16,-0.61 1.21,-0.46 1.27,-0.31 1.29,-0.15 1.31,0.00 1.31,0.00 L 1.31,0 Z"/></g><g transform="translate(803.252167118404 106.88301223353602) rotate(0 4.5 20)" stroke="none"><path fill="#f08c00" d="M 1.09,-0.72 Q 1.09,-0.72 2.08,-0.14 3.08,0.43 3.66,1.44 4.24,2.46 4.83,3.85 5.42,5.24 5.98,7.03 6.53,8.82 6.77,9.91 7.01,11.01 7.41,13.51 7.81,16.02 8.53,18.97 9.25,21.93 9.59,25.40 9.94,28.88 10.35,31.35 10.76,33.82 10.47,36.32 10.19,38.81 10.18,39.02 10.17,39.24 10.09,39.43 10.01,39.63 9.87,39.79 9.73,39.95 9.55,40.06 9.37,40.17 9.16,40.22 8.95,40.26 8.74,40.24 8.53,40.22 8.34,40.13 8.14,40.04 7.99,39.89 7.84,39.74 7.74,39.56 7.64,39.37 7.60,39.16 7.57,38.95 7.60,38.74 7.64,38.53 7.74,38.34 7.84,38.16 7.99,38.01 8.15,37.86 8.34,37.77 8.53,37.69 8.74,37.66 8.96,37.64 9.16,37.69 9.37,37.73 9.55,37.84 9.73,37.95 9.87,38.11 10.01,38.28 10.09,38.47 10.17,38.67 10.18,38.88 10.19,39.10 10.13,39.30 10.07,39.50 9.95,39.68 9.83,39.86 9.67,39.98 9.50,40.11 9.29,40.18 9.09,40.25 8.88,40.25 8.67,40.25 8.47,40.18 8.27,40.11 8.10,39.98 7.93,39.85 7.81,39.68 7.69,39.50 7.63,39.30 7.58,39.09 7.58,39.09 7.58,39.09 6.78,36.85 5.99,34.61 5.56,31.97 5.13,29.33 4.85,26.19 4.56,23.05 3.81,19.90 3.06,16.76 2.51,13.47 1.96,10.19 1.51,8.60 1.05,7.02 0.13,5.01 -0.78,3.01 -0.93,1.87 -1.09,0.72 -1.16,0.58 -1.23,0.44 -1.27,0.29 -1.30,0.13 -1.30,-0.02 -1.30,-0.17 -1.26,-0.33 -1.22,-0.48 -1.14,-0.62 -1.06,-0.76 -0.96,-0.88 -0.85,-0.99 -0.72,-1.08 -0.59,-1.17 -0.44,-1.22 -0.29,-1.28 -0.13,-1.29 0.02,-1.31 0.17,-1.29 0.33,-1.26 0.48,-1.21 0.62,-1.15 0.75,-1.06 0.88,-0.96 0.98,-0.84 1.09,-0.72 1.09,-0.72 L 1.09,-0.72 Z"/></g><g transform="translate(814.252167118404 106.88301223353602) rotate(0 6 20)" stroke="none"><path fill="#f08c00" d="M 0.92,-0.92 Q 0.92,-0.92 1.81,-0.63 2.70,-0.34 3.45,1.02 4.20,2.40 5.07,4.69 5.93,6.98 6.30,8.28 6.67,9.58 7.38,11.79 8.08,13.99 8.72,17.08 9.35,20.16 9.90,23.47 10.45,26.78 11.22,29.17 11.98,31.55 12.61,33.48 13.24,35.42 12.78,37.09 12.31,38.76 12.34,38.92 12.37,39.07 12.36,39.23 12.35,39.39 12.31,39.54 12.26,39.69 12.18,39.83 12.10,39.96 11.99,40.08 11.88,40.19 11.75,40.27 11.61,40.36 11.46,40.41 11.31,40.46 11.15,40.47 10.99,40.48 10.84,40.45 10.68,40.42 10.54,40.36 10.39,40.30 10.27,40.20 10.14,40.11 10.04,39.98 9.94,39.86 9.88,39.71 9.81,39.57 9.78,39.39 9.75,39.21 9.77,39.00 9.80,38.79 9.89,38.60 9.99,38.41 10.14,38.25 10.29,38.10 10.48,38.01 10.67,37.91 10.88,37.88 11.09,37.85 11.30,37.89 11.51,37.93 11.69,38.03 11.88,38.14 12.02,38.30 12.16,38.45 12.25,38.65 12.33,38.84 12.35,39.05 12.37,39.27 12.32,39.47 12.27,39.68 12.15,39.86 12.04,40.04 11.88,40.17 11.71,40.31 11.51,40.38 11.31,40.45 11.10,40.46 10.89,40.47 10.68,40.41 10.48,40.35 10.31,40.22 10.13,40.10 10.01,39.93 9.89,39.76 9.82,39.55 9.76,39.35 9.76,39.14 9.77,38.93 9.84,38.73 9.91,38.53 10.04,38.36 10.18,38.19 10.36,38.08 10.53,37.96 10.74,37.91 10.95,37.86 11.16,37.87 11.37,37.89 11.57,37.97 11.76,38.06 11.92,38.20 12.08,38.34 12.18,38.52 12.29,38.71 12.30,38.73 12.31,38.76 12.34,38.92 12.37,39.07 12.36,39.23 12.35,39.39 12.31,39.54 12.26,39.69 12.18,39.83 12.10,39.96 11.99,40.08 11.88,40.19 11.75,40.27 11.61,40.36 11.46,40.41 11.31,40.46 11.15,40.47 10.99,40.48 10.84,40.45 10.68,40.42 10.54,40.36 10.39,40.30 10.27,40.20 10.14,40.11 10.04,39.98 9.94,39.86 9.88,39.71 9.81,39.57 9.35,38.20 8.89,36.83 8.26,34.88 7.63,32.93 6.79,30.23 5.95,27.53 5.42,24.29 4.89,21.06 4.33,18.21 3.78,15.37 3.05,13.08 2.32,10.80 2.00,9.66 1.69,8.52 0.64,5.58 -0.40,2.64 -0.66,1.78 -0.92,0.92 -1.02,0.80 -1.12,0.67 -1.18,0.53 -1.25,0.39 -1.28,0.23 -1.31,0.07 -1.30,-0.07 -1.29,-0.23 -1.24,-0.38 -1.19,-0.53 -1.11,-0.67 -1.03,-0.80 -0.92,-0.92 -0.80,-1.03 -0.67,-1.11 -0.53,-1.19 -0.38,-1.24 -0.23,-1.29 -0.07,-1.30 0.07,-1.31 0.23,-1.28 0.39,-1.25 0.53,-1.18 0.67,-1.12 0.80,-1.02 0.92,-0.92 0.92,-0.92 L 0.92,-0.92 Z"/></g><g transform="translate(801.252167118404 111.88301223353602) rotate(0 35 9.5)" stroke="none"><path fill="#f08c00" d="M -1.17,-0.58 Q -1.17,-0.58 -1.06,-1.97 -0.95,-3.35 -0.10,-4.81 0.74,-6.27 1.57,-7.08 2.40,-7.89 3.91,-9.14 5.41,-10.40 7.71,-12.00 10.01,-13.60 13.18,-15.26 16.34,-16.92 18.01,-17.63 19.68,-18.34 22.79,-19.26 25.90,-20.18 29.44,-20.58 32.98,-20.99 36.40,-19.88 39.83,-18.78 42.11,-16.27 44.39,-13.75 45.36,-10.99 46.34,-8.23 46.44,-5.13 46.53,-2.03 45.92,0.62 45.31,3.28 43.72,5.56 42.12,7.84 41.06,8.82 39.99,9.80 37.56,10.92 35.13,12.04 32.12,13.05 29.11,14.05 26.35,14.77 23.60,15.49 21.31,16.08 19.02,16.66 17.70,16.93 16.37,17.19 16.12,17.30 15.87,17.40 15.55,17.42 15.24,17.45 14.93,17.40 14.62,17.34 14.33,17.22 14.04,17.09 13.79,16.90 13.54,16.71 13.34,16.46 13.14,16.22 13.01,15.93 12.88,15.65 12.82,15.34 12.76,15.03 12.77,14.72 12.79,14.40 12.88,14.10 12.97,13.80 13.12,13.53 13.28,13.26 13.50,13.03 13.72,12.80 13.99,12.64 14.26,12.47 14.56,12.37 14.86,12.28 15.87,11.69 16.88,11.10 18.73,10.85 20.59,10.61 23.03,10.54 25.47,10.47 29.02,11.04 32.56,11.61 36.25,13.07 39.93,14.53 41.77,15.45 43.60,16.37 46.49,18.25 49.38,20.13 52.17,22.77 54.97,25.40 57.47,27.56 59.97,29.73 62.15,31.49 64.34,33.25 65.82,33.83 67.29,34.40 66.77,35.38 66.24,36.36 66.92,34.94 67.59,33.52 67.66,33.32 67.72,33.12 67.85,32.94 67.97,32.77 68.14,32.65 68.32,32.53 68.52,32.47 68.72,32.40 68.94,32.41 69.15,32.42 69.35,32.49 69.55,32.57 69.71,32.70 69.88,32.84 69.99,33.02 70.10,33.20 70.15,33.40 70.20,33.61 70.18,33.82 70.17,34.03 70.08,34.23 70.00,34.42 69.85,34.58 69.71,34.74 69.52,34.84 69.34,34.94 69.13,34.98 68.92,35.02 68.71,34.99 68.50,34.96 68.31,34.86 68.12,34.77 67.97,34.62 67.82,34.47 67.73,34.28 67.64,34.08 67.61,33.87 67.58,33.66 67.62,33.45 67.66,33.25 67.77,33.06 67.88,32.88 68.03,32.74 68.19,32.60 68.39,32.51 68.58,32.43 68.80,32.41 69.01,32.40 69.21,32.45 69.42,32.50 69.60,32.62 69.78,32.74 69.91,32.90 70.04,33.07 70.11,33.27 70.18,33.47 70.19,33.68 70.19,33.89 70.19,33.89 70.19,33.89 70.41,35.70 70.62,37.51 67.98,38.42 65.34,39.33 63.20,38.37 61.05,37.41 58.77,35.57 56.50,33.73 53.91,31.47 51.32,29.22 48.90,26.86 46.48,24.51 43.86,22.77 41.25,21.03 39.61,20.20 37.97,19.37 34.82,18.06 31.68,16.76 28.63,16.22 25.59,15.69 23.34,15.75 21.09,15.80 20.02,15.83 18.95,15.87 17.41,16.64 15.87,17.40 15.55,17.42 15.24,17.45 14.93,17.40 14.62,17.34 14.33,17.22 14.04,17.09 13.79,16.90 13.54,16.71 13.34,16.46 13.14,16.22 13.01,15.93 12.88,15.65 12.82,15.34 12.76,15.03 12.77,14.72 12.79,14.40 12.88,14.10 12.97,13.80 13.12,13.53 13.28,13.26 13.50,13.03 13.72,12.80 13.99,12.64 14.26,12.47 14.56,12.37 14.86,12.28 15.10,12.17 15.34,12.07 16.53,11.84 17.73,11.60 20.01,11.02 22.29,10.44 24.88,9.77 27.47,9.10 30.27,8.18 33.06,7.26 35.52,5.98 37.97,4.70 39.15,3.29 40.33,1.89 40.84,-0.05 41.36,-2.01 41.39,-4.36 41.41,-6.71 40.88,-8.65 40.35,-10.59 39.07,-12.37 37.80,-14.15 35.56,-15.04 33.32,-15.92 30.31,-15.60 27.30,-15.28 24.47,-14.48 21.63,-13.68 20.14,-13.06 18.65,-12.44 15.73,-10.97 12.80,-9.49 9.68,-7.71 6.56,-5.92 5.69,-4.82 4.82,-3.73 4.04,-2.48 3.25,-1.24 2.21,-0.32 1.17,0.58 1.08,0.71 0.99,0.85 0.88,0.95 0.76,1.06 0.62,1.14 0.48,1.21 0.33,1.25 0.18,1.30 0.02,1.30 -0.13,1.30 -0.28,1.27 -0.44,1.23 -0.58,1.16 -0.72,1.09 -0.84,0.99 -0.96,0.89 -1.05,0.76 -1.15,0.63 -1.20,0.48 -1.26,0.33 -1.29,0.18 -1.31,0.02 -1.29,-0.13 -1.28,-0.28 -1.22,-0.43 -1.17,-0.58 -1.17,-0.58 L -1.17,-0.58 Z"/></g><g transform="translate(810.5314140600199 462.55785900910803) rotate(0 22.5 13)" stroke="none"><path fill="#f08c00" d="M 1.26,-0.34 Q 1.26,-0.34 2.35,2.75 3.43,5.85 4.34,7.94 5.25,10.03 6.26,13.05 7.27,16.07 7.96,17.85 8.65,19.64 9.27,21.95 9.89,24.25 10.69,26.24 11.49,28.23 12.15,30.00 12.81,31.77 13.11,32.87 13.42,33.98 13.97,35.68 14.52,37.39 13.60,38.38 12.68,39.36 11.54,39.38 10.40,39.39 8.57,38.74 6.74,38.08 4.68,37.57 2.62,37.05 -0.07,36.23 -2.77,35.40 -5.58,33.79 -8.40,32.19 -11.18,29.35 -13.96,26.52 -15.79,23.44 -17.61,20.36 -18.44,17.13 -19.27,13.89 -19.57,12.25 -19.88,10.62 -19.41,8.32 -18.93,6.02 -17.12,3.43 -15.31,0.84 -12.47,-1.96 -9.64,-4.76 -5.96,-6.93 -2.28,-9.09 -0.21,-10.24 1.86,-11.39 5.62,-12.28 9.39,-13.16 14.26,-13.23 19.14,-13.29 23.12,-12.42 27.09,-11.54 30.16,-9.87 33.22,-8.20 34.80,-5.82 36.37,-3.44 36.10,-0.85 35.83,1.73 34.31,3.86 32.80,5.99 31.19,7.44 29.59,8.90 27.16,8.91 24.72,8.92 24.47,7.79 24.22,6.66 25.15,5.20 26.08,3.74 28.85,2.49 31.61,1.23 34.67,0.75 37.73,0.27 41.98,1.58 46.23,2.89 50.09,5.27 53.95,7.66 56.59,10.55 59.23,13.44 60.33,14.97 61.43,16.50 62.47,18.05 63.52,19.60 63.49,21.98 63.46,24.37 61.84,25.67 60.23,26.97 56.70,27.77 53.18,28.58 49.38,28.89 45.58,29.20 41.86,29.03 38.13,28.87 35.80,28.73 33.46,28.59 32.66,28.82 31.86,29.06 31.71,29.03 31.55,29.01 31.40,28.95 31.26,28.89 31.13,28.80 31.00,28.70 30.90,28.58 30.80,28.46 30.73,28.32 30.66,28.17 30.63,28.02 30.60,27.86 30.60,27.71 30.61,27.55 30.65,27.39 30.69,27.24 30.77,27.10 30.85,26.97 30.96,26.85 31.06,26.74 31.20,26.65 31.33,26.56 31.48,26.51 31.63,26.46 31.79,26.45 31.94,26.43 32.58,27.07 33.22,27.71 33.19,27.92 33.16,28.13 33.06,28.32 32.97,28.51 32.82,28.66 32.67,28.81 32.48,28.91 32.29,29.00 32.08,29.03 31.87,29.06 31.66,29.02 31.45,28.98 31.27,28.87 31.08,28.77 30.94,28.61 30.80,28.45 30.71,28.26 30.63,28.06 30.61,27.85 30.59,27.64 30.65,27.43 30.70,27.23 30.81,27.05 30.93,26.87 31.09,26.74 31.26,26.60 31.46,26.53 31.66,26.46 31.87,26.45 32.08,26.44 32.28,26.51 32.49,26.57 32.66,26.69 32.83,26.82 32.96,26.99 33.08,27.16 33.14,27.37 33.20,27.57 33.20,27.78 33.19,27.99 33.12,28.19 33.05,28.39 32.91,28.56 32.78,28.72 32.60,28.84 32.42,28.95 32.22,29.00 32.01,29.06 31.80,29.04 31.59,29.02 31.39,28.94 31.20,28.85 31.04,28.71 30.88,28.57 30.78,28.38 30.67,28.20 31.27,28.63 31.86,29.06 31.71,29.03 31.55,29.01 31.40,28.95 31.26,28.89 31.13,28.80 31.00,28.70 30.90,28.58 30.80,28.46 30.73,28.32 30.66,28.17 30.63,28.02 30.60,27.86 30.60,27.71 30.61,27.55 30.65,27.39 30.69,27.24 30.77,27.10 30.85,26.97 30.95,26.85 31.06,26.74 31.20,26.65 31.33,26.56 31.48,26.51 31.63,26.46 31.79,26.45 31.94,26.43 32.75,25.03 33.56,23.62 35.97,23.63 38.39,23.64 41.80,23.82 45.20,24.00 48.70,23.78 52.19,23.56 55.84,22.80 59.50,22.05 58.53,20.65 57.55,19.26 56.62,17.93 55.68,16.60 53.53,14.12 51.39,11.64 48.03,9.51 44.68,7.37 41.44,6.16 38.19,4.95 35.79,5.29 33.39,5.64 30.72,6.74 28.04,7.85 27.32,6.57 26.59,5.28 27.83,4.17 29.06,3.05 30.16,1.83 31.26,0.61 31.73,-0.61 32.20,-1.84 31.46,-3.05 30.73,-4.25 28.35,-5.60 25.98,-6.95 22.57,-7.76 19.15,-8.58 14.77,-8.57 10.39,-8.55 7.24,-7.90 4.10,-7.24 2.09,-6.12 0.08,-5.00 -3.13,-3.18 -6.35,-1.36 -8.92,1.15 -11.49,3.67 -12.94,5.48 -14.38,7.30 -14.81,8.60 -15.23,9.91 -14.94,11.35 -14.65,12.79 -14.08,15.42 -13.50,18.05 -12.03,20.68 -10.56,23.31 -8.29,25.76 -6.02,28.22 -3.71,29.61 -1.39,31.00 1.19,31.80 3.78,32.60 6.06,33.22 8.34,33.83 9.53,35.34 10.71,36.84 10.00,34.94 9.30,33.05 8.68,31.31 8.06,29.58 7.21,27.38 6.37,25.19 5.82,23.06 5.26,20.94 4.55,19.07 3.83,17.20 2.89,14.32 1.96,11.44 0.98,9.11 0.01,6.79 -0.62,3.57 -1.26,0.34 -1.28,0.18 -1.31,0.03 -1.29,-0.12 -1.28,-0.28 -1.23,-0.43 -1.17,-0.58 -1.09,-0.71 -1.00,-0.84 -0.88,-0.95 -0.77,-1.06 -0.63,-1.13 -0.49,-1.21 -0.34,-1.25 -0.19,-1.29 -0.03,-1.30 0.12,-1.30 0.28,-1.27 0.43,-1.23 0.57,-1.16 0.71,-1.09 0.84,-0.99 0.96,-0.89 1.05,-0.76 1.14,-0.63 1.20,-0.49 1.26,-0.34 1.26,-0.34 L 1.26,-0.34 Z"/></g><g transform="translate(818.5314140600199 460.55785900910803) rotate(0 9.5 18)" stroke="none"><path fill="#f08c00" d="M -0.58,-1.17 Q -0.58,-1.17 0.35,-1.80 1.29,-2.43 2.60,-1.27 3.92,-0.12 4.58,1.37 5.25,2.86 6.38,5.16 7.50,7.45 8.52,9.68 9.53,11.92 10.55,14.62 11.57,17.33 12.55,19.55 13.52,21.76 14.28,24.29 15.03,26.83 15.86,28.90 16.70,30.97 17.56,32.30 18.41,33.63 19.01,35.13 19.61,36.63 19.71,36.82 19.81,37.01 19.84,37.22 19.87,37.43 19.84,37.63 19.80,37.84 19.70,38.03 19.60,38.22 19.44,38.36 19.29,38.51 19.10,38.60 18.90,38.68 18.69,38.70 18.48,38.73 18.27,38.68 18.06,38.63 17.88,38.52 17.70,38.41 17.57,38.25 17.43,38.08 17.35,37.88 17.28,37.69 17.27,37.47 17.26,37.26 17.32,37.06 17.37,36.85 17.49,36.68 17.62,36.50 17.79,36.38 17.96,36.25 18.16,36.18 18.36,36.12 18.57,36.12 18.78,36.12 18.99,36.19 19.19,36.26 19.35,36.39 19.52,36.52 19.64,36.70 19.76,36.87 19.81,37.08 19.87,37.28 19.85,37.50 19.84,37.71 19.76,37.90 19.68,38.10 19.54,38.26 19.40,38.42 19.22,38.53 19.04,38.64 18.83,38.68 18.62,38.73 18.41,38.70 18.20,38.68 18.01,38.59 17.81,38.50 17.66,38.35 17.51,38.20 17.51,38.20 17.51,38.20 16.14,37.07 14.77,35.93 13.73,34.27 12.69,32.60 11.78,30.33 10.86,28.06 10.19,25.78 9.52,23.51 8.51,21.18 7.49,18.85 6.54,16.28 5.58,13.70 4.65,11.63 3.71,9.55 2.35,6.80 1.00,4.05 1.00,2.66 1.00,1.28 0.79,1.23 0.58,1.17 0.43,1.22 0.28,1.28 0.13,1.29 -0.02,1.31 -0.18,1.29 -0.33,1.26 -0.48,1.20 -0.63,1.15 -0.76,1.05 -0.89,0.96 -0.99,0.84 -1.09,0.72 -1.16,0.58 -1.23,0.44 -1.27,0.28 -1.30,0.13 -1.30,-0.02 -1.30,-0.18 -1.25,-0.33 -1.21,-0.48 -1.14,-0.62 -1.06,-0.76 -0.95,-0.88 -0.85,-1.00 -0.71,-1.08 -0.58,-1.17 -0.58,-1.17 L -0.58,-1.17 Z"/></g><g transform="translate(877.5314140600199 442.55785900910803) rotate(0 8 28)" stroke="none"><path fill="#f08c00" d="M 0.92,0.92 Q 0.92,0.92 0.78,1.93 0.63,2.93 -0.70,4.66 -2.03,6.40 -2.38,7.77 -2.73,9.14 -2.91,11.91 -3.10,14.68 -2.91,18.40 -2.73,22.12 -1.83,25.53 -0.93,28.93 1.09,32.82 3.11,36.70 5.35,39.73 7.58,42.76 9.90,45.14 12.21,47.51 14.48,48.98 16.75,50.45 18.33,51.41 19.91,52.36 20.36,53.18 20.82,54.01 20.95,54.10 21.07,54.20 21.17,54.33 21.27,54.45 21.33,54.59 21.40,54.74 21.42,54.89 21.45,55.05 21.44,55.21 21.43,55.37 21.39,55.52 21.34,55.67 21.26,55.80 21.17,55.94 21.06,56.05 20.95,56.16 20.81,56.24 20.68,56.33 20.53,56.37 20.38,56.42 20.22,56.43 20.06,56.44 19.90,56.41 19.75,56.38 19.60,56.32 19.46,56.25 19.23,56.01 18.99,55.77 18.92,55.57 18.85,55.37 18.85,55.15 18.84,54.94 18.91,54.74 18.97,54.54 19.09,54.36 19.22,54.19 19.39,54.07 19.57,53.95 19.77,53.89 19.97,53.83 20.19,53.83 20.40,53.84 20.60,53.91 20.80,53.99 20.96,54.12 21.12,54.26 21.24,54.44 21.35,54.62 21.40,54.82 21.45,55.03 21.43,55.24 21.41,55.45 21.33,55.65 21.24,55.84 21.10,56.00 20.96,56.16 20.77,56.26 20.59,56.36 20.38,56.40 20.17,56.44 19.96,56.41 19.75,56.38 19.56,56.29 19.37,56.19 19.22,56.04 19.07,55.89 18.98,55.70 18.88,55.50 18.86,55.29 18.83,55.08 18.87,54.88 18.91,54.67 19.02,54.48 19.12,54.30 19.28,54.16 19.44,54.02 19.64,53.93 19.83,53.85 20.05,53.84 20.26,53.82 20.46,53.87 20.67,53.93 20.85,54.04 21.03,54.16 20.92,54.08 20.82,54.00 20.95,54.10 21.07,54.20 21.17,54.33 21.27,54.45 21.33,54.59 21.40,54.74 21.42,54.89 21.45,55.05 21.44,55.21 21.43,55.37 21.39,55.52 21.34,55.67 21.26,55.80 21.17,55.94 21.06,56.05 20.95,56.16 20.81,56.24 20.68,56.33 20.53,56.37 20.38,56.42 20.22,56.43 20.06,56.44 19.90,56.41 19.75,56.38 19.60,56.32 19.46,56.25 18.37,56.48 17.28,56.71 15.61,55.70 13.94,54.68 11.26,52.87 8.59,51.06 6.04,48.41 3.49,45.77 1.04,42.40 -1.40,39.03 -3.62,34.63 -5.84,30.22 -6.82,26.30 -7.81,22.38 -7.99,18.33 -8.17,14.28 -7.87,10.94 -7.57,7.61 -6.27,4.90 -4.96,2.19 -3.95,0.78 -2.93,-0.63 -1.93,-0.78 -0.92,-0.92 -0.80,-1.02 -0.67,-1.12 -0.53,-1.18 -0.39,-1.25 -0.23,-1.28 -0.07,-1.31 0.07,-1.30 0.23,-1.29 0.38,-1.24 0.53,-1.19 0.67,-1.11 0.80,-1.03 0.92,-0.92 1.03,-0.80 1.11,-0.67 1.19,-0.53 1.24,-0.38 1.29,-0.23 1.30,-0.07 1.31,0.07 1.28,0.23 1.25,0.39 1.18,0.53 1.12,0.67 1.02,0.80 0.92,0.92 0.92,0.92 L 0.92,0.92 Z"/></g><g transform="translate(887.5314140600199 460.55785900910803) rotate(0 10 16.5)" stroke="none"><path fill="#f08c00" d="M 1.05,-0.78 Q 1.05,-0.78 2.24,0.11 3.43,1.02 5.30,3.60 7.17,6.18 7.90,7.16 8.63,8.14 10.18,10.67 11.73,13.21 13.27,16.35 14.81,19.49 16.53,22.10 18.25,24.72 19.35,26.86 20.46,29.00 18.97,30.24 17.48,31.48 17.53,31.62 17.59,31.77 17.61,31.93 17.62,32.09 17.60,32.24 17.58,32.40 17.53,32.55 17.47,32.70 17.38,32.83 17.29,32.96 17.17,33.06 17.05,33.16 16.91,33.24 16.77,33.31 16.61,33.35 16.46,33.38 16.30,33.38 16.14,33.38 15.99,33.34 15.84,33.30 15.70,33.23 15.56,33.15 15.44,33.05 15.32,32.94 15.23,32.81 15.14,32.68 15.37,32.93 15.59,33.18 15.43,33.03 15.28,32.89 15.18,32.70 15.07,32.52 15.04,32.31 15.00,32.10 15.03,31.89 15.06,31.68 15.16,31.49 15.25,31.30 15.41,31.15 15.56,31.00 15.75,30.91 15.94,30.82 16.15,30.79 16.36,30.77 16.57,30.81 16.78,30.85 16.96,30.96 17.15,31.06 17.29,31.22 17.43,31.38 17.51,31.58 17.59,31.78 17.60,31.99 17.62,32.20 17.56,32.41 17.51,32.61 17.39,32.79 17.28,32.97 17.11,33.10 16.94,33.23 16.74,33.30 16.54,33.37 16.33,33.37 16.12,33.38 15.92,33.31 15.71,33.25 15.54,33.12 15.37,32.99 15.25,32.82 15.13,32.65 15.07,32.44 15.01,32.24 15.02,32.03 15.02,31.81 15.10,31.62 15.18,31.42 15.31,31.25 15.45,31.09 15.63,30.98 15.81,30.86 16.01,30.82 16.22,30.77 16.43,30.79 16.64,30.81 17.06,31.14 17.48,31.48 17.53,31.62 17.59,31.77 17.61,31.93 17.62,32.09 17.60,32.24 17.58,32.40 17.53,32.55 17.47,32.70 17.38,32.83 17.29,32.96 17.17,33.06 17.05,33.16 16.91,33.24 16.77,33.31 16.61,33.35 16.46,33.38 16.30,33.38 16.14,33.38 15.99,33.34 15.84,33.30 15.70,33.23 15.56,33.15 15.44,33.05 15.32,32.94 15.23,32.81 15.14,32.68 15.79,31.84 16.44,31.00 15.46,29.09 14.47,27.18 12.62,24.32 10.77,21.47 9.33,18.50 7.89,15.52 6.48,13.15 5.07,10.78 4.26,9.68 3.45,8.58 2.42,6.91 1.38,5.23 0.70,4.40 0.01,3.57 -0.51,2.18 -1.05,0.78 -1.12,0.65 -1.20,0.51 -1.25,0.36 -1.29,0.20 -1.30,0.05 -1.30,-0.10 -1.27,-0.26 -1.24,-0.41 -1.17,-0.56 -1.10,-0.70 -1.00,-0.82 -0.90,-0.94 -0.78,-1.04 -0.65,-1.13 -0.50,-1.19 -0.36,-1.26 -0.20,-1.28 -0.05,-1.31 0.10,-1.29 0.26,-1.28 0.41,-1.23 0.56,-1.18 0.69,-1.10 0.83,-1.01 0.94,-0.90 1.05,-0.78 1.05,-0.78 L 1.05,-0.78 Z"/></g><g transform="translate(901.5314140600199 455.55785900910803) rotate(0 9.5 19.5)" stroke="none"><path fill="#f08c00" d="M 1.17,-0.58 Q 1.17,-0.58 2.01,0.42 2.86,1.44 3.45,2.86 4.04,4.28 4.55,5.38 5.06,6.48 5.63,8.23 6.19,9.98 6.44,11.37 6.68,12.76 7.27,13.90 7.87,15.04 9.03,17.67 10.19,20.31 11.80,23.36 13.41,26.42 14.93,28.82 16.45,31.23 17.64,32.78 18.83,34.33 19.39,35.38 19.94,36.43 20.17,36.65 20.40,36.87 20.49,37.09 20.58,37.31 20.61,37.55 20.64,37.79 20.61,38.02 20.58,38.26 20.50,38.48 20.42,38.71 20.29,38.90 20.15,39.10 19.98,39.26 19.80,39.42 19.59,39.53 19.38,39.64 19.15,39.70 18.92,39.76 18.68,39.76 18.45,39.77 18.21,39.71 17.98,39.66 17.77,39.55 17.56,39.44 17.38,39.28 17.20,39.13 17.06,38.93 16.93,38.74 15.89,37.64 14.86,36.55 14.71,36.39 14.57,36.24 14.48,36.04 14.39,35.85 14.37,35.64 14.35,35.43 14.39,35.22 14.44,35.01 14.55,34.83 14.66,34.65 14.82,34.51 14.98,34.37 15.18,34.30 15.38,34.22 15.59,34.21 15.80,34.20 16.01,34.25 16.21,34.31 16.39,34.43 16.56,34.55 16.69,34.72 16.82,34.89 16.89,35.09 16.95,35.29 16.95,35.51 16.95,35.72 16.88,35.92 16.82,36.12 16.69,36.29 16.56,36.46 16.38,36.58 16.20,36.70 16.00,36.75 15.80,36.81 15.58,36.80 15.37,36.78 15.17,36.70 14.98,36.63 14.82,36.49 14.65,36.35 14.54,36.17 14.44,35.98 14.39,35.78 14.35,35.57 14.37,35.36 14.39,35.15 14.48,34.95 14.57,34.76 14.72,34.61 14.87,34.45 15.06,34.36 15.24,34.26 15.45,34.22 15.66,34.19 15.87,34.22 16.08,34.26 16.27,34.36 16.46,34.46 16.46,34.46 16.46,34.46 18.43,35.67 20.40,36.87 20.49,37.09 20.58,37.31 20.61,37.55 20.64,37.79 20.61,38.02 20.58,38.26 20.50,38.48 20.42,38.70 20.29,38.90 20.15,39.10 19.98,39.26 19.80,39.42 19.59,39.53 19.38,39.64 19.15,39.70 18.92,39.76 18.68,39.76 18.45,39.77 18.21,39.71 17.98,39.66 17.77,39.55 17.56,39.44 17.38,39.28 17.20,39.13 17.06,38.93 16.93,38.74 16.21,37.80 15.50,36.85 14.21,35.15 12.93,33.44 11.34,30.89 9.74,28.34 8.07,25.16 6.41,21.97 5.28,19.39 4.15,16.80 3.41,15.14 2.67,13.48 2.49,12.32 2.30,11.17 1.86,9.64 1.41,8.11 0.89,6.92 0.37,5.72 -0.09,4.44 -0.56,3.15 -0.86,1.87 -1.17,0.58 -1.22,0.43 -1.28,0.28 -1.29,0.13 -1.31,-0.02 -1.29,-0.18 -1.26,-0.33 -1.20,-0.48 -1.15,-0.63 -1.05,-0.76 -0.96,-0.89 -0.84,-0.99 -0.72,-1.09 -0.58,-1.16 -0.44,-1.23 -0.28,-1.27 -0.13,-1.30 0.02,-1.30 0.18,-1.30 0.33,-1.25 0.48,-1.21 0.62,-1.14 0.76,-1.06 0.88,-0.95 1.00,-0.85 1.08,-0.71 1.17,-0.58 1.17,-0.58 L 1.17,-0.58 Z"/></g><g transform="translate(890.5314140600199 455.55785900910803) rotate(0 32 6)" stroke="none"><path fill="#f08c00" d="M -1.21,-0.48 Q -1.21,-0.48 -1.03,-2.10 -0.84,-3.71 -0.13,-4.62 0.56,-5.53 2.57,-7.33 4.57,-9.13 5.82,-9.95 7.06,-10.77 8.56,-11.47 10.07,-12.16 12.66,-13.30 15.26,-14.44 20.19,-16.12 25.12,-17.81 30.34,-18.27 35.56,-18.74 39.58,-17.67 43.60,-16.60 46.22,-13.76 48.84,-10.92 49.39,-7.61 49.94,-4.31 49.49,-1.64 49.04,1.02 48.83,2.30 48.63,3.59 47.18,5.78 45.73,7.97 42.88,9.85 40.04,11.73 37.26,13.54 34.48,15.36 30.91,17.34 27.35,19.31 24.59,20.48 21.84,21.65 21.02,21.85 20.20,22.05 19.91,22.13 19.62,22.22 19.31,22.23 19.01,22.24 18.71,22.18 18.41,22.11 18.14,21.98 17.86,21.85 17.63,21.66 17.40,21.46 17.21,21.22 17.03,20.97 16.92,20.69 16.80,20.41 16.75,20.11 16.70,19.81 16.73,19.51 16.76,19.21 16.85,18.92 16.95,18.63 17.12,18.38 17.28,18.12 17.50,17.91 17.72,17.70 17.98,17.55 18.25,17.40 19.13,16.29 20.01,15.19 21.89,14.38 23.77,13.57 25.91,13.23 28.04,12.89 30.17,13.39 32.29,13.89 34.41,15.06 36.53,16.24 38.86,17.91 41.19,19.58 43.52,21.09 45.85,22.59 48.18,23.76 50.50,24.92 52.81,25.66 55.11,26.40 57.12,26.70 59.13,27.00 61.14,27.45 63.16,27.90 63.37,27.86 63.58,27.82 63.79,27.86 64.00,27.89 64.18,27.98 64.37,28.08 64.52,28.23 64.67,28.39 64.76,28.58 64.85,28.77 64.88,28.98 64.90,29.19 64.86,29.40 64.82,29.61 64.71,29.79 64.60,29.97 64.44,30.11 64.28,30.25 64.09,30.33 63.89,30.42 63.68,30.43 63.47,30.44 63.26,30.39 63.05,30.34 62.88,30.22 62.70,30.10 62.57,29.93 62.44,29.77 62.37,29.57 62.30,29.36 62.30,29.15 62.29,28.94 62.36,28.74 62.42,28.54 62.55,28.36 62.68,28.19 62.85,28.07 63.03,27.95 63.23,27.89 63.43,27.83 63.65,27.84 63.86,27.85 64.06,27.93 64.25,28.00 64.42,28.14 64.58,28.27 64.69,28.46 64.81,28.64 64.85,28.84 64.90,29.05 64.88,29.26 64.86,29.47 64.77,29.67 64.69,29.86 64.54,30.02 64.40,30.17 64.21,30.27 64.03,30.38 64.03,30.38 64.03,30.38 61.19,31.17 58.35,31.97 55.95,31.58 53.55,31.20 50.90,30.32 48.24,29.43 45.67,28.14 43.10,26.84 40.67,25.26 38.24,23.68 36.12,22.15 34.01,20.62 32.44,19.68 30.88,18.74 29.73,18.31 28.59,17.88 27.10,18.07 25.61,18.26 23.76,19.06 21.91,19.86 21.05,20.95 20.20,22.05 19.91,22.13 19.62,22.22 19.31,22.23 19.01,22.24 18.71,22.18 18.41,22.11 18.14,21.98 17.87,21.85 17.63,21.66 17.40,21.46 17.21,21.22 17.03,20.98 16.92,20.69 16.80,20.41 16.75,20.11 16.70,19.81 16.73,19.51 16.76,19.21 16.85,18.92 16.95,18.63 17.12,18.38 17.28,18.12 17.50,17.91 17.72,17.70 17.98,17.55 18.25,17.40 19.09,17.24 19.94,17.07 22.45,16.03 24.97,14.99 28.38,13.12 31.80,11.24 34.63,9.41 37.45,7.58 39.67,6.30 41.89,5.02 42.91,3.83 43.92,2.63 44.10,1.37 44.27,0.11 44.70,-1.86 45.14,-3.84 45.07,-6.04 45.01,-8.25 43.47,-10.27 41.94,-12.28 38.89,-13.17 35.85,-14.06 31.21,-13.72 26.57,-13.38 21.83,-11.80 17.08,-10.23 14.50,-9.13 11.92,-8.03 10.72,-7.51 9.51,-6.99 8.44,-6.31 7.37,-5.63 6.11,-4.65 4.84,-3.67 3.99,-2.85 3.14,-2.03 2.18,-0.77 1.21,0.48 1.14,0.62 1.06,0.76 0.96,0.88 0.85,0.99 0.72,1.08 0.58,1.17 0.44,1.22 0.29,1.28 0.13,1.29 -0.02,1.31 -0.18,1.29 -0.33,1.26 -0.48,1.21 -0.63,1.15 -0.75,1.05 -0.88,0.96 -0.99,0.84 -1.09,0.72 -1.16,0.58 -1.23,0.44 -1.27,0.28 -1.30,0.13 -1.30,-0.02 -1.30,-0.18 -1.26,-0.33 -1.21,-0.48 -1.21,-0.48 L -1.21,-0.48 Z"/></g><g transform="translate(943.5314140600199 427.55785900910803) rotate(0 12.5 31.5)" stroke="none"><path fill="#f08c00" d="M 0.54,-1.68 Q 0.54,-1.68 1.73,-1.75 2.91,-1.82 3.94,-1.06 4.98,-0.29 7.24,2.52 9.51,5.35 12.14,9.11 14.78,12.86 17.64,17.52 20.51,22.18 22.38,26.94 24.24,31.70 25.23,35.53 26.22,39.36 26.28,42.76 26.34,46.16 25.55,49.13 24.75,52.11 23.82,54.43 22.88,56.75 21.62,58.89 20.35,61.02 18.45,63.05 16.54,65.08 16.42,65.26 16.30,65.43 16.13,65.56 15.96,65.68 15.75,65.75 15.55,65.81 15.34,65.81 15.13,65.81 14.93,65.74 14.73,65.67 14.56,65.54 14.39,65.41 14.27,65.23 14.16,65.05 14.10,64.85 14.05,64.64 14.06,64.43 14.08,64.22 14.16,64.02 14.24,63.82 14.38,63.66 14.52,63.50 14.70,63.40 14.89,63.29 15.09,63.25 15.30,63.20 15.51,63.23 15.72,63.25 15.92,63.35 16.11,63.44 16.26,63.59 16.41,63.73 16.51,63.92 16.61,64.11 16.64,64.32 16.67,64.53 16.63,64.74 16.60,64.95 16.49,65.14 16.39,65.32 16.24,65.47 16.08,65.61 15.88,65.70 15.69,65.78 15.48,65.81 15.27,65.83 15.06,65.78 14.85,65.73 14.67,65.62 14.49,65.50 14.36,65.34 14.22,65.18 14.15,64.98 14.07,64.78 14.06,64.57 14.05,64.36 14.11,64.15 14.17,63.95 14.17,63.95 14.17,63.95 15.03,61.22 15.88,58.50 16.88,56.61 17.88,54.72 18.72,52.67 19.56,50.61 20.26,48.37 20.96,46.13 20.98,43.39 21.01,40.64 20.13,37.13 19.24,33.62 17.60,29.27 15.96,24.92 13.24,20.36 10.52,15.80 8.02,12.11 5.52,8.42 3.19,5.49 0.86,2.57 0.15,1.63 -0.54,0.69 -0.68,0.61 -0.81,0.53 -0.92,0.42 -1.03,0.30 -1.11,0.17 -1.20,0.03 -1.24,-0.11 -1.29,-0.26 -1.30,-0.42 -1.31,-0.58 -1.28,-0.73 -1.25,-0.89 -1.18,-1.03 -1.11,-1.18 -1.02,-1.30 -0.92,-1.42 -0.79,-1.52 -0.67,-1.62 -0.52,-1.68 -0.38,-1.75 -0.22,-1.77 -0.07,-1.80 0.08,-1.79 0.24,-1.78 0.39,-1.73 0.54,-1.68 0.54,-1.68 L 0.54,-1.68 Z"/></g><g transform="translate(24 458.78929504554003) rotate(0 8.5 33)" stroke="none"><path fill="#f08c00" d="M 1.31,0 Q 1.31,0 1.78,1.43 2.25,2.87 2.26,4.05 2.27,5.24 2.57,7.01 2.86,8.79 2.99,9.94 3.12,11.10 3.18,12.21 3.24,13.33 3.26,15.26 3.28,17.18 3.28,20.01 3.27,22.83 3.25,27.48 3.23,32.13 2.65,37.95 2.06,43.78 0.93,48.92 -0.19,54.06 -1.26,57.45 -2.34,60.83 -3.56,62.83 -4.78,64.83 -7.16,65.39 -9.55,65.94 -10.91,64.60 -12.27,63.26 -12.98,62.42 -13.69,61.59 -14.51,58.81 -15.32,56.03 -15.61,52.84 -15.90,49.64 -15.73,46.19 -15.56,42.73 -14.59,38.80 -13.61,34.88 -11.67,31.31 -9.73,27.75 -8.63,26.00 -7.52,24.26 -5.57,21.72 -3.61,19.19 -0.69,16.31 2.22,13.42 5.03,11.54 7.83,9.65 10.73,8.50 13.63,7.36 16.16,7.98 18.69,8.60 20.17,11.27 21.66,13.93 21.60,16.79 21.53,19.65 20.87,22.57 20.20,25.49 19.00,28.29 17.81,31.09 17.04,32.75 16.26,34.42 19.24,35.47 22.21,36.53 24.38,38.21 26.55,39.90 28.15,41.90 29.75,43.91 30.78,46.08 31.82,48.24 31.98,50.45 32.15,52.65 31.18,54.54 30.21,56.43 28.45,57.88 26.69,59.33 24.65,60.27 22.61,61.20 19.81,61.64 17.00,62.08 14.71,62.24 12.42,62.40 10.86,62.04 9.30,61.69 9.27,61.90 9.24,62.11 9.15,62.30 9.06,62.49 8.91,62.64 8.76,62.79 8.57,62.89 8.38,62.98 8.17,63.01 7.96,63.04 7.75,63.01 7.54,62.97 7.36,62.86 7.17,62.76 7.03,62.60 6.88,62.45 6.80,62.25 6.71,62.06 6.70,61.84 6.68,61.63 6.73,61.43 6.78,61.22 6.89,61.04 7.00,60.86 7.17,60.73 7.33,60.59 7.53,60.52 7.73,60.44 7.94,60.44 8.15,60.43 8.36,60.49 8.56,60.55 8.73,60.67 8.91,60.80 9.03,60.97 9.16,61.14 9.22,61.34 9.29,61.54 9.28,61.76 9.28,61.97 9.21,62.17 9.13,62.37 9.00,62.54 8.87,62.70 8.69,62.82 8.51,62.93 8.31,62.99 8.10,63.04 7.89,63.02 7.68,63.01 7.48,62.92 7.29,62.84 7.13,62.70 6.97,62.56 6.86,62.38 6.76,62.19 6.71,61.98 6.67,61.78 6.67,61.78 6.67,61.78 9.38,59.48 12.09,57.18 14.21,57.07 16.33,56.95 18.50,56.74 20.67,56.53 22.20,55.93 23.74,55.34 25.66,53.86 27.58,52.38 27.57,51.23 27.55,50.07 26.81,48.41 26.08,46.74 24.86,45.12 23.65,43.51 21.90,42.10 20.14,40.68 18.55,39.84 16.96,39.01 15.42,38.64 13.88,38.27 13.00,37.26 12.12,36.25 12.06,34.43 12.00,32.61 12.77,30.92 13.54,29.22 14.61,26.82 15.68,24.42 16.30,21.88 16.91,19.34 17.15,17.46 17.39,15.58 16.10,13.63 14.80,11.68 12.59,12.60 10.37,13.51 7.91,15.12 5.44,16.73 2.73,19.38 0.02,22.02 -1.80,24.37 -3.62,26.73 -4.66,28.36 -5.69,29.99 -7.42,33.02 -9.15,36.05 -10.06,39.53 -10.96,43.00 -11.15,46.13 -11.35,49.27 -11.13,52.10 -10.92,54.94 -10.55,56.89 -10.19,58.83 -9.19,60.51 -8.20,62.18 -7.38,60.82 -6.56,59.46 -5.55,56.28 -4.53,53.10 -3.45,48.21 -2.36,43.33 -1.80,37.73 -1.24,32.13 -1.27,27.49 -1.30,22.84 -1.32,20.04 -1.34,17.24 -1.42,14.42 -1.49,11.60 -1.60,10.53 -1.71,9.46 -1.99,7.35 -2.27,5.25 -2.26,4.06 -2.25,2.87 -1.78,1.43 -1.31,0 -1.29,-0.15 -1.27,-0.31 -1.21,-0.46 -1.16,-0.61 -1.07,-0.74 -0.98,-0.87 -0.86,-0.97 -0.74,-1.08 -0.60,-1.15 -0.46,-1.22 -0.31,-1.26 -0.15,-1.30 0.00,-1.30 0.15,-1.30 0.31,-1.26 0.46,-1.22 0.60,-1.15 0.74,-1.08 0.86,-0.97 0.98,-0.87 1.07,-0.74 1.16,-0.61 1.21,-0.46 1.27,-0.31 1.29,-0.15 1.31,0.00 1.31,0.00 L 1.31,0 Z"/></g><g transform="translate(32 477.78929504554003) rotate(0 2 26.5)" stroke="none"><path fill="#f08c00" d="M 1.28,-0.25 Q 1.28,-0.25 1.93,1.10 2.58,2.47 2.73,3.75 2.88,5.03 2.96,6.16 3.03,7.30 3.06,8.65 3.09,10.01 3.40,12.77 3.71,15.54 4.10,17.20 4.49,18.87 4.70,22.11 4.90,25.35 5.26,29.20 5.62,33.05 5.75,37.35 5.89,41.65 5.47,44.71 5.05,47.76 4.71,49.93 4.37,52.11 4.32,52.31 4.27,52.52 4.16,52.70 4.05,52.88 3.89,53.02 3.72,53.16 3.53,53.23 3.33,53.31 3.12,53.32 2.90,53.33 2.70,53.27 2.49,53.21 2.32,53.09 2.14,52.97 2.02,52.80 1.89,52.63 1.82,52.43 1.76,52.23 1.76,52.02 1.76,51.80 1.83,51.60 1.90,51.40 2.03,51.23 2.16,51.07 2.33,50.95 2.51,50.83 2.72,50.77 2.92,50.72 3.13,50.73 3.35,50.75 3.54,50.83 3.74,50.91 3.90,51.04 4.06,51.18 4.17,51.37 4.28,51.55 4.32,51.76 4.37,51.96 4.34,52.18 4.32,52.39 4.23,52.58 4.14,52.77 3.99,52.92 3.84,53.08 3.65,53.18 3.46,53.27 3.25,53.31 3.04,53.34 2.84,53.30 2.63,53.27 2.44,53.17 2.25,53.07 2.11,52.91 1.96,52.76 1.87,52.56 1.79,52.37 1.76,52.16 1.74,51.95 1.74,51.95 1.74,51.95 1.67,49.72 1.59,47.50 1.62,44.65 1.65,41.80 1.47,37.63 1.30,33.45 0.93,29.52 0.57,25.59 0.42,22.71 0.27,19.83 -0.15,17.91 -0.58,15.99 -0.87,13.03 -1.16,10.08 -1.20,7.77 -1.24,5.45 -1.34,4.36 -1.43,3.27 -1.36,1.76 -1.28,0.25 -1.29,0.09 -1.31,-0.05 -1.28,-0.21 -1.25,-0.37 -1.19,-0.51 -1.13,-0.66 -1.03,-0.78 -0.94,-0.91 -0.82,-1.01 -0.69,-1.11 -0.55,-1.18 -0.41,-1.24 -0.25,-1.27 -0.10,-1.30 0.05,-1.30 0.21,-1.29 0.36,-1.25 0.51,-1.20 0.65,-1.12 0.79,-1.04 0.90,-0.93 1.02,-0.82 1.10,-0.69 1.18,-0.55 1.23,-0.40 1.28,-0.25 1.28,-0.25 L 1.28,-0.25 Z"/></g><g transform="translate(64 460.78929504554003) rotate(0 11 43.5)" stroke="none"><path fill="#f08c00" d="M 0,-1.31 Q 0,-1.31 0.95,-1.40 1.90,-1.49 2.65,-0.05 3.40,1.39 3.04,2.47 2.68,3.55 2.25,4.95 1.83,6.35 1.52,7.52 1.21,8.69 0.80,11.69 0.39,14.68 -0.08,18.86 -0.55,23.05 -0.17,28.05 0.20,33.04 1.22,38.57 2.23,44.10 4.05,49.17 5.86,54.24 8.32,59.21 10.78,64.18 13.79,68.80 16.79,73.42 19.42,76.44 22.06,79.46 23.50,81.09 24.94,82.71 25.74,83.65 26.54,84.58 26.88,84.86 27.22,85.15 27.39,85.39 27.56,85.63 27.67,85.90 27.78,86.17 27.82,86.46 27.86,86.75 27.84,87.05 27.81,87.34 27.71,87.62 27.61,87.89 27.45,88.14 27.28,88.38 27.07,88.58 26.85,88.78 26.59,88.92 26.34,89.07 26.05,89.14 25.77,89.22 25.47,89.22 25.18,89.23 24.89,89.16 24.61,89.10 24.34,88.97 24.08,88.84 23.86,88.65 23.63,88.46 23.33,86.30 23.02,84.14 22.98,83.94 22.94,83.73 22.97,83.52 23.00,83.31 23.09,83.12 23.18,82.92 23.33,82.77 23.48,82.62 23.67,82.53 23.86,82.43 24.07,82.40 24.28,82.37 24.49,82.41 24.70,82.45 24.88,82.55 25.07,82.65 25.21,82.81 25.35,82.97 25.44,83.16 25.53,83.36 25.54,83.57 25.56,83.78 25.51,83.99 25.46,84.19 25.35,84.37 25.24,84.55 25.07,84.69 24.91,84.82 24.71,84.90 24.51,84.97 24.30,84.98 24.09,84.99 23.88,84.92 23.68,84.86 23.50,84.74 23.33,84.62 23.21,84.45 23.08,84.27 23.02,84.07 22.95,83.87 22.96,83.66 22.96,83.44 23.03,83.24 23.11,83.04 23.24,82.88 23.37,82.71 23.55,82.60 23.73,82.48 23.93,82.43 24.14,82.37 24.35,82.39 24.56,82.41 24.76,82.49 24.95,82.57 25.11,82.71 25.27,82.85 25.38,83.04 25.48,83.22 25.48,83.22 25.48,83.22 26.35,84.18 27.22,85.15 27.39,85.39 27.56,85.63 27.67,85.90 27.78,86.17 27.82,86.46 27.86,86.75 27.84,87.05 27.81,87.34 27.71,87.62 27.61,87.89 27.45,88.14 27.28,88.38 27.07,88.58 26.85,88.78 26.59,88.92 26.34,89.07 26.05,89.14 25.77,89.22 25.47,89.22 25.18,89.23 24.89,89.16 24.61,89.10 24.34,88.97 24.08,88.84 23.86,88.65 23.63,88.46 23.20,88.48 22.77,88.50 21.76,87.47 20.75,86.44 19.28,84.79 17.81,83.14 14.95,79.81 12.08,76.48 8.92,71.57 5.76,66.66 3.18,61.39 0.60,56.11 -1.32,50.60 -3.24,45.10 -4.27,39.26 -5.29,33.43 -5.65,27.93 -6.00,22.44 -5.50,18.16 -5.00,13.88 -4.47,10.51 -3.94,7.13 -3.18,5.27 -2.42,3.42 -1.59,2.46 -0.75,1.49 -0.37,1.40 0,1.31 -0.15,1.29 -0.31,1.27 -0.46,1.21 -0.61,1.16 -0.74,1.07 -0.87,0.98 -0.97,0.86 -1.08,0.74 -1.15,0.60 -1.22,0.46 -1.26,0.31 -1.30,0.15 -1.30,-0.00 -1.30,-0.15 -1.26,-0.31 -1.22,-0.46 -1.15,-0.60 -1.08,-0.74 -0.97,-0.86 -0.87,-0.98 -0.74,-1.07 -0.61,-1.16 -0.46,-1.21 -0.31,-1.27 -0.15,-1.29 0.00,-1.31 0.00,-1.31 L 0,-1.31 Z"/></g><g transform="translate(81 513.78929504554) rotate(0 28.5 -12)" stroke="none"><path fill="#f08c00" d="M 1.27,-0.31 Q 1.27,-0.31 2.21,0.66 3.15,1.65 3.86,3.71 4.57,5.77 4.94,7.87 5.31,9.96 5.69,11.45 6.08,12.94 6.51,14.06 6.94,15.18 7.37,16.17 7.80,17.17 9.61,15.88 11.42,14.59 12.84,13.72 14.27,12.86 15.33,12.00 16.40,11.14 17.73,9.96 19.05,8.78 18.77,7.63 18.49,6.48 17.70,5.11 16.92,3.74 15.89,1.63 14.87,-0.47 13.82,-2.89 12.77,-5.31 11.27,-7.88 9.76,-10.46 8.06,-12.59 6.35,-14.73 4.70,-16.88 3.05,-19.03 1.49,-21.09 -0.07,-23.16 -1.25,-24.54 -2.43,-25.92 -3.60,-27.48 -4.76,-29.03 -5.36,-30.16 -5.97,-31.29 -6.27,-32.32 -6.57,-33.35 -6.38,-34.89 -6.19,-36.44 -5.66,-37.48 -5.13,-38.52 -4.23,-39.60 -3.33,-40.68 -1.94,-41.82 -0.54,-42.96 1.79,-43.87 4.14,-44.79 6.53,-45.40 8.92,-46.02 11.23,-46.30 13.54,-46.58 15.91,-46.40 18.27,-46.22 20.99,-45.18 23.71,-44.14 26.26,-42.81 28.82,-41.48 31.30,-39.29 33.78,-37.10 35.79,-34.29 37.79,-31.48 39.19,-29.14 40.59,-26.79 41.32,-24.00 42.05,-21.21 42.33,-18.86 42.60,-16.51 42.42,-14.15 42.24,-11.79 41.86,-9.63 41.47,-7.47 41.33,-5.87 41.19,-4.27 40.81,-2.49 40.43,-0.71 40.30,0.35 40.17,1.41 40.48,2.51 40.80,3.62 41.11,4.92 41.42,6.22 42.47,6.51 43.53,6.81 44.63,7.24 45.73,7.67 47.90,7.80 50.06,7.92 51.19,7.68 52.32,7.44 54.42,6.47 56.51,5.49 57.04,4.28 57.56,3.07 57.11,1.78 56.65,0.49 56.14,-0.69 55.64,-1.89 56.71,-3.17 57.77,-4.45 57.49,-4.45 57.20,-4.46 57.29,-4.33 57.38,-4.20 57.43,-4.05 57.48,-3.90 57.50,-3.74 57.51,-3.58 57.49,-3.42 57.47,-3.27 57.41,-3.12 57.35,-2.97 57.26,-2.85 57.16,-2.72 57.04,-2.62 56.92,-2.51 56.78,-2.44 56.64,-2.37 56.48,-2.34 56.33,-2.30 56.17,-2.31 56.01,-2.31 55.86,-2.35 55.71,-2.39 55.57,-2.47 55.43,-2.55 55.31,-2.66 55.20,-2.76 55.05,-3.08 54.91,-3.39 54.91,-3.60 54.90,-3.82 54.97,-4.02 55.04,-4.22 55.16,-4.39 55.29,-4.56 55.47,-4.68 55.64,-4.80 55.85,-4.86 56.05,-4.92 56.26,-4.91 56.48,-4.90 56.67,-4.82 56.87,-4.74 57.03,-4.60 57.20,-4.47 57.31,-4.29 57.42,-4.10 57.47,-3.90 57.51,-3.69 57.49,-3.48 57.47,-3.27 57.38,-3.07 57.29,-2.88 57.15,-2.73 57.00,-2.57 56.82,-2.47 56.63,-2.37 56.42,-2.33 56.21,-2.30 56.00,-2.33 55.79,-2.36 55.60,-2.46 55.41,-2.56 55.27,-2.71 55.12,-2.87 55.03,-3.06 54.94,-3.25 54.91,-3.46 54.89,-3.67 54.93,-3.88 54.98,-4.09 55.09,-4.27 55.20,-4.46 55.36,-4.59 55.52,-4.73 55.71,-4.81 55.91,-4.89 56.12,-4.91 56.34,-4.92 56.54,-4.86 56.75,-4.81 56.92,-4.69 57.10,-4.57 57.23,-4.40 57.36,-4.23 57.28,-4.35 57.20,-4.46 57.29,-4.33 57.38,-4.20 57.43,-4.05 57.48,-3.90 57.50,-3.74 57.51,-3.58 57.49,-3.43 57.47,-3.27 57.41,-3.12 57.35,-2.97 57.26,-2.85 57.16,-2.72 57.04,-2.62 56.92,-2.51 56.78,-2.44 56.64,-2.37 56.48,-2.34 56.33,-2.30 56.17,-2.31 56.01,-2.31 55.86,-2.35 55.71,-2.39 55.57,-2.47 55.43,-2.55 55.31,-2.66 55.20,-2.76 54.14,-2.41 53.07,-2.06 52.88,-3.14 52.68,-4.21 53.28,-5.48 53.88,-6.75 56.53,-6.43 59.19,-6.12 60.21,-4.78 61.23,-3.43 61.79,-2.42 62.35,-1.41 62.76,-0.07 63.17,1.26 63.25,2.92 63.34,4.59 62.64,6.43 61.94,8.26 60.68,9.48 59.43,10.69 57.80,11.55 56.18,12.41 54.77,12.86 53.37,13.31 51.59,13.59 49.81,13.87 48.29,13.79 46.77,13.72 44.42,13.15 42.07,12.58 40.20,11.66 38.33,10.75 36.88,8.95 35.43,7.16 35.11,5.36 34.79,3.56 34.53,2.22 34.27,0.87 34.44,-0.56 34.61,-2.00 34.93,-3.41 35.26,-4.82 35.43,-6.67 35.60,-8.52 35.95,-10.42 36.30,-12.32 36.49,-14.10 36.68,-15.88 36.47,-17.86 36.26,-19.84 35.86,-21.83 35.45,-23.82 34.18,-25.95 32.91,-28.09 31.34,-30.41 29.77,-32.72 27.90,-34.48 26.03,-36.24 23.74,-37.44 21.46,-38.63 19.56,-39.47 17.67,-40.31 15.94,-40.50 14.21,-40.68 12.30,-40.47 10.39,-40.26 8.26,-39.72 6.12,-39.18 4.60,-38.72 3.07,-38.26 2.12,-37.52 1.16,-36.78 0.16,-35.71 -0.83,-34.64 -0.40,-33.61 0.02,-32.59 1.05,-31.19 2.09,-29.79 3.38,-28.27 4.67,-26.76 6.23,-24.71 7.78,-22.66 9.41,-20.54 11.03,-18.43 12.97,-15.94 14.91,-13.46 16.58,-10.57 18.25,-7.69 19.24,-5.37 20.24,-3.06 21.59,-0.04 22.95,2.97 23.58,4.02 24.21,5.07 24.48,6.81 24.75,8.54 24.49,9.79 24.23,11.05 22.96,12.63 21.70,14.22 20.84,14.95 19.98,15.69 18.61,16.75 17.24,17.81 15.64,18.77 14.03,19.72 12.52,20.48 11.01,21.24 9.34,21.81 7.67,22.39 6.08,21.90 4.48,21.42 3.62,20.48 2.76,19.54 2.23,18.31 1.70,17.08 1.21,15.67 0.72,14.27 0.31,12.52 -0.10,10.77 -0.26,9.31 -0.42,7.84 -1.21,5.39 -2.00,2.94 -1.64,1.63 -1.27,0.31 -1.29,0.16 -1.31,0.00 -1.29,-0.15 -1.27,-0.31 -1.22,-0.45 -1.16,-0.60 -1.07,-0.73 -0.98,-0.86 -0.86,-0.97 -0.74,-1.07 -0.60,-1.15 -0.46,-1.22 -0.31,-1.26 -0.16,-1.30 -0.00,-1.30 0.15,-1.30 0.30,-1.26 0.46,-1.22 0.60,-1.15 0.74,-1.08 0.86,-0.97 0.98,-0.87 1.07,-0.74 1.16,-0.61 1.21,-0.46 1.27,-0.31 1.27,-0.31 L 1.27,-0.31 Z"/></g><g transform="translate(133 456.78929504554003) rotate(0 14 40)" stroke="none"><path fill="#f08c00" d="M 0.72,-1.09 Q 0.72,-1.09 1.93,-1.05 3.15,-1.01 4.41,-0.38 5.66,0.24 6.78,0.96 7.90,1.69 9.83,3.98 11.76,6.27 13.96,9.52 16.16,12.77 18.27,16.51 20.38,20.24 21.50,22.02 22.63,23.80 24.10,27.39 25.57,30.98 27.05,35.99 28.54,41.00 29.21,46.76 29.87,52.52 30.42,57.16 30.97,61.80 30.92,65.68 30.88,69.57 30.55,72.43 30.23,75.29 29.70,76.98 29.17,78.67 28.22,79.68 27.26,80.70 25.12,80.90 22.98,81.11 22.76,81.12 22.55,81.14 22.35,81.09 22.14,81.04 21.96,80.92 21.78,80.81 21.65,80.64 21.52,80.47 21.44,80.27 21.37,80.08 21.37,79.86 21.36,79.65 21.42,79.45 21.49,79.24 21.61,79.07 21.73,78.90 21.91,78.78 22.08,78.65 22.28,78.59 22.49,78.53 22.70,78.54 22.91,78.54 23.11,78.62 23.31,78.69 23.48,78.82 23.64,78.96 23.76,79.14 23.87,79.32 23.92,79.52 23.97,79.73 23.95,79.94 23.93,80.15 23.85,80.35 23.77,80.54 23.62,80.70 23.48,80.86 23.30,80.96 23.11,81.07 22.90,81.10 22.69,81.14 22.48,81.11 22.27,81.09 22.08,80.99 21.89,80.90 21.74,80.74 21.59,80.59 21.50,80.40 21.40,80.21 21.38,80.00 21.35,79.79 21.39,79.58 21.43,79.37 21.53,79.19 21.64,79.01 21.80,78.86 21.96,78.72 22.15,78.64 22.35,78.56 22.35,78.56 22.35,78.56 23.20,77.80 24.06,77.05 24.37,75.85 24.68,74.65 24.98,72.06 25.28,69.48 25.34,65.97 25.40,62.45 24.86,57.79 24.31,53.14 23.75,47.85 23.20,42.56 21.81,37.80 20.41,33.05 19.17,29.90 17.93,26.75 16.74,24.86 15.54,22.97 13.55,19.41 11.55,15.86 9.50,12.77 7.44,9.69 6.14,7.90 4.83,6.11 3.74,5.35 2.65,4.59 1.47,3.95 0.29,3.31 -0.21,2.20 -0.72,1.09 -0.84,0.98 -0.96,0.88 -1.06,0.75 -1.15,0.62 -1.21,0.48 -1.26,0.33 -1.29,0.17 -1.31,0.02 -1.29,-0.13 -1.28,-0.29 -1.22,-0.44 -1.17,-0.59 -1.08,-0.72 -0.99,-0.85 -0.88,-0.96 -0.76,-1.06 -0.62,-1.14 -0.48,-1.22 -0.33,-1.26 -0.17,-1.30 -0.02,-1.30 0.13,-1.30 0.29,-1.27 0.44,-1.23 0.58,-1.16 0.72,-1.09 0.72,-1.09 L 0.72,-1.09 Z"/></g><g stroke-linecap="round"><g transform="translate(318.3678851366199 589.759005065173) rotate(0 151.32547066149002 -18.937678978756537)"><path d="M0.28 -1.06 C25.22 -7.36, 98.17 -34.11, 148.43 -37.09 C198.69 -40.07, 276.17 -21.61, 301.84 -18.93 M-1.03 1 C23.92 -5.69, 97.01 -35.17, 147.9 -38.8 C198.79 -42.43, 278.52 -23.83, 304.31 -20.77" stroke="#f08c00" stroke-width="1" fill="none"/></g><g transform="translate(318.3678851366199 589.759005065173) rotate(0 151.32547066149002 -18.937678978756537)"><path d="M279.73 -16.2 C282.86 -15.87, 290.86 -19.45, 304.31 -20.77 M279.73 -16.2 C289.98 -18.33, 299.32 -19.01, 304.31 -20.77" stroke="#f08c00" stroke-width="1" fill="none"/></g><g transform="translate(318.3678851366199 589.759005065173) rotate(0 151.32547066149002 -18.937678978756537)"><path d="M282.54 -33.07 C285.21 -29.35, 292.64 -29.54, 304.31 -20.77 M282.54 -33.07 C291.7 -28.83, 299.98 -23.12, 304.31 -20.77" stroke="#f08c00" stroke-width="1" fill="none"/></g></g><mask/><g transform="translate(396.8694968578077 505.62117888380175) rotate(0 -1.2976763590834892 16.653513274904732)" stroke="none"><path fill="#f08c00" d="M -0.58,0.29 Q -0.58,0.29 -0.21,0.72 0.16,1.15 0.52,2.36 0.88,3.58 0.84,5.40 0.80,7.22 0.78,9.74 0.76,12.27 0.75,15.02 0.74,17.77 0.61,20.29 0.47,22.80 0.28,24.76 0.09,26.71 -0.07,28.21 -0.23,29.71 -1.16,32.04 -2.08,34.37 -2.17,34.43 -2.26,34.49 -2.36,34.52 -2.46,34.55 -2.57,34.55 -2.67,34.54 -2.77,34.51 -2.87,34.47 -2.95,34.40 -3.03,34.33 -3.09,34.24 -3.15,34.15 -3.17,34.05 -3.19,33.94 -3.18,33.84 -3.17,33.73 -3.13,33.64 -3.09,33.54 -3.01,33.46 -2.94,33.38 -2.85,33.33 -2.76,33.28 -2.65,33.26 -2.55,33.24 -2.44,33.26 -2.34,33.28 -2.24,33.32 -2.15,33.37 -2.07,33.45 -2.00,33.53 -1.95,33.62 -1.91,33.72 -1.90,33.82 -1.88,33.93 -1.90,34.03 -1.93,34.14 -1.98,34.23 -2.03,34.32 -2.11,34.39 -2.19,34.46 -2.29,34.50 -2.39,34.54 -2.50,34.55 -2.60,34.55 -2.70,34.53 -2.81,34.50 -2.90,34.44 -2.98,34.38 -3.05,34.30 -3.11,34.22 -3.15,34.11 -3.19,34.01 -3.19,33.91 -3.19,33.80 -3.16,33.70 -3.12,33.60 -3.06,33.51 -3.00,33.43 -3.00,33.43 -3.00,33.43 -3.12,31.43 -3.24,29.43 -3.13,27.93 -3.02,26.42 -2.86,24.53 -2.69,22.64 -2.57,20.20 -2.45,17.76 -2.44,15.00 -2.44,12.24 -2.42,9.70 -2.40,7.15 -2.35,5.24 -2.31,3.33 -2.19,1.92 -2.07,0.51 -1.78,-0.30 -1.49,-1.11 -0.95,-1.38 -0.41,-1.64 0.08,-0.97 0.58,-0.29 0.61,-0.21 0.64,-0.14 0.64,-0.06 0.65,0.01 0.64,0.09 0.63,0.16 0.60,0.24 0.57,0.31 0.52,0.38 0.48,0.44 0.42,0.49 0.36,0.54 0.29,0.58 0.22,0.61 0.14,0.63 0.06,0.65 -0.01,0.65 -0.09,0.65 -0.16,0.62 -0.24,0.60 -0.31,0.57 -0.38,0.53 -0.44,0.47 -0.50,0.42 -0.54,0.35 -0.58,0.29 -0.58,0.29 L -0.58,0.29 Z"/></g><g transform="translate(403.14159926004453 503.8909437383571) rotate(0 0.10813969659028544 14.598859039689216)" stroke="none"><path fill="#f08c00" d="M 0.58,0.29 Q 0.58,0.29 0.78,0.68 0.98,1.08 0.98,2.57 0.98,4.07 1.10,6.34 1.22,8.61 1.34,11.59 1.45,14.58 1.56,17.58 1.67,20.59 1.78,22.79 1.89,24.99 1.93,26.38 1.97,27.76 1.53,27.10 1.10,26.43 1.09,26.51 1.08,26.59 1.06,26.66 1.03,26.74 0.99,26.80 0.95,26.87 0.89,26.92 0.83,26.98 0.76,27.02 0.70,27.06 0.62,27.08 0.54,27.10 0.46,27.10 0.38,27.11 0.31,27.09 0.23,27.07 0.16,27.04 0.09,27.00 0.03,26.95 -0.02,26.90 -0.07,26.84 -0.12,26.78 -0.15,26.70 -0.18,26.63 -0.19,26.55 -0.20,26.47 -0.19,26.37 -0.18,26.27 -0.14,26.18 -0.09,26.08 -0.02,26.00 0.05,25.93 0.14,25.88 0.23,25.83 0.34,25.81 0.44,25.79 0.55,25.81 0.65,25.83 0.75,25.88 0.84,25.93 0.91,26.01 0.99,26.09 1.03,26.18 1.08,26.28 1.09,26.38 1.10,26.49 1.07,26.59 1.05,26.70 1.00,26.79 0.94,26.88 0.86,26.95 0.78,27.02 0.68,27.05 0.58,27.09 0.47,27.10 0.37,27.10 0.27,27.08 0.16,27.05 0.08,26.99 -0.00,26.93 -0.07,26.84 -0.13,26.76 -0.16,26.66 -0.20,26.55 -0.20,26.45 -0.20,26.34 -0.16,26.24 -0.13,26.14 -0.06,26.06 -0.00,25.97 0.08,25.91 0.17,25.85 0.27,25.83 0.37,25.80 0.48,25.80 0.59,25.81 0.68,25.85 0.78,25.89 0.86,25.96 0.94,26.03 1.00,26.12 1.05,26.21 1.08,26.31 1.10,26.42 1.10,26.42 1.10,26.43 1.09,26.51 1.08,26.59 1.06,26.66 1.03,26.74 0.99,26.80 0.95,26.87 0.89,26.92 0.83,26.98 0.76,27.02 0.70,27.06 0.62,27.08 0.54,27.10 0.46,27.10 0.38,27.11 0.31,27.09 0.23,27.07 0.16,27.04 0.09,27.00 0.03,26.95 -0.02,26.90 -0.07,26.84 -0.12,26.78 -0.15,26.70 -0.18,26.63 -0.19,26.55 -0.20,26.47 -0.51,27.16 -0.81,27.86 -0.86,26.49 -0.92,25.13 -1.02,22.91 -1.13,20.69 -1.24,17.69 -1.35,14.68 -1.45,11.72 -1.56,8.75 -1.67,6.38 -1.78,4.02 -1.75,2.59 -1.71,1.15 -1.59,0.53 -1.48,-0.08 -1.03,-0.19 -0.58,-0.29 -0.54,-0.35 -0.49,-0.42 -0.44,-0.47 -0.38,-0.53 -0.31,-0.57 -0.24,-0.60 -0.16,-0.62 -0.09,-0.65 -0.01,-0.65 0.06,-0.65 0.14,-0.63 0.22,-0.61 0.29,-0.58 0.36,-0.54 0.42,-0.49 0.48,-0.44 0.52,-0.38 0.57,-0.31 0.60,-0.24 0.63,-0.16 0.64,-0.09 0.65,-0.01 0.64,0.06 0.64,0.14 0.61,0.21 0.58,0.29 0.58,0.29 L 0.58,0.29 Z"/></g><g transform="translate(396.43693807144655 505.62117888380175) rotate(0 12.97676359083485 0)" stroke="none"><path fill="#f08c00" d="M -0.42,-0.50 Q -0.42,-0.50 -0.29,-1.11 -0.16,-1.71 0.76,-2.30 1.69,-2.89 3.13,-3.68 4.57,-4.46 6.69,-5.49 8.81,-6.52 11.53,-7.70 14.25,-8.88 15.66,-9.45 17.08,-10.02 18.86,-10.53 20.65,-11.03 22.11,-11.19 23.56,-11.35 24.81,-10.58 26.06,-9.81 26.20,-8.61 26.34,-7.40 26.25,-6.78 26.16,-6.16 25.49,-4.89 24.82,-3.62 23.79,-2.13 22.76,-0.64 21.62,0.75 20.48,2.15 19.31,3.49 18.14,4.83 16.84,6.01 15.54,7.19 14.07,8.02 12.60,8.84 11.20,9.37 9.80,9.91 7.81,10.41 5.82,10.92 5.75,10.94 5.67,10.96 5.59,10.96 5.51,10.96 5.43,10.94 5.36,10.92 5.29,10.88 5.22,10.85 5.16,10.79 5.10,10.74 5.05,10.68 5.01,10.61 4.98,10.54 4.95,10.46 4.94,10.38 4.93,10.31 4.94,10.23 4.95,10.15 4.98,10.07 5.01,10.00 5.06,9.94 5.10,9.87 5.16,9.82 5.22,9.77 5.29,9.73 5.36,9.69 5.80,9.99 6.25,10.28 6.23,10.38 6.22,10.49 6.18,10.59 6.13,10.68 6.06,10.76 5.98,10.83 5.89,10.88 5.79,10.93 5.69,10.95 5.58,10.96 5.48,10.95 5.37,10.93 5.28,10.88 5.19,10.83 5.12,10.75 5.04,10.67 5.00,10.57 4.96,10.48 4.95,10.37 4.94,10.26 4.96,10.16 4.98,10.06 5.04,9.97 5.10,9.88 5.18,9.81 5.26,9.74 5.36,9.70 5.46,9.66 5.56,9.66 5.67,9.66 5.77,9.68 5.87,9.71 5.96,9.77 6.05,9.84 6.11,9.92 6.18,10.01 6.21,10.11 6.24,10.21 6.24,10.31 6.24,10.42 6.20,10.52 6.17,10.62 6.10,10.71 6.04,10.79 5.95,10.85 5.86,10.91 5.76,10.93 5.65,10.96 5.55,10.95 5.44,10.95 5.34,10.91 5.25,10.87 5.17,10.80 5.09,10.73 5.03,10.63 4.98,10.54 5.40,10.73 5.82,10.92 5.75,10.94 5.67,10.96 5.59,10.96 5.51,10.96 5.43,10.94 5.36,10.92 5.29,10.88 5.22,10.85 5.16,10.79 5.10,10.74 5.05,10.68 5.01,10.61 4.98,10.54 4.95,10.46 4.94,10.38 4.93,10.31 4.94,10.23 4.95,10.15 4.98,10.07 5.01,10.00 5.06,9.94 5.10,9.87 5.16,9.82 5.22,9.77 5.29,9.73 5.36,9.69 7.07,8.46 8.78,7.22 10.01,6.76 11.23,6.31 12.43,5.68 13.63,5.05 14.80,3.99 15.98,2.93 17.12,1.63 18.25,0.33 19.33,-0.97 20.40,-2.29 21.37,-3.66 22.33,-5.04 22.90,-6.26 23.47,-7.48 23.57,-8.01 23.66,-8.54 22.55,-8.41 21.43,-8.28 19.79,-7.81 18.16,-7.34 16.78,-6.79 15.41,-6.23 12.74,-5.07 10.07,-3.90 8.00,-2.91 5.94,-1.93 4.54,-1.18 3.15,-0.44 2.40,0.01 1.65,0.47 1.03,0.48 0.42,0.50 0.35,0.54 0.28,0.59 0.21,0.61 0.13,0.64 0.05,0.64 -0.01,0.65 -0.09,0.64 -0.17,0.63 -0.24,0.60 -0.32,0.57 -0.38,0.52 -0.45,0.47 -0.50,0.41 -0.55,0.35 -0.58,0.28 -0.62,0.21 -0.63,0.13 -0.65,0.05 -0.65,-0.01 -0.64,-0.09 -0.62,-0.17 -0.60,-0.25 -0.56,-0.32 -0.52,-0.38 -0.47,-0.44 -0.42,-0.50 -0.42,-0.50 L -0.42,-0.50 Z"/></g><g transform="translate(435.5835082371317 514.0560752178444) rotate(0 2.8116321113475635 0.8651175727223119)" stroke="none"><path fill="#f08c00" d="M -0.65,0 Q -0.65,0 -0.94,-0.49 -1.22,-0.99 -0.18,-0.84 0.85,-0.68 0.58,-0.17 0.30,0.34 0.21,1.05 0.12,1.75 0.25,2.42 0.38,3.09 1.20,3.14 2.02,3.19 2.79,2.89 3.56,2.59 4.14,2.04 4.71,1.48 4.94,0.89 5.17,0.30 4.69,-0.47 4.20,-1.26 3.51,-1.29 2.82,-1.31 1.68,0.15 0.53,1.62 0.48,1.71 0.42,1.80 0.34,1.86 0.26,1.93 0.16,1.97 0.06,2.01 -0.04,2.01 -0.14,2.02 -0.24,1.99 -0.35,1.96 -0.43,1.90 -0.52,1.84 -0.58,1.75 -0.65,1.67 -0.68,1.57 -0.71,1.46 -0.71,1.36 -0.71,1.25 -0.67,1.15 -0.64,1.05 -0.57,0.97 -0.51,0.88 -0.42,0.82 -0.33,0.77 -0.23,0.74 -0.13,0.71 -0.02,0.72 0.08,0.73 0.17,0.77 0.27,0.81 0.35,0.88 0.43,0.95 0.49,1.04 0.54,1.13 0.56,1.23 0.58,1.34 0.57,1.44 0.56,1.55 0.51,1.64 0.47,1.74 0.39,1.82 0.32,1.89 0.22,1.94 0.13,1.99 0.02,2.01 -0.07,2.02 -0.18,2.00 -0.28,1.99 -0.37,1.93 -0.47,1.88 -0.54,1.81 -0.61,1.73 -0.65,1.63 -0.70,1.53 -0.71,1.43 -0.72,1.32 -0.69,1.22 -0.67,1.12 -0.67,1.12 -0.67,1.12 -0.10,-0.83 0.47,-2.78 1.28,-3.47 2.10,-4.16 3.17,-4.25 4.23,-4.34 5.34,-3.78 6.44,-3.22 7.12,-2.18 7.81,-1.14 7.84,0.11 7.88,1.37 7.28,2.50 6.69,3.63 5.63,4.49 4.56,5.35 3.23,5.74 1.90,6.14 0.68,5.96 -0.53,5.78 -1.38,5.02 -2.23,4.26 -2.49,3.40 -2.75,2.54 -2.75,1.92 -2.74,1.30 -2.56,0.27 -2.37,-0.74 -1.74,-1.68 -1.10,-2.61 0.06,-1.80 1.22,-0.99 0.94,-0.49 0.65,0 0.64,0.07 0.63,0.15 0.60,0.23 0.58,0.30 0.53,0.37 0.49,0.43 0.43,0.48 0.37,0.54 0.30,0.57 0.23,0.61 0.15,0.63 0.07,0.65 -0.00,0.65 -0.07,0.65 -0.15,0.63 -0.23,0.61 -0.30,0.57 -0.37,0.54 -0.43,0.48 -0.49,0.43 -0.53,0.37 -0.58,0.30 -0.60,0.23 -0.63,0.15 -0.64,0.07 -0.65,-0.00 -0.65,-0.00 L -0.65,0 Z"/></g><g transform="translate(461.96959420516254 503.67466434517655) rotate(0 8.975594816994118 8.651175727223233)" stroke="none"><path fill="#f08c00" d="M -0.13,-0.64 Q -0.13,-0.64 0.97,-1.21 2.09,-1.78 2.67,-1.94 3.26,-2.10 4.32,-2.69 5.38,-3.28 6.93,-4.38 8.49,-5.48 10.32,-6.99 12.14,-8.50 13.50,-9.92 14.86,-11.33 15.51,-12.24 16.17,-13.15 16.28,-13.66 16.40,-14.18 16.52,-14.30 16.63,-14.43 16.78,-14.52 16.92,-14.62 17.08,-14.67 17.25,-14.73 17.42,-14.75 17.59,-14.76 17.76,-14.74 17.93,-14.71 18.09,-14.65 18.25,-14.58 18.38,-14.48 18.52,-14.38 18.63,-14.25 18.74,-14.11 18.82,-13.96 18.89,-13.81 18.93,-13.64 18.97,-13.47 18.96,-13.30 18.96,-13.13 18.91,-12.96 18.87,-12.79 18.78,-12.64 18.70,-12.49 17.77,-12.23 16.84,-11.96 16.08,-11.35 15.31,-10.73 14.42,-9.81 13.52,-8.89 12.06,-7.30 10.60,-5.72 9.26,-3.97 7.93,-2.22 7.09,-0.64 6.26,0.93 6.13,1.91 6.00,2.88 6.19,3.38 6.38,3.89 7.75,4.00 9.13,4.12 10.09,4.03 11.06,3.93 12.30,4.29 13.54,4.65 13.90,5.48 14.26,6.31 13.59,7.67 12.92,9.03 11.95,10.36 10.97,11.69 9.97,13.21 8.97,14.73 8.33,15.94 7.69,17.15 7.59,17.89 7.50,18.63 7.85,19.66 8.20,20.68 8.24,21.58 8.29,22.49 8.01,23.60 7.74,24.71 7.28,25.72 6.82,26.73 6.06,27.69 5.29,28.65 4.68,29.33 4.06,30.01 2.63,30.87 1.21,31.74 1.12,31.79 1.03,31.84 0.93,31.87 0.82,31.89 0.72,31.87 0.61,31.86 0.51,31.81 0.42,31.77 0.34,31.69 0.27,31.62 0.22,31.53 0.17,31.43 0.15,31.33 0.14,31.22 0.16,31.12 0.18,31.01 0.23,30.92 0.28,30.83 0.36,30.75 0.44,30.68 0.53,30.64 0.63,30.60 0.74,30.59 0.84,30.58 0.94,30.60 1.05,30.62 1.14,30.68 1.23,30.74 1.30,30.82 1.36,30.90 1.40,31.00 1.44,31.10 1.44,31.20 1.45,31.31 1.42,31.41 1.39,31.51 1.33,31.60 1.27,31.69 1.18,31.75 1.09,31.82 0.99,31.85 0.89,31.88 0.79,31.88 0.68,31.88 0.58,31.84 0.48,31.81 0.40,31.74 0.31,31.67 0.25,31.59 0.20,31.50 0.17,31.39 0.14,31.29 0.15,31.19 0.16,31.08 0.20,30.98 0.24,30.88 0.31,30.80 0.38,30.72 0.38,30.72 0.38,30.72 1.20,29.44 2.02,28.16 2.60,27.53 3.17,26.90 3.76,26.23 4.34,25.56 4.70,24.79 5.07,24.01 5.27,22.75 5.47,21.49 5.26,20.82 5.05,20.15 4.86,19.20 4.66,18.26 4.90,17.05 5.14,15.83 5.87,14.49 6.59,13.15 7.65,11.58 8.70,10.01 9.62,8.77 10.55,7.52 10.93,7.12 11.30,6.73 10.14,6.83 8.98,6.93 7.51,6.78 6.04,6.63 5.02,5.89 4.00,5.15 3.61,3.87 3.22,2.58 3.47,1.12 3.73,-0.33 4.69,-2.15 5.64,-3.96 7.06,-5.82 8.47,-7.68 9.97,-9.30 11.46,-10.93 12.55,-12.01 13.64,-13.09 14.12,-13.43 14.60,-13.77 15.50,-13.97 16.40,-14.18 16.52,-14.30 16.63,-14.43 16.78,-14.52 16.92,-14.62 17.08,-14.67 17.24,-14.73 17.42,-14.75 17.59,-14.76 17.76,-14.74 17.93,-14.71 18.09,-14.65 18.25,-14.58 18.38,-14.48 18.52,-14.38 18.63,-14.25 18.74,-14.11 18.82,-13.96 18.89,-13.81 18.93,-13.64 18.97,-13.47 18.96,-13.30 18.96,-13.13 18.91,-12.96 18.87,-12.79 18.78,-12.65 18.70,-12.50 18.57,-12.04 18.44,-11.58 17.64,-10.50 16.84,-9.42 15.36,-7.91 13.88,-6.39 11.96,-4.82 10.05,-3.25 8.34,-2.08 6.64,-0.90 5.30,-0.23 3.96,0.43 3.29,0.61 2.63,0.78 1.38,0.71 0.13,0.64 0.05,0.64 -0.02,0.65 -0.10,0.64 -0.17,0.63 -0.25,0.60 -0.32,0.57 -0.38,0.52 -0.45,0.47 -0.50,0.41 -0.55,0.35 -0.58,0.28 -0.62,0.21 -0.63,0.13 -0.65,0.05 -0.65,-0.02 -0.64,-0.10 -0.62,-0.17 -0.60,-0.25 -0.56,-0.32 -0.52,-0.39 -0.47,-0.44 -0.41,-0.50 -0.35,-0.54 -0.28,-0.59 -0.21,-0.61 -0.13,-0.64 -0.13,-0.64 L -0.13,-0.64 Z"/></g><g transform="translate(491.9485952262088 481.57944471856337) rotate(0 3.6767496840698755 -1.4058160556737747)" stroke="none"><path fill="#f08c00" d="M -0.42,-0.49 Q -0.42,-0.49 -0.18,-1.10 0.06,-1.70 0.61,-2.01 1.16,-2.31 1.93,-2.58 2.70,-2.85 4.79,-3.08 6.88,-3.31 6.98,-3.34 7.08,-3.37 7.19,-3.37 7.29,-3.36 7.39,-3.33 7.49,-3.29 7.58,-3.22 7.66,-3.16 7.72,-3.07 7.77,-2.98 7.80,-2.88 7.83,-2.77 7.82,-2.67 7.81,-2.56 7.77,-2.46 7.73,-2.37 7.66,-2.29 7.58,-2.21 7.49,-2.16 7.40,-2.10 7.30,-2.08 7.19,-2.06 7.09,-2.08 6.98,-2.09 6.89,-2.14 6.79,-2.18 6.72,-2.26 6.64,-2.33 6.59,-2.43 6.54,-2.52 6.53,-2.63 6.52,-2.73 6.54,-2.84 6.55,-2.94 6.61,-3.04 6.66,-3.13 6.74,-3.20 6.82,-3.27 6.91,-3.31 7.01,-3.36 7.12,-3.36 7.22,-3.37 7.33,-3.35 7.43,-3.32 7.52,-3.27 7.61,-3.21 7.68,-3.13 7.74,-3.04 7.78,-2.94 7.82,-2.84 7.82,-2.74 7.82,-2.63 7.79,-2.53 7.76,-2.43 7.70,-2.34 7.64,-2.26 7.55,-2.19 7.47,-2.13 7.47,-2.13 7.47,-2.13 5.48,-1.26 3.49,-0.39 2.58,-0.09 1.67,0.21 1.05,0.35 0.42,0.49 0.36,0.54 0.29,0.58 0.22,0.61 0.14,0.64 0.06,0.64 -0.01,0.65 -0.08,0.64 -0.16,0.63 -0.24,0.60 -0.31,0.57 -0.37,0.53 -0.44,0.48 -0.49,0.42 -0.54,0.36 -0.58,0.29 -0.61,0.22 -0.63,0.14 -0.65,0.06 -0.65,-0.01 -0.65,-0.08 -0.63,-0.16 -0.61,-0.24 -0.57,-0.31 -0.53,-0.38 -0.48,-0.44 -0.42,-0.49 -0.42,-0.49 L -0.42,-0.49 Z"/></g><g transform="translate(502.3300060988767 477.0375774617712) rotate(0 6.8128008851883095 -3.6767496840698755)" stroke="none"><path fill="#f08c00" d="M -0.49,-0.43 Q -0.49,-0.43 -0.29,-1.14 -0.10,-1.84 0.61,-2.60 1.33,-3.36 1.84,-4.01 2.34,-4.67 2.88,-5.45 3.42,-6.24 3.63,-6.98 3.84,-7.72 3.86,-8.63 3.88,-9.53 3.83,-10.35 3.78,-11.17 3.60,-11.72 3.43,-12.26 3.43,-12.44 3.42,-12.62 3.46,-12.79 3.50,-12.97 3.59,-13.12 3.67,-13.28 3.78,-13.42 3.90,-13.55 4.04,-13.66 4.19,-13.76 4.36,-13.82 4.52,-13.89 4.70,-13.91 4.87,-13.94 5.05,-13.92 5.23,-13.90 5.40,-13.84 5.56,-13.78 5.71,-13.68 5.86,-13.58 5.98,-13.45 6.10,-13.31 6.18,-13.16 6.27,-13.00 6.31,-12.83 6.36,-12.66 6.38,-12.05 6.40,-11.45 6.60,-10.53 6.80,-9.61 7.05,-8.42 7.30,-7.24 7.61,-5.87 7.91,-4.50 8.11,-3.25 8.32,-2.00 8.34,-0.76 8.37,0.47 8.17,1.49 7.98,2.51 7.57,3.33 7.17,4.14 6.56,4.73 5.94,5.32 5.24,5.70 4.53,6.09 3.88,6.31 3.23,6.54 2.51,6.75 1.80,6.97 1.63,7.06 1.46,7.15 1.28,7.17 1.11,7.19 0.93,7.17 0.75,7.15 0.58,7.09 0.41,7.02 0.27,6.92 0.12,6.82 0.00,6.69 -0.11,6.55 -0.19,6.39 -0.28,6.24 -0.32,6.06 -0.37,5.89 -0.37,5.71 -0.37,5.53 -0.32,5.35 -0.28,5.18 -0.20,5.02 -0.11,4.86 0.00,4.73 0.11,4.59 0.26,4.49 0.41,4.39 0.58,4.32 0.74,4.26 2.28,3.72 3.82,3.18 5.16,2.67 6.51,2.17 8.10,1.59 9.69,1.01 11.24,0.75 12.80,0.49 12.89,0.44 12.99,0.39 13.09,0.38 13.20,0.37 13.30,0.39 13.40,0.40 13.50,0.46 13.59,0.51 13.66,0.59 13.73,0.67 13.78,0.76 13.82,0.86 13.83,0.97 13.84,1.07 13.81,1.18 13.78,1.28 13.73,1.37 13.67,1.46 13.59,1.53 13.51,1.59 13.41,1.63 13.31,1.67 13.20,1.67 13.09,1.67 12.99,1.64 12.89,1.61 12.80,1.55 12.72,1.49 12.66,1.40 12.59,1.32 12.56,1.21 12.53,1.11 12.53,1.01 12.54,0.90 12.57,0.80 12.61,0.70 12.67,0.62 12.74,0.53 12.83,0.48 12.92,0.42 13.02,0.39 13.13,0.37 13.23,0.38 13.34,0.38 13.43,0.43 13.53,0.47 13.61,0.54 13.69,0.61 13.74,0.70 13.80,0.79 13.82,0.90 13.84,1.00 13.82,1.11 13.81,1.21 13.76,1.31 13.72,1.40 13.64,1.48 13.57,1.55 13.57,1.55 13.57,1.55 12.14,2.65 10.71,3.75 9.13,4.36 7.55,4.96 6.13,5.49 4.70,6.02 3.71,6.32 2.71,6.62 2.09,6.89 1.46,7.15 1.28,7.17 1.11,7.19 0.93,7.17 0.75,7.15 0.58,7.09 0.41,7.03 0.27,6.92 0.12,6.82 0.00,6.69 -0.11,6.55 -0.19,6.39 -0.28,6.24 -0.32,6.06 -0.37,5.89 -0.37,5.71 -0.37,5.53 -0.32,5.35 -0.28,5.18 -0.20,5.02 -0.11,4.86 0.00,4.73 0.11,4.59 0.26,4.49 0.41,4.39 0.58,4.32 0.74,4.26 0.90,4.18 1.06,4.09 1.67,3.91 2.28,3.72 3.16,3.39 4.03,3.05 4.56,2.46 5.09,1.87 5.25,1.18 5.41,0.50 5.40,-0.52 5.40,-1.55 5.22,-2.72 5.05,-3.89 4.77,-5.26 4.48,-6.64 4.23,-7.83 3.97,-9.02 3.82,-9.74 3.66,-10.46 3.55,-11.36 3.43,-12.26 3.43,-12.44 3.42,-12.62 3.46,-12.79 3.50,-12.97 3.59,-13.12 3.67,-13.28 3.78,-13.42 3.90,-13.55 4.04,-13.66 4.19,-13.76 4.36,-13.82 4.52,-13.89 4.70,-13.91 4.87,-13.94 5.05,-13.92 5.23,-13.90 5.40,-13.84 5.56,-13.78 5.71,-13.68 5.86,-13.58 5.98,-13.45 6.10,-13.31 6.18,-13.16 6.27,-13.00 6.31,-12.83 6.36,-12.66 6.30,-12.82 6.25,-12.97 6.47,-12.12 6.69,-11.27 6.70,-10.31 6.72,-9.35 6.60,-8.10 6.48,-6.85 6.07,-5.76 5.65,-4.67 5.10,-3.90 4.55,-3.13 3.93,-2.35 3.30,-1.57 2.57,-0.85 1.84,-0.14 1.16,0.14 0.49,0.43 0.43,0.48 0.37,0.53 0.30,0.57 0.23,0.61 0.15,0.63 0.08,0.65 0.00,0.65 -0.07,0.65 -0.15,0.63 -0.22,0.61 -0.29,0.57 -0.36,0.54 -0.42,0.49 -0.48,0.43 -0.53,0.37 -0.57,0.30 -0.60,0.23 -0.63,0.16 -0.64,0.08 -0.65,0.00 -0.64,-0.07 -0.63,-0.15 -0.61,-0.22 -0.58,-0.30 -0.53,-0.36 -0.49,-0.43 -0.49,-0.43 L -0.49,-0.43 Z"/></g><g transform="translate(185.55980218467772 262.88374497649534) rotate(0 23.441506116768096 122.57954240226599)" stroke="none"><path fill="#f08c00" d="M -0.29,0.58 Q -0.29,0.58 -0.98,0.45 -1.66,0.32 -2.02,-0.76 -2.39,-1.85 -1.80,-2.54 -1.21,-3.23 -0.27,-3.50 0.67,-3.78 1.77,-4.11 2.87,-4.44 4.30,-4.61 5.72,-4.77 8.31,-4.84 10.89,-4.90 14.15,-4.02 17.41,-3.14 19.53,-0.33 21.65,2.47 21.69,8.34 21.74,14.21 19.74,23.16 17.75,32.12 15.21,41.51 12.68,50.91 11.05,60.18 9.43,69.44 9.01,75.55 8.60,81.66 9.98,84.53 11.36,87.41 13.74,88.27 16.12,89.14 19.11,89.85 22.10,90.56 23.77,90.94 25.44,91.32 26.95,93.35 28.46,95.38 28.79,98.93 29.12,102.48 28.38,107.65 27.64,112.83 26.76,118.63 25.88,124.43 25.22,127.49 24.56,130.55 24.30,134.84 24.03,139.13 24.47,143.71 24.92,148.28 25.92,151.55 26.93,154.82 28.41,156.95 29.90,159.08 31.62,160.81 33.34,162.54 34.95,164.16 36.56,165.78 38.19,169.15 39.83,172.52 40.80,178.82 41.78,185.11 42.45,193.10 43.13,201.08 43.70,210.08 44.27,219.09 45.05,225.97 45.83,232.85 46.83,237.16 47.83,241.46 48.49,244.52 49.15,247.57 49.16,247.68 49.17,247.79 49.14,247.89 49.12,247.99 49.06,248.08 49.00,248.17 48.92,248.24 48.83,248.30 48.73,248.34 48.63,248.37 48.53,248.37 48.42,248.38 48.32,248.34 48.22,248.31 48.13,248.25 48.05,248.18 47.98,248.10 47.92,248.01 47.89,247.91 47.86,247.81 47.87,247.70 47.87,247.59 47.91,247.50 47.95,247.40 48.02,247.31 48.08,247.23 48.17,247.18 48.26,247.12 48.37,247.09 48.47,247.07 48.58,247.08 48.68,247.09 48.78,247.13 48.88,247.18 48.95,247.25 49.03,247.32 49.08,247.41 49.13,247.51 49.15,247.61 49.17,247.72 49.16,247.82 49.14,247.93 49.09,248.02 49.04,248.11 48.97,248.19 48.89,248.26 48.80,248.31 48.70,248.36 48.60,248.37 48.49,248.38 48.39,248.36 48.28,248.34 48.19,248.29 48.10,248.23 48.03,248.15 47.96,248.07 47.92,247.97 47.88,247.88 47.88,247.88 47.88,247.88 47.10,244.87 46.33,241.87 44.96,237.49 43.59,233.12 42.77,226.18 41.95,219.24 41.38,210.26 40.81,201.28 40.14,193.37 39.47,185.46 38.59,179.48 37.71,173.50 36.29,170.44 34.88,167.39 33.28,165.78 31.69,164.18 29.84,162.28 27.99,160.39 26.35,157.96 24.71,155.52 23.66,152.02 22.60,148.51 22.15,143.75 21.71,138.99 22.00,134.53 22.28,130.07 22.93,127.08 23.58,124.08 24.45,118.29 25.33,112.49 26.06,107.57 26.80,102.64 26.64,99.59 26.48,96.54 25.52,94.93 24.56,93.32 23.05,93.07 21.55,92.83 18.39,92.06 15.23,91.29 12.40,90.00 9.57,88.70 7.93,85.18 6.29,81.65 6.71,75.35 7.12,69.04 8.77,59.67 10.42,50.30 12.95,40.95 15.47,31.61 17.45,22.89 19.44,14.17 19.59,8.85 19.74,3.52 18.15,1.15 16.56,-1.21 13.74,-1.97 10.92,-2.72 8.44,-2.66 5.96,-2.60 4.73,-2.47 3.50,-2.34 2.31,-1.99 1.12,-1.63 0.27,-1.54 -0.57,-1.44 -0.14,-1.01 0.29,-0.58 0.35,-0.54 0.42,-0.49 0.47,-0.44 0.53,-0.38 0.57,-0.31 0.60,-0.24 0.62,-0.16 0.65,-0.09 0.65,-0.01 0.65,0.06 0.63,0.14 0.61,0.22 0.58,0.29 0.54,0.36 0.49,0.42 0.44,0.48 0.38,0.52 0.31,0.57 0.24,0.60 0.16,0.63 0.09,0.64 0.01,0.65 -0.06,0.64 -0.14,0.64 -0.21,0.61 -0.29,0.58 -0.29,0.58 L -0.29,0.58 Z"/></g><g transform="translate(217.7918730952337 498.2755355657073) rotate(0 13.674211901448075 0.9767294215320703)" stroke="none"><path fill="#f08c00" d="M 0,0.65 Q 0,0.65 -0.28,0.86 -0.56,1.07 -0.68,1.05 -0.81,1.04 -0.93,0.99 -1.05,0.94 -1.16,0.87 -1.27,0.80 -1.35,0.70 -1.44,0.60 -1.50,0.49 -1.56,0.37 -1.59,0.25 -1.62,0.12 -1.62,-0.00 -1.62,-0.12 -1.59,-0.25 -1.56,-0.37 -1.50,-0.49 -1.44,-0.60 -1.35,-0.70 -1.27,-0.80 -1.16,-0.87 -1.05,-0.94 -0.93,-0.99 -0.81,-1.04 -0.68,-1.05 -0.56,-1.07 0.06,-0.52 0.68,0.02 1.88,0.99 3.07,1.96 3.80,2.57 4.53,3.19 5.69,4.30 6.85,5.42 8.08,6.09 9.30,6.75 11.53,7.90 13.76,9.05 15.53,9.81 17.29,10.56 18.26,10.87 19.22,11.18 19.90,10.12 20.59,9.06 21.36,6.66 22.14,4.27 23.34,0.96 24.53,-2.34 26.28,-5.87 28.02,-9.41 28.08,-9.50 28.14,-9.59 28.22,-9.66 28.30,-9.72 28.40,-9.76 28.50,-9.80 28.61,-9.80 28.71,-9.80 28.81,-9.77 28.91,-9.74 29.00,-9.68 29.09,-9.62 29.15,-9.53 29.21,-9.45 29.25,-9.35 29.28,-9.25 29.27,-9.14 29.27,-9.03 29.24,-8.93 29.20,-8.83 29.13,-8.75 29.07,-8.67 28.98,-8.61 28.89,-8.55 28.79,-8.53 28.68,-8.50 28.58,-8.51 28.47,-8.52 28.37,-8.56 28.28,-8.60 28.20,-8.67 28.12,-8.74 28.06,-8.83 28.01,-8.92 27.99,-9.03 27.97,-9.13 27.98,-9.24 28.00,-9.34 28.04,-9.44 28.09,-9.53 28.17,-9.61 28.24,-9.68 28.34,-9.73 28.43,-9.78 28.54,-9.79 28.64,-9.81 28.75,-9.79 28.85,-9.77 28.94,-9.72 29.04,-9.67 29.11,-9.59 29.18,-9.51 29.22,-9.41 29.26,-9.32 29.27,-9.21 29.28,-9.10 29.26,-9.00 29.23,-8.90 29.23,-8.90 29.23,-8.90 27.94,-5.24 26.64,-1.58 25.46,1.69 24.29,4.97 23.44,7.51 22.59,10.06 21.76,11.41 20.92,12.77 19.81,13.00 18.70,13.23 17.58,12.88 16.45,12.53 14.62,11.74 12.79,10.95 10.52,9.78 8.25,8.61 6.82,7.79 5.39,6.97 4.27,5.89 3.15,4.82 2.48,4.25 1.80,3.68 0.62,2.37 -0.56,1.07 -0.68,1.05 -0.81,1.04 -0.93,0.99 -1.05,0.94 -1.16,0.87 -1.27,0.80 -1.35,0.70 -1.44,0.60 -1.50,0.49 -1.56,0.37 -1.59,0.25 -1.62,0.12 -1.62,0.00 -1.62,-0.12 -1.59,-0.25 -1.56,-0.37 -1.50,-0.49 -1.44,-0.60 -1.35,-0.70 -1.27,-0.80 -1.16,-0.87 -1.05,-0.94 -0.93,-0.99 -0.81,-1.04 -0.68,-1.05 -0.56,-1.07 -0.28,-0.86 0,-0.65 0.07,-0.64 0.15,-0.63 0.23,-0.60 0.30,-0.58 0.37,-0.53 0.43,-0.49 0.48,-0.43 0.54,-0.37 0.57,-0.30 0.61,-0.23 0.63,-0.15 0.65,-0.07 0.65,0.00 0.65,0.07 0.63,0.15 0.61,0.23 0.57,0.30 0.54,0.37 0.48,0.43 0.43,0.49 0.37,0.53 0.30,0.58 0.23,0.60 0.15,0.63 0.07,0.64 -0.00,0.65 -0.00,0.65 L 0,0.65 Z"/></g></svg>