<svg version="1.1" xmlns="http://www.w3.org/2000/svg" viewBox="0 0 826 501" width="826" height="501" class="excalidraw-svg">
  <!-- svg-source:excalidraw -->
  
  <defs>
    <style class="style-fonts">
      
    </style>
    
  </defs>
  <g transform="translate(31 33) rotate(0 34 203.5)" stroke="none"><path fill="#c2255c" d="M 0.78,-1.05 Q 0.78,-1.05 3.40,0.25 6.01,1.56 7.31,2.60 8.62,3.65 9.90,5.09 11.18,6.52 13.55,10.70 15.93,14.88 17.39,17.06 18.85,19.25 20.72,22.59 22.59,25.94 24.21,28.73 25.83,31.53 28.04,36.28 30.24,41.03 34.34,50.19 38.45,59.36 42.79,69.59 47.13,79.82 49.56,86.23 52.00,92.63 55.04,100.50 58.08,108.36 60.86,119.34 63.65,130.32 65.70,145.13 67.75,159.95 67.48,180.76 67.21,201.57 67.09,211.48 66.97,221.38 66.34,228.29 65.71,235.20 63.42,247.14 61.14,259.08 57.00,276.52 52.86,293.96 49.95,304.56 47.03,315.16 45.22,321.93 43.42,328.70 40.60,336.86 37.79,345.01 32.55,357.16 27.31,369.31 24.21,375.91 21.12,382.51 19.23,386.46 17.34,390.40 15.05,394.45 12.75,398.50 10.80,401.14 8.86,403.77 8.11,405.02 7.36,406.27 6.93,406.48 6.49,406.69 6.33,406.91 6.16,407.14 5.95,407.32 5.74,407.50 5.49,407.62 5.24,407.74 4.96,407.80 4.69,407.86 4.41,407.85 4.14,407.84 3.87,407.77 3.60,407.69 3.36,407.56 3.11,407.42 2.91,407.23 2.71,407.04 2.56,406.81 2.40,406.57 2.31,406.31 2.22,406.05 2.20,405.77 2.17,405.49 2.21,405.22 2.25,404.94 2.36,404.68 2.46,404.43 3.47,402.92 4.47,401.41 4.57,401.22 4.67,401.03 4.83,400.88 4.98,400.74 5.17,400.65 5.36,400.56 5.58,400.53 5.79,400.51 5.99,400.55 6.20,400.60 6.38,400.71 6.57,400.81 6.71,400.98 6.84,401.14 6.92,401.33 7.00,401.53 7.02,401.74 7.03,401.96 6.97,402.16 6.92,402.37 6.80,402.54 6.68,402.72 6.51,402.85 6.34,402.98 6.14,403.05 5.94,403.11 5.73,403.12 5.51,403.12 5.31,403.05 5.11,402.98 4.94,402.85 4.77,402.73 4.65,402.55 4.53,402.38 4.47,402.17 4.42,401.97 4.43,401.75 4.44,401.54 4.52,401.34 4.59,401.15 4.73,400.98 4.87,400.82 5.05,400.71 5.23,400.60 5.44,400.55 5.64,400.51 5.86,400.53 6.07,400.55 6.26,400.64 6.45,400.73 6.61,400.87 6.76,401.02 6.86,401.21 6.96,401.39 7.00,401.60 7.03,401.81 7.00,402.02 6.97,402.23 6.97,402.23 6.97,402.23 6.73,404.46 6.49,406.69 6.33,406.91 6.16,407.14 5.95,407.32 5.74,407.50 5.49,407.62 5.24,407.74 4.96,407.80 4.69,407.86 4.41,407.85 4.14,407.84 3.87,407.77 3.60,407.69 3.36,407.56 3.11,407.42 2.91,407.23 2.71,407.04 2.56,406.81 2.40,406.57 2.31,406.31 2.22,406.05 2.20,405.77 2.17,405.49 2.21,405.22 2.25,404.94 2.36,404.68 2.46,404.43 2.68,404.05 2.90,403.66 3.70,402.17 4.50,400.68 6.17,398.21 7.85,395.74 10.03,391.84 12.21,387.95 14.09,384.02 15.96,380.09 19.02,373.57 22.08,367.05 27.25,355.10 32.42,343.16 35.17,335.20 37.93,327.24 39.74,320.44 41.55,313.65 44.45,303.15 47.34,292.65 51.47,275.33 55.59,258.01 57.86,246.35 60.14,234.69 60.76,228.00 61.39,221.31 61.51,211.40 61.64,201.49 61.95,181.09 62.26,160.69 60.27,146.18 58.28,131.67 55.61,121.01 52.93,110.34 49.90,102.46 46.87,94.57 44.48,88.26 42.10,81.95 37.81,71.75 33.52,61.54 29.49,52.38 25.46,43.21 23.41,38.66 21.36,34.10 19.73,31.25 18.11,28.39 16.39,25.21 14.67,22.02 13.12,19.65 11.56,17.28 9.54,13.46 7.52,9.63 6.58,8.48 5.63,7.33 4.41,6.33 3.18,5.33 1.19,3.19 -0.78,1.05 -0.90,0.94 -1.01,0.83 -1.10,0.69 -1.18,0.56 -1.23,0.41 -1.28,0.26 -1.29,0.10 -1.31,-0.05 -1.28,-0.20 -1.26,-0.36 -1.19,-0.50 -1.13,-0.65 -1.04,-0.78 -0.94,-0.90 -0.82,-1.00 -0.70,-1.10 -0.55,-1.17 -0.41,-1.24 -0.26,-1.27 -0.10,-1.30 0.05,-1.30 0.20,-1.29 0.36,-1.25 0.51,-1.20 0.65,-1.12 0.78,-1.05 0.78,-1.05 L 0.78,-1.05 Z"/></g><g transform="translate(774 21) rotate(0 -19.5 234.5)" stroke="none"><path fill="#c2255c" d="M 0.37,1.25 Q 0.37,1.25 -2.34,2.62 -5.06,3.99 -6.44,4.60 -7.81,5.21 -8.80,5.95 -9.80,6.69 -11.33,8.46 -12.85,10.23 -14.53,12.81 -16.21,15.39 -18.39,18.83 -20.57,22.27 -21.74,24.51 -22.91,26.75 -24.87,30.35 -26.82,33.95 -29.59,40.28 -32.36,46.60 -35.54,54.47 -38.72,62.34 -42.90,75.95 -47.08,89.55 -49.45,97.38 -51.83,105.21 -53.97,113.38 -56.11,121.55 -58.43,134.99 -60.76,148.44 -62.03,158.73 -63.30,169.03 -64.41,181.43 -65.52,193.84 -65.99,210.26 -66.46,226.68 -66.66,235.70 -66.86,244.71 -66.66,250.77 -66.46,256.83 -65.80,266.00 -65.14,275.16 -62.86,289.01 -60.59,302.87 -59.04,310.78 -57.50,318.69 -56.28,324.04 -55.06,329.39 -52.00,337.23 -48.95,345.08 -45.11,352.38 -41.27,359.67 -35.38,368.15 -29.50,376.63 -26.65,380.89 -23.81,385.15 -21.50,388.35 -19.18,391.54 -16.16,395.81 -13.14,400.07 -8.71,406.18 -4.28,412.29 -2.08,415.50 0.10,418.71 1.82,420.83 3.54,422.96 7.18,427.67 10.82,432.37 15.57,439.64 20.32,446.91 22.62,450.55 24.91,454.19 26.45,456.59 27.98,458.99 29.01,461.35 30.03,463.72 30.20,466.82 30.37,469.92 30.28,470.11 30.20,470.31 30.06,470.46 29.92,470.62 29.73,470.72 29.55,470.83 29.34,470.87 29.13,470.91 28.92,470.88 28.71,470.85 28.52,470.75 28.33,470.66 28.18,470.51 28.03,470.36 27.93,470.17 27.84,469.98 27.81,469.77 27.78,469.56 27.82,469.35 27.86,469.14 27.97,468.95 28.07,468.77 28.23,468.63 28.39,468.49 28.59,468.40 28.78,468.32 28.99,468.30 29.21,468.29 29.41,468.34 29.62,468.39 29.80,468.50 29.98,468.62 30.11,468.79 30.24,468.95 30.31,469.15 30.39,469.35 30.39,469.56 30.40,469.78 30.33,469.98 30.27,470.18 30.15,470.35 30.02,470.53 29.85,470.65 29.68,470.77 29.47,470.84 29.27,470.90 29.06,470.89 28.84,470.88 28.65,470.81 28.45,470.74 28.28,470.60 28.12,470.47 28.00,470.29 27.89,470.11 27.84,469.90 27.79,469.70 27.80,469.49 27.82,469.27 27.82,469.27 27.82,469.28 26.49,467.56 25.17,465.85 24.30,463.88 23.43,461.91 21.87,459.50 20.31,457.10 18.03,453.50 15.75,449.91 11.09,442.85 6.43,435.79 2.80,431.14 -0.82,426.49 -2.68,424.19 -4.54,421.89 -6.69,418.75 -8.84,415.61 -13.30,409.48 -17.76,403.35 -20.76,399.11 -23.77,394.87 -26.15,391.58 -28.53,388.30 -31.35,384.08 -34.16,379.86 -40.22,371.09 -46.28,362.31 -50.26,354.72 -54.24,347.13 -57.41,338.89 -60.58,330.66 -61.83,325.22 -63.07,319.78 -64.63,311.78 -66.19,303.79 -68.49,289.68 -70.80,275.57 -71.46,266.29 -72.12,257.02 -72.33,250.80 -72.53,244.59 -72.32,235.55 -72.12,226.51 -71.63,209.92 -71.15,193.33 -70.01,180.83 -68.88,168.33 -67.57,157.90 -66.27,147.48 -63.88,133.81 -61.49,120.14 -59.31,111.87 -57.13,103.60 -54.74,95.76 -52.36,87.92 -48.05,74.11 -43.74,60.30 -40.48,52.37 -37.22,44.44 -34.30,37.95 -31.38,31.46 -29.41,27.91 -27.45,24.36 -26.16,21.93 -24.87,19.51 -22.62,16.05 -20.38,12.58 -18.40,9.73 -16.43,6.88 -15.54,5.95 -14.65,5.03 -13.62,3.90 -12.59,2.77 -11.16,1.81 -9.72,0.85 -8.07,0.15 -6.43,-0.54 -3.40,-0.90 -0.37,-1.25 -0.22,-1.28 -0.06,-1.31 0.09,-1.30 0.25,-1.28 0.40,-1.24 0.55,-1.19 0.68,-1.10 0.82,-1.02 0.93,-0.91 1.04,-0.79 1.12,-0.66 1.20,-0.52 1.24,-0.37 1.29,-0.22 1.30,-0.06 1.31,0.09 1.27,0.24 1.24,0.40 1.18,0.54 1.11,0.69 1.01,0.81 0.91,0.93 0.79,1.03 0.66,1.13 0.52,1.19 0.37,1.25 0.37,1.25 L 0.37,1.25 Z"/></g><g transform="translate(28 37) rotate(0 383 32)" stroke="none"><path fill="#c2255c" d="M -0.41,1.24 Q -0.41,1.24 -1.48,1.17 -2.56,1.09 -2.53,1.06 -2.49,1.02 -2.70,0.92 -2.91,0.82 -3.10,0.67 -3.28,0.52 -3.42,0.33 -3.56,0.15 -3.65,-0.06 -3.74,-0.27 -3.78,-0.50 -3.82,-0.74 -3.80,-0.97 -3.78,-1.20 -3.71,-1.42 -3.63,-1.65 -3.51,-1.84 -3.38,-2.04 -3.21,-2.20 -3.05,-2.37 -2.84,-2.48 -2.64,-2.60 -2.42,-2.67 -2.19,-2.73 -1.96,-2.74 -1.72,-2.75 -1.49,-2.70 -1.26,-2.66 -0.64,-1.36 -0.03,-0.07 1.70,1.53 3.43,3.14 4.85,3.89 6.27,4.65 7.38,5.39 8.50,6.13 10.17,7.33 11.84,8.52 13.87,9.38 15.89,10.25 18.00,11.36 20.11,12.48 23.00,14.06 25.89,15.64 32.00,18.84 38.11,22.04 41.03,23.74 43.95,25.43 46.30,26.69 48.64,27.96 53.66,30.48 58.67,33.01 66.56,36.96 74.45,40.92 78.63,42.87 82.82,44.83 86.02,46.23 89.22,47.63 95.14,49.94 101.07,52.24 113.00,55.77 124.93,59.30 133.20,61.68 141.46,64.05 146.66,65.34 151.85,66.63 158.91,68.02 165.97,69.42 176.71,71.16 187.46,72.89 193.71,73.63 199.97,74.36 204.40,74.97 208.83,75.57 216.13,76.39 223.44,77.22 233.40,77.85 243.35,78.49 255.98,79.63 268.61,80.77 275.71,81.54 282.81,82.31 287.57,82.93 292.33,83.55 298.94,84.38 305.54,85.21 315.21,86.14 324.89,87.06 329.85,87.45 334.82,87.85 338.91,88.01 342.99,88.17 349.25,87.96 355.51,87.74 365.68,87.36 375.86,86.97 381.63,86.81 387.40,86.65 391.30,86.58 395.20,86.51 400.54,86.19 405.88,85.88 412.42,85.17 418.96,84.47 429.49,83.02 440.02,81.57 446.47,80.39 452.91,79.21 456.80,78.42 460.69,77.63 465.54,76.71 470.38,75.80 477.92,74.54 485.46,73.28 489.86,72.74 494.26,72.20 497.19,71.70 500.13,71.20 504.25,70.41 508.38,69.62 514.44,68.42 520.51,67.22 523.91,66.43 527.32,65.65 529.92,65.02 532.53,64.40 536.77,63.27 541.01,62.15 548.89,60.22 556.77,58.30 562.65,56.63 568.53,54.97 571.68,54.24 574.84,53.51 577.61,52.92 580.38,52.32 582.87,51.53 585.36,50.74 590.89,49.49 596.41,48.25 599.35,47.73 602.28,47.20 604.61,46.70 606.94,46.21 609.26,45.45 611.58,44.69 614.66,43.77 617.74,42.85 621.06,41.89 624.38,40.92 628.02,39.67 631.67,38.42 634.11,37.59 636.56,36.76 639.21,35.59 641.87,34.41 645.38,33.01 648.90,31.62 653.25,29.88 657.60,28.15 661.12,26.56 664.65,24.98 668.44,23.17 672.22,21.35 676.39,19.16 680.56,16.96 688.42,13.13 696.28,9.29 699.93,7.65 703.59,6.01 708.85,3.60 714.11,1.20 720.97,-1.84 727.82,-4.89 731.80,-7.00 735.77,-9.11 738.99,-10.63 742.21,-12.15 743.76,-13.02 745.30,-13.90 746.60,-14.59 747.89,-15.28 749.41,-15.92 750.93,-16.55 752.06,-17.06 753.19,-17.58 754.80,-18.36 756.42,-19.15 758.84,-20.35 761.25,-21.55 762.65,-22.09 764.04,-22.63 764.76,-23.43 765.48,-24.24 765.67,-25.61 765.85,-26.98 766.01,-27.23 766.17,-27.49 766.39,-27.70 766.60,-27.91 766.86,-28.06 767.12,-28.21 767.41,-28.30 767.70,-28.39 768.00,-28.40 768.30,-28.41 768.60,-28.35 768.89,-28.30 769.17,-28.17 769.44,-28.04 769.67,-27.85 769.91,-27.66 770.09,-27.42 770.27,-27.18 770.39,-26.91 770.51,-26.63 770.56,-26.33 770.61,-26.04 770.59,-25.74 770.57,-25.44 770.48,-25.15 770.38,-24.86 768.63,-24.18 766.88,-23.49 764.59,-23.23 762.29,-22.98 762.08,-22.96 761.87,-22.94 761.66,-22.99 761.45,-23.03 761.27,-23.15 761.09,-23.26 760.96,-23.42 760.82,-23.59 760.75,-23.79 760.67,-23.98 760.66,-24.20 760.65,-24.41 760.71,-24.61 760.77,-24.82 760.90,-24.99 761.02,-25.16 761.19,-25.29 761.36,-25.42 761.56,-25.48 761.76,-25.55 761.98,-25.54 762.19,-25.54 762.39,-25.47 762.59,-25.40 762.76,-25.27 762.92,-25.14 763.04,-24.96 763.16,-24.78 763.21,-24.57 763.26,-24.37 763.25,-24.16 763.24,-23.94 763.15,-23.75 763.07,-23.55 762.93,-23.39 762.79,-23.23 762.61,-23.13 762.42,-23.02 762.22,-22.98 762.01,-22.93 761.80,-22.96 761.59,-22.99 761.40,-23.08 761.20,-23.17 761.05,-23.32 760.90,-23.47 760.80,-23.66 760.71,-23.85 760.68,-24.06 760.64,-24.27 760.68,-24.48 760.72,-24.68 760.82,-24.87 760.92,-25.06 761.08,-25.20 761.24,-25.34 761.43,-25.43 761.63,-25.52 761.63,-25.52 761.62,-25.52 763.74,-26.25 765.85,-26.98 766.01,-27.23 766.17,-27.49 766.39,-27.70 766.60,-27.91 766.86,-28.06 767.12,-28.21 767.41,-28.30 767.70,-28.39 768.00,-28.40 768.30,-28.41 768.60,-28.35 768.89,-28.30 769.17,-28.17 769.44,-28.04 769.67,-27.85 769.91,-27.66 770.09,-27.42 770.27,-27.18 770.39,-26.91 770.51,-26.63 770.56,-26.33 770.61,-26.04 770.59,-25.74 770.57,-25.44 770.48,-25.15 770.38,-24.86 770.53,-24.22 770.67,-23.57 769.91,-22.07 769.15,-20.56 767.60,-19.21 766.05,-17.85 764.81,-17.37 763.57,-16.89 761.13,-15.68 758.70,-14.47 757.02,-13.66 755.34,-12.84 754.13,-12.29 752.91,-11.74 751.63,-11.22 750.35,-10.70 749.10,-10.03 747.86,-9.37 746.15,-8.40 744.43,-7.44 741.33,-5.97 738.22,-4.51 734.08,-2.31 729.94,-0.12 723.11,2.90 716.28,5.93 711.00,8.35 705.72,10.77 702.14,12.38 698.57,13.98 690.78,17.78 682.98,21.58 678.73,23.81 674.48,26.05 670.63,27.89 666.78,29.74 663.15,31.36 659.53,32.98 655.17,34.71 650.82,36.45 647.39,37.81 643.96,39.17 641.09,40.42 638.23,41.68 635.79,42.51 633.36,43.33 629.59,44.62 625.83,45.91 622.53,46.87 619.23,47.83 616.20,48.73 613.18,49.63 610.60,50.46 608.03,51.28 605.61,51.80 603.20,52.32 600.37,52.82 597.55,53.33 592.24,54.51 586.93,55.69 584.20,56.55 581.47,57.41 578.74,58.00 576.01,58.59 572.98,59.28 569.95,59.98 563.97,61.67 558.00,63.36 550.17,65.27 542.34,67.18 538.04,68.31 533.74,69.44 531.11,70.07 528.49,70.70 525.00,71.51 521.52,72.32 515.43,73.52 509.35,74.72 505.18,75.51 501.00,76.31 497.95,76.83 494.89,77.36 490.60,77.88 486.31,78.40 478.83,79.65 471.34,80.89 466.53,81.80 461.72,82.71 457.79,83.51 453.85,84.30 447.29,85.51 440.72,86.71 430.12,88.16 419.51,89.62 412.85,90.34 406.18,91.05 400.74,91.37 395.30,91.68 391.42,91.75 387.55,91.82 381.80,91.98 376.05,92.14 365.87,92.51 355.69,92.89 349.23,93.11 342.78,93.32 338.60,93.15 334.42,92.98 329.41,92.58 324.40,92.18 314.65,91.24 304.90,90.30 298.28,89.46 291.67,88.63 286.96,88.02 282.26,87.40 275.20,86.64 268.15,85.87 255.58,84.74 243.02,83.61 232.94,82.96 222.86,82.31 215.50,81.47 208.13,80.63 203.75,80.03 199.37,79.43 193.01,78.67 186.64,77.92 175.81,76.15 164.98,74.39 157.81,72.95 150.64,71.52 145.35,70.21 140.07,68.89 131.79,66.50 123.50,64.11 111.38,60.49 99.26,56.87 93.25,54.53 87.23,52.18 83.97,50.76 80.71,49.33 76.46,47.34 72.22,45.36 64.33,41.38 56.43,37.41 51.38,34.82 46.33,32.23 43.92,30.91 41.52,29.60 38.68,27.94 35.84,26.28 29.75,22.94 23.66,19.60 20.84,17.96 18.02,16.33 16.17,15.29 14.32,14.26 12.94,13.70 11.57,13.15 10.45,12.56 9.34,11.97 7.75,10.79 6.16,9.62 5.03,8.84 3.89,8.07 2.52,7.30 1.14,6.54 -0.01,5.72 -1.17,4.90 -2.11,4.11 -3.04,3.33 -3.45,1.35 -3.87,-0.62 -3.18,0.20 -2.49,1.02 -2.70,0.92 -2.91,0.82 -3.10,0.67 -3.28,0.52 -3.42,0.33 -3.56,0.15 -3.65,-0.06 -3.74,-0.27 -3.78,-0.50 -3.82,-0.74 -3.80,-0.97 -3.78,-1.20 -3.71,-1.42 -3.63,-1.65 -3.51,-1.84 -3.38,-2.04 -3.21,-2.20 -3.05,-2.37 -2.84,-2.48 -2.64,-2.60 -2.42,-2.67 -2.19,-2.73 -1.96,-2.74 -1.72,-2.75 -1.49,-2.70 -1.26,-2.66 -1.07,-2.45 -0.88,-2.24 -0.23,-1.74 0.41,-1.24 0.55,-1.17 0.70,-1.11 0.82,-1.01 0.94,-0.91 1.04,-0.78 1.13,-0.65 1.19,-0.51 1.26,-0.36 1.28,-0.20 1.31,-0.05 1.29,0.10 1.28,0.26 1.23,0.41 1.18,0.56 1.10,0.69 1.01,0.83 0.90,0.93 0.78,1.04 0.65,1.12 0.51,1.20 0.36,1.25 0.21,1.29 0.05,1.30 -0.10,1.30 -0.26,1.27 -0.41,1.24 -0.41,1.24 L -0.41,1.24 Z"/></g><g transform="translate(32 442) rotate(0 381 -14.5)" stroke="none"><path fill="#c2255c" d="M 0.48,1.21 Q 0.48,1.21 -0.90,1.90 -2.29,2.59 -4.00,3.40 -5.71,4.21 -6.55,5.03 -7.40,5.84 -8.75,6.75 -10.10,7.66 -11.58,8.54 -13.06,9.43 -14.85,10.64 -16.64,11.85 -18.20,12.31 -19.75,12.78 -19.77,11.57 -19.78,10.36 -18.61,8.73 -17.43,7.10 -13.61,5.04 -9.80,2.98 -7.00,1.52 -4.21,0.05 -1.53,-1.16 1.14,-2.39 5.36,-4.59 9.57,-6.80 16.31,-10.08 23.04,-13.35 26.46,-15.02 29.88,-16.69 32.58,-17.73 35.28,-18.77 37.14,-19.72 38.99,-20.68 42.77,-22.29 46.56,-23.91 52.15,-26.31 57.75,-28.71 62.21,-30.33 66.66,-31.95 69.63,-33.18 72.60,-34.41 78.31,-36.14 84.01,-37.87 93.33,-40.32 102.65,-42.78 107.51,-43.83 112.37,-44.88 115.76,-45.87 119.16,-46.87 126.47,-48.48 133.78,-50.08 142.06,-51.63 150.35,-53.18 162.75,-55.57 175.16,-57.97 181.33,-58.99 187.51,-60.00 191.76,-61.00 196.01,-61.99 204.27,-63.32 212.52,-64.64 222.88,-66.36 233.24,-68.07 239.07,-69.08 244.91,-70.09 248.91,-70.53 252.91,-70.97 259.46,-71.73 266.00,-72.49 275.18,-73.11 284.35,-73.72 289.68,-73.99 295.02,-74.25 298.93,-74.64 302.85,-75.03 308.95,-75.21 315.04,-75.39 321.93,-75.46 328.82,-75.54 340.37,-75.57 351.93,-75.61 358.84,-75.62 365.76,-75.64 370.72,-75.64 375.67,-75.65 384.06,-75.94 392.44,-76.23 404.43,-76.07 416.41,-75.90 422.05,-75.83 427.69,-75.76 432.46,-75.44 437.23,-75.12 443.60,-74.41 449.97,-73.69 458.56,-71.64 467.15,-69.58 473.59,-68.15 480.03,-66.72 483.41,-65.81 486.78,-64.90 491.63,-63.66 496.47,-62.42 502.26,-61.04 508.04,-59.66 511.40,-58.78 514.76,-57.89 520.16,-56.69 525.56,-55.48 531.40,-53.80 537.25,-52.12 551.52,-47.70 565.79,-43.27 576.13,-40.24 586.47,-37.21 591.75,-35.63 597.02,-34.04 600.39,-33.09 603.76,-32.14 607.47,-31.17 611.19,-30.19 618.84,-28.04 626.49,-25.90 630.61,-24.70 634.72,-23.49 638.48,-22.41 642.23,-21.33 649.26,-19.44 656.30,-17.55 667.12,-14.14 677.94,-10.73 688.50,-7.87 699.06,-5.01 705.31,-3.20 711.57,-1.40 718.52,0.48 725.47,2.38 732.57,4.94 739.67,7.50 747.87,10.90 756.08,14.29 762.25,17.51 768.42,20.73 772.39,23.96 776.36,27.20 778.33,29.20 780.29,31.21 781.48,33.53 782.67,35.85 783.17,37.11 783.66,38.37 784.28,41.06 784.90,43.75 784.95,43.95 785.00,44.16 784.98,44.37 784.96,44.58 784.87,44.78 784.78,44.97 784.64,45.13 784.50,45.28 784.31,45.39 784.12,45.49 783.91,45.53 783.70,45.56 783.49,45.53 783.28,45.50 783.09,45.40 782.91,45.31 782.76,45.15 782.61,45.00 782.52,44.81 782.43,44.62 782.40,44.41 782.37,44.20 782.42,43.99 782.46,43.78 782.57,43.60 782.67,43.41 782.83,43.27 782.99,43.13 783.19,43.05 783.38,42.97 783.60,42.96 783.81,42.94 784.01,43.00 784.22,43.05 784.40,43.17 784.57,43.28 784.71,43.45 784.84,43.62 784.91,43.82 784.98,44.02 784.98,44.23 784.98,44.44 784.92,44.65 784.85,44.85 784.73,45.02 784.60,45.19 784.43,45.31 784.25,45.43 784.05,45.49 783.85,45.55 783.63,45.54 783.42,45.54 783.22,45.46 783.02,45.38 782.86,45.25 782.70,45.11 782.58,44.93 782.47,44.75 782.47,44.75 782.47,44.75 781.38,43.44 780.29,42.12 779.21,40.25 778.12,38.37 777.15,36.80 776.17,35.23 774.40,33.47 772.63,31.72 769.16,28.82 765.68,25.92 759.76,22.81 753.83,19.71 745.75,16.35 737.67,12.99 730.81,10.47 723.94,7.95 716.96,6.02 709.99,4.08 703.77,2.29 697.56,0.49 686.89,-2.40 676.23,-5.29 665.52,-8.67 654.82,-12.05 647.74,-13.96 640.65,-15.87 636.89,-16.95 633.13,-18.04 629.04,-19.23 624.95,-20.43 617.35,-22.57 609.75,-24.70 605.98,-25.69 602.21,-26.69 598.80,-27.65 595.40,-28.62 590.14,-30.20 584.88,-31.77 574.49,-34.83 564.11,-37.88 549.91,-42.35 535.71,-46.82 530.03,-48.49 524.35,-50.16 518.87,-51.43 513.39,-52.69 510.09,-53.57 506.79,-54.44 500.97,-55.84 495.15,-57.25 490.27,-58.50 485.39,-59.75 482.13,-60.63 478.87,-61.52 472.39,-62.96 465.91,-64.40 457.64,-66.40 449.37,-68.40 443.12,-69.10 436.87,-69.81 432.25,-70.12 427.62,-70.43 421.98,-70.50 416.34,-70.57 404.48,-70.74 392.62,-70.90 384.15,-70.61 375.68,-70.33 370.73,-70.32 365.77,-70.32 358.86,-70.30 351.94,-70.29 340.41,-70.27 328.88,-70.24 322.03,-70.17 315.19,-70.10 309.28,-69.94 303.37,-69.78 299.32,-69.38 295.27,-68.98 289.99,-68.72 284.70,-68.46 275.66,-67.86 266.61,-67.26 260.05,-66.51 253.48,-65.75 249.64,-65.34 245.80,-64.92 239.94,-63.91 234.09,-62.90 223.71,-61.22 213.33,-59.53 205.24,-58.28 197.16,-57.03 192.75,-56.01 188.33,-55.00 182.22,-54.00 176.11,-52.99 163.69,-50.63 151.26,-48.27 143.05,-46.75 134.84,-45.23 127.69,-43.67 120.54,-42.12 116.98,-41.08 113.41,-40.04 108.66,-39.02 103.91,-38.00 94.67,-35.57 85.43,-33.15 79.95,-31.51 74.47,-29.88 71.40,-28.61 68.34,-27.34 64.01,-25.77 59.67,-24.20 54.07,-21.81 48.46,-19.42 44.82,-17.89 41.18,-16.36 39.09,-15.32 37.00,-14.27 34.49,-13.32 31.98,-12.37 28.56,-10.70 25.13,-9.04 18.45,-5.81 11.77,-2.59 7.44,-0.33 3.10,1.91 0.53,3.07 -2.02,4.24 -4.80,5.68 -7.57,7.13 -11.45,9.20 -15.34,11.28 -16.61,11.77 -17.88,12.27 -18.78,12.95 -19.67,13.63 -21.32,12.78 -22.96,11.94 -21.27,10.37 -19.59,8.80 -18.17,8.18 -16.75,7.56 -15.76,6.93 -14.78,6.29 -13.45,5.64 -12.12,4.99 -10.83,4.21 -9.53,3.42 -8.30,2.39 -7.08,1.36 -5.26,0.53 -3.45,-0.29 -1.96,-0.75 -0.48,-1.21 -0.33,-1.26 -0.18,-1.30 -0.02,-1.30 0.13,-1.30 0.28,-1.27 0.44,-1.23 0.58,-1.16 0.72,-1.09 0.84,-0.99 0.96,-0.88 1.05,-0.75 1.15,-0.63 1.21,-0.48 1.26,-0.33 1.29,-0.18 1.31,-0.02 1.29,0.13 1.28,0.29 1.22,0.44 1.17,0.58 1.08,0.72 0.99,0.85 0.88,0.96 0.76,1.06 0.62,1.14 0.48,1.21 0.48,1.21 L 0.48,1.21 Z"/></g><g stroke-linecap="round"><g transform="translate(96 247) rotate(0 106 -62)"><path d="M0.55 -0.57 C35.95 -21.16, 176.97 -103.63, 212.31 -124.34 M-0.61 1.75 C34.66 -18.6, 176.06 -102.03, 211.52 -122.98" stroke="#f08c00" stroke-width="1" fill="none"/></g><g transform="translate(96 247) rotate(0 106 -62)"><path d="M195.64 -103.67 C199.5 -108.92, 204.56 -114.09, 211.52 -122.98 M195.64 -103.67 C199.65 -108.58, 202.41 -113.25, 211.52 -122.98" stroke="#f08c00" stroke-width="1" fill="none"/></g><g transform="translate(96 247) rotate(0 106 -62)"><path d="M186.95 -118.4 C193.27 -119.35, 200.9 -120.18, 211.52 -122.98 M186.95 -118.4 C192.92 -119.94, 197.68 -121.2, 211.52 -122.98" stroke="#f08c00" stroke-width="1" fill="none"/></g></g><mask/><g stroke-linecap="round"><g transform="translate(307 126) rotate(0 204 121)"><path d="M0.67 -0.81 C68.76 39.69, 340.34 201.72, 408.06 242.27 M-0.44 1.38 C67.53 41.56, 338.84 200.46, 407.14 240.29" stroke="#f08c00" stroke-width="1" fill="none"/></g><g transform="translate(307 126) rotate(0 204 121)"><path d="M382.54 235.81 C387.58 236.94, 395.79 236.33, 407.14 240.29 M382.54 235.81 C391.45 237.79, 398.34 239.09, 407.14 240.29" stroke="#f08c00" stroke-width="1" fill="none"/></g><g transform="translate(307 126) rotate(0 204 121)"><path d="M391.17 221.05 C393.88 226.07, 399.83 229.3, 407.14 240.29 M391.17 221.05 C397.09 228, 401.04 234.32, 407.14 240.29" stroke="#f08c00" stroke-width="1" fill="none"/></g></g><mask/><g stroke-linecap="round"><g transform="translate(717 368) rotate(0 -2.5 30)"><path d="M0.26 1.12 C-0.45 11.27, -3.9 50.21, -4.65 60.1 M-1.06 0.67 C-1.86 11.1, -4.83 52.07, -5.41 61.69" stroke="#f08c00" stroke-width="1" fill="none"/></g><g transform="translate(717 368) rotate(0 -2.5 30)"><path d="M-12.36 37.67 C-8.79 44.65, -8.64 51.79, -5.41 61.69 M-12.36 37.67 C-10 45.34, -7.64 53.89, -5.41 61.69" stroke="#f08c00" stroke-width="1" fill="none"/></g><g transform="translate(717 368) rotate(0 -2.5 30)"><path d="M4.7 38.83 C3.73 45.53, -0.68 52.37, -5.41 61.69 M4.7 38.83 C1.25 45.94, -2.2 54.1, -5.41 61.69" stroke="#f08c00" stroke-width="1" fill="none"/></g></g><mask/><g stroke-linecap="round"><g transform="translate(96 244) rotate(0 222 -6)"><path d="M0 0 C31.61 -34.05, 69.72 -65.12, 142 -132 M0 0 C34.63 -34.01, 69.44 -65.87, 142 -132 M142 -132 C216.13 -32.76, 287.08 65.43, 331 124 M142 -132 C184.45 -73.75, 227.58 -16.78, 331 124 M331 124 C370.57 30, 411.34 -67.19, 444 -136 M331 124 C376.57 21.37, 422.15 -82.15, 444 -136" stroke="#e8590c" stroke-width="1" fill="none"/></g><g transform="translate(96 244) rotate(0 222 -6)"><path d="M442.78 -111.03 C441 -118.21, 444.96 -123.32, 444 -136 M442.78 -111.03 C443.07 -117.58, 443.13 -123.02, 444 -136" stroke="#e8590c" stroke-width="1" fill="none"/></g><g transform="translate(96 244) rotate(0 222 -6)"><path d="M427.02 -117.66 C429.1 -123.33, 436.89 -126.83, 444 -136 M427.02 -117.66 C431.22 -122.68, 435.17 -126.49, 444 -136" stroke="#e8590c" stroke-width="1" fill="none"/></g></g><mask/><g stroke-linecap="round"><g transform="translate(99 246) rotate(0 314.5 -92)"><path d="M0 0 C119.83 -36.1, 240.47 -73.37, 444 -135 M0 0 C136.69 -42.54, 273.36 -83.81, 444 -135 M444 -135 C497.54 -141.55, 548.89 -146.49, 629 -153 M444 -135 C500.46 -139.17, 558.25 -144.92, 629 -153 M629 -153 C624.9 -161.28, 618.44 -169.41, 609 -184 M629 -153 C620.88 -164.35, 614.3 -175, 609 -184" stroke="#e03131" stroke-width="1" fill="none"/></g><g transform="translate(99 246) rotate(0 314.5 -92)"><path d="M623.34 -172.4 C619.76 -175.44, 617.15 -180.16, 609 -184 M623.34 -172.4 C619.52 -176.84, 614.54 -179.66, 609 -184" stroke="#e03131" stroke-width="1" fill="none"/></g><g transform="translate(99 246) rotate(0 314.5 -92)"><path d="M612.52 -165.89 C611.83 -170.68, 612.14 -177.16, 609 -184 M612.52 -165.89 C611.97 -172.36, 610.33 -177.2, 609 -184" stroke="#e03131" stroke-width="1" fill="none"/></g></g><mask/></svg>