<svg version="1.1" xmlns="http://www.w3.org/2000/svg" viewBox="0 0 370 373.3294015787263" width="370" height="373.3294015787263" class="excalidraw-svg">
  <!-- svg-source:excalidraw -->
  
  <defs>
    <style class="style-fonts">
      
    </style>
    
  </defs>
  <g stroke-linecap="round" transform="translate(10 12.062506700307154) rotate(0 175 175)"><path d="M177.59 -0.51 C193.35 -3.01, 210.85 3.15, 226.47 8.18 C242.1 13.2, 257.49 20.5, 271.36 29.65 C285.23 38.79, 299.01 50.62, 309.69 63.04 C320.38 75.47, 329.12 89.28, 335.48 104.2 C341.84 119.12, 345.84 136.24, 347.84 152.57 C349.85 168.91, 349.95 185.85, 347.51 202.2 C345.07 218.56, 340.13 235.69, 333.2 250.7 C326.28 265.71, 316.94 280.26, 305.97 292.26 C295 304.26, 281.43 314.01, 267.38 322.7 C253.33 331.38, 237.6 339.96, 221.67 344.36 C205.74 348.75, 188.16 349.3, 171.79 349.05 C155.42 348.8, 138.89 347.55, 123.43 342.85 C107.97 338.15, 92.64 330.03, 79.02 320.84 C65.39 311.66, 52.3 300.15, 41.68 287.75 C31.06 275.36, 22.15 261.34, 15.29 246.48 C8.42 231.62, 2.56 214.88, 0.5 198.59 C-1.56 182.29, 0.12 164.99, 2.93 148.71 C5.73 132.43, 10.49 115.85, 17.33 100.91 C24.17 85.97, 33.03 71.35, 43.97 59.07 C54.91 46.79, 69.16 36.08, 82.98 27.24 C96.8 18.4, 108.41 10.55, 126.88 6.04 C145.36 1.53, 179.96 -0.01, 193.82 0.2 C207.69 0.41, 210.43 4.44, 210.05 7.33 M100.95 17.6 C113.85 8.42, 132 3.76, 148.24 1.23 C164.48 -1.3, 181.98 -0.11, 198.41 2.42 C214.85 4.95, 231.85 10.01, 246.85 16.44 C261.85 22.86, 275.92 30.43, 288.39 40.96 C300.87 51.5, 312.85 65.69, 321.71 79.66 C330.58 93.63, 337.01 109.23, 341.58 124.78 C346.16 140.32, 348.73 156.59, 349.15 172.92 C349.57 189.25, 348.51 206.6, 344.1 222.75 C339.7 238.91, 331.59 255.73, 322.73 269.85 C313.87 283.96, 303.04 296.88, 290.94 307.44 C278.84 318, 265.12 326.62, 250.14 333.21 C235.16 339.8, 217.66 344.46, 201.04 347 C184.43 349.54, 166.8 350.52, 150.46 348.45 C134.12 346.38, 117.78 341.11, 102.99 334.58 C88.2 328.05, 74.06 319.76, 61.73 309.26 C49.4 298.76, 38.1 285.59, 29 271.57 C19.89 257.54, 12.07 241.16, 7.08 225.1 C2.09 209.03, -0.88 191.69, -0.95 175.19 C-1.01 158.68, 1.79 141.77, 6.68 126.08 C11.57 110.4, 19.44 94.99, 28.38 81.1 C37.32 67.2, 48.29 53.6, 60.32 42.73 C72.35 31.85, 93.75 19.72, 100.55 15.85 C107.34 11.99, 99.99 16.67, 101.08 19.53" stroke="#f08c00" stroke-width="2" fill="none"/></g><g stroke-linecap="round"><g transform="translate(178.670588 11.062506700307154) rotate(0 0 175.5)"><path d="M-0.33 -1.06 C-0.26 57.28, -0.33 292.01, -0.26 350.82 M1.7 0.99 C1.65 59.46, -0.95 294.12, -1.35 352.27" stroke="#f08c00" stroke-width="2" fill="none"/></g></g><mask/><g stroke-linecap="round"><g transform="translate(35 275.06250670030715) rotate(0 148.5 4)"><path d="M0.51 0.88 C49.97 2.1, 248.66 5.5, 297.9 6.84 M-0.67 0.3 C48.6 1.66, 247.59 6.65, 297.42 7.76" stroke="#2f9e44" stroke-width="2" fill="none"/></g></g><mask/><g transform="translate(178.9949089209658 260.5659866267966) rotate(0 8.842655862212709 8.669270453149707)" stroke="none"><path fill="#f08c00" d="M 0,-0.65 Q 0,-0.65 0.19,-0.93 0.39,-1.20 1.09,-1.41 1.78,-1.62 2.71,-1.87 3.65,-2.13 4.71,-2.35 5.76,-2.57 6.68,-2.68 7.60,-2.79 8.62,-2.94 9.63,-3.09 10.24,-3.15 10.86,-3.21 11.42,-3.23 11.97,-3.25 12.93,-3.31 13.88,-3.36 14.80,-2.71 15.71,-2.06 15.63,-1.28 15.55,-0.50 15.49,0.14 15.43,0.80 15.43,2.18 15.43,3.56 15.43,4.43 15.43,5.30 15.65,6.25 15.87,7.21 16.03,7.84 16.19,8.48 16.36,9.14 16.53,9.81 16.90,11.51 17.28,13.20 17.44,14.03 17.60,14.86 17.92,15.87 18.24,16.87 17.97,17.57 17.70,18.27 17.72,18.35 17.73,18.43 17.73,18.51 17.73,18.59 17.70,18.66 17.68,18.74 17.64,18.81 17.60,18.87 17.54,18.93 17.49,18.99 17.42,19.03 17.35,19.07 17.28,19.09 17.20,19.12 17.12,19.12 17.05,19.13 16.97,19.12 16.89,19.10 16.82,19.07 16.74,19.04 16.68,18.99 16.62,18.94 16.57,18.88 16.52,18.82 16.49,18.75 16.45,18.67 16.47,18.71 16.48,18.74 16.45,18.64 16.43,18.54 16.43,18.43 16.44,18.33 16.48,18.23 16.52,18.13 16.59,18.05 16.66,17.97 16.75,17.92 16.84,17.86 16.95,17.84 17.05,17.82 17.16,17.83 17.26,17.84 17.36,17.89 17.45,17.93 17.53,18.01 17.61,18.08 17.65,18.18 17.70,18.27 17.72,18.37 17.74,18.48 17.72,18.58 17.70,18.69 17.65,18.78 17.60,18.88 17.52,18.95 17.44,19.02 17.35,19.06 17.25,19.11 17.14,19.12 17.04,19.13 16.93,19.11 16.83,19.08 16.74,19.03 16.65,18.97 16.58,18.89 16.51,18.81 16.48,18.71 16.44,18.61 16.43,18.50 16.43,18.40 16.46,18.29 16.49,18.19 16.55,18.11 16.61,18.02 16.69,17.95 16.78,17.89 16.88,17.86 16.98,17.82 17.09,17.83 17.19,17.83 17.29,17.86 17.39,17.90 17.48,17.96 17.56,18.03 17.63,18.15 17.70,18.27 17.72,18.35 17.73,18.43 17.73,18.51 17.73,18.59 17.70,18.66 17.68,18.74 17.64,18.81 17.60,18.87 17.54,18.93 17.49,18.99 17.42,19.03 17.35,19.07 17.28,19.09 17.20,19.12 17.12,19.12 17.05,19.13 16.97,19.12 16.89,19.10 16.82,19.07 16.74,19.04 16.68,18.99 16.62,18.94 16.57,18.88 16.52,18.82 16.49,18.75 16.45,18.67 16.19,18.14 15.93,17.61 15.75,17.07 15.58,16.54 15.40,15.93 15.22,15.32 15.06,14.52 14.91,13.73 14.54,12.07 14.17,10.40 14.01,9.74 13.84,9.08 13.68,8.45 13.52,7.83 13.37,7.24 13.21,6.65 13.11,5.98 13.00,5.30 13.00,4.43 13.00,3.56 13.00,2.34 13.00,1.11 13.02,0.51 13.03,-0.08 13.34,-0.51 13.64,-0.95 12.87,-0.89 12.10,-0.84 11.10,-0.78 10.09,-0.72 8.98,-0.55 7.87,-0.39 7.07,-0.30 6.26,-0.21 4.83,0.04 3.40,0.30 2.65,0.60 1.90,0.90 1.15,1.05 0.39,1.20 0.19,0.93 0,0.65 -0.07,0.64 -0.15,0.63 -0.23,0.60 -0.30,0.58 -0.37,0.53 -0.43,0.49 -0.48,0.43 -0.54,0.37 -0.57,0.30 -0.61,0.23 -0.63,0.15 -0.65,0.07 -0.65,-0.00 -0.65,-0.07 -0.63,-0.15 -0.61,-0.23 -0.57,-0.30 -0.54,-0.37 -0.48,-0.43 -0.43,-0.49 -0.37,-0.53 -0.30,-0.58 -0.23,-0.60 -0.15,-0.63 -0.07,-0.64 0.00,-0.65 0.00,-0.65 L 0,-0.65 Z"/></g><g transform="translate(177.16666666666663 279.5781283501536) rotate(0 0.6666666666666856 -0.6666666666666572)" stroke="none"><path fill="#2f9e44" d="M -0.54,-0.36 Q -0.54,-0.36 -0.37,-1.10 -0.20,-1.83 0.31,-2.23 0.83,-2.63 1.34,-2.73 1.86,-2.83 1.99,-2.89 2.12,-2.96 2.26,-3.00 2.40,-3.03 2.54,-3.03 2.68,-3.03 2.82,-3.00 2.96,-2.96 3.09,-2.89 3.22,-2.83 3.33,-2.73 3.44,-2.63 3.52,-2.52 3.60,-2.40 3.65,-2.26 3.70,-2.13 3.72,-1.98 3.74,-1.84 3.72,-1.70 3.70,-1.55 3.65,-1.42 3.60,-1.28 3.52,-1.17 3.43,-1.05 3.33,-0.95 3.22,-0.86 3.44,-0.14 3.67,0.56 2.94,1.66 2.20,2.76 1.53,3.12 0.86,3.48 0.16,3.42 -0.53,3.36 -1.07,3.02 -1.61,2.67 -1.94,2.16 -2.27,1.65 -2.21,0.20 -2.16,-1.25 -1.84,-1.89 -1.52,-2.54 -1.16,-3.03 -0.80,-3.51 -0.09,-4.02 0.62,-4.53 1.42,-4.42 2.21,-4.32 2.35,-3.10 2.50,-1.89 2.10,-0.81 1.70,0.27 1.29,0.83 0.87,1.40 0.35,1.77 -0.17,2.14 -1.00,2.20 -1.84,2.26 -2.35,1.53 -2.87,0.81 -2.21,-0.34 -1.55,-1.50 -0.78,-1.85 -0.02,-2.19 0.53,-2.60 1.08,-3.02 1.85,-2.99 2.61,-2.96 3.06,-2.64 3.50,-2.33 2.09,-1.07 0.68,0.18 0.72,0.24 0.76,0.31 0.79,0.39 0.81,0.46 0.82,0.54 0.82,0.62 0.81,0.70 0.79,0.78 0.76,0.85 0.73,0.92 0.68,0.98 0.63,1.05 0.57,1.09 0.51,1.14 0.44,1.18 0.37,1.21 0.29,1.22 0.21,1.24 0.13,1.23 0.05,1.23 -0.01,1.21 -0.09,1.18 -0.16,1.14 -0.23,1.10 -0.28,1.05 -0.34,0.99 -0.05,1.11 0.23,1.24 0.13,1.23 0.02,1.22 -0.07,1.18 -0.16,1.14 -0.25,1.07 -0.33,1.01 -0.38,0.91 -0.43,0.82 -0.46,0.72 -0.48,0.61 -0.47,0.51 -0.45,0.40 -0.41,0.31 -0.36,0.21 -0.29,0.13 -0.22,0.06 -0.12,0.01 -0.03,-0.03 0.07,-0.05 0.17,-0.06 0.28,-0.05 0.38,-0.03 0.47,0.01 0.57,0.06 0.64,0.14 0.71,0.22 0.76,0.31 0.80,0.41 0.81,0.52 0.82,0.62 0.80,0.73 0.78,0.83 0.72,0.92 0.66,1.01 0.58,1.08 0.50,1.15 0.40,1.19 0.30,1.23 0.20,1.23 0.09,1.24 -0.00,1.21 -0.10,1.18 -0.19,1.12 -0.28,1.06 -0.34,0.97 -0.41,0.89 -0.44,0.79 -0.47,0.69 -0.47,0.58 -0.47,0.47 -0.44,0.37 -0.40,0.27 -0.34,0.19 -0.27,0.10 -0.18,0.04 -0.10,-0.00 0.29,0.08 0.68,0.18 0.72,0.24 0.76,0.31 0.79,0.39 0.81,0.46 0.82,0.54 0.82,0.62 0.81,0.70 0.79,0.78 0.76,0.85 0.73,0.92 0.68,0.98 0.63,1.05 0.57,1.09 0.51,1.14 0.44,1.18 0.37,1.21 0.29,1.22 0.21,1.24 0.13,1.23 0.05,1.23 -0.01,1.21 -0.09,1.18 -0.16,1.14 -0.23,1.10 -0.28,1.05 -0.34,0.99 0.77,0.14 1.90,-0.70 1.07,-0.20 0.25,0.29 -0.22,0.63 -0.70,0.97 -1.09,0.44 -1.47,-0.08 -1.00,-0.54 -0.54,-1.00 -0.17,-1.83 0.18,-2.67 0.68,-3.34 1.18,-4.02 1.21,-2.99 1.24,-1.96 0.79,-1.30 0.33,-0.64 0.65,-0.04 0.97,0.55 1.18,-0.24 1.40,-1.04 1.63,-1.93 1.86,-2.83 1.99,-2.89 2.12,-2.96 2.26,-3.00 2.40,-3.03 2.54,-3.03 2.68,-3.03 2.82,-3.00 2.96,-2.96 3.09,-2.89 3.22,-2.83 3.33,-2.73 3.44,-2.63 3.52,-2.52 3.60,-2.40 3.65,-2.26 3.70,-2.13 3.72,-1.98 3.74,-1.84 3.72,-1.70 3.70,-1.55 3.65,-1.42 3.60,-1.28 3.52,-1.17 3.43,-1.05 3.33,-0.95 3.22,-0.86 2.48,-0.66 1.73,-0.46 1.14,-0.04 0.54,0.36 0.49,0.42 0.44,0.48 0.37,0.53 0.31,0.57 0.24,0.60 0.16,0.63 0.08,0.64 0.01,0.65 -0.06,0.64 -0.14,0.64 -0.22,0.61 -0.29,0.58 -0.36,0.54 -0.42,0.49 -0.48,0.44 -0.53,0.38 -0.57,0.31 -0.61,0.24 -0.63,0.16 -0.65,0.08 -0.65,0.01 -0.65,-0.06 -0.63,-0.14 -0.61,-0.22 -0.58,-0.29 -0.54,-0.36 -0.54,-0.36 L -0.54,-0.36 Z"/></g><g transform="translate(153.83333333333326 256.9114616834869) rotate(0 10.666666666666686 -2.9999999999999716)" stroke="none"><path fill="#2f9e44" d="M -0.49,-0.43 Q -0.49,-0.43 0.63,-2.14 1.77,-3.86 2.69,-5.06 3.61,-6.26 3.93,-7.04 4.26,-7.82 4.38,-8.64 4.50,-9.47 4.56,-10.20 4.62,-10.94 4.52,-11.58 4.41,-12.21 4.25,-13.05 4.10,-13.88 4.08,-14.04 4.07,-14.20 4.10,-14.35 4.12,-14.51 4.18,-14.65 4.24,-14.80 4.34,-14.92 4.43,-15.05 4.55,-15.15 4.68,-15.25 4.82,-15.32 4.96,-15.38 5.11,-15.42 5.27,-15.45 5.43,-15.44 5.58,-15.44 5.73,-15.39 5.89,-15.35 6.02,-15.27 6.16,-15.19 6.27,-15.08 6.39,-14.97 6.47,-14.84 6.55,-14.71 6.60,-14.56 6.65,-14.41 6.66,-13.74 6.67,-13.07 6.66,-12.44 6.66,-11.81 6.85,-10.42 7.03,-9.02 7.28,-8.33 7.52,-7.63 7.67,-6.79 7.81,-5.96 8.02,-5.37 8.23,-4.79 8.51,-4.16 8.78,-3.53 9.09,-2.88 9.40,-2.22 9.72,-1.56 10.04,-0.90 10.78,0.95 11.51,2.82 11.95,3.48 12.39,4.14 12.66,4.77 12.92,5.40 13.03,6.10 13.13,6.79 13.07,8.09 13.02,9.39 12.12,9.63 11.22,9.88 10.56,9.66 9.90,9.44 9.22,9.38 8.54,9.33 8.17,9.52 7.81,9.71 7.66,9.77 7.51,9.83 7.35,9.86 7.19,9.88 7.03,9.86 6.87,9.85 6.72,9.80 6.56,9.74 6.43,9.65 6.30,9.57 6.19,9.45 6.08,9.33 6.00,9.19 5.92,9.05 5.88,8.90 5.83,8.74 5.83,8.58 5.83,8.42 5.86,8.26 5.89,8.10 5.97,7.96 6.04,7.82 6.14,7.69 6.24,7.57 6.37,7.47 6.50,7.38 7.16,7.33 7.82,7.29 8.35,7.19 8.87,7.10 9.61,6.94 10.35,6.78 12.76,6.72 15.17,6.66 16.18,6.65 17.18,6.64 17.99,6.64 18.80,6.64 19.33,6.64 19.87,6.64 19.05,6.66 18.24,6.69 18.32,6.70 18.40,6.71 18.47,6.74 18.55,6.77 18.61,6.81 18.68,6.86 18.73,6.92 18.78,6.98 18.82,7.05 18.85,7.12 18.87,7.19 18.89,7.27 18.89,7.35 18.89,7.43 18.87,7.50 18.86,7.58 18.82,7.65 18.78,7.72 18.73,7.78 18.68,7.84 18.61,7.89 18.55,7.93 18.47,7.96 18.40,7.99 18.32,8.00 18.24,8.01 18.11,7.98 17.98,7.95 17.89,7.89 17.80,7.84 17.73,7.75 17.67,7.67 17.63,7.57 17.60,7.47 17.59,7.36 17.59,7.26 17.62,7.16 17.65,7.05 17.72,6.97 17.78,6.88 17.87,6.82 17.95,6.76 18.06,6.73 18.16,6.70 18.26,6.70 18.37,6.71 18.47,6.74 18.57,6.78 18.65,6.85 18.73,6.92 18.79,7.01 18.85,7.09 18.87,7.20 18.90,7.30 18.89,7.41 18.88,7.51 18.83,7.61 18.79,7.71 18.72,7.79 18.65,7.86 18.56,7.92 18.46,7.97 18.36,7.99 18.25,8.01 18.15,7.99 18.04,7.98 17.95,7.93 17.85,7.88 17.78,7.80 17.70,7.73 17.66,7.63 17.61,7.54 17.60,7.43 17.58,7.33 17.61,7.22 17.63,7.12 17.68,7.03 17.73,6.93 17.81,6.86 17.89,6.79 17.99,6.75 18.09,6.71 18.19,6.70 18.30,6.70 18.27,6.69 18.24,6.69 18.32,6.70 18.40,6.71 18.47,6.74 18.54,6.77 18.61,6.81 18.68,6.86 18.73,6.92 18.78,6.98 18.82,7.05 18.85,7.12 18.87,7.19 18.89,7.27 18.89,7.35 18.89,7.43 18.87,7.50 18.86,7.58 18.82,7.65 18.78,7.72 18.73,7.78 18.68,7.84 18.61,7.89 18.55,7.93 18.47,7.96 18.40,7.99 18.32,8.00 18.24,8.01 19.06,8.68 19.87,9.36 19.34,9.36 18.80,9.36 18.00,9.36 17.19,9.36 16.19,9.37 15.20,9.38 13.35,9.38 11.49,9.39 10.82,9.42 10.15,9.45 9.54,9.71 8.94,9.97 8.37,9.84 7.81,9.71 7.66,9.77 7.51,9.83 7.35,9.86 7.19,9.88 7.03,9.86 6.87,9.85 6.72,9.80 6.57,9.74 6.43,9.65 6.30,9.57 6.19,9.45 6.08,9.33 6.00,9.19 5.92,9.05 5.88,8.90 5.83,8.74 5.83,8.58 5.83,8.42 5.86,8.26 5.89,8.10 5.97,7.96 6.04,7.82 6.14,7.69 6.24,7.57 6.37,7.47 6.50,7.38 6.84,7.30 7.18,7.22 7.81,6.96 8.44,6.70 9.27,6.75 10.10,6.79 11.06,6.92 12.02,7.04 11.66,7.75 11.31,8.46 10.95,7.94 10.60,7.41 10.37,6.49 10.14,5.57 9.59,4.68 9.03,3.80 8.34,2.03 7.65,0.26 7.32,-0.41 6.99,-1.09 6.66,-1.78 6.34,-2.47 6.03,-3.19 5.71,-3.92 5.44,-4.72 5.17,-5.53 5.08,-6.16 4.99,-6.79 4.69,-7.73 4.39,-8.67 4.19,-10.57 4.00,-12.46 4.05,-13.17 4.10,-13.88 4.08,-14.04 4.07,-14.20 4.10,-14.35 4.12,-14.51 4.18,-14.65 4.24,-14.80 4.34,-14.92 4.43,-15.05 4.55,-15.15 4.68,-15.25 4.82,-15.32 4.96,-15.38 5.11,-15.42 5.27,-15.45 5.43,-15.44 5.58,-15.44 5.73,-15.39 5.89,-15.35 6.02,-15.27 6.16,-15.19 6.27,-15.08 6.39,-14.97 6.47,-14.84 6.55,-14.71 6.60,-14.56 6.65,-14.41 6.71,-13.81 6.77,-13.21 7.00,-12.54 7.22,-11.87 7.18,-11.29 7.15,-10.71 7.07,-9.86 6.98,-9.02 6.76,-7.92 6.53,-6.83 6.05,-5.80 5.56,-4.77 4.58,-3.52 3.59,-2.27 2.04,-0.91 0.49,0.43 0.43,0.48 0.37,0.53 0.30,0.57 0.23,0.61 0.15,0.63 0.08,0.65 0.00,0.65 -0.07,0.65 -0.15,0.63 -0.22,0.61 -0.29,0.57 -0.36,0.54 -0.42,0.49 -0.48,0.43 -0.53,0.37 -0.57,0.30 -0.60,0.23 -0.63,0.16 -0.64,0.08 -0.65,0.00 -0.64,-0.07 -0.63,-0.15 -0.61,-0.22 -0.58,-0.30 -0.53,-0.36 -0.49,-0.43 -0.49,-0.43 L -0.49,-0.43 Z"/></g></svg>