<svg version="1.1" xmlns="http://www.w3.org/2000/svg" viewBox="0 0 496.71003368757664 396.7380943910591" width="496.71003368757664" height="396.7380943910591" class="excalidraw-svg">
  <!-- svg-source:excalidraw -->
  
  <defs>
    <style class="style-fonts">
      
    </style>
    
  </defs>
  <g stroke-linecap="round"><g transform="translate(18 304.5528338910591) rotate(0 0 -146.90736975)"><path d="M1.06 -0.19 C0.85 -49, 0 -243.93, -0.33 -292.91 M0.16 -1.33 C-0.33 -50.47, -1.68 -245.96, -1.45 -294.55" stroke="#f08c00" stroke-width="2" fill="none"/></g><g transform="translate(18 304.5528338910591) rotate(0 0 -146.90736975)"><path d="M7.15 -271.08 C3.58 -280.46, 2.14 -290.3, -1.45 -294.55 M7.15 -271.08 C5.01 -277.46, 1.45 -284.55, -1.45 -294.55" stroke="#f08c00" stroke-width="2" fill="none"/></g><g transform="translate(18 304.5528338910591) rotate(0 0 -146.90736975)"><path d="M-9.95 -271.04 C-7.03 -280.59, -1.98 -290.44, -1.45 -294.55 M-9.95 -271.04 C-7.32 -277.39, -6.12 -284.48, -1.45 -294.55" stroke="#f08c00" stroke-width="2" fill="none"/></g></g><mask/><g stroke-linecap="round"><g transform="translate(22 304.7380943910591) rotate(0 232 0)"><path d="M0.47 1.06 C78 0.9, 387.62 -0.36, 464.71 -0.36 M-0.75 0.57 C76.73 0.53, 386.45 1.21, 464.13 0.98" stroke="#f08c00" stroke-width="2" fill="none"/></g><g transform="translate(22 304.7380943910591) rotate(0 232 0)"><path d="M440.64 9.53 C448.46 8.4, 452.2 3.29, 464.13 0.98 M440.64 9.53 C449.59 6.86, 457.99 3.26, 464.13 0.98" stroke="#f08c00" stroke-width="2" fill="none"/></g><g transform="translate(22 304.7380943910591) rotate(0 232 0)"><path d="M440.64 -7.57 C448.55 -4.25, 452.28 -4.92, 464.13 0.98 M440.64 -7.57 C449.75 -3.67, 458.16 -0.7, 464.13 0.98" stroke="#f08c00" stroke-width="2" fill="none"/></g></g><mask/><g transform="translate(20 305.7380943910591) rotate(0 185 -79.5)" stroke="none"><path fill="#1971c2" d="M 0,-1.31 Q 0,-1.31 1.22,-1.65 2.44,-1.99 3.60,-1.60 4.76,-1.22 6.03,-1.19 7.30,-1.16 8.57,-1.17 9.84,-1.19 11.42,-1.21 13.00,-1.24 14.08,-1.41 15.17,-1.58 16.32,-1.83 17.47,-2.08 19.07,-2.18 20.67,-2.27 22.12,-2.69 23.56,-3.10 25.25,-3.20 26.94,-3.30 28.77,-3.72 30.60,-4.14 31.77,-4.45 32.94,-4.77 34.74,-5.63 36.53,-6.49 37.79,-6.79 39.06,-7.08 40.78,-7.83 42.51,-8.58 43.82,-9.65 45.12,-10.73 46.40,-11.26 47.67,-11.78 48.52,-12.83 49.36,-13.88 50.38,-14.59 51.40,-15.30 52.90,-16.34 54.41,-17.38 55.34,-18.59 56.28,-19.80 57.31,-20.55 58.35,-21.30 59.23,-22.32 60.11,-23.35 61.12,-24.39 62.13,-25.43 63.08,-26.78 64.03,-28.12 65.60,-29.63 67.17,-31.13 68.01,-32.70 68.85,-34.26 69.52,-35.25 70.20,-36.23 71.07,-37.36 71.93,-38.49 72.90,-40.17 73.86,-41.86 74.90,-43.46 75.93,-45.06 78.04,-47.40 80.14,-49.73 80.85,-50.77 81.56,-51.80 82.47,-53.16 83.37,-54.51 84.64,-56.28 85.91,-58.06 87.31,-59.95 88.71,-61.85 89.75,-63.91 90.80,-65.97 91.51,-67.92 92.21,-69.87 93.13,-72.22 94.04,-74.57 95.38,-76.91 96.71,-79.25 97.79,-81.27 98.87,-83.28 99.85,-85.74 100.83,-88.20 101.87,-90.52 102.91,-92.83 103.58,-94.81 104.25,-96.79 104.52,-97.88 104.80,-98.96 105.21,-100.60 105.63,-102.25 106.08,-104.34 106.53,-106.44 107.34,-108.92 108.15,-111.41 108.73,-114.01 109.31,-116.60 109.87,-118.68 110.43,-120.76 111.26,-123.16 112.10,-125.55 112.72,-127.38 113.35,-129.21 114.20,-131.47 115.06,-133.74 115.73,-135.32 116.40,-136.90 117.71,-138.70 119.01,-140.50 120.05,-141.97 121.08,-143.43 122.49,-145.05 123.90,-146.67 125.20,-147.76 126.50,-148.85 127.50,-149.77 128.49,-150.68 130.15,-151.91 131.82,-153.14 133.54,-154.05 135.25,-154.96 136.81,-155.71 138.37,-156.45 139.81,-157.30 141.26,-158.14 142.53,-158.84 143.80,-159.53 144.94,-160.12 146.07,-160.72 147.79,-161.09 149.51,-161.47 150.82,-161.83 152.13,-162.19 153.49,-162.40 154.85,-162.60 156.35,-162.68 157.85,-162.76 159.61,-162.48 161.37,-162.20 162.70,-162.12 164.03,-162.03 165.73,-161.67 167.42,-161.30 169.67,-160.80 171.91,-160.29 173.52,-160.12 175.13,-159.95 176.38,-159.56 177.62,-159.18 178.85,-158.76 180.08,-158.35 181.28,-157.85 182.49,-157.34 183.58,-156.84 184.67,-156.33 185.71,-155.82 186.75,-155.32 187.76,-154.81 188.78,-154.31 189.79,-153.81 190.80,-153.30 191.69,-152.70 192.59,-152.09 194.53,-150.09 196.47,-148.09 197.14,-146.59 197.80,-145.09 198.60,-143.43 199.39,-141.76 200.09,-139.73 200.79,-137.69 201.37,-135.68 201.95,-133.67 202.47,-131.66 203.00,-129.66 203.50,-127.99 204.00,-126.33 204.26,-124.53 204.53,-122.73 204.88,-121.35 205.23,-119.96 205.66,-118.51 206.09,-117.05 206.56,-115.57 207.03,-114.09 207.49,-112.98 207.94,-111.87 208.41,-110.83 208.88,-109.80 209.42,-108.38 209.95,-106.97 210.46,-105.51 210.97,-104.05 211.50,-102.22 212.03,-100.38 212.52,-98.80 213.01,-97.22 213.28,-95.45 213.54,-93.67 213.90,-91.96 214.26,-90.26 214.45,-88.48 214.63,-86.70 214.94,-85.67 215.24,-84.64 215.44,-83.01 215.64,-81.38 215.97,-79.76 216.30,-78.15 216.69,-76.99 217.09,-75.84 217.33,-74.17 217.57,-72.50 218.12,-71.42 218.67,-70.33 219.03,-68.87 219.40,-67.42 219.54,-66.17 219.69,-64.92 220.62,-62.73 221.56,-60.53 221.93,-59.41 222.29,-58.29 223.00,-56.96 223.72,-55.63 224.67,-54.22 225.62,-52.81 227.46,-51.65 229.30,-50.48 231.27,-49.47 233.25,-48.46 234.64,-47.50 236.02,-46.54 236.98,-45.97 237.93,-45.40 238.79,-44.76 239.65,-44.12 241.30,-43.20 242.95,-42.29 243.91,-41.80 244.87,-41.30 245.85,-40.81 246.84,-40.31 247.73,-39.70 248.61,-39.09 249.58,-38.42 250.55,-37.75 251.33,-36.90 252.12,-36.05 253.14,-35.03 254.16,-34.00 255.11,-33.08 256.07,-32.16 257.07,-31.59 258.07,-31.02 259.64,-30.10 261.20,-29.18 263.28,-27.79 265.37,-26.40 266.37,-25.95 267.37,-25.50 269.07,-24.66 270.77,-23.82 271.85,-23.54 272.93,-23.26 273.90,-22.61 274.87,-21.95 276.16,-21.50 277.46,-21.05 279.05,-20.64 280.64,-20.22 282.09,-19.40 283.54,-18.58 286.31,-18.00 289.09,-17.42 290.99,-16.95 292.89,-16.49 294.40,-15.96 295.91,-15.44 298.14,-14.86 300.36,-14.27 302.60,-13.79 304.83,-13.30 306.75,-12.88 308.67,-12.46 309.73,-12.29 310.79,-12.11 312.28,-11.72 313.77,-11.32 315.96,-10.91 318.15,-10.49 320.32,-10.01 322.48,-9.52 324.56,-9.03 326.63,-8.53 328.20,-8.35 329.77,-8.17 331.28,-8.09 332.79,-8.01 334.29,-7.97 335.79,-7.93 337.28,-7.92 338.78,-7.90 339.99,-7.90 341.21,-7.90 343.21,-7.89 345.22,-7.88 346.59,-7.88 347.96,-7.88 350.27,-7.88 352.58,-7.88 355.58,-7.88 358.57,-7.87 360.70,-7.88 362.84,-7.88 364.03,-7.88 365.23,-7.88 366.43,-7.85 367.63,-7.82 368.72,-7.35 369.81,-6.89 368.88,-6.00 367.96,-5.11 368.08,-5.02 368.20,-4.92 368.30,-4.79 368.40,-4.66 368.46,-4.52 368.52,-4.37 368.55,-4.22 368.57,-4.06 368.56,-3.90 368.55,-3.75 368.50,-3.59 368.45,-3.44 368.37,-3.31 368.28,-3.18 368.17,-3.07 368.06,-2.96 367.92,-2.88 367.78,-2.80 367.63,-2.75 367.48,-2.71 367.32,-2.70 367.16,-2.69 367.01,-2.72 366.85,-2.75 366.71,-2.82 366.57,-2.89 366.72,-2.82 366.87,-2.75 366.68,-2.84 366.49,-2.94 366.34,-3.09 366.19,-3.24 366.10,-3.43 366.00,-3.62 365.98,-3.83 365.95,-4.04 365.99,-4.25 366.03,-4.46 366.14,-4.64 366.24,-4.83 366.40,-4.97 366.56,-5.11 366.76,-5.19 366.95,-5.28 367.16,-5.29 367.37,-5.31 367.58,-5.26 367.79,-5.20 367.97,-5.09 368.14,-4.97 368.28,-4.81 368.41,-4.64 368.48,-4.44 368.55,-4.24 368.56,-4.03 368.56,-3.82 368.50,-3.61 368.44,-3.41 368.31,-3.24 368.19,-3.07 368.01,-2.94 367.84,-2.82 367.64,-2.76 367.43,-2.70 367.22,-2.71 367.01,-2.71 366.81,-2.79 366.61,-2.86 366.44,-3.00 366.28,-3.13 366.17,-3.31 366.05,-3.49 366.00,-3.69 365.95,-3.90 365.97,-4.11 365.99,-4.32 366.07,-4.52 366.16,-4.71 366.30,-4.87 366.44,-5.03 366.63,-5.13 366.82,-5.24 367.02,-5.27 367.23,-5.31 367.60,-5.21 367.96,-5.11 368.08,-5.02 368.20,-4.92 368.30,-4.79 368.40,-4.66 368.46,-4.52 368.52,-4.37 368.55,-4.22 368.57,-4.06 368.56,-3.90 368.55,-3.75 368.50,-3.59 368.45,-3.44 368.37,-3.31 368.28,-3.18 368.17,-3.07 368.06,-2.96 367.92,-2.88 367.78,-2.80 367.63,-2.75 367.48,-2.71 367.32,-2.70 367.16,-2.69 367.01,-2.72 366.85,-2.75 366.71,-2.82 366.57,-2.89 365.90,-2.50 365.23,-2.11 364.03,-2.11 362.84,-2.11 360.70,-2.11 358.57,-2.12 355.58,-2.12 352.58,-2.11 350.27,-2.11 347.96,-2.11 346.59,-2.11 345.21,-2.11 343.19,-2.11 341.18,-2.11 339.95,-2.12 338.72,-2.13 337.18,-2.15 335.64,-2.17 334.06,-2.21 332.47,-2.24 330.78,-2.34 329.09,-2.43 327.19,-2.67 325.29,-2.90 323.25,-3.39 321.22,-3.87 319.14,-4.34 317.05,-4.81 314.65,-5.28 312.25,-5.75 311.05,-6.09 309.85,-6.43 308.64,-6.63 307.43,-6.83 305.37,-7.28 303.31,-7.74 302.17,-8.06 301.03,-8.38 298.90,-8.92 296.77,-9.46 295.39,-9.72 294.00,-9.99 292.76,-10.43 291.51,-10.88 289.63,-11.34 287.74,-11.81 286.03,-12.22 284.31,-12.63 282.52,-13.09 280.73,-13.55 278.97,-14.47 277.22,-15.39 275.67,-15.93 274.12,-16.47 272.67,-17.13 271.23,-17.78 269.73,-18.22 268.23,-18.65 266.54,-19.48 264.85,-20.32 262.58,-21.73 260.30,-23.15 259.35,-23.64 258.40,-24.14 257.48,-24.66 256.55,-25.18 255.43,-25.75 254.32,-26.32 252.82,-27.83 251.32,-29.35 249.84,-30.52 248.35,-31.70 247.32,-32.60 246.30,-33.51 245.26,-34.34 244.22,-35.16 243.22,-35.67 242.23,-36.18 241.23,-36.69 240.23,-37.21 239.22,-37.75 238.22,-38.29 236.58,-39.37 234.95,-40.46 233.80,-41.16 232.64,-41.86 231.78,-42.53 230.92,-43.19 229.43,-43.85 227.95,-44.52 226.80,-45.27 225.64,-46.01 224.79,-46.74 223.93,-47.46 222.42,-48.54 220.91,-49.61 219.91,-51.03 218.90,-52.45 218.31,-53.38 217.73,-54.32 217.02,-56.24 216.30,-58.16 215.53,-59.90 214.76,-61.63 214.36,-62.95 213.95,-64.27 213.67,-66.14 213.39,-68.00 212.63,-69.84 211.87,-71.69 211.74,-72.87 211.61,-74.04 211.13,-75.52 210.65,-77.00 210.28,-78.88 209.91,-80.76 209.80,-81.93 209.69,-83.10 209.29,-84.61 208.89,-86.11 208.75,-87.60 208.61,-89.08 208.21,-90.98 207.82,-92.89 207.66,-94.21 207.50,-95.52 206.99,-97.16 206.48,-98.80 206.01,-100.48 205.54,-102.15 205.05,-103.55 204.57,-104.94 204.10,-106.18 203.64,-107.42 203.12,-108.57 202.60,-109.71 202.07,-111.03 201.54,-112.35 201.06,-113.88 200.57,-115.42 200.10,-117.00 199.64,-118.57 199.23,-120.26 198.82,-121.95 198.65,-123.32 198.48,-124.69 197.96,-126.44 197.44,-128.18 196.92,-130.13 196.40,-132.08 195.86,-133.96 195.32,-135.85 194.75,-137.56 194.18,-139.28 193.34,-141.04 192.51,-142.80 191.83,-144.58 191.15,-146.36 189.69,-147.26 188.23,-148.16 187.23,-148.66 186.23,-149.15 185.23,-149.64 184.23,-150.13 183.23,-150.62 182.23,-151.10 181.24,-151.56 180.24,-152.03 179.24,-152.46 178.23,-152.89 176.97,-153.31 175.72,-153.74 174.35,-154.05 172.98,-154.36 171.68,-154.54 170.37,-154.73 168.27,-155.20 166.16,-155.67 164.88,-155.98 163.60,-156.28 161.98,-156.41 160.36,-156.55 159.23,-156.78 158.11,-157.02 155.88,-156.83 153.64,-156.64 151.15,-156.11 148.67,-155.58 147.61,-155.03 146.55,-154.47 145.35,-153.83 144.15,-153.18 142.50,-152.22 140.85,-151.26 139.18,-150.46 137.50,-149.66 135.95,-148.82 134.40,-147.98 133.39,-147.21 132.38,-146.44 131.26,-145.42 130.14,-144.40 129.18,-143.64 128.21,-142.88 127.00,-141.50 125.78,-140.11 124.70,-138.57 123.62,-137.03 122.65,-135.82 121.68,-134.60 121.06,-133.15 120.44,-131.69 119.61,-129.52 118.78,-127.34 118.14,-125.50 117.50,-123.65 116.72,-121.46 115.93,-119.26 115.40,-117.30 114.86,-115.34 114.20,-112.49 113.55,-109.64 112.82,-107.43 112.08,-105.23 111.61,-103.04 111.13,-100.86 110.71,-99.20 110.29,-97.53 109.95,-96.25 109.61,-94.96 108.84,-92.73 108.07,-90.50 107.07,-88.30 106.07,-86.10 104.96,-83.36 103.85,-80.62 102.72,-78.51 101.58,-76.41 100.43,-74.47 99.27,-72.53 98.36,-70.22 97.46,-67.91 96.60,-65.66 95.74,-63.40 94.45,-60.98 93.16,-58.57 91.76,-56.69 90.37,-54.82 89.13,-53.13 87.88,-51.45 86.94,-50.08 85.99,-48.70 85.05,-47.38 84.11,-46.07 82.33,-44.21 80.56,-42.35 79.56,-40.81 78.55,-39.27 77.98,-38.24 77.41,-37.21 76.72,-36.15 76.04,-35.08 75.09,-33.68 74.14,-32.28 73.03,-31.02 71.92,-29.77 71.21,-28.49 70.49,-27.20 69.48,-26.31 68.48,-25.42 67.41,-23.93 66.35,-22.43 65.29,-21.36 64.23,-20.29 62.73,-18.67 61.23,-17.06 60.12,-16.13 59.01,-15.21 58.05,-14.16 57.08,-13.11 55.62,-12.10 54.16,-11.10 52.96,-10.15 51.77,-9.21 50.02,-8.08 48.28,-6.96 47.30,-6.10 46.32,-5.25 45.42,-4.67 44.53,-4.10 43.45,-3.63 42.38,-3.16 40.49,-2.64 38.60,-2.12 37.62,-1.65 36.63,-1.19 35.64,-0.74 34.65,-0.30 32.61,0.17 30.58,0.65 29.41,1.00 28.24,1.35 27.05,1.38 25.86,1.41 24.59,1.53 23.32,1.65 22.08,1.99 20.84,2.34 19.50,2.39 18.17,2.44 16.76,2.83 15.35,3.23 14.17,3.23 13.00,3.23 11.41,3.21 9.83,3.18 8.52,3.15 7.22,3.13 6.13,3.08 5.04,3.02 3.60,2.50 2.15,1.99 1.07,1.65 0,1.31 -0.15,1.29 -0.31,1.27 -0.46,1.21 -0.61,1.16 -0.74,1.07 -0.87,0.98 -0.97,0.86 -1.08,0.74 -1.15,0.60 -1.22,0.46 -1.26,0.31 -1.30,0.15 -1.30,-0.00 -1.30,-0.15 -1.26,-0.31 -1.22,-0.46 -1.15,-0.60 -1.08,-0.74 -0.97,-0.86 -0.87,-0.98 -0.74,-1.07 -0.61,-1.16 -0.46,-1.21 -0.31,-1.27 -0.15,-1.29 0.00,-1.31 0.00,-1.31 L 0,-1.31 Z"/></g><g transform="translate(177 304.7380943910591) rotate(0 2.5 5)" stroke="none"><path fill="#1971c2" d="M -1.31,0 Q -1.31,0 -1.78,-0.57 -2.24,-1.15 -2.59,-2.70 -2.94,-4.26 -2.65,-5.31 -2.37,-6.37 -2.34,-7.41 -2.32,-8.46 -2.26,-8.73 -2.20,-9.00 -2.08,-9.25 -1.96,-9.50 -1.79,-9.72 -1.61,-9.93 -1.39,-10.10 -1.16,-10.26 -0.91,-10.37 -0.65,-10.48 -0.38,-10.52 -0.10,-10.57 0.17,-10.54 0.44,-10.52 0.71,-10.43 0.97,-10.34 1.20,-10.19 1.44,-10.04 1.63,-9.84 1.82,-9.64 1.96,-9.39 2.09,-9.15 2.17,-8.88 2.25,-8.62 2.25,-8.34 2.26,-8.06 1.48,-9.06 0.70,-10.07 1.90,-9.21 3.09,-8.35 3.63,-6.85 4.17,-5.36 4.78,-4.33 5.39,-3.30 6.09,-1.35 6.80,0.59 7.08,2.83 7.36,5.07 7.80,6.68 8.24,8.29 8.33,9.97 8.43,11.65 8.44,12.90 8.46,14.14 7.23,17.00 6.01,19.86 5.83,19.97 5.64,20.07 5.43,20.12 5.23,20.16 5.02,20.13 4.81,20.11 4.61,20.01 4.42,19.92 4.27,19.77 4.12,19.63 4.02,19.44 3.92,19.25 3.89,19.04 3.86,18.83 3.90,18.62 3.94,18.41 4.04,18.22 4.14,18.04 4.30,17.89 4.46,17.75 4.65,17.66 4.84,17.58 5.06,17.56 5.27,17.54 5.47,17.58 5.68,17.63 5.86,17.75 6.04,17.86 6.18,18.02 6.31,18.19 6.39,18.39 6.46,18.58 6.47,18.80 6.48,19.01 6.42,19.21 6.36,19.42 6.24,19.59 6.12,19.76 5.94,19.89 5.77,20.02 5.57,20.08 5.37,20.15 5.16,20.14 4.94,20.14 4.74,20.07 4.54,20.00 4.38,19.87 4.21,19.73 4.09,19.56 3.98,19.38 3.92,19.17 3.87,18.97 3.88,18.76 3.90,18.54 3.98,18.35 4.06,18.15 4.20,17.99 4.34,17.83 4.34,17.83 4.34,17.83 3.93,16.81 3.52,15.80 3.52,14.43 3.51,13.07 3.48,11.64 3.45,10.21 3.34,8.97 3.23,7.73 2.83,6.58 2.44,5.43 2.27,3.79 2.11,2.15 1.75,1.06 1.38,-0.03 0.81,-1.09 0.24,-2.15 -0.24,-4.15 -0.73,-6.15 -1.52,-7.31 -2.32,-8.46 -2.26,-8.73 -2.20,-9.00 -2.08,-9.25 -1.96,-9.50 -1.79,-9.72 -1.61,-9.93 -1.39,-10.10 -1.16,-10.26 -0.91,-10.37 -0.65,-10.48 -0.38,-10.52 -0.10,-10.57 0.17,-10.54 0.44,-10.52 0.71,-10.43 0.97,-10.34 1.20,-10.19 1.44,-10.04 1.63,-9.84 1.82,-9.64 1.96,-9.39 2.09,-9.15 2.17,-8.89 2.25,-8.62 2.25,-8.34 2.26,-8.06 2.24,-7.57 2.21,-7.07 2.06,-5.51 1.92,-3.95 2.08,-2.55 2.24,-1.15 1.78,-0.57 1.31,0 1.29,0.15 1.27,0.31 1.21,0.46 1.16,0.61 1.07,0.74 0.98,0.87 0.86,0.97 0.74,1.08 0.60,1.15 0.46,1.22 0.31,1.26 0.15,1.30 -0.00,1.30 -0.15,1.30 -0.31,1.26 -0.46,1.22 -0.60,1.15 -0.74,1.08 -0.86,0.97 -0.98,0.87 -1.07,0.74 -1.16,0.61 -1.21,0.46 -1.27,0.31 -1.29,0.15 -1.31,-0.00 -1.31,-0.00 L -1.31,0 Z"/></g><g transform="translate(168 364.7380943910591) rotate(0 3 1.5)" stroke="none"><path fill="#1971c2" d="M -0.92,-0.92 Q -0.92,-0.92 -0.68,-1.82 -0.43,-2.72 0.47,-4.12 1.38,-5.51 1.80,-6.66 2.22,-7.80 2.33,-9.02 2.43,-10.24 2.45,-11.66 2.46,-13.08 2.57,-14.27 2.68,-15.47 1.55,-15.51 0.41,-15.54 -0.45,-14.32 -1.33,-13.11 -2.14,-12.23 -2.95,-11.36 -2.06,-9.50 -1.18,-7.64 -0.16,-5.79 0.86,-3.94 2.22,-2.59 3.59,-1.24 4.54,-0.27 5.49,0.69 6.63,1.56 7.77,2.44 9.06,3.89 10.36,5.35 11.39,6.46 12.42,7.57 13.11,8.98 13.80,10.40 13.93,11.86 14.06,13.31 13.11,14.89 12.17,16.48 10.81,17.60 9.45,18.73 7.86,19.58 6.27,20.43 5.32,21.18 4.37,21.93 3.09,22.69 1.80,23.46 -0.27,23.41 -2.36,23.37 -3.51,22.37 -4.66,21.37 -5.08,19.39 -5.51,17.40 -5.30,15.57 -5.09,13.75 -4.68,12.12 -4.28,10.49 -3.81,8.93 -3.34,7.37 -1.72,5.55 -0.10,3.74 -0.16,3.53 -0.21,3.32 -0.19,3.11 -0.18,2.90 -0.10,2.71 -0.01,2.51 0.12,2.35 0.26,2.19 0.44,2.09 0.63,1.98 0.84,1.94 1.04,1.90 1.25,1.92 1.47,1.95 1.66,2.04 1.85,2.14 2.00,2.29 2.15,2.44 2.25,2.63 2.34,2.81 2.37,3.03 2.40,3.24 2.36,3.44 2.32,3.65 2.22,3.84 2.12,4.02 1.96,4.17 1.80,4.31 1.61,4.40 1.41,4.48 1.20,4.50 0.99,4.52 0.78,4.47 0.58,4.42 0.40,4.31 0.22,4.19 0.08,4.03 -0.04,3.86 -0.11,3.66 -0.19,3.47 -0.20,3.25 -0.20,3.04 -0.14,2.84 -0.08,2.63 0.03,2.46 0.15,2.29 0.33,2.16 0.50,2.04 0.70,1.97 0.90,1.91 1.12,1.91 1.33,1.92 1.53,1.99 1.73,2.06 1.89,2.19 2.06,2.33 2.18,2.50 2.29,2.68 2.29,2.68 2.29,2.68 2.15,5.86 2.02,9.03 1.59,10.46 1.17,11.88 0.82,13.21 0.47,14.55 0.76,16.02 1.04,17.49 2.41,16.50 3.77,15.51 4.92,14.98 6.07,14.45 7.27,12.78 8.47,11.11 7.40,9.98 6.34,8.84 5.40,7.74 4.47,6.63 3.08,5.52 1.68,4.42 0.72,3.43 -0.23,2.45 -2.00,0.56 -3.76,-1.33 -4.71,-3.05 -5.65,-4.76 -6.77,-6.60 -7.88,-8.43 -7.90,-10.76 -7.92,-13.10 -6.73,-14.72 -5.54,-16.34 -4.83,-17.45 -4.11,-18.55 -2.85,-19.63 -1.58,-20.71 0.14,-21.15 1.88,-21.58 3.34,-21.26 4.79,-20.95 5.54,-19.62 6.29,-18.29 6.91,-16.51 7.53,-14.72 7.49,-13.18 7.45,-11.63 7.31,-9.92 7.18,-8.21 6.55,-6.25 5.92,-4.29 5.03,-2.91 4.15,-1.52 3.44,-0.55 2.73,0.42 1.83,0.67 0.92,0.92 0.80,1.02 0.67,1.12 0.53,1.18 0.39,1.25 0.23,1.28 0.07,1.31 -0.07,1.30 -0.23,1.29 -0.38,1.24 -0.53,1.19 -0.67,1.11 -0.80,1.03 -0.92,0.92 -1.03,0.80 -1.11,0.67 -1.19,0.53 -1.24,0.38 -1.29,0.23 -1.30,0.07 -1.31,-0.07 -1.28,-0.23 -1.25,-0.39 -1.18,-0.53 -1.12,-0.67 -1.02,-0.80 -0.92,-0.92 -0.92,-0.92 L -0.92,-0.92 Z"/></g><g transform="translate(17 249.7380943910591) rotate(0 3 27.5)" stroke="none"><path fill="#1971c2" d="M 1.31,0 Q 1.31,0 1.83,0.57 2.36,1.15 2.58,2.58 2.80,4.02 2.98,5.18 3.16,6.33 3.62,7.99 4.09,9.64 4.69,10.72 5.30,11.80 5.66,13.03 6.02,14.25 6.14,15.33 6.25,16.42 6.29,17.74 6.33,19.07 6.34,20.49 6.35,21.91 6.77,23.17 7.18,24.42 7.64,26.07 8.11,27.72 7.83,28.87 7.56,30.01 7.12,31.84 6.68,33.67 6.57,34.93 6.46,36.19 6.42,37.29 6.37,38.39 5.95,39.40 5.53,40.40 5.47,41.85 5.41,43.30 4.96,44.87 4.51,46.43 4.46,47.87 4.40,49.30 4.40,50.78 4.39,52.26 4.42,53.76 4.45,55.26 4.42,55.55 4.38,55.84 4.28,56.12 4.17,56.40 4.00,56.64 3.83,56.89 3.61,57.08 3.39,57.28 3.13,57.42 2.87,57.55 2.58,57.63 2.29,57.70 1.99,57.70 1.70,57.70 1.41,57.62 1.12,57.55 0.86,57.42 0.60,57.28 0.38,57.08 0.15,56.89 -0.00,56.64 -0.17,56.40 -0.28,56.12 -0.38,55.84 -0.42,55.55 -0.45,55.25 0.05,53.78 0.56,52.31 0.93,50.31 1.29,48.31 1.12,46.47 0.95,44.63 0.84,42.71 0.73,40.79 0.68,38.84 0.63,36.88 0.62,35.19 0.60,33.50 0.59,31.92 0.59,30.34 0.59,28.80 0.58,27.26 0.59,25.77 0.59,24.27 0.18,22.50 -0.21,20.74 -0.70,18.78 -1.18,16.81 -0.94,14.71 -0.69,12.61 -0.99,10.95 -1.29,9.28 -1.19,7.64 -1.08,5.99 -0.40,4.78 0.27,3.57 0.53,3.42 0.79,3.26 1.08,3.17 1.37,3.08 1.67,3.06 1.97,3.04 2.27,3.10 2.57,3.15 2.85,3.28 3.12,3.40 3.36,3.59 3.60,3.78 3.79,4.02 3.98,4.26 4.10,4.53 4.22,4.81 4.28,5.11 4.33,5.41 4.31,5.71 4.30,6.01 4.21,6.30 4.11,6.59 3.96,6.85 3.80,7.11 3.59,7.33 3.37,7.54 3.83,6.22 4.28,4.90 4.39,6.10 4.50,7.30 4.48,9.07 4.46,10.84 4.44,12.03 4.43,13.23 4.13,15.35 3.83,17.47 3.73,19.91 3.62,22.34 3.57,24.54 3.52,26.75 3.50,29.12 3.48,31.49 3.47,33.65 3.46,35.81 3.15,37.78 2.84,39.75 2.06,42.04 1.27,44.32 1.18,44.51 1.08,44.70 0.93,44.86 0.79,45.01 0.60,45.10 0.41,45.20 0.20,45.23 -0.00,45.26 -0.21,45.22 -0.42,45.18 -0.61,45.08 -0.79,44.98 -0.94,44.82 -1.08,44.67 -1.17,44.47 -1.25,44.28 -1.27,44.06 -1.29,43.85 -1.24,43.65 -1.19,43.44 -1.08,43.26 -0.97,43.08 -0.80,42.95 -0.64,42.81 -0.44,42.74 -0.24,42.66 -0.03,42.65 0.17,42.64 0.38,42.71 0.58,42.77 0.76,42.89 0.93,43.01 1.05,43.18 1.18,43.35 1.24,43.56 1.31,43.76 1.30,43.97 1.30,44.18 1.23,44.38 1.16,44.58 1.03,44.75 0.89,44.92 0.72,45.03 0.54,45.15 0.33,45.20 0.13,45.26 -0.07,45.24 -0.29,45.22 -0.48,45.14 -0.68,45.06 -0.84,44.92 -1.00,44.78 -1.10,44.60 -1.21,44.41 -1.25,44.20 -1.29,44.00 -1.27,43.78 -1.24,43.57 -1.24,43.57 -1.24,43.57 -1.61,41.27 -1.98,38.97 -1.70,37.37 -1.43,35.78 -1.42,33.61 -1.41,31.44 -1.39,29.04 -1.37,26.63 -1.31,24.37 -1.26,22.11 -1.12,19.43 -0.98,16.76 -0.71,14.99 -0.43,13.23 -0.46,11.25 -0.48,9.28 -0.46,8.00 -0.43,6.71 -0.08,5.14 0.27,3.57 0.53,3.42 0.79,3.26 1.08,3.17 1.37,3.08 1.67,3.06 1.97,3.04 2.27,3.10 2.57,3.15 2.85,3.28 3.12,3.40 3.36,3.59 3.60,3.78 3.79,4.02 3.98,4.26 4.10,4.53 4.22,4.81 4.28,5.11 4.33,5.41 4.31,5.71 4.30,6.01 4.21,6.30 4.12,6.59 3.96,6.85 3.80,7.11 3.59,7.33 3.37,7.54 3.51,8.38 3.66,9.22 3.94,10.39 4.23,11.57 3.86,13.23 3.49,14.90 3.64,16.29 3.79,17.68 4.26,19.67 4.73,21.66 5.07,22.93 5.40,24.20 5.41,25.73 5.42,27.25 5.42,28.78 5.42,30.31 5.43,31.88 5.44,33.45 5.46,35.11 5.48,36.77 5.52,38.65 5.55,40.53 5.64,42.22 5.73,43.90 5.96,45.77 6.20,47.64 5.76,49.81 5.32,51.97 4.89,53.61 4.45,55.26 4.42,55.55 4.38,55.84 4.28,56.12 4.17,56.40 4.00,56.64 3.83,56.89 3.61,57.08 3.39,57.28 3.13,57.42 2.87,57.55 2.58,57.63 2.29,57.70 1.99,57.70 1.70,57.70 1.41,57.63 1.12,57.55 0.86,57.42 0.60,57.28 0.38,57.08 0.15,56.89 -0.00,56.64 -0.17,56.40 -0.28,56.12 -0.38,55.84 -0.42,55.55 -0.45,55.26 -0.45,54.76 -0.44,54.26 -0.41,52.75 -0.39,51.25 -0.37,49.70 -0.36,48.15 -0.25,46.92 -0.14,45.69 0.24,43.92 0.63,42.15 0.74,40.91 0.84,39.68 1.24,38.36 1.64,37.05 1.73,35.68 1.82,34.31 2.01,33.14 2.21,31.98 2.49,30.88 2.78,29.78 3.01,28.62 3.25,27.46 2.84,25.85 2.43,24.23 2.02,23.21 1.62,22.19 1.59,20.70 1.56,19.20 1.49,17.22 1.42,15.25 0.89,13.99 0.35,12.74 -0.09,11.49 -0.54,10.25 -0.97,9.26 -1.40,8.26 -1.53,6.94 -1.65,5.62 -2.00,4.45 -2.36,3.28 -2.36,2.21 -2.36,1.15 -1.83,0.57 -1.31,0 -1.29,-0.15 -1.27,-0.31 -1.21,-0.46 -1.16,-0.61 -1.07,-0.74 -0.98,-0.87 -0.86,-0.97 -0.74,-1.08 -0.60,-1.15 -0.46,-1.22 -0.31,-1.26 -0.15,-1.30 0.00,-1.30 0.15,-1.30 0.31,-1.26 0.46,-1.22 0.60,-1.15 0.74,-1.08 0.86,-0.97 0.98,-0.87 1.07,-0.74 1.16,-0.61 1.21,-0.46 1.27,-0.31 1.29,-0.15 1.31,0.00 1.31,0.00 L 1.31,0 Z"/></g><g transform="translate(19 335.7380943910591) rotate(0 7 14.5)" stroke="none"><path fill="#1971c2" d="M -1.17,-0.58 Q -1.17,-0.58 -0.05,-2.06 1.06,-3.53 -0.30,-2.91 -1.66,-2.30 -1.48,-2.58 -1.29,-2.86 -1.05,-3.09 -0.80,-3.31 -0.51,-3.48 -0.21,-3.64 0.10,-3.72 0.43,-3.81 0.76,-3.82 1.10,-3.82 1.42,-3.75 1.75,-3.68 2.05,-3.53 2.35,-3.38 2.60,-3.16 2.86,-2.94 3.05,-2.67 3.25,-2.40 3.37,-2.09 3.50,-1.78 3.55,-1.44 3.59,-1.11 3.56,-0.78 3.53,-0.45 3.41,-0.13 3.30,0.17 2.15,1.07 1.00,1.96 0.32,4.03 -0.35,6.11 -0.84,8.17 -1.34,10.23 -1.55,13.00 -1.76,15.77 -1.30,19.05 -0.84,22.33 -0.13,25.10 0.58,27.86 1.54,29.27 2.51,30.69 3.62,31.34 4.74,31.98 6.14,31.70 7.55,31.42 9.62,30.10 11.69,28.78 13.65,26.66 15.60,24.55 16.65,22.66 17.70,20.78 18.39,18.49 19.07,16.21 18.50,13.97 17.94,11.73 16.93,9.36 15.92,7.00 15.44,5.51 14.96,4.03 13.83,2.69 12.71,1.36 10.94,0.00 9.18,-1.34 7.24,-2.10 5.30,-2.87 3.69,-2.90 2.08,-2.93 0.63,-2.24 -0.80,-1.55 -1.81,-0.39 -2.81,0.76 -3.92,2.27 -5.03,3.77 -5.83,5.17 -6.64,6.58 -6.68,8.32 -6.73,10.06 -6.75,10.27 -6.78,10.48 -6.87,10.67 -6.95,10.86 -7.10,11.02 -7.25,11.17 -7.44,11.27 -7.62,11.37 -7.83,11.40 -8.04,11.44 -8.25,11.40 -8.46,11.37 -8.65,11.27 -8.84,11.17 -8.98,11.01 -9.13,10.86 -9.22,10.67 -9.31,10.47 -9.33,10.26 -9.35,10.05 -9.31,9.84 -9.26,9.64 -9.15,9.45 -9.04,9.27 -8.88,9.13 -8.72,9.00 -8.52,8.92 -8.32,8.84 -8.11,8.83 -7.90,8.82 -7.69,8.88 -7.49,8.93 -7.31,9.05 -7.14,9.17 -7.01,9.34 -6.88,9.51 -6.81,9.71 -6.74,9.91 -6.74,10.13 -6.74,10.34 -6.81,10.54 -6.88,10.74 -7.01,10.91 -7.14,11.08 -7.32,11.20 -7.49,11.32 -7.70,11.37 -7.90,11.43 -8.11,11.42 -8.33,11.41 -8.52,11.33 -8.72,11.25 -8.88,11.11 -9.04,10.97 -9.15,10.79 -9.26,10.61 -9.31,10.40 -9.35,10.19 -9.35,10.19 -9.35,10.19 -9.61,7.98 -9.86,5.77 -9.65,3.36 -9.44,0.94 -8.17,-1.11 -6.90,-3.18 -5.01,-5.00 -3.12,-6.83 -0.46,-7.76 2.19,-8.70 4.83,-8.47 7.46,-8.25 10.11,-7.08 12.75,-5.90 15.01,-4.04 17.26,-2.18 18.83,-0.02 20.39,2.14 20.83,3.48 21.26,4.82 22.42,7.75 23.57,10.68 24.04,14.13 24.50,17.59 23.54,20.58 22.58,23.58 21.13,26.00 19.68,28.42 17.09,31.02 14.51,33.62 11.31,35.28 8.11,36.93 5.23,36.89 2.35,36.85 0.16,35.37 -2.03,33.88 -3.45,31.63 -4.86,29.38 -5.70,26.23 -6.53,23.08 -7.01,19.20 -7.48,15.32 -7.19,12.08 -6.90,8.83 -6.20,6.21 -5.50,3.58 -4.46,1.49 -3.42,-0.58 -2.54,-1.44 -1.66,-2.30 -1.48,-2.58 -1.29,-2.86 -1.05,-3.09 -0.80,-3.31 -0.51,-3.48 -0.21,-3.64 0.10,-3.72 0.42,-3.81 0.76,-3.82 1.09,-3.82 1.42,-3.75 1.75,-3.68 2.05,-3.53 2.35,-3.38 2.60,-3.16 2.86,-2.94 3.05,-2.67 3.25,-2.40 3.37,-2.09 3.50,-1.78 3.55,-1.45 3.59,-1.11 3.56,-0.78 3.53,-0.45 3.41,-0.13 3.30,0.17 1.69,0.70 0.08,1.23 0.63,0.91 1.17,0.58 1.08,0.71 0.99,0.85 0.88,0.95 0.76,1.06 0.62,1.14 0.48,1.21 0.33,1.25 0.18,1.30 0.02,1.30 -0.13,1.30 -0.28,1.27 -0.44,1.23 -0.58,1.16 -0.72,1.09 -0.84,0.99 -0.96,0.89 -1.05,0.76 -1.15,0.63 -1.20,0.48 -1.26,0.33 -1.29,0.18 -1.31,0.02 -1.29,-0.13 -1.28,-0.28 -1.22,-0.43 -1.17,-0.58 -1.17,-0.58 L -1.17,-0.58 Z"/></g></svg>