<svg version="1.1" xmlns="http://www.w3.org/2000/svg" viewBox="0 0 577 606" width="577" height="606" class="excalidraw-svg">
  <!-- svg-source:excalidraw -->
  
  <defs>
    <style class="style-fonts">
      
    </style>
    
  </defs>
  <g stroke-linecap="round"><g transform="translate(63 512) rotate(0 0 -214)"><path d="M-0.08 0.18 C-0.39 -71.13, -1.08 -356.44, -1.11 -427.99 M-1.59 -0.77 C-1.6 -71.86, 0.95 -355.18, 1.01 -426.44" stroke="#1971c2" stroke-width="2" fill="none"/></g><g transform="translate(63 512) rotate(0 0 -214)"><path d="M9.44 -402.9 C6.74 -413.23, 3.43 -420.34, 1.01 -426.44 M9.44 -402.9 C8.43 -408.53, 6.45 -413.42, 1.01 -426.44" stroke="#1971c2" stroke-width="2" fill="none"/></g><g transform="translate(63 512) rotate(0 0 -214)"><path d="M-7.66 -403 C-4.21 -413.28, -1.37 -420.35, 1.01 -426.44 M-7.66 -403 C-5.1 -408.65, -3.52 -413.52, 1.01 -426.44" stroke="#1971c2" stroke-width="2" fill="none"/></g></g><mask/><g stroke-linecap="round"><g transform="translate(61 510) rotate(0 224.5 0)"><path d="M0.45 0.65 C75.64 0.37, 375.44 -0.92, 450.05 -1.1 M-0.78 -0.05 C74.44 -0.28, 374.43 -0.25, 449.65 -0.14" stroke="#1971c2" stroke-width="2" fill="none"/></g><g transform="translate(61 510) rotate(0 224.5 0)"><path d="M426.15 8.4 C432.1 8.27, 434.08 3.26, 449.65 -0.14 M426.15 8.4 C431.65 6.31, 438.56 3.82, 449.65 -0.14" stroke="#1971c2" stroke-width="2" fill="none"/></g><g transform="translate(61 510) rotate(0 224.5 0)"><path d="M426.16 -8.7 C432.2 -5.26, 434.18 -6.7, 449.65 -0.14 M426.16 -8.7 C431.64 -6.28, 438.54 -4.26, 449.65 -0.14" stroke="#1971c2" stroke-width="2" fill="none"/></g></g><mask/><g transform="translate(11 54) rotate(0 14 5)" stroke="none"><path fill="#1971c2" d="M -0.58,-0.29 Q -0.58,-0.29 -0.67,-1.05 -0.75,-1.82 -0.27,-2.47 0.21,-3.12 0.70,-3.68 1.20,-4.24 1.99,-5.05 2.78,-5.87 4.48,-8.15 6.18,-10.43 7.23,-11.73 8.29,-13.04 10.14,-15.57 12.00,-18.10 14.20,-21.73 16.40,-25.35 17.88,-28.56 19.37,-31.77 20.26,-34.79 21.16,-37.81 21.23,-39.52 21.31,-41.24 21.88,-41.32 22.44,-41.40 21.32,-41.12 20.19,-40.84 18.81,-39.73 17.42,-38.61 16.01,-36.54 14.61,-34.47 13.75,-31.42 12.89,-28.38 12.51,-24.83 12.13,-21.28 12.54,-17.58 12.94,-13.87 13.67,-10.29 14.41,-6.71 15.28,-3.79 16.16,-0.86 17.05,0.84 17.95,2.55 18.79,3.44 19.63,4.33 20.27,4.47 20.92,4.62 21.49,5.32 22.07,6.02 21.94,7.42 21.81,8.83 21.74,10.57 21.67,12.31 21.63,14.80 21.59,17.28 22.13,19.31 22.66,21.33 23.41,22.99 24.16,24.65 25.19,25.46 26.23,26.28 27.13,27.42 28.04,28.56 28.49,29.94 28.94,31.31 28.19,33.32 27.45,35.32 25.85,37.06 24.26,38.79 21.55,40.95 18.84,43.12 15.66,45.20 12.47,47.28 9.38,49.04 6.28,50.80 4.15,52.11 2.02,53.42 0.37,52.16 -1.28,50.90 -0.46,48.75 0.34,46.60 2.48,43.25 4.63,39.90 7.87,36.14 11.11,32.39 14.23,29.34 17.35,26.30 19.87,24.16 22.39,22.03 24.96,20.24 27.53,18.44 27.62,18.38 27.71,18.33 27.81,18.30 27.92,18.27 28.02,18.28 28.13,18.29 28.23,18.33 28.33,18.37 28.41,18.44 28.49,18.51 28.54,18.60 28.59,18.69 28.61,18.80 28.63,18.90 28.62,19.01 28.61,19.11 28.56,19.21 28.51,19.30 28.44,19.38 28.37,19.46 28.27,19.50 28.18,19.55 28.07,19.57 27.97,19.58 27.86,19.56 27.76,19.55 27.66,19.49 27.57,19.44 27.50,19.36 27.43,19.29 27.38,19.19 27.34,19.09 27.33,18.99 27.32,18.88 27.35,18.78 27.37,18.67 27.43,18.58 27.48,18.49 27.57,18.43 27.65,18.36 27.75,18.32 27.85,18.28 27.95,18.28 28.06,18.27 28.16,18.31 28.26,18.34 28.35,18.40 28.44,18.46 28.50,18.54 28.56,18.63 28.60,18.73 28.63,18.83 28.63,18.94 28.62,19.04 28.59,19.14 28.55,19.24 28.49,19.33 28.42,19.41 28.42,19.41 28.42,19.41 26.38,21.84 24.34,24.27 21.94,26.41 19.54,28.55 16.51,31.49 13.48,34.44 10.36,38.01 7.24,41.59 5.25,44.65 3.25,47.72 2.44,49.86 1.63,51.99 1.57,51.35 1.51,50.70 3.13,49.39 4.74,48.08 7.76,46.38 10.78,44.68 13.85,42.69 16.93,40.70 19.48,38.68 22.03,36.67 23.35,35.33 24.67,34.00 25.35,32.84 26.04,31.69 25.81,31.05 25.58,30.41 24.89,29.50 24.19,28.59 22.81,27.30 21.43,26.01 20.55,24.05 19.67,22.09 19.09,19.68 18.51,17.27 18.54,14.72 18.58,12.17 18.70,9.67 18.81,7.18 18.14,6.83 17.46,6.49 16.34,5.24 15.22,3.99 14.21,2.00 13.20,0.02 12.29,-3.03 11.38,-6.09 10.62,-9.82 9.86,-13.55 9.46,-17.58 9.06,-21.60 9.49,-25.42 9.93,-29.24 10.99,-32.72 12.05,-36.19 13.79,-38.63 15.54,-41.07 17.52,-42.45 19.50,-43.83 20.88,-44.02 22.26,-44.20 23.31,-42.67 24.35,-41.13 24.21,-39.04 24.06,-36.95 23.09,-33.73 22.11,-30.50 20.55,-27.14 18.98,-23.78 16.71,-20.05 14.44,-16.32 12.53,-13.73 10.63,-11.15 9.61,-9.88 8.59,-8.62 6.76,-6.20 4.93,-3.78 4.18,-3.01 3.43,-2.23 2.66,-1.35 1.90,-0.47 1.24,-0.09 0.58,0.29 0.54,0.35 0.49,0.42 0.44,0.47 0.38,0.53 0.31,0.57 0.24,0.60 0.16,0.62 0.09,0.65 0.01,0.65 -0.06,0.65 -0.14,0.63 -0.22,0.61 -0.29,0.58 -0.36,0.54 -0.42,0.49 -0.48,0.44 -0.52,0.38 -0.57,0.31 -0.60,0.24 -0.63,0.16 -0.64,0.09 -0.65,0.01 -0.64,-0.06 -0.64,-0.14 -0.61,-0.21 -0.58,-0.29 -0.58,-0.29 L -0.58,-0.29 Z"/></g><g transform="translate(39 95) rotate(0 -1 6.5)" stroke="none"><path fill="#1971c2" d="M 0.46,0.46 Q 0.46,0.46 0.12,0.99 -0.20,1.52 -0.04,2.41 0.12,3.30 0.13,4.08 0.14,4.85 0.14,6.05 0.15,7.24 0.16,8.33 0.16,9.43 -0.55,11.09 -1.27,12.74 -1.31,12.84 -1.35,12.94 -1.42,13.03 -1.48,13.11 -1.57,13.16 -1.66,13.22 -1.77,13.25 -1.87,13.27 -1.98,13.26 -2.08,13.25 -2.18,13.21 -2.28,13.16 -2.36,13.09 -2.43,13.02 -2.49,12.93 -2.54,12.84 -2.56,12.73 -2.57,12.63 -2.56,12.52 -2.54,12.42 -2.50,12.32 -2.45,12.23 -2.37,12.15 -2.30,12.08 -2.20,12.03 -2.10,11.99 -2.00,11.97 -1.89,11.96 -1.79,11.98 -1.69,12.00 -1.59,12.05 -1.50,12.11 -1.43,12.19 -1.36,12.27 -1.32,12.36 -1.28,12.46 -1.27,12.57 -1.26,12.67 -1.29,12.78 -1.32,12.88 -1.38,12.97 -1.43,13.06 -1.52,13.12 -1.60,13.19 -1.70,13.23 -1.80,13.26 -1.91,13.26 -2.01,13.26 -2.11,13.23 -2.22,13.20 -2.30,13.14 -2.39,13.07 -2.45,12.99 -2.51,12.90 -2.54,12.80 -2.57,12.70 -2.57,12.59 -2.56,12.48 -2.56,12.48 -2.56,12.49 -2.36,10.93 -2.16,9.37 -2.16,8.30 -2.16,7.24 -2.15,6.05 -2.15,4.86 -2.15,4.10 -2.15,3.34 -2.16,2.59 -2.18,1.83 -2.13,1.30 -2.09,0.77 -1.27,0.15 -0.46,-0.46 -0.40,-0.51 -0.33,-0.56 -0.26,-0.59 -0.19,-0.62 -0.11,-0.64 -0.03,-0.65 0.03,-0.65 0.11,-0.64 0.19,-0.62 0.26,-0.59 0.33,-0.55 0.40,-0.51 0.46,-0.46 0.51,-0.40 0.55,-0.33 0.59,-0.26 0.62,-0.19 0.64,-0.11 0.65,-0.03 0.65,0.03 0.64,0.11 0.62,0.19 0.59,0.26 0.56,0.33 0.51,0.40 0.46,0.46 0.46,0.46 L 0.46,0.46 Z"/></g><g transform="translate(519 543) rotate(0 7 13)" stroke="none"><path fill="#1971c2" d="M -0.46,-0.46 Q -0.46,-0.46 -0.09,-1.24 0.26,-2.03 0.78,-2.57 1.30,-3.11 1.71,-3.82 2.13,-4.52 2.59,-5.41 3.06,-6.30 3.60,-7.06 4.15,-7.82 4.97,-8.74 5.79,-9.67 7.25,-11.45 8.70,-13.24 10.50,-15.19 12.30,-17.15 13.88,-19.08 15.47,-21.02 16.35,-22.61 17.24,-24.19 17.28,-24.85 17.32,-25.52 17.01,-25.08 16.70,-24.64 15.47,-23.59 14.25,-22.53 11.95,-20.10 9.64,-17.66 7.84,-14.97 6.04,-12.27 4.94,-10.77 3.83,-9.27 2.87,-7.31 1.91,-5.36 1.23,-3.47 0.54,-1.58 0.82,-0.53 1.10,0.52 1.64,1.11 2.19,1.71 3.35,1.97 4.51,2.23 5.82,1.75 7.14,1.27 8.38,0.78 9.63,0.29 10.86,0.36 12.10,0.43 12.87,1.02 13.64,1.62 13.98,3.29 14.31,4.95 13.78,7.20 13.25,9.45 12.12,11.87 10.99,14.28 10.28,16.59 9.58,18.89 9.28,20.65 8.98,22.41 9.33,23.67 9.67,24.92 11.34,25.88 13.01,26.83 14.85,27.60 16.69,28.36 18.47,29.34 20.25,30.32 21.52,31.89 22.78,33.47 22.73,35.90 22.69,38.32 21.05,40.66 19.42,42.99 16.63,45.13 13.83,47.28 10.55,48.79 7.27,50.30 4.17,51.50 1.06,52.70 -1.29,52.96 -3.65,53.23 -5.66,52.76 -7.66,52.29 -8.30,50.96 -8.94,49.63 -7.92,46.80 -6.91,43.96 -4.10,39.92 -1.30,35.87 1.94,32.41 5.19,28.95 8.77,25.91 12.34,22.87 12.39,22.78 12.44,22.68 12.52,22.61 12.59,22.54 12.69,22.49 12.79,22.44 12.89,22.43 13.00,22.42 13.10,22.44 13.20,22.46 13.30,22.52 13.39,22.57 13.46,22.65 13.53,22.73 13.57,22.83 13.61,22.93 13.62,23.03 13.62,23.14 13.60,23.24 13.57,23.34 13.51,23.43 13.45,23.52 13.37,23.59 13.28,23.65 13.18,23.69 13.08,23.72 12.98,23.72 12.87,23.72 12.77,23.69 12.67,23.66 12.58,23.60 12.50,23.53 12.44,23.45 12.38,23.36 12.35,23.26 12.32,23.15 12.32,23.05 12.33,22.94 12.36,22.84 12.40,22.74 12.47,22.66 12.54,22.58 12.63,22.52 12.72,22.47 12.82,22.44 12.93,22.42 13.03,22.43 13.14,22.44 13.23,22.48 13.33,22.53 13.41,22.60 13.49,22.67 13.54,22.77 13.59,22.86 13.61,22.96 13.63,23.07 13.61,23.17 13.59,23.28 13.59,23.28 13.59,23.28 10.51,27.16 7.42,31.04 4.33,34.35 1.24,37.65 -1.40,41.41 -4.04,45.17 -5.04,47.16 -6.03,49.16 -5.97,49.72 -5.91,50.28 -4.93,50.21 -3.94,50.13 -1.98,49.96 -0.02,49.80 2.99,48.64 6.00,47.49 9.00,46.15 11.99,44.81 14.50,42.97 17.00,41.12 18.37,39.48 19.74,37.84 19.98,36.32 20.23,34.80 19.47,33.87 18.72,32.93 17.11,32.05 15.50,31.17 13.41,30.27 11.33,29.37 9.17,27.76 7.02,26.15 6.48,24.08 5.95,22.01 6.28,20.00 6.62,17.98 7.41,15.47 8.19,12.96 9.22,10.82 10.25,8.67 10.75,6.95 11.24,5.24 10.93,4.21 10.62,3.18 9.34,3.70 8.06,4.22 6.13,4.75 4.20,5.28 2.77,5.01 1.34,4.75 0.56,4.19 -0.22,3.63 -1.05,2.43 -1.89,1.23 -2.14,-0.59 -2.39,-2.41 -1.62,-4.57 -0.84,-6.74 0.26,-8.91 1.36,-11.08 2.43,-12.53 3.50,-13.98 5.45,-16.88 7.40,-19.78 9.88,-22.39 12.35,-25.00 14.24,-26.33 16.13,-27.66 17.44,-27.63 18.75,-27.60 19.52,-26.54 20.29,-25.49 20.08,-24.13 19.87,-22.78 18.80,-20.97 17.74,-19.16 16.08,-17.17 14.42,-15.18 12.66,-13.30 10.90,-11.42 9.38,-9.60 7.87,-7.77 7.11,-6.97 6.36,-6.17 5.90,-5.58 5.44,-4.98 4.89,-4.04 4.34,-3.10 3.73,-2.20 3.12,-1.31 2.57,-0.79 2.03,-0.26 1.24,0.09 0.46,0.46 0.40,0.51 0.33,0.56 0.26,0.59 0.19,0.62 0.11,0.64 0.03,0.65 -0.03,0.65 -0.11,0.64 -0.19,0.62 -0.26,0.59 -0.33,0.55 -0.40,0.51 -0.46,0.46 -0.51,0.40 -0.55,0.33 -0.59,0.26 -0.62,0.19 -0.64,0.11 -0.65,0.03 -0.65,-0.03 -0.64,-0.11 -0.62,-0.19 -0.59,-0.26 -0.56,-0.33 -0.51,-0.40 -0.46,-0.46 -0.46,-0.46 L -0.46,-0.46 Z"/></g><g transform="translate(551 567) rotate(0 5.5 12.5)" stroke="none"><path fill="#1971c2" d="M -0.20,-0.62 Q -0.20,-0.62 0.59,-1.08 1.40,-1.54 2.14,-1.68 2.89,-1.83 3.99,-1.58 5.09,-1.33 5.98,-0.50 6.87,0.32 7.29,2.02 7.70,3.72 6.96,6.31 6.22,8.90 4.74,12.00 3.26,15.09 1.45,17.62 -0.36,20.15 -1.34,21.98 -2.33,23.81 -2.48,24.33 -2.63,24.85 -2.72,24.98 -2.82,25.11 -2.93,25.21 -3.05,25.31 -3.19,25.38 -3.33,25.45 -3.48,25.48 -3.63,25.52 -3.79,25.51 -3.95,25.51 -4.10,25.47 -4.25,25.43 -4.38,25.35 -4.52,25.28 -4.64,25.17 -4.75,25.07 -4.84,24.94 -4.92,24.81 -4.97,24.66 -5.03,24.51 -5.04,24.36 -5.06,24.20 -5.04,24.05 -5.01,23.90 -4.96,23.75 -4.90,23.61 -3.29,23.20 -1.69,22.80 0.05,22.22 1.79,21.65 4.28,20.60 6.77,19.56 8.19,19.09 9.60,18.62 12.12,17.75 14.64,16.88 14.74,16.86 14.84,16.83 14.95,16.84 15.06,16.84 15.15,16.88 15.25,16.92 15.33,16.99 15.41,17.06 15.47,17.16 15.52,17.25 15.54,17.35 15.56,17.45 15.55,17.56 15.54,17.67 15.49,17.76 15.45,17.86 15.37,17.93 15.30,18.01 15.21,18.06 15.11,18.11 15.01,18.12 14.90,18.14 14.80,18.12 14.69,18.10 14.60,18.05 14.51,18.00 14.43,17.92 14.36,17.85 14.32,17.75 14.27,17.65 14.26,17.55 14.25,17.44 14.28,17.34 14.30,17.23 14.36,17.14 14.41,17.05 14.49,16.98 14.58,16.92 14.68,16.88 14.77,16.84 14.88,16.84 14.99,16.83 15.09,16.86 15.19,16.89 15.28,16.95 15.37,17.01 15.43,17.10 15.49,17.18 15.52,17.28 15.56,17.38 15.56,17.49 15.56,17.60 15.52,17.70 15.49,17.80 15.42,17.88 15.35,17.97 15.27,18.02 15.18,18.08 15.18,18.08 15.18,18.08 12.77,19.43 10.36,20.78 9.04,21.26 7.73,21.74 5.16,22.93 2.58,24.13 0.53,24.76 -1.51,25.39 -2.07,25.12 -2.63,24.85 -2.72,24.98 -2.82,25.11 -2.93,25.21 -3.05,25.31 -3.19,25.38 -3.33,25.45 -3.48,25.48 -3.63,25.52 -3.79,25.51 -3.95,25.51 -4.10,25.47 -4.25,25.43 -4.38,25.35 -4.52,25.28 -4.64,25.17 -4.75,25.07 -4.84,24.94 -4.92,24.81 -4.97,24.66 -5.03,24.52 -5.04,24.36 -5.06,24.21 -5.04,24.05 -5.01,23.90 -4.96,23.75 -4.90,23.61 -4.74,23.10 -4.58,22.58 -3.49,20.62 -2.39,18.66 -0.66,16.34 1.07,14.01 2.52,11.10 3.97,8.18 4.72,6.10 5.47,4.02 5.33,2.84 5.20,1.67 4.79,1.15 4.38,0.63 3.78,0.41 3.17,0.19 2.61,0.29 2.04,0.39 1.12,0.50 0.20,0.62 0.13,0.63 0.05,0.65 -0.02,0.65 -0.10,0.64 -0.18,0.62 -0.25,0.60 -0.32,0.56 -0.39,0.52 -0.45,0.46 -0.50,0.41 -0.55,0.34 -0.59,0.28 -0.61,0.20 -0.64,0.13 -0.64,0.05 -0.65,-0.02 -0.64,-0.10 -0.63,-0.18 -0.59,-0.25 -0.56,-0.32 -0.52,-0.39 -0.47,-0.45 -0.41,-0.50 -0.35,-0.55 -0.27,-0.58 -0.20,-0.62 -0.20,-0.62 L -0.20,-0.62 Z"/></g><g transform="translate(54 185) rotate(0 6 -0.5)" stroke="none"><path fill="#1971c2" d="M 0,0.65 Q 0,0.65 -0.57,0.83 -1.15,1.00 -1.90,1.38 -2.66,1.76 -2.80,1.74 -2.95,1.73 -3.08,1.68 -3.21,1.63 -3.33,1.54 -3.45,1.46 -3.55,1.35 -3.64,1.25 -3.71,1.12 -3.78,0.99 -3.81,0.85 -3.84,0.71 -3.84,0.57 -3.84,0.43 -3.81,0.29 -3.78,0.15 -3.71,0.02 -3.64,-0.10 -3.55,-0.20 -3.45,-0.31 -3.33,-0.39 -3.21,-0.48 -3.08,-0.53 -2.95,-0.58 -2.80,-0.59 -2.66,-0.61 -2.17,-0.41 -1.67,-0.21 -1.13,-0.22 -0.59,-0.24 0.34,-0.23 1.28,-0.22 2.06,-0.22 2.84,-0.22 4.03,-0.22 5.23,-0.22 6.89,-0.22 8.54,-0.22 10.11,-0.21 11.68,-0.21 12.57,-0.19 13.46,-0.17 13.93,-0.48 14.40,-0.79 14.54,-0.78 14.69,-0.76 14.83,-0.71 14.97,-0.65 15.09,-0.57 15.21,-0.49 15.31,-0.38 15.40,-0.27 15.47,-0.13 15.54,-0.00 15.58,0.13 15.61,0.27 15.61,0.42 15.61,0.57 15.58,0.71 15.54,0.85 15.47,0.99 15.40,1.12 15.31,1.23 15.21,1.34 15.09,1.42 14.96,1.50 14.83,1.56 14.69,1.61 14.54,1.63 14.40,1.64 13.10,0.19 11.80,-1.26 11.74,-1.35 11.68,-1.43 11.65,-1.53 11.61,-1.64 11.62,-1.74 11.62,-1.85 11.66,-1.95 11.69,-2.05 11.76,-2.13 11.83,-2.21 11.92,-2.27 12.01,-2.33 12.11,-2.35 12.21,-2.38 12.32,-2.37 12.42,-2.36 12.52,-2.32 12.62,-2.28 12.70,-2.21 12.78,-2.13 12.83,-2.04 12.88,-1.95 12.90,-1.84 12.92,-1.74 12.91,-1.64 12.89,-1.53 12.85,-1.43 12.80,-1.34 12.72,-1.26 12.65,-1.19 12.55,-1.14 12.46,-1.10 12.35,-1.08 12.25,-1.07 12.14,-1.09 12.04,-1.11 11.95,-1.16 11.85,-1.21 11.78,-1.29 11.71,-1.37 11.67,-1.47 11.63,-1.57 11.62,-1.67 11.61,-1.78 11.64,-1.88 11.66,-1.98 11.72,-2.07 11.78,-2.16 11.86,-2.23 11.94,-2.30 12.04,-2.33 12.14,-2.37 12.25,-2.37 12.36,-2.37 12.46,-2.34 12.56,-2.31 12.64,-2.25 12.73,-2.19 12.73,-2.19 12.73,-2.19 13.56,-1.49 14.40,-0.79 14.54,-0.78 14.69,-0.76 14.83,-0.71 14.97,-0.65 15.09,-0.57 15.21,-0.49 15.31,-0.38 15.40,-0.27 15.47,-0.14 15.54,-0.00 15.58,0.13 15.61,0.27 15.61,0.42 15.61,0.57 15.58,0.71 15.54,0.85 15.47,0.98 15.40,1.12 15.31,1.23 15.21,1.34 15.09,1.42 14.96,1.50 14.83,1.56 14.69,1.61 14.54,1.63 14.40,1.64 14.06,1.91 13.72,2.17 12.70,2.19 11.68,2.21 10.11,2.21 8.54,2.21 6.89,2.21 5.23,2.21 4.03,2.21 2.83,2.21 2.05,2.21 1.26,2.20 0.27,2.19 -0.71,2.17 -1.69,1.97 -2.66,1.76 -2.80,1.74 -2.95,1.73 -3.08,1.68 -3.21,1.63 -3.33,1.54 -3.45,1.46 -3.55,1.35 -3.64,1.25 -3.71,1.12 -3.78,0.99 -3.81,0.85 -3.84,0.71 -3.84,0.57 -3.84,0.43 -3.81,0.29 -3.78,0.15 -3.71,0.02 -3.64,-0.10 -3.55,-0.20 -3.45,-0.31 -3.33,-0.39 -3.21,-0.48 -3.08,-0.53 -2.95,-0.58 -2.80,-0.59 -2.66,-0.61 -2.59,-0.75 -2.52,-0.89 -1.83,-0.95 -1.15,-1.00 -0.57,-0.83 0,-0.65 0.07,-0.64 0.15,-0.63 0.23,-0.60 0.30,-0.58 0.37,-0.53 0.43,-0.49 0.48,-0.43 0.54,-0.37 0.57,-0.30 0.61,-0.23 0.63,-0.15 0.65,-0.07 0.65,0.00 0.65,0.07 0.63,0.15 0.61,0.23 0.57,0.30 0.54,0.37 0.48,0.43 0.43,0.49 0.37,0.53 0.30,0.58 0.23,0.60 0.15,0.63 0.07,0.64 -0.00,0.65 -0.00,0.65 L 0,0.65 Z"/></g><g transform="translate(23 195) rotate(0 3.5 1)" stroke="none"><path fill="#1971c2" d="M 0,0.65 Q 0,0.65 -0.74,0.87 -1.48,1.08 -2.06,0.64 -2.65,0.20 -2.86,-0.55 -3.07,-1.31 -2.80,-2.11 -2.52,-2.91 -1.79,-4.50 -1.07,-6.09 0.08,-7.74 1.23,-9.40 1.65,-10.28 2.08,-11.16 2.54,-12.38 3.01,-13.60 3.49,-14.96 3.98,-16.32 4.36,-16.69 4.74,-17.06 5.30,-14.94 5.87,-12.81 6.57,-10.42 7.27,-8.02 7.88,-5.50 8.48,-2.99 8.75,-0.40 9.01,2.18 8.82,4.24 8.63,6.30 7.93,8.16 7.22,10.03 6.26,11.22 5.29,12.41 4.25,13.22 3.21,14.03 2.18,14.66 1.14,15.29 0.24,16.06 -0.66,16.82 -1.35,17.45 -2.05,18.08 -2.48,17.72 -2.91,17.37 -2.20,17.33 -1.49,17.28 0.24,17.41 1.98,17.54 3.82,17.86 5.66,18.18 7.06,18.63 8.46,19.07 9.92,19.65 11.38,20.23 11.49,20.27 11.59,20.30 11.67,20.36 11.76,20.43 11.82,20.52 11.88,20.60 11.91,20.71 11.93,20.81 11.93,20.91 11.92,21.02 11.89,21.12 11.85,21.22 11.78,21.30 11.71,21.38 11.62,21.44 11.53,21.49 11.43,21.51 11.32,21.54 11.22,21.53 11.11,21.52 11.01,21.47 10.92,21.43 10.84,21.36 10.76,21.28 10.71,21.19 10.66,21.10 10.64,20.99 10.63,20.89 10.64,20.78 10.66,20.68 10.71,20.58 10.76,20.49 10.83,20.42 10.91,20.34 11.01,20.30 11.10,20.25 11.21,20.24 11.31,20.23 11.42,20.25 11.52,20.27 11.61,20.33 11.70,20.38 11.77,20.46 11.84,20.54 11.88,20.64 11.92,20.74 11.93,20.84 11.94,20.95 11.91,21.05 11.88,21.15 11.82,21.24 11.76,21.33 11.68,21.40 11.59,21.46 11.49,21.50 11.39,21.53 11.29,21.53 11.18,21.53 11.18,21.53 11.18,21.53 9.41,21.61 7.63,21.68 6.40,21.28 5.17,20.89 3.52,20.58 1.87,20.28 0.35,20.21 -1.16,20.14 -1.87,19.97 -2.58,19.79 -3.13,19.53 -3.67,19.27 -4.22,19.01 -4.76,18.75 -5.05,18.29 -5.34,17.82 -4.60,16.92 -3.85,16.02 -3.13,15.37 -2.41,14.72 -1.34,13.84 -0.27,12.95 0.64,12.40 1.55,11.85 2.38,11.24 3.22,10.62 3.96,9.81 4.69,9.00 5.29,7.50 5.89,6.01 6.06,4.23 6.23,2.45 6.00,0.05 5.76,-2.34 5.18,-4.79 4.60,-7.24 3.87,-9.76 3.14,-12.28 2.80,-14.04 2.47,-15.79 2.49,-16.73 2.51,-17.66 3.51,-18.40 4.51,-19.14 5.16,-18.86 5.82,-18.58 6.18,-17.05 6.55,-15.52 6.04,-14.07 5.53,-12.63 5.01,-11.30 4.50,-9.97 3.97,-8.91 3.43,-7.85 2.34,-6.30 1.24,-4.75 0.68,-3.87 0.13,-2.98 -0.34,-2.03 -0.81,-1.08 -0.40,-0.87 0,-0.65 0.07,-0.64 0.15,-0.63 0.23,-0.60 0.30,-0.58 0.37,-0.53 0.43,-0.49 0.48,-0.43 0.54,-0.37 0.57,-0.30 0.61,-0.23 0.63,-0.15 0.65,-0.07 0.65,0.00 0.65,0.07 0.63,0.15 0.61,0.23 0.57,0.30 0.54,0.37 0.48,0.43 0.43,0.49 0.37,0.53 0.30,0.58 0.23,0.60 0.15,0.63 0.07,0.64 -0.00,0.65 -0.00,0.65 L 0,0.65 Z"/></g><g transform="translate(413 503) rotate(0 1.5 12.5)" stroke="none"><path fill="#1971c2" d="M -0.65,0 Q -0.65,0 -0.93,-0.28 -1.21,-0.57 -1.19,-0.72 -1.18,-0.86 -1.13,-1.00 -1.07,-1.14 -0.99,-1.26 -0.91,-1.38 -0.80,-1.47 -0.69,-1.57 -0.56,-1.64 -0.43,-1.71 -0.28,-1.74 -0.14,-1.78 0.00,-1.78 0.14,-1.78 0.28,-1.74 0.43,-1.71 0.56,-1.64 0.69,-1.57 0.80,-1.47 0.91,-1.38 0.99,-1.26 1.07,-1.14 1.13,-1.00 1.18,-0.86 1.19,-0.72 1.21,-0.57 1.21,0.37 1.21,1.32 1.46,1.88 1.71,2.44 1.86,3.15 2.01,3.85 2.35,5.24 2.69,6.63 2.85,9.05 3.02,11.48 3.37,14.15 3.72,16.83 3.87,18.29 4.02,19.75 3.80,21.38 3.57,23.00 3.48,24.16 3.39,25.32 3.35,25.54 3.31,25.76 3.28,25.91 3.25,26.06 3.19,26.20 3.12,26.34 3.03,26.46 2.93,26.57 2.81,26.67 2.69,26.76 2.55,26.82 2.41,26.88 2.26,26.90 2.11,26.93 1.96,26.91 1.80,26.90 1.66,26.85 1.52,26.81 1.39,26.73 1.26,26.64 1.15,26.53 1.05,26.42 0.97,26.29 0.89,26.16 0.85,26.02 0.81,25.87 0.80,25.72 0.80,25.56 0.89,24.36 0.97,23.16 1.16,21.45 1.34,19.75 1.36,19.64 1.37,19.54 1.42,19.44 1.47,19.35 1.55,19.28 1.63,19.20 1.72,19.16 1.82,19.11 1.93,19.10 2.03,19.09 2.13,19.11 2.24,19.13 2.33,19.19 2.42,19.24 2.49,19.32 2.56,19.40 2.60,19.50 2.64,19.60 2.64,19.71 2.65,19.81 2.62,19.92 2.59,20.02 2.53,20.11 2.47,20.20 2.39,20.26 2.31,20.32 2.21,20.36 2.10,20.39 2.00,20.39 1.89,20.39 1.79,20.36 1.69,20.33 1.61,20.26 1.52,20.20 1.46,20.11 1.40,20.02 1.37,19.92 1.34,19.82 1.35,19.71 1.36,19.61 1.39,19.51 1.43,19.41 1.50,19.33 1.57,19.25 1.66,19.19 1.75,19.14 1.86,19.11 1.96,19.09 2.07,19.10 2.17,19.11 2.27,19.16 2.36,19.20 2.44,19.27 2.52,19.35 2.57,19.44 2.62,19.53 2.64,19.64 2.65,19.74 2.65,19.74 2.65,19.74 2.85,21.44 3.04,23.14 3.14,23.90 3.25,24.66 3.28,25.21 3.31,25.76 3.28,25.91 3.25,26.06 3.19,26.20 3.12,26.34 3.03,26.46 2.93,26.57 2.81,26.67 2.69,26.76 2.55,26.82 2.41,26.88 2.26,26.90 2.11,26.93 1.96,26.91 1.80,26.90 1.66,26.85 1.52,26.81 1.39,26.73 1.26,26.64 1.15,26.53 1.05,26.42 0.97,26.29 0.89,26.16 0.85,26.02 0.81,25.87 0.80,25.72 0.80,25.57 0.84,25.34 0.88,25.12 0.98,23.87 1.08,22.63 1.31,21.30 1.53,19.98 1.38,18.56 1.24,17.14 0.89,14.39 0.54,11.64 0.42,9.42 0.30,7.19 -0.12,5.25 -0.56,3.30 -0.88,2.33 -1.21,1.37 -1.21,0.40 -1.21,-0.57 -1.19,-0.72 -1.18,-0.86 -1.13,-1.00 -1.07,-1.14 -0.99,-1.26 -0.91,-1.38 -0.80,-1.47 -0.69,-1.57 -0.56,-1.64 -0.43,-1.71 -0.28,-1.74 -0.14,-1.78 -0.00,-1.78 0.14,-1.78 0.28,-1.74 0.43,-1.71 0.56,-1.64 0.69,-1.57 0.80,-1.47 0.91,-1.38 0.99,-1.26 1.07,-1.14 1.13,-1.00 1.18,-0.86 1.19,-0.72 1.21,-0.57 0.93,-0.28 0.65,0 0.64,0.07 0.63,0.15 0.60,0.23 0.58,0.30 0.53,0.37 0.49,0.43 0.43,0.48 0.37,0.54 0.30,0.57 0.23,0.61 0.15,0.63 0.07,0.65 -0.00,0.65 -0.07,0.65 -0.15,0.63 -0.23,0.61 -0.30,0.57 -0.37,0.54 -0.43,0.48 -0.49,0.43 -0.53,0.37 -0.58,0.30 -0.60,0.23 -0.63,0.15 -0.64,0.07 -0.65,-0.00 -0.65,-0.00 L -0.65,0 Z"/></g><g transform="translate(409 564) rotate(0 8.5 -1.5)" stroke="none"><path fill="#1971c2" d="M 0.58,-0.29 Q 0.58,-0.29 0.46,-0.13 0.34,0.03 0.90,-1.02 1.45,-2.08 1.92,-2.61 2.39,-3.14 3.46,-4.23 4.52,-5.31 5.46,-6.81 6.40,-8.31 7.41,-9.86 8.42,-11.41 8.78,-12.47 9.14,-13.54 8.88,-11.55 8.62,-9.56 8.83,-7.18 9.03,-4.80 9.40,-2.35 9.76,0.10 10.20,1.97 10.64,3.85 10.81,5.12 10.98,6.39 10.43,7.51 9.87,8.62 9.28,9.33 8.70,10.04 7.65,10.48 6.60,10.92 6.13,11.25 5.66,11.57 5.18,11.98 4.69,12.39 4.17,12.87 3.65,13.35 3.51,13.44 3.37,13.53 3.21,13.58 3.05,13.63 2.89,13.65 2.72,13.66 2.56,13.64 2.39,13.61 2.24,13.55 2.08,13.48 1.95,13.38 1.82,13.29 1.71,13.16 1.60,13.03 1.53,12.88 1.46,12.73 1.42,12.57 1.39,12.40 1.40,12.24 1.40,12.07 1.45,11.91 1.49,11.75 1.57,11.61 1.66,11.46 1.77,11.34 1.89,11.22 2.95,10.94 4.02,10.66 4.88,10.64 5.74,10.63 6.68,10.62 7.62,10.61 9.29,10.91 10.96,11.21 11.87,11.32 12.78,11.44 13.70,11.49 14.62,11.54 14.92,10.66 15.21,9.77 15.29,9.79 15.36,9.80 15.44,9.83 15.51,9.87 15.57,9.91 15.63,9.96 15.68,10.02 15.73,10.09 15.77,10.16 15.80,10.23 15.81,10.31 15.83,10.39 15.82,10.46 15.82,10.54 15.80,10.62 15.77,10.70 15.73,10.76 15.69,10.83 15.64,10.89 15.58,10.94 15.51,10.99 15.45,11.03 15.37,11.05 15.30,11.08 15.22,11.08 15.14,11.09 14.83,10.78 14.52,10.47 14.53,10.37 14.54,10.26 14.58,10.16 14.63,10.07 14.70,9.99 14.77,9.91 14.86,9.86 14.96,9.81 15.06,9.79 15.17,9.77 15.27,9.79 15.38,9.81 15.47,9.86 15.57,9.90 15.64,9.98 15.71,10.06 15.76,10.15 15.80,10.25 15.82,10.36 15.83,10.46 15.81,10.56 15.78,10.67 15.73,10.76 15.68,10.85 15.60,10.92 15.52,10.99 15.42,11.03 15.32,11.07 15.21,11.08 15.11,11.08 15.00,11.06 14.90,11.03 14.81,10.97 14.72,10.91 14.66,10.83 14.59,10.74 14.56,10.64 14.53,10.54 14.52,10.44 14.52,10.33 14.56,10.23 14.59,10.13 14.65,10.04 14.72,9.96 14.80,9.90 14.89,9.84 14.99,9.81 15.10,9.78 15.20,9.78 15.31,9.79 15.41,9.83 15.51,9.87 15.59,9.93 15.67,10.00 15.73,10.09 15.78,10.18 15.49,9.98 15.21,9.77 15.29,9.79 15.36,9.80 15.44,9.83 15.51,9.87 15.57,9.91 15.63,9.96 15.68,10.02 15.73,10.09 15.77,10.16 15.80,10.23 15.81,10.31 15.83,10.39 15.82,10.46 15.82,10.54 15.80,10.62 15.77,10.70 15.73,10.76 15.69,10.83 15.64,10.89 15.58,10.94 15.51,10.99 15.45,11.03 15.37,11.05 15.30,11.08 15.22,11.08 15.14,11.09 14.81,12.69 14.48,14.30 13.45,14.25 12.42,14.20 11.44,14.07 10.46,13.94 9.04,13.67 7.63,13.39 6.71,13.40 5.79,13.41 4.72,13.38 3.65,13.35 3.51,13.44 3.37,13.53 3.21,13.58 3.05,13.63 2.89,13.65 2.72,13.66 2.56,13.64 2.39,13.61 2.24,13.55 2.08,13.48 1.95,13.38 1.82,13.29 1.71,13.16 1.60,13.03 1.53,12.88 1.46,12.73 1.42,12.57 1.39,12.40 1.40,12.24 1.40,12.07 1.45,11.91 1.49,11.75 1.57,11.61 1.66,11.46 1.77,11.34 1.89,11.22 2.41,10.74 2.93,10.26 3.55,9.75 4.17,9.24 5.46,8.70 6.76,8.15 7.17,7.64 7.58,7.13 8.01,6.73 8.45,6.33 8.24,5.39 8.03,4.45 7.58,2.47 7.12,0.50 6.74,-2.04 6.36,-4.59 6.16,-7.21 5.96,-9.84 6.22,-11.89 6.49,-13.94 7.24,-15.10 7.99,-16.27 8.83,-16.43 9.66,-16.58 10.51,-15.84 11.36,-15.11 11.47,-13.96 11.58,-12.81 11.08,-11.42 10.59,-10.02 9.58,-8.47 8.57,-6.93 7.47,-5.23 6.37,-3.52 5.34,-2.47 4.31,-1.42 3.65,-0.68 2.99,0.05 2.69,0.69 2.40,1.33 1.60,1.80 0.80,2.26 0.10,1.28 -0.58,0.29 -0.61,0.21 -0.64,0.14 -0.64,0.06 -0.65,-0.01 -0.64,-0.09 -0.63,-0.16 -0.60,-0.24 -0.57,-0.31 -0.52,-0.38 -0.48,-0.44 -0.42,-0.49 -0.36,-0.54 -0.29,-0.58 -0.22,-0.61 -0.14,-0.63 -0.06,-0.65 0.01,-0.65 0.09,-0.65 0.16,-0.62 0.24,-0.60 0.31,-0.57 0.38,-0.53 0.44,-0.47 0.50,-0.42 0.54,-0.35 0.58,-0.29 0.58,-0.29 L 0.58,-0.29 Z"/></g><g stroke-linecap="round"><g transform="translate(413 508) rotate(0 1.0658141036401503e-14 -164.5)"><path d="M-0.96 0.11 C-0.65 -54.52, 0.76 -274.05, 0.96 -328.96" stroke="#1971c2" stroke-width="1" fill="none" stroke-dasharray="8 8.5"/></g></g><mask/><g stroke-linecap="round"><g transform="translate(62 187) rotate(0 176 0)"><path d="M-0.34 0.13 C58.47 -0.12, 293.42 -0.9, 352.11 -0.77" stroke="#1971c2" stroke-width="1" fill="none" stroke-dasharray="8 8.5"/></g></g><mask/><g stroke-linecap="round"><g transform="translate(59 511) rotate(0 176.5 -162.5)"><path d="M-0.6 0.47 C58.27 -53.4, 294.17 -269.72, 352.92 -323.81 M1.29 -0.33 C60.01 -54.45, 293.1 -271.04, 351.94 -325.31" stroke="#f08c00" stroke-width="4" fill="none"/></g></g><mask/><g transform="translate(106 397) rotate(0 12 -3.5)" stroke="none"><path fill="#f08c00" d="M -0.63,-0.15 Q -0.63,-0.15 -0.59,-1.37 -0.55,-2.58 -0.44,-3.30 -0.32,-4.03 0.03,-5.05 0.40,-6.06 0.52,-6.91 0.64,-7.77 1.04,-8.63 1.44,-9.49 2.16,-10.93 2.88,-12.38 3.73,-14.67 4.58,-16.95 5.21,-19.88 5.83,-22.81 6.42,-24.45 7.01,-26.09 7.22,-27.51 7.43,-28.93 7.55,-29.75 7.67,-30.58 8.32,-30.47 8.97,-30.36 8.33,-29.98 7.69,-29.61 7.02,-28.20 6.35,-26.80 5.73,-25.05 5.10,-23.30 4.54,-21.14 3.98,-18.98 3.75,-16.97 3.52,-14.96 3.70,-13.64 3.89,-12.32 3.95,-11.74 4.02,-11.17 4.81,-11.24 5.60,-11.31 6.86,-11.27 8.12,-11.23 9.64,-10.91 11.16,-10.59 12.42,-10.15 13.69,-9.70 14.98,-8.50 16.27,-7.31 16.86,-5.49 17.45,-3.67 17.94,-1.83 18.42,0.00 18.64,1.71 18.86,3.43 18.95,4.72 19.04,6.02 19.30,6.65 19.57,7.28 20.65,8.22 21.74,9.15 22.20,10.57 22.66,11.98 22.53,13.55 22.39,15.12 22.03,16.64 21.66,18.16 20.87,19.51 20.09,20.86 19.16,22.03 18.23,23.19 16.84,24.08 15.46,24.97 14.18,25.36 12.91,25.75 11.39,24.90 9.87,24.05 10.10,22.52 10.33,20.99 11.34,18.23 12.34,15.47 13.93,12.26 15.52,9.06 17.07,6.26 18.62,3.46 20.70,1.86 22.77,0.26 22.86,0.20 22.95,0.14 23.05,0.11 23.15,0.08 23.26,0.09 23.36,0.09 23.46,0.13 23.56,0.17 23.64,0.24 23.72,0.31 23.78,0.40 23.83,0.49 23.86,0.59 23.88,0.69 23.87,0.80 23.86,0.91 23.82,1.00 23.77,1.10 23.70,1.18 23.63,1.25 23.53,1.31 23.44,1.36 23.34,1.37 23.23,1.39 23.13,1.38 23.02,1.36 22.93,1.31 22.83,1.26 22.76,1.18 22.69,1.11 22.64,1.01 22.59,0.92 22.58,0.81 22.57,0.70 22.59,0.60 22.61,0.50 22.67,0.41 22.72,0.31 22.80,0.24 22.88,0.18 22.98,0.13 23.08,0.09 23.19,0.09 23.29,0.08 23.39,0.11 23.50,0.14 23.59,0.20 23.67,0.25 23.74,0.34 23.80,0.42 23.84,0.52 23.87,0.62 23.87,0.73 23.87,0.84 23.84,0.94 23.81,1.04 23.75,1.12 23.68,1.21 23.68,1.21 23.68,1.21 22.27,2.97 20.85,4.73 19.35,7.47 17.85,10.21 16.32,13.29 14.78,16.36 13.84,18.90 12.90,21.44 12.63,22.91 12.36,24.39 12.35,23.84 12.34,23.30 13.26,23.06 14.19,22.82 15.28,22.21 16.37,21.61 17.21,20.61 18.05,19.62 18.71,18.59 19.37,17.57 19.71,16.21 20.04,14.85 20.21,13.70 20.38,12.55 20.20,11.62 20.02,10.70 19.32,10.04 18.62,9.38 18.04,8.82 17.46,8.26 17.08,7.24 16.70,6.21 16.61,4.96 16.53,3.72 16.33,2.16 16.14,0.59 15.67,-1.21 15.19,-3.02 14.87,-4.39 14.55,-5.76 13.69,-6.64 12.83,-7.53 11.74,-7.91 10.66,-8.30 9.35,-8.59 8.04,-8.88 6.71,-8.93 5.38,-8.97 4.13,-9.24 2.89,-9.51 2.22,-10.75 1.56,-12.00 1.37,-13.61 1.18,-15.21 1.43,-17.39 1.68,-19.56 2.26,-21.84 2.83,-24.11 3.51,-26.03 4.19,-27.95 5.25,-29.77 6.30,-31.58 7.02,-32.02 7.74,-32.45 8.88,-31.55 10.02,-30.64 9.93,-29.59 9.84,-28.55 9.57,-26.91 9.30,-25.27 8.75,-23.78 8.20,-22.29 7.50,-19.20 6.80,-16.12 5.88,-13.73 4.97,-11.34 4.24,-9.89 3.52,-8.44 3.22,-7.92 2.93,-7.39 2.76,-6.32 2.58,-5.25 2.27,-4.46 1.96,-3.66 1.83,-2.84 1.70,-2.01 1.16,-0.92 0.63,0.15 0.60,0.23 0.58,0.30 0.53,0.37 0.49,0.43 0.43,0.48 0.37,0.54 0.30,0.57 0.23,0.61 0.15,0.63 0.07,0.65 -0.00,0.65 -0.08,0.65 -0.15,0.63 -0.23,0.61 -0.30,0.57 -0.37,0.53 -0.43,0.48 -0.49,0.43 -0.53,0.36 -0.58,0.30 -0.61,0.22 -0.63,0.15 -0.64,0.07 -0.65,-0.00 -0.64,-0.08 -0.63,-0.15 -0.63,-0.15 L -0.63,-0.15 Z"/></g><g transform="translate(135 410) rotate(0 5.5 -5)" stroke="none"><path fill="#f08c00" d="M -0.65,0 Q -0.65,0 -0.86,-0.86 -1.06,-1.72 -1.07,-2.66 -1.07,-3.60 -1.07,-4.29 -1.07,-4.98 -1.07,-5.85 -1.07,-6.71 -1.07,-7.94 -1.07,-9.18 -1.07,-10.27 -1.07,-11.37 -0.77,-11.94 -0.48,-12.51 0.41,-12.48 1.31,-12.46 2.04,-11.69 2.77,-10.92 3.37,-9.99 3.97,-9.06 4.29,-8.24 4.61,-7.43 5.00,-6.58 5.39,-5.73 5.61,-4.35 5.82,-2.97 5.89,-2.13 5.97,-1.29 5.95,-0.50 5.93,0.29 5.56,0.84 5.18,1.39 4.78,1.79 4.39,2.20 4.04,2.87 3.69,3.54 3.58,3.62 3.46,3.71 3.34,3.77 3.21,3.83 3.07,3.85 2.93,3.88 2.79,3.87 2.65,3.86 2.51,3.82 2.38,3.78 2.25,3.70 2.13,3.63 2.03,3.53 1.93,3.43 1.86,3.31 1.79,3.19 1.75,3.05 1.70,2.92 1.70,2.78 1.69,2.63 1.71,2.50 1.74,2.36 1.80,2.23 1.86,2.10 1.94,1.99 2.03,1.88 2.33,1.34 2.63,0.80 3.65,-0.25 4.68,-1.31 5.97,-2.61 7.26,-3.91 8.63,-4.92 10.01,-5.93 10.09,-5.99 10.18,-6.06 10.28,-6.09 10.38,-6.12 10.49,-6.12 10.59,-6.11 10.69,-6.08 10.79,-6.04 10.88,-5.97 10.96,-5.91 11.02,-5.82 11.07,-5.73 11.10,-5.63 11.13,-5.52 11.12,-5.42 11.11,-5.31 11.07,-5.21 11.03,-5.12 10.96,-5.04 10.88,-4.96 10.79,-4.91 10.70,-4.85 10.60,-4.83 10.49,-4.81 10.39,-4.83 10.28,-4.84 10.19,-4.89 10.09,-4.93 10.01,-5.01 9.94,-5.08 9.89,-5.18 9.84,-5.27 9.83,-5.38 9.82,-5.48 9.83,-5.59 9.85,-5.69 9.91,-5.79 9.96,-5.88 10.04,-5.95 10.12,-6.02 10.21,-6.06 10.31,-6.10 10.42,-6.11 10.52,-6.12 10.63,-6.10 10.73,-6.07 10.82,-6.02 10.91,-5.96 10.98,-5.88 11.04,-5.79 11.08,-5.69 11.12,-5.59 11.12,-5.49 11.12,-5.38 11.09,-5.28 11.06,-5.18 11.00,-5.09 10.94,-5.01 10.94,-5.01 10.94,-5.01 9.94,-3.63 8.94,-2.25 7.66,-0.95 6.38,0.33 5.42,1.31 4.46,2.29 4.08,2.92 3.69,3.54 3.58,3.62 3.46,3.71 3.34,3.77 3.21,3.83 3.07,3.85 2.93,3.88 2.79,3.87 2.65,3.86 2.51,3.82 2.38,3.78 2.26,3.70 2.13,3.63 2.03,3.53 1.93,3.43 1.86,3.31 1.79,3.19 1.75,3.05 1.70,2.92 1.70,2.78 1.69,2.64 1.71,2.50 1.74,2.36 1.80,2.23 1.86,2.10 1.94,1.99 2.03,1.88 1.88,2.12 1.72,2.37 2.26,1.49 2.80,0.60 3.30,-0.24 3.80,-1.10 3.74,-1.89 3.67,-2.67 3.54,-3.76 3.41,-4.85 3.00,-5.76 2.58,-6.67 2.36,-7.29 2.14,-7.90 1.54,-9.12 0.94,-10.33 0.38,-10.82 -0.16,-11.31 0.45,-11.34 1.07,-11.37 1.07,-10.27 1.07,-9.18 1.07,-7.94 1.07,-6.71 1.07,-5.85 1.07,-4.98 1.07,-4.29 1.07,-3.60 1.07,-2.66 1.06,-1.72 0.86,-0.86 0.65,0 0.64,0.07 0.63,0.15 0.60,0.23 0.58,0.30 0.53,0.37 0.49,0.43 0.43,0.48 0.37,0.54 0.30,0.57 0.23,0.61 0.15,0.63 0.07,0.65 -0.00,0.65 -0.07,0.65 -0.15,0.63 -0.23,0.61 -0.30,0.57 -0.37,0.54 -0.43,0.48 -0.49,0.43 -0.53,0.37 -0.58,0.30 -0.60,0.23 -0.63,0.15 -0.64,0.07 -0.65,-0.00 -0.65,-0.00 L -0.65,0 Z"/></g><g transform="translate(137 371) rotate(0 6 -3)" stroke="none"><path fill="#f08c00" d="M -0.36,-0.54 Q -0.36,-0.54 0.43,-1.21 1.23,-1.89 1.97,-2.18 2.72,-2.47 3.54,-2.85 4.36,-3.23 5.87,-3.96 7.37,-4.69 9.15,-5.45 10.94,-6.20 11.04,-6.24 11.14,-6.27 11.25,-6.26 11.35,-6.26 11.45,-6.22 11.55,-6.19 11.64,-6.12 11.72,-6.05 11.78,-5.96 11.83,-5.88 11.86,-5.77 11.88,-5.67 11.88,-5.56 11.87,-5.46 11.82,-5.36 11.78,-5.26 11.71,-5.18 11.64,-5.10 11.55,-5.05 11.46,-5.00 11.35,-4.98 11.25,-4.96 11.14,-4.97 11.04,-4.99 10.94,-5.04 10.85,-5.08 10.77,-5.16 10.70,-5.23 10.65,-5.33 10.60,-5.42 10.59,-5.53 10.57,-5.63 10.59,-5.74 10.61,-5.84 10.67,-5.94 10.72,-6.03 10.80,-6.10 10.88,-6.17 10.97,-6.21 11.07,-6.25 11.18,-6.26 11.28,-6.27 11.39,-6.25 11.49,-6.22 11.58,-6.16 11.67,-6.10 11.74,-6.02 11.80,-5.94 11.84,-5.84 11.87,-5.74 11.88,-5.63 11.88,-5.53 11.85,-5.43 11.82,-5.32 11.76,-5.24 11.69,-5.15 11.61,-5.09 11.52,-5.03 11.52,-5.03 11.52,-5.03 9.84,-4.07 8.15,-3.10 6.63,-2.35 5.11,-1.61 4.22,-1.20 3.34,-0.80 2.77,-0.60 2.21,-0.40 1.28,0.06 0.36,0.54 0.29,0.58 0.22,0.61 0.14,0.63 0.06,0.65 -0.01,0.65 -0.08,0.65 -0.16,0.63 -0.24,0.61 -0.31,0.57 -0.38,0.53 -0.44,0.48 -0.49,0.42 -0.54,0.36 -0.58,0.29 -0.61,0.22 -0.64,0.14 -0.64,0.06 -0.65,-0.01 -0.64,-0.08 -0.63,-0.16 -0.60,-0.24 -0.57,-0.31 -0.53,-0.37 -0.48,-0.44 -0.42,-0.49 -0.36,-0.54 -0.36,-0.54 L -0.36,-0.54 Z"/></g><g transform="translate(145 381) rotate(0 4 -4)" stroke="none"><path fill="#f08c00" d="M -0.52,-0.39 Q -0.52,-0.39 0.25,-1.60 1.04,-2.82 1.76,-3.38 2.49,-3.94 3.11,-4.88 3.73,-5.81 5.46,-7.00 7.20,-8.19 7.29,-8.24 7.38,-8.29 7.48,-8.32 7.59,-8.34 7.69,-8.32 7.80,-8.31 7.90,-8.27 7.99,-8.22 8.07,-8.15 8.14,-8.07 8.19,-7.98 8.24,-7.88 8.26,-7.78 8.27,-7.67 8.25,-7.57 8.23,-7.46 8.18,-7.37 8.13,-7.28 8.05,-7.20 7.98,-7.13 7.88,-7.09 7.78,-7.05 7.68,-7.04 7.57,-7.03 7.47,-7.05 7.36,-7.07 7.27,-7.13 7.18,-7.19 7.12,-7.27 7.05,-7.35 7.01,-7.45 6.97,-7.55 6.97,-7.66 6.96,-7.76 6.99,-7.86 7.02,-7.97 7.08,-8.05 7.14,-8.14 7.23,-8.20 7.32,-8.27 7.42,-8.30 7.52,-8.33 7.62,-8.33 7.73,-8.33 7.83,-8.29 7.93,-8.26 8.01,-8.19 8.10,-8.13 8.16,-8.04 8.21,-7.95 8.24,-7.85 8.27,-7.74 8.26,-7.64 8.25,-7.53 8.21,-7.43 8.17,-7.33 8.10,-7.25 8.03,-7.17 8.03,-7.17 8.03,-7.17 6.55,-5.94 5.06,-4.70 4.70,-4.27 4.34,-3.84 3.95,-3.22 3.57,-2.60 2.99,-2.19 2.40,-1.77 1.46,-0.69 0.52,0.39 0.47,0.45 0.41,0.50 0.34,0.55 0.28,0.59 0.20,0.61 0.13,0.64 0.05,0.64 -0.02,0.65 -0.10,0.64 -0.18,0.63 -0.25,0.59 -0.32,0.56 -0.39,0.52 -0.45,0.47 -0.50,0.41 -0.55,0.35 -0.58,0.27 -0.62,0.20 -0.63,0.13 -0.65,0.05 -0.65,-0.02 -0.64,-0.10 -0.62,-0.18 -0.60,-0.25 -0.56,-0.32 -0.52,-0.39 -0.52,-0.39 L -0.52,-0.39 Z"/></g><g transform="translate(169 352) rotate(0 5.5 6)" stroke="none"><path fill="#f08c00" d="M -0.65,0 Q -0.65,0 -0.88,-0.34 -1.10,-0.69 -0.74,-1.36 -0.38,-2.03 0.01,-3.18 0.41,-4.33 0.85,-5.25 1.28,-6.18 2.02,-7.97 2.75,-9.77 3.34,-11.64 3.93,-13.52 4.17,-14.82 4.42,-16.13 4.34,-16.65 4.27,-17.18 3.65,-16.64 3.04,-16.10 2.18,-15.03 1.33,-13.95 0.41,-12.14 -0.50,-10.32 -1.18,-8.68 -1.87,-7.04 -2.13,-5.31 -2.39,-3.58 -2.24,-2.40 -2.09,-1.23 -1.58,-0.63 -1.06,-0.03 -0.42,0.16 0.20,0.37 1.00,0.48 1.81,0.60 2.73,0.66 3.66,0.72 4.55,1.09 5.45,1.45 6.39,1.94 7.33,2.43 7.92,3.40 8.51,4.38 8.72,5.74 8.93,7.09 9.00,8.22 9.07,9.35 8.79,10.55 8.52,11.75 8.41,12.62 8.30,13.49 8.91,13.61 9.52,13.72 10.70,14.14 11.89,14.55 12.76,15.32 13.62,16.09 14.34,17.07 15.05,18.06 15.41,19.50 15.76,20.95 15.59,22.27 15.41,23.59 14.69,24.84 13.96,26.08 13.36,26.87 12.76,27.65 11.82,28.37 10.88,29.08 9.77,29.42 8.67,29.77 8.01,29.84 7.35,29.92 6.77,30.33 6.18,30.74 5.01,31.14 3.85,31.54 3.38,30.65 2.91,29.76 2.89,29.19 2.87,28.62 3.21,27.87 3.55,27.11 3.95,26.35 4.34,25.60 5.08,24.12 5.83,22.65 6.72,20.62 7.61,18.59 8.73,16.88 9.85,15.17 10.49,13.78 11.13,12.40 11.18,12.31 11.24,12.22 11.32,12.15 11.40,12.08 11.50,12.04 11.60,12.00 11.70,11.99 11.81,11.99 11.91,12.02 12.01,12.04 12.10,12.10 12.19,12.16 12.25,12.25 12.32,12.33 12.35,12.43 12.39,12.53 12.39,12.64 12.39,12.74 12.35,12.85 12.32,12.95 12.26,13.03 12.19,13.12 12.11,13.18 12.02,13.24 11.92,13.26 11.81,13.29 11.71,13.29 11.60,13.28 11.50,13.24 11.40,13.20 11.32,13.14 11.24,13.07 11.19,12.98 11.13,12.89 11.11,12.78 11.08,12.68 11.10,12.57 11.11,12.47 11.15,12.37 11.20,12.27 11.27,12.20 11.34,12.12 11.43,12.07 11.53,12.02 11.63,12.00 11.74,11.98 11.84,12.00 11.95,12.02 12.04,12.07 12.14,12.12 12.21,12.19 12.28,12.27 12.33,12.37 12.37,12.46 12.38,12.57 12.40,12.67 12.37,12.78 12.35,12.88 12.35,12.88 12.35,12.88 11.84,14.43 11.32,15.97 10.53,17.74 9.74,19.51 8.85,21.62 7.95,23.72 7.20,25.21 6.46,26.70 5.83,27.70 5.20,28.70 4.77,29.25 4.34,29.81 4.97,29.24 5.59,28.68 6.12,28.21 6.64,27.75 7.34,27.61 8.04,27.47 8.78,27.31 9.52,27.14 10.21,26.66 10.90,26.18 11.42,25.50 11.95,24.83 12.52,23.99 13.10,23.15 13.27,22.27 13.45,21.39 13.28,20.37 13.10,19.35 12.57,18.59 12.05,17.83 11.35,17.19 10.65,16.55 9.89,16.29 9.13,16.04 8.53,15.91 7.93,15.79 7.32,15.41 6.71,15.03 6.36,14.26 6.01,13.50 6.12,12.34 6.24,11.18 6.48,10.32 6.72,9.46 6.66,8.43 6.60,7.40 6.49,6.39 6.38,5.38 6.23,4.85 6.08,4.32 5.28,3.96 4.47,3.61 3.96,3.34 3.45,3.07 2.43,3.00 1.42,2.93 0.35,2.73 -0.71,2.53 -1.77,2.00 -2.83,1.46 -3.60,0.32 -4.38,-0.80 -4.55,-2.37 -4.72,-3.93 -4.39,-5.93 -4.05,-7.93 -3.33,-9.66 -2.62,-11.38 -1.59,-13.43 -0.56,-15.47 0.45,-16.72 1.47,-17.98 2.57,-18.70 3.67,-19.42 4.96,-18.82 6.25,-18.21 6.53,-16.98 6.81,-15.75 6.53,-14.27 6.25,-12.78 5.62,-10.81 4.99,-8.84 4.21,-6.99 3.44,-5.14 3.00,-4.26 2.57,-3.38 2.26,-2.69 1.95,-2.01 1.52,-1.23 1.10,-0.45 0.88,-0.22 0.65,0 0.64,0.07 0.63,0.15 0.60,0.23 0.58,0.30 0.53,0.37 0.49,0.43 0.43,0.48 0.37,0.54 0.30,0.57 0.23,0.61 0.15,0.63 0.07,0.65 -0.00,0.65 -0.07,0.65 -0.15,0.63 -0.23,0.61 -0.30,0.57 -0.37,0.54 -0.43,0.48 -0.49,0.43 -0.53,0.37 -0.58,0.30 -0.60,0.23 -0.63,0.15 -0.64,0.07 -0.65,-0.00 -0.65,-0.00 L -0.65,0 Z"/></g><g transform="translate(188 363) rotate(0 10.5 0.5)" stroke="none"><path fill="#f08c00" d="M -0.63,-0.15 Q -0.63,-0.15 -0.53,-1.35 -0.43,-2.55 0.01,-3.45 0.47,-4.34 1.01,-5.06 1.56,-5.78 2.53,-6.20 3.51,-6.63 4.23,-6.76 4.94,-6.89 6.08,-6.60 7.21,-6.30 8.10,-5.11 9.00,-3.93 9.06,-2.11 9.13,-0.29 8.83,1.33 8.53,2.95 8.19,3.73 7.84,4.52 9.05,3.57 10.26,2.62 11.11,1.91 11.96,1.19 13.17,0.04 14.38,-1.09 16.93,-3.26 19.48,-5.43 19.57,-5.49 19.66,-5.55 19.76,-5.58 19.86,-5.61 19.97,-5.61 20.07,-5.60 20.17,-5.57 20.27,-5.53 20.35,-5.46 20.44,-5.39 20.49,-5.30 20.55,-5.21 20.57,-5.11 20.60,-5.01 20.59,-4.90 20.58,-4.80 20.54,-4.70 20.49,-4.60 20.42,-4.52 20.35,-4.44 20.26,-4.39 20.17,-4.34 20.06,-4.32 19.96,-4.30 19.85,-4.32 19.75,-4.33 19.65,-4.38 19.56,-4.43 19.48,-4.50 19.41,-4.58 19.36,-4.68 19.31,-4.77 19.30,-4.88 19.29,-4.98 19.31,-5.09 19.33,-5.19 19.38,-5.28 19.43,-5.37 19.51,-5.44 19.59,-5.51 19.69,-5.56 19.79,-5.60 19.90,-5.61 20.00,-5.61 20.10,-5.59 20.21,-5.56 20.30,-5.50 20.39,-5.44 20.45,-5.36 20.52,-5.28 20.55,-5.18 20.59,-5.08 20.59,-4.97 20.59,-4.87 20.56,-4.76 20.53,-4.66 20.47,-4.58 20.40,-4.49 20.40,-4.49 20.40,-4.49 18.18,-1.96 15.96,0.56 14.71,1.77 13.46,2.97 12.57,3.72 11.68,4.48 10.02,5.55 8.37,6.63 7.44,6.24 6.52,5.86 6.42,4.19 6.32,2.53 6.61,1.10 6.90,-0.31 7.00,-1.61 7.09,-2.91 6.70,-3.66 6.31,-4.40 5.26,-4.49 4.20,-4.59 3.63,-4.49 3.07,-4.39 2.69,-3.87 2.31,-3.36 1.95,-2.70 1.58,-2.04 1.11,-0.94 0.63,0.15 0.60,0.23 0.58,0.30 0.53,0.37 0.49,0.43 0.43,0.48 0.37,0.54 0.30,0.57 0.23,0.61 0.15,0.63 0.07,0.65 -0.00,0.65 -0.08,0.65 -0.15,0.63 -0.23,0.61 -0.30,0.57 -0.37,0.53 -0.43,0.48 -0.49,0.43 -0.53,0.36 -0.58,0.30 -0.61,0.22 -0.63,0.15 -0.64,0.07 -0.65,-0.00 -0.64,-0.08 -0.63,-0.15 -0.63,-0.15 L -0.63,-0.15 Z"/></g></svg>